<svg width="93" height="48" viewBox="0 0 93 48" fill="none" xmlns="http://www.w3.org/2000/svg">
<path d="M31.4887 34.6482V43.4724C29.485 43.4724 27.5793 43.4793 25.6736 43.4558C25.548 43.4545 25.3671 43.2404 25.316 43.0885C25.2524 42.9021 25.2966 42.6798 25.2966 42.4726C25.2966 34.6717 25.4168 26.8681 25.2524 19.0699C25.1489 14.1773 28.4162 10.8879 32.5424 10.2181C35.7724 9.69343 38.903 9.75557 41.8692 11.3602C43.3082 12.139 44.4447 13.2189 45.2498 14.6206C46.2675 16.3923 46.9511 18.2856 47.0933 20.3487C47.2549 22.699 47.2908 25.0411 46.6417 27.3362C45.4003 31.7331 42.0294 34.4936 37.4806 34.8858C35.5901 35.0487 33.7134 35.0266 31.8492 34.6482C31.7649 34.6317 31.6738 34.6455 31.4874 34.6455L31.4887 34.6482ZM31.5053 23.5497C31.5053 25.5507 31.5136 27.5502 31.4984 29.5512C31.4957 29.9669 31.5937 30.192 32.0522 30.2127C33.2453 30.2665 34.4398 30.4405 35.6274 30.3977C38.5923 30.2914 40.2439 28.8318 40.7755 25.9138C41.2133 23.5083 41.1028 21.1013 40.5629 18.7233C40.1513 16.9101 39.1764 15.5568 37.2251 15.2088C35.876 14.9686 34.5185 15.0169 33.2052 15.456C31.9997 15.8593 31.515 16.547 31.5081 17.8243C31.4984 19.7328 31.5053 21.6412 31.5053 23.5497Z" fill="#9F9F9F"/>
<path d="M17.3427 19.3574C17.623 17.2266 16.2269 15.3734 13.9858 15.0268C11.2336 14.6015 8.53379 14.9812 5.89206 15.8167C5.65868 15.8899 5.42254 15.9589 5.08974 16.0597C5.08974 14.4468 5.08145 12.914 5.10631 11.3825C5.10769 11.2665 5.31897 11.0911 5.46397 11.0469C9.40654 9.84558 13.4002 9.3512 17.4022 10.6354C20.9167 11.7637 23.0254 14.3101 23.3513 17.942C23.6523 21.2962 23.6827 24.7072 23.4645 28.0683C23.2725 31.0153 21.4732 33.2082 18.7555 34.3019C14.8378 35.8789 10.8 35.8596 6.96229 34.034C4.19904 32.7207 2.80982 30.3193 2.61787 27.2329C2.38173 23.4367 4.7307 20.6072 8.32251 19.6612C11.1562 18.9155 14.0147 19.0122 16.8856 19.3105C17.0389 19.327 17.1922 19.3422 17.3427 19.3574ZM17.4311 23.2945C15.3348 22.963 13.1917 22.7918 11.0582 23.3276C10.0805 23.5734 9.18973 24.0084 8.77407 25.0344C8.06289 26.791 8.97016 28.9508 10.7446 29.597C12.3038 30.1646 13.9001 30.1674 15.4689 29.6178C16.5792 29.2297 17.3166 28.4288 17.4077 27.2522C17.5071 25.9776 17.4297 24.6892 17.4297 23.2931L17.4311 23.2945Z" fill="#9F9F9F"/>
<path d="M65.2826 10.0126C66.0752 10.0126 66.756 10.0126 67.4368 10.0126C68.6562 10.0126 69.8769 10.0361 71.0949 10.0016C71.6128 9.9864 71.8572 10.1383 72.0243 10.6561C73.6731 15.7739 75.351 20.8833 77.0219 25.9942C77.1061 26.2524 77.2014 26.5065 77.3533 26.9346C77.7966 25.5674 78.1929 24.3577 78.5796 23.1453C79.915 18.9638 81.2559 14.7851 82.5664 10.5954C82.7335 10.0637 82.9654 9.8704 83.5289 9.88559C85.0921 9.92425 86.6581 9.89802 88.2227 9.90078C88.4464 9.90078 88.6687 9.92149 89.0001 9.93806C88.7516 10.6382 88.5375 11.2582 88.3124 11.8755C85.3614 19.9719 82.4255 28.0752 79.4427 36.1606C78.7094 38.1491 77.7428 40.0424 76.3232 41.6512C74.0115 44.2708 70.4321 45.1035 67.2021 43.782C67.0212 43.7074 66.7671 43.503 66.7643 43.3553C66.7326 41.8017 66.745 40.2468 66.745 38.7084C67.6605 38.8755 68.4836 39.0481 69.3149 39.1724C70.0896 39.2884 70.7704 39.0233 71.349 38.5123C72.9053 37.1369 73.6731 35.2851 74.365 33.4001C74.4423 33.1902 74.289 32.8712 74.191 32.624C71.3242 25.3548 68.4504 18.0869 65.5781 10.8191C65.4883 10.5926 65.4096 10.362 65.2812 10.014L65.2826 10.0126Z" fill="#9F9F9F"/>
<path d="M63.5668 29.8725C63.5668 31.3474 63.5737 32.8581 63.5543 34.3675C63.553 34.4835 63.3983 34.6381 63.2754 34.7072C59.8728 36.6308 54.3228 34.8467 52.7071 31.3073C52.1119 30.0051 51.9545 28.6117 51.949 27.2004C51.9379 23.7246 51.9448 20.2502 51.9448 16.7744C51.9448 16.4996 51.9448 16.2248 51.9448 15.8119C51.0514 15.8119 50.191 15.8201 49.3293 15.8105C47.8227 15.7939 48.0188 16.0149 48.005 14.4972C47.9954 13.438 48.0216 12.3789 47.9967 11.3211C47.9843 10.8336 48.168 10.6831 48.6416 10.6941C49.7436 10.7204 50.8484 10.7024 52.0304 10.7024V3.66797H57.8773V10.6624C58.1963 10.6775 58.4394 10.6996 58.6824 10.701C60.0633 10.7038 61.4457 10.7342 62.8252 10.6886C63.4549 10.6679 63.6082 10.8874 63.5875 11.4799C63.5447 12.6523 63.5433 13.8288 63.5875 14.9999C63.611 15.6213 63.4439 15.8505 62.7879 15.827C61.4553 15.7787 60.1186 15.8132 58.7832 15.8132H57.9491C57.9367 16.1005 57.916 16.3435 57.916 16.5866C57.9146 20.2005 57.9118 23.813 57.916 27.4269C57.9187 29.7317 58.4794 30.3061 60.7759 30.2274C61.6832 30.1957 62.5849 30.0037 63.5654 29.8739L63.5668 29.8725Z" fill="#9F9F9F"/>
</svg>
