<svg width="159" height="40" viewBox="0 0 159 40" fill="none" xmlns="http://www.w3.org/2000/svg">
<path fill-rule="evenodd" clip-rule="evenodd" d="M12.6305 8C18.1472 8 22.8247 11.5655 24.5436 16.5258H16.7966L12.6305 20.7052L13.5826 16.5258H13.5749C13.3261 16.525 13.0799 16.4753 12.8504 16.3794C12.6208 16.2835 12.4124 16.1434 12.237 15.967C12.0617 15.7905 11.9227 15.5813 11.8282 15.3512C11.7337 15.1211 11.6855 14.8746 11.6862 14.6258V8.04841C11.9991 8.02456 12.3106 8 12.6305 8ZM8.47775 19.7545L8.47635 19.7475H8.47775L12.6305 20.7052L8.47705 16.5131V8.71913C5.99738 9.59316 3.85033 11.2157 2.33251 13.3625C0.814695 15.5093 0.00102589 18.0746 0.00391391 20.7037C0.00391391 21.0251 0.0284697 21.3387 0.0509207 21.6544H6.58836C6.83736 21.6539 7.08381 21.6042 7.31361 21.5083C7.54341 21.4125 7.75205 21.2722 7.9276 21.0956C8.10315 20.919 8.24216 20.7096 8.33668 20.4792C8.4312 20.2488 8.47938 20.0021 8.47845 19.7531L8.47775 19.7545ZM11.6862 24.8838H11.6792L12.6305 20.7052L8.46442 24.8838H0.716732C2.43633 29.8441 7.11386 33.4096 12.6298 33.4096C12.9491 33.4096 13.262 33.3857 13.5749 33.3605V26.7838C13.5756 26.535 13.5273 26.2885 13.4328 26.0584C13.3383 25.8283 13.1994 25.6191 13.024 25.4426C12.8486 25.2662 12.6402 25.1261 12.4107 25.0302C12.1811 24.9343 11.935 24.8846 11.6862 24.8838Z" fill="#9F9F9F"/>
<path fill-rule="evenodd" clip-rule="evenodd" d="M12.625 20.7064L16.7785 24.8977V32.6924C19.2584 31.818 21.4056 30.1952 22.9235 28.048C24.4414 25.9008 25.2552 23.3352 25.2523 20.7057C25.2523 20.3851 25.2277 20.07 25.2039 19.7564H18.6671C18.4184 19.7572 18.1722 19.8069 17.9427 19.9028C17.7131 19.9987 17.5047 20.1388 17.3293 20.3152C17.1539 20.4917 17.015 20.7009 16.9205 20.931C16.826 21.1611 16.7777 21.4076 16.7785 21.6563C16.7785 21.6585 15.3942 21.342 12.625 20.7064ZM106.832 31.9845H104.299V17.9996H98.2762V31.9852H95.7414V15.8633H98.2762V17.9751L99.6927 15.8633H103.728C105.253 15.8633 106.424 16.4947 106.832 17.9751V31.9845Z" fill="#9F9F9F"/>
<mask id="mask0_459_3191" style="mask-type:alpha" maskUnits="userSpaceOnUse" x="0" y="8" width="159" height="26">
<path fill-rule="evenodd" clip-rule="evenodd" d="M0 33.4102H158.56V8.00195H0.00068057L0 33.4102Z" fill="white"/>
</mask>
<g mask="url(#mask0_459_3191)">
<path fill-rule="evenodd" clip-rule="evenodd" d="M85.0601 29.8468H91.0825V17.9997H85.0601V29.8468ZM93.616 28.833C93.616 30.9167 92.337 31.9852 90.51 31.9852H85.6311C83.8063 31.9852 82.5259 30.9167 82.5259 28.833V19.0163C82.5259 16.9332 83.8063 15.864 85.6311 15.864H90.51C92.337 15.864 93.616 16.9332 93.616 19.0163V28.833ZM34.7004 29.8468H40.7208V17.9997H34.7011L34.7004 29.8468ZM43.2556 28.833C43.2556 30.9167 41.9724 31.9852 40.149 31.9852H36.1429L34.6976 29.8762V31.9852H32.1641V10.2148H34.6969V17.9758V15.864H40.149C41.9731 15.864 43.2556 16.9332 43.2556 19.0163V28.833ZM120.157 28.8316C120.157 30.9167 118.879 31.9852 117.05 31.9852H112.173C110.347 31.9852 109.066 30.9167 109.066 28.8316V27.1604H111.601V29.8475H117.623V25.1847H112.173C110.347 25.1847 109.066 24.1154 109.066 22.0324V19.0163C109.066 16.9311 110.347 15.8619 112.173 15.8619H117.05C118.879 15.8619 120.157 16.9311 120.157 19.0163V20.6889H117.623V18.0032H111.601V22.6337H117.05C118.879 22.6337 120.157 23.7043 120.157 25.7894V28.8316ZM130.932 31.9852H127.446C125.592 31.9852 124.34 30.9167 124.34 28.833V18.1926H121.748V16.0562H124.34V12.629H126.874V16.0562H130.932V18.1926H126.874V29.8468H130.932V31.9852ZM134.538 29.8489H140.561V24.9952H134.538V29.8489ZM143.096 31.9852H140.561V29.8762L139.118 31.9852H135.109C133.283 31.9852 132.002 30.9167 132.002 28.833V26.0055C132.002 23.9232 133.283 22.854 135.109 22.854H140.561V17.999H134.838V20.6896H132.304V19.0156C132.304 16.9325 133.584 15.8633 135.41 15.8633H139.989C141.815 15.8633 143.096 16.9325 143.096 19.0156V31.9852ZM59.6652 29.8489H65.6877V24.9952H59.6652V29.8489ZM68.2218 31.9852H65.6877V29.8762L64.2452 31.9852H60.2349C58.4107 31.9852 57.1289 30.9167 57.1289 28.833V26.0055C57.1289 23.9232 58.41 22.854 60.2349 22.854H65.6877V17.999H59.9641V20.6896H57.4299V19.0156C57.4299 16.9325 58.7103 15.8633 60.5366 15.8633H65.1152C66.9407 15.8633 68.2211 16.9325 68.2211 19.0156L68.2218 31.9852ZM155.878 28.8316C155.878 30.9167 154.598 31.9852 152.772 31.9852H147.892C146.068 31.9852 144.786 30.9167 144.786 28.8316V19.017C144.786 16.9318 146.068 15.8626 147.892 15.8626H152.772C154.598 15.8626 155.878 16.9318 155.878 19.017V20.6896H153.345V18.0039H147.32V29.8468H153.345V27.1604H155.878V28.8316ZM80.8421 28.8316C80.8421 30.9167 79.5624 31.9852 77.7354 31.9852H72.8558C71.0324 31.9852 69.7499 30.9167 69.7499 28.8316V19.017C69.7499 16.9318 71.0324 15.8626 72.8558 15.8626H77.7354C79.5624 15.8626 80.8421 16.9318 80.8421 19.017V20.6896H78.3086V18.0039H72.284V29.8468H78.3086V27.1604H80.8421V28.8316ZM55.6563 28.8316C55.6563 30.9167 54.3773 31.9852 52.5503 31.9852H47.6701C45.8466 31.9852 44.5641 30.9167 44.5641 28.8316V19.017C44.5641 16.9318 45.8466 15.8626 47.6701 15.8626H52.5503C54.3773 15.8626 55.6563 16.9318 55.6563 19.017V20.6896H53.1235V18.0039H47.099V29.8468H53.1235V27.1604H55.6563V28.8316Z" fill="#9F9F9F"/>
<path fill-rule="evenodd" clip-rule="evenodd" d="M47.1016 22.8334L48.3996 24.9747H52.553C54.3799 24.9747 55.6589 23.9054 55.6589 21.8203V20.1484H53.1262V22.8341L47.1016 22.8334Z" fill="#9F9F9F"/>
</g>
</svg>
