<svg width="178" height="40" viewBox="0 0 178 40" fill="none" xmlns="http://www.w3.org/2000/svg">
<mask id="mask0_459_3202" style="mask-type:luminance" maskUnits="userSpaceOnUse" x="4" y="5" width="168" height="31">
<path d="M171.016 5H4V36H171.016V5Z" fill="white"/>
</mask>
<g mask="url(#mask0_459_3202)">
<path d="M21.6594 21.5449V21.4752C21.6806 20.1429 21.4256 18.8206 20.9106 17.5915C20.4522 16.5022 19.7835 15.5138 18.9427 14.6831C18.1467 13.9046 17.2059 13.2892 16.1736 12.8719C15.1735 12.4605 14.1028 12.2476 13.0213 12.2451C12.1999 12.2357 11.3825 12.3591 10.6006 12.6107C9.89904 12.8401 9.23134 13.1622 8.61522 13.5686C8.02066 13.9654 7.47673 14.4332 6.99549 14.9618C6.51903 15.4814 6.08786 16.0406 5.70669 16.6337V5H4V30.4269H5.7071V26.596C6.0868 27.1636 6.51197 27.6995 6.97842 28.1983C7.45777 28.7119 7.9955 29.1679 8.58067 29.5567C9.1999 29.9644 9.87436 30.2813 10.5835 30.4976C12.4251 31.0485 14.4007 30.9441 16.1739 30.2019C17.2078 29.7719 18.1483 29.1448 18.9429 28.3558C19.7814 27.5166 20.4498 26.523 20.9109 25.43C21.426 24.2005 21.6808 22.8777 21.6594 21.5449ZM19.8134 21.6145C19.8302 22.701 19.6472 23.7812 19.2734 24.8015C18.9466 25.6889 18.443 26.5006 17.7931 27.1875C17.1687 27.836 16.4153 28.3462 15.5814 28.6853C14.7132 29.0376 13.784 29.2152 12.8471 29.2077C11.9187 29.2078 11.0001 29.0182 10.1477 28.6505C8.36827 27.8993 6.95474 26.4797 6.21116 24.6971C5.79592 23.7109 5.58862 22.6497 5.60225 21.5797V21.5101C5.58744 20.4457 5.79482 19.3899 6.21116 18.4101C6.59518 17.5143 7.14465 16.699 7.83076 16.0067C8.49477 15.3398 9.28154 14.8075 10.1477 14.4393C10.9944 14.0746 11.9061 13.885 12.8279 13.882C13.7498 13.879 14.6627 14.0626 15.5117 14.4219C16.3512 14.7763 17.1096 15.298 17.7409 15.955C18.4023 16.6529 18.9174 17.4759 19.2561 18.3757C19.6384 19.3882 19.8275 20.4633 19.8134 21.5455V21.6145ZM29.1482 8.03031V5.69669H27.0235V8.03043L29.1482 8.03031ZM28.9391 30.4269V12.6629H27.232V30.4269H28.9391ZM44.4739 30.1135V28.5112C44.0377 28.7169 43.5828 28.8803 43.1154 28.9988C42.7043 29.0936 42.2834 29.1404 41.8615 29.1382C40.8165 29.1382 39.9631 28.8829 39.3013 28.3721C38.6396 27.8613 38.3087 26.9673 38.3087 25.6901V14.2303H44.5434V12.6629H38.3089V6.98535H36.6018V12.6629H34.0247V14.2303H36.6022V25.864C36.5854 26.608 36.7156 27.348 36.9853 28.0415C37.2137 28.6197 37.5708 29.138 38.0295 29.5575C38.4882 29.977 39.0364 30.2864 39.6326 30.4622C40.2651 30.6522 40.9226 30.7462 41.583 30.7409C42.0924 30.746 42.6007 30.6934 43.0983 30.5842C43.5712 30.4727 44.0318 30.315 44.4739 30.1135ZM49.6637 22.2416H64.3976C64.417 22.1382 64.4287 22.0333 64.4324 21.9281V21.545C64.4443 20.2968 64.2501 19.0552 63.8576 17.8703C63.5027 16.7945 62.9473 15.7957 62.2205 14.9266C61.5179 14.0949 60.6448 13.4238 59.6605 12.9586C58.6021 12.4698 57.4472 12.2259 56.2816 12.2451C55.1261 12.2337 53.983 12.4837 52.9378 12.9766C51.9272 13.4559 51.0216 14.1306 50.2731 14.9618C49.5027 15.8237 48.9002 16.8221 48.4967 17.9055C48.0624 19.0575 47.844 20.2795 47.8523 21.5106V21.5803C47.8348 22.8791 48.0714 24.1688 48.5489 25.3769C48.983 26.4676 49.6284 27.4617 50.4479 28.3022C51.2412 29.1097 52.1888 29.7493 53.2344 30.183C54.2878 30.6236 55.4189 30.8487 56.5608 30.8448C58.2559 30.8448 59.6781 30.5312 60.8276 29.9039C61.9788 29.2755 63.02 28.4638 63.9102 27.5005L62.726 26.4556C61.981 27.2465 61.1173 27.9163 60.1659 28.4409C59.2022 28.975 58.0238 29.242 56.6307 29.242C55.7668 29.2454 54.91 29.0858 54.1054 28.7716C53.3069 28.4602 52.5785 27.9928 51.9628 27.3966C51.3147 26.7635 50.784 26.0206 50.3954 25.2022C49.9597 24.2729 49.7109 23.2668 49.6637 22.2416ZM49.6637 20.7092C49.7254 19.7666 49.9493 18.8415 50.3254 17.9749C50.6697 17.1696 51.1466 16.4278 51.7364 15.7802C52.3 15.1687 52.9812 14.677 53.7392 14.3348C54.5541 13.9814 55.4342 13.8034 56.3223 13.8124C57.2104 13.8214 58.0868 14.0172 58.8943 14.387C59.6405 14.7541 60.2997 15.2767 60.8274 15.9194C61.3589 16.574 61.7714 17.3167 62.0465 18.1138C62.3393 18.9515 62.5206 19.824 62.5857 20.709L49.6637 20.7092ZM82.231 24.7497V24.6801C82.231 23.8209 82.0568 23.0894 81.7085 22.4856C81.3706 21.894 80.9211 21.3737 80.3849 20.9533C79.8294 20.5229 79.2205 20.166 78.5736 19.8914C77.9002 19.6012 77.2385 19.3515 76.5883 19.1426C76.0775 18.98 75.5956 18.8175 75.1428 18.6549C74.7326 18.5104 74.3313 18.3417 73.9411 18.1499C73.6369 18.0056 73.3553 17.8178 73.1051 17.5926C73.0077 17.508 72.9295 17.4038 72.8754 17.2867C72.8213 17.1696 72.7929 17.0423 72.7917 16.9134V16.8422C72.7911 16.6602 72.8353 16.4808 72.9203 16.3198C73.0054 16.1588 73.1286 16.0213 73.2794 15.9192C73.6045 15.6753 74.092 15.5534 74.7422 15.5534C75.4157 15.5534 76.1936 15.7102 77.076 16.0238C78.0179 16.3651 78.9273 16.7906 79.7928 17.2952L81.8131 13.6378C80.7721 12.9553 79.6407 12.4219 78.4518 12.053C77.2866 11.6784 76.0707 11.4845 74.8468 11.4782C73.9443 11.471 73.046 11.6002 72.1823 11.8613C71.3934 12.098 70.6594 12.4888 70.0228 13.0113C69.3769 13.542 68.8606 14.2133 68.5135 14.9739C68.1664 15.7344 67.9975 16.5643 68.02 17.4V17.4697C68.02 18.3752 68.1883 19.1414 68.525 19.7682C68.8487 20.3794 69.2931 20.9185 69.8311 21.353C70.3743 21.7879 70.9788 22.14 71.6249 22.3979C72.2686 22.6587 72.9255 22.8853 73.5929 23.0771C74.1037 23.2396 74.5913 23.3907 75.0558 23.53C75.4753 23.6534 75.8881 23.7987 76.2925 23.9653C76.6091 24.0884 76.8989 24.2718 77.1458 24.5052C77.2452 24.5993 77.3244 24.7127 77.3782 24.8384C77.4322 24.9643 77.4597 25.0998 77.4593 25.2367V25.3063C77.4622 25.5066 77.4142 25.7044 77.3198 25.881C77.2254 26.0577 77.0876 26.2076 76.9194 26.3165C76.5595 26.5718 75.9964 26.6995 75.2301 26.6995C74.2584 26.6825 73.2974 26.4937 72.3914 26.1422C71.3032 25.7281 70.2775 25.1656 69.3436 24.4703L67.0796 27.9535C69.3617 29.759 72.1809 30.7519 75.0908 30.7748C76.0379 30.7816 76.9813 30.6585 77.8948 30.409C78.7171 30.1887 79.4908 29.8166 80.1763 29.3117C80.8264 28.8242 81.3467 28.1843 81.6914 27.4484C82.0513 26.694 82.231 25.7946 82.231 24.7497ZM105.638 21.127V21.0573C105.638 19.5015 105.4 18.1257 104.923 16.9298C104.493 15.8063 103.849 14.7771 103.026 13.8995C102.262 13.093 101.336 12.4579 100.309 12.0361C99.3035 11.6213 98.2265 11.4083 97.1391 11.409C95.7457 11.409 94.5906 11.6935 93.6734 12.2624C92.7571 12.8306 91.9589 13.5699 91.3223 14.44V11.7573H86.0281V35.9999H91.3225V27.9886C91.9835 28.7603 92.7659 29.4192 93.6388 29.9391C94.5561 30.4964 95.723 30.775 97.1395 30.775C98.2384 30.7781 99.3272 30.5651 100.344 30.1482C101.367 29.7289 102.288 29.0932 103.043 28.2847C103.857 27.4032 104.495 26.3748 104.924 25.2544C105.4 24.0585 105.638 22.6827 105.638 21.127ZM100.343 21.127C100.355 21.8518 100.231 22.5724 99.9777 23.2517C99.7519 23.8494 99.4151 24.3989 98.985 24.8713C98.5798 25.3149 98.0878 25.6706 97.5395 25.9163C96.9845 26.1575 96.3857 26.282 95.7805 26.282C95.1753 26.282 94.5766 26.1575 94.0216 25.9163C93.4768 25.6731 92.99 25.3169 92.5934 24.8713C92.1703 24.3904 91.8395 23.8354 91.6182 23.2342C91.3681 22.5602 91.2441 21.8459 91.2524 21.127V21.0573C91.2441 20.3384 91.3681 19.6242 91.6182 18.9501C91.8395 18.3488 92.1703 17.7936 92.5936 17.3126C92.9901 16.867 93.4769 16.5108 94.0217 16.2676C94.5767 16.0264 95.1754 15.9019 95.7806 15.9019C96.3859 15.9019 96.9846 16.0264 97.5397 16.2676C98.0879 16.5134 98.5799 16.869 98.9851 17.3126C99.4179 17.7896 99.7549 18.3454 99.9778 18.9497C100.228 19.6239 100.352 20.3382 100.344 21.0572L100.343 21.127ZM126.955 21.614V21.5443C126.96 20.2536 126.777 18.969 126.415 17.7302C126.076 16.5512 125.507 15.4504 124.743 14.4908C123.976 13.5405 123.005 12.7733 121.904 12.2451C120.766 11.6878 119.419 11.4092 117.864 11.4092C116.616 11.3896 115.378 11.6339 114.232 12.1261C113.085 12.6184 112.056 13.3474 111.211 14.2654C110.386 15.1679 109.741 16.2202 109.313 17.3653C108.857 18.5668 108.626 19.8421 108.634 21.1272V21.1967C108.615 22.5385 108.863 23.8706 109.365 25.1153C109.832 26.2579 110.526 27.2944 111.402 28.1631C112.288 29.0316 113.343 29.7075 114.502 30.1484C115.742 30.6208 117.06 30.8571 118.386 30.8451C120.081 30.8451 121.556 30.5374 122.809 29.9221C124.053 29.3149 125.148 28.4407 126.014 27.3619L122.984 24.6799C122.348 25.2815 121.619 25.7755 120.824 26.1428C120.075 26.4551 119.268 26.6092 118.456 26.5957C117.271 26.5957 116.279 26.2879 115.478 25.6725C114.677 25.0572 114.148 24.1457 113.893 22.9381H126.885C126.908 22.6827 126.926 22.4621 126.937 22.2764C126.949 22.0906 126.955 21.8698 126.955 21.614ZM121.8 19.6286H113.823C114.033 18.4212 114.479 17.4574 115.164 16.7376C115.85 16.0178 116.749 15.6578 117.864 15.6578C118.978 15.6578 119.872 16.0236 120.545 16.7551C121.22 17.4866 121.637 18.444 121.8 19.6286ZM148.307 21.614V21.5443C148.312 20.2536 148.13 18.969 147.766 17.7302C147.427 16.5512 146.86 15.4504 146.095 14.4908C145.327 13.5405 144.357 12.7733 143.256 12.2451C142.118 11.6878 140.771 11.4092 139.215 11.4092C137.967 11.3896 136.73 11.6339 135.583 12.1262C134.437 12.6184 133.408 13.3474 132.563 14.2654C131.737 15.1679 131.093 16.2202 130.664 17.3653C130.209 18.5668 129.978 19.8421 129.985 21.1272V21.1967C129.967 22.5385 130.216 23.8706 130.716 25.1153C131.184 26.2579 131.877 27.2944 132.755 28.1631C133.639 29.0316 134.695 29.7075 135.854 30.1484C137.094 30.6208 138.411 30.8571 139.737 30.8451C141.433 30.8451 142.907 30.5374 144.162 29.9221C145.405 29.3149 146.499 28.4407 147.366 27.3619L144.336 24.6799C143.7 25.2815 142.97 25.7755 142.176 26.1428C141.426 26.4551 140.62 26.6093 139.807 26.5957C138.623 26.5957 137.63 26.2879 136.829 25.6725C136.028 25.0572 135.5 24.1458 135.244 22.9382H148.236C148.259 22.6829 148.277 22.4623 148.288 22.2765C148.3 22.0908 148.306 21.8699 148.306 21.614H148.307ZM143.152 19.6286H135.175C135.385 18.4212 135.831 17.4574 136.516 16.7376C137.201 16.0178 138.101 15.6578 139.216 15.6578C140.33 15.6578 141.224 16.0236 141.898 16.7551C142.571 17.4866 142.989 18.4446 143.151 19.6292L143.152 19.6286ZM171.016 30.4264V5H165.722V14.1955C165.061 13.4238 164.279 12.765 163.406 12.2451C162.488 11.6878 161.322 11.4092 159.905 11.4092C158.806 11.4061 157.717 11.6191 156.701 12.0361C155.677 12.4553 154.756 13.091 154.001 13.8995C153.187 14.781 152.549 15.8094 152.12 16.9298C151.644 18.1257 151.406 19.5015 151.406 21.0573V21.127C151.406 22.6828 151.644 24.0587 152.12 25.2545C152.551 26.3781 153.195 27.4073 154.019 28.2849C154.782 29.0914 155.708 29.7265 156.735 30.1483C157.741 30.563 158.818 30.776 159.905 30.7752C161.299 30.7752 162.454 30.4907 163.371 29.9218C164.287 29.3536 165.086 28.6143 165.722 27.7442V30.4262L171.016 30.4264ZM165.791 21.127C165.8 21.8459 165.676 22.5602 165.426 23.2342C165.204 23.8354 164.873 24.3904 164.45 24.8713C164.054 25.3169 163.567 25.6731 163.022 25.9163C162.467 26.1575 161.868 26.282 161.263 26.282C160.658 26.282 160.059 26.1575 159.505 25.9163C158.956 25.6706 158.464 25.315 158.058 24.8713C157.626 24.3943 157.289 23.8385 157.066 23.2342C156.816 22.5602 156.692 21.8459 156.7 21.127V21.0573C156.689 20.3325 156.813 19.6119 157.066 18.9327C157.292 18.335 157.628 17.7855 158.058 17.313C158.464 16.8694 158.956 16.5138 159.505 16.2681C160.059 16.0268 160.658 15.9023 161.263 15.9023C161.868 15.9023 162.467 16.0268 163.022 16.2681C163.567 16.5112 164.054 16.8674 164.45 17.313C164.873 17.794 165.204 18.349 165.426 18.9501C165.676 19.6242 165.8 20.3384 165.791 21.0573V21.127Z" fill="#9F9F9F"/>
</g>
</svg>
