<svg width="167" height="48" viewBox="0 0 167 48" fill="none" xmlns="http://www.w3.org/2000/svg">
<mask id="mask0_459_3103" style="mask-type:luminance" maskUnits="userSpaceOnUse" x="5" y="4" width="159" height="39">
<path d="M163.798 4.80078H5.39844V42.3166H163.798V4.80078Z" fill="white"/>
</mask>
<g mask="url(#mask0_459_3103)">
<path d="M13.7887 40.1639V26.3073H30.3266V18.8018H13.7402V12.3064H33.7702V4.80078H5.39844V40.1639H13.7887ZM30.3965 35.978C30.3965 38.2875 31.9971 40.5007 34.9555 40.5007C37.8655 40.5007 39.5144 38.2875 39.5144 35.978C39.5144 33.7168 37.8655 31.5036 34.9555 31.5036C31.9971 31.5036 30.3965 33.7168 30.3965 35.978Z" fill="#9F9F9F"/>
<path d="M58.7193 30.7675V24.1339H66.6856V22.2094H58.7193V17.6643H68.151V15.7193H56.5938V30.7675H58.7193ZM73.8837 30.7675V15.7193H71.758V30.7675H73.8837ZM81.0444 20.3055L91.3013 30.8903H91.4871V15.7193H89.3821V26.2018L79.1456 15.6374H78.9394V30.7675H81.0444V20.3055ZM95.5942 23.2535C95.5942 27.6759 99.0407 31.0131 103.684 31.0131C105.15 31.0131 106.491 30.6856 107.688 30.0509C108.906 29.4161 109.834 28.5563 110.515 27.4917L108.741 26.4885C107.75 27.9831 105.81 29.0682 103.664 29.0682C100.238 29.0682 97.7201 26.5295 97.7201 23.2535C97.7201 19.9368 100.279 17.3981 103.684 17.3981C105.831 17.3981 107.667 18.4832 108.679 20.0392L110.474 18.9746C109.133 16.8453 106.635 15.4531 103.684 15.4531C99.0407 15.4531 95.5942 18.7904 95.5942 23.2535ZM126.133 30.7675V28.8225H116.33V24.0522H124.482V22.1276H116.33V17.6643H126.133V15.7193H114.225V30.7675H126.133ZM132.018 20.3055L142.275 30.8903H142.461V15.7193H140.356V26.2018L130.119 15.6374H129.913V30.7675H132.018V20.3055ZM153.564 17.6643H159.012V15.7193H146.011V17.6643H151.438V30.7675H153.564V17.6643Z" fill="#9F9F9F"/>
</g>
</svg>
