<svg width="207" height="48" viewBox="0 0 207 48" fill="none" xmlns="http://www.w3.org/2000/svg">
<g clip-path="url(#clip0_459_3117)">
<mask id="mask0_459_3117" style="mask-type:luminance" maskUnits="userSpaceOnUse" x="0" y="0" width="207" height="48">
<path d="M206.998 0H0.597656V48H206.998V0Z" fill="white"/>
</mask>
<g mask="url(#mask0_459_3117)">
<mask id="mask1_459_3117" style="mask-type:luminance" maskUnits="userSpaceOnUse" x="0" y="2" width="207" height="44">
<path d="M206.998 2.40039H0.597656V45.6004H206.998V2.40039Z" fill="white"/>
</mask>
<g mask="url(#mask1_459_3117)">
<mask id="mask2_459_3117" style="mask-type:luminance" maskUnits="userSpaceOnUse" x="0" y="2" width="207" height="44">
<path d="M206.998 2.40039H0.597656V45.6004H206.998V2.40039Z" fill="white"/>
</mask>
<g mask="url(#mask2_459_3117)">
<path d="M43.1205 2.40039H16.2231C14.9465 2.40165 13.7222 2.90637 12.8167 3.80467C12.3714 4.24701 12.018 4.77278 11.7766 5.35183C11.5352 5.93086 11.4107 6.55176 11.4102 7.17895V24.5494L15.5764 21.3416V7.17895C15.5806 7.00897 15.6498 6.84704 15.7697 6.72638C15.8933 6.60746 16.0581 6.54072 16.2297 6.54003H43.1272C43.3039 6.54003 43.4735 6.61014 43.5985 6.73495C43.7235 6.85976 43.7937 7.02906 43.7937 7.20557V30.8853C43.7921 30.9872 43.767 31.0875 43.7203 31.1782C43.673 31.2666 43.6071 31.3438 43.5272 31.4045L30.0817 41.3875C29.9682 41.4726 29.8304 41.5193 29.6884 41.5207C29.5482 41.5212 29.4119 41.4743 29.3018 41.3875L15.8498 31.4045C15.7699 31.3454 15.7058 31.2678 15.6632 31.1782C15.6166 31.0875 15.5914 30.9872 15.5898 30.8853V27.0186L11.4102 30.2198V30.8521C11.409 31.597 11.5849 32.3314 11.9235 32.9952C12.2599 33.6585 12.746 34.2349 13.3434 34.6789L26.7887 44.6619C27.6268 45.2756 28.6392 45.6066 29.6785 45.6066C30.7178 45.6066 31.73 45.2756 32.5682 44.6619L46.0135 34.6789C46.6109 34.2349 47.097 33.6585 47.4334 32.9952C47.7719 32.3314 47.9479 31.597 47.9466 30.8521V7.17895C47.9468 6.55107 47.8219 5.92946 47.5793 5.3502C47.3366 4.77094 46.9812 4.24558 46.5334 3.80467C45.6263 2.90474 44.3993 2.39989 43.1205 2.40039Z" fill="#9F9F9F"/>
<path d="M3.45854 36.3621L11.4111 30.2192V24.5488L0.605469 32.8681L3.45854 36.3621Z" fill="#9F9F9F"/>
<path opacity="0.75" d="M50.3508 6.20009L52.5439 9.20831L47.9444 12.536L43.7781 15.7439L38.6653 19.6705L33.8391 23.3909L31.4459 25.2278L28.8862 23.3643L20.687 17.3744L15.5742 21.3012V26.9515L20.4003 23.2246L20.687 23.4375L25.5399 27.0114L31.0994 31.1111L33.8391 29.0214L38.6653 25.3343L43.7781 21.4342L47.9444 18.2596L55.277 12.516L58.0167 15.3845L59.11 6.16016L50.3508 6.20009Z" fill="#9F9F9F"/>
<path d="M15.5698 21.3418V26.9923L11.4102 30.2201V24.5564L15.5698 21.3418Z" fill="#9F9F9F"/>
<path d="M33.8357 11.5636V19.1575H25.5365V4.51562H20.6836V17.3871L31.4426 25.2271L33.8357 23.3636V40.1419L38.6619 37.3665V11.5636H33.8357ZM20.6836 31.1371H25.5365V27.0707L20.6836 23.49V31.1371Z" fill="#9F9F9F"/>
<path d="M68.7396 23.292C68.8775 23.2862 69.0143 23.3209 69.1328 23.3919C69.2512 23.4628 69.3463 23.567 69.4061 23.6912L71.3726 27.5448C71.4246 27.6672 71.5119 27.7712 71.6237 27.8437C71.7353 27.916 71.8662 27.9533 71.9992 27.9508H74.7189C74.7862 27.945 74.8497 27.917 74.899 27.8708C74.9174 27.8528 74.9316 27.831 74.9408 27.8068C74.9501 27.7827 74.954 27.7569 74.9522 27.7311C74.9504 27.6841 74.9366 27.6383 74.9123 27.5981L72.4859 23.2121C72.455 23.1655 72.4345 23.113 72.4253 23.058C72.4162 23.003 72.4186 22.9467 72.4325 22.8927C72.4391 22.82 72.4639 22.7502 72.5046 22.6896C72.5454 22.6292 72.6009 22.58 72.6659 22.5466C73.2871 22.2176 73.8036 21.7216 74.157 21.1146C74.5105 20.5078 74.6867 19.8142 74.6657 19.1124C74.6657 15.4386 71.3859 14.8929 69.4328 14.8929H65.3466C65.1489 14.8875 64.9523 14.9221 64.7683 14.9945C64.5844 15.0669 64.417 15.1756 64.2763 15.3143C64.1356 15.4529 64.0244 15.6186 63.9495 15.8011C63.8745 15.9839 63.8372 16.1797 63.84 16.3771V27.6579C63.8548 27.7334 63.8931 27.8022 63.9492 27.8548C64.0055 27.9074 64.0768 27.941 64.1534 27.9508H66.8197C66.8625 27.9534 66.9054 27.9471 66.9456 27.9322C66.9857 27.9172 67.0223 27.8941 67.053 27.8642C67.0836 27.8398 67.1076 27.8082 67.1228 27.7721C67.138 27.736 67.1438 27.6968 67.1397 27.6579V24.4833C67.1278 24.2647 67.0435 24.0563 66.8997 23.891C66.8164 23.7986 66.713 23.7266 66.5974 23.6804C66.4819 23.6343 66.3572 23.6153 66.2331 23.6248V23.292H68.7396ZM66.0731 17.6416V17.3088H69.4061C69.8899 17.2914 70.3636 17.4499 70.7394 17.7547C70.9141 17.928 71.05 18.1361 71.1385 18.3654C71.227 18.5949 71.2659 18.8404 71.2526 19.0857C71.2526 20.1574 70.586 20.7896 69.3928 20.7896H67.713C67.6122 20.7935 67.5119 20.7746 67.4195 20.7343C67.3271 20.6939 67.2451 20.6332 67.1796 20.5566C67.1102 20.4923 67.0552 20.4139 67.0184 20.3267C66.9817 20.2394 66.9639 20.1454 66.9664 20.0508V18.4934C66.9578 18.2633 66.8596 18.0456 66.6928 17.8867C66.5261 17.7276 66.3037 17.6397 66.0731 17.6416Z" fill="#9F9F9F"/>
<path d="M86.5628 17.4089C86.6076 17.4126 86.6528 17.4069 86.6954 17.3919C86.7379 17.377 86.7767 17.3533 86.8094 17.3224C86.8411 17.2974 86.8658 17.2647 86.8809 17.2274C86.8961 17.19 86.9013 17.1493 86.8961 17.1094V15.206C86.9014 15.161 86.8965 15.1154 86.8816 15.0726C86.8668 15.0298 86.8424 14.9909 86.8103 14.9589C86.7782 14.9268 86.7393 14.9025 86.6964 14.8876C86.6536 14.8728 86.6079 14.8679 86.5628 14.8732H78.6969C78.498 14.8705 78.3005 14.9076 78.1162 14.9821C77.9318 15.0567 77.7643 15.1672 77.6233 15.3074C77.4824 15.4475 77.3709 15.6143 77.2953 15.7981C77.2198 15.9818 77.1818 16.1787 77.1837 16.3773V27.6382C77.1959 27.7178 77.2338 27.7914 77.2914 27.8478C77.3492 27.9042 77.4236 27.9405 77.5036 27.951H86.7361C86.7809 27.9535 86.8257 27.9472 86.868 27.9323C86.9104 27.9176 86.9493 27.8945 86.9827 27.8645C87.015 27.837 87.0398 27.802 87.0549 27.7624C87.0701 27.7228 87.0751 27.6801 87.0694 27.6382V25.7548C87.0694 25.5152 86.9695 25.4153 86.7361 25.4153H81.11C81.0108 25.4153 80.9126 25.3956 80.8211 25.3573C80.7296 25.3191 80.6468 25.2629 80.5772 25.1923C80.5078 25.1217 80.453 25.0379 80.4164 24.9459C80.3796 24.8539 80.3616 24.7556 80.3634 24.6566V23.7515C80.3498 23.5243 80.2496 23.3109 80.0836 23.155C79.9175 22.9991 79.698 22.9125 79.4701 22.9129V22.5801H85.3096C85.3539 22.582 85.3981 22.5748 85.4393 22.5586C85.4806 22.5426 85.5181 22.5181 85.5495 22.4868C85.5808 22.4556 85.6052 22.4181 85.6213 22.3769C85.6374 22.3356 85.6447 22.2915 85.6428 22.2473V20.4904C85.6483 20.4454 85.6433 20.3998 85.6285 20.3569C85.6136 20.3141 85.5892 20.2752 85.5571 20.2432C85.525 20.2112 85.486 20.1868 85.4432 20.1719C85.4003 20.1572 85.3546 20.1523 85.3096 20.1576H81.11C81.0102 20.1576 80.9115 20.1376 80.8195 20.099C80.7276 20.0603 80.6444 20.0036 80.5748 19.9323C80.5052 19.8609 80.4506 19.7763 80.4144 19.6835C80.378 19.5908 80.3608 19.4918 80.3634 19.3922V18.5869C80.3625 18.471 80.3387 18.3564 80.2932 18.2497C80.2477 18.1429 80.1817 18.0464 80.0986 17.9653C80.0155 17.8843 79.9173 17.8203 79.8094 17.7774C79.7015 17.7345 79.5863 17.7132 79.4701 17.715V17.3822L86.5628 17.4089Z" fill="#9F9F9F"/>
<path d="M100.6 14.8523H98.073C97.9466 14.8487 97.8218 14.881 97.7131 14.9455C97.6166 15.0178 97.5482 15.1212 97.5198 15.2384L94.8533 23.7839H94.7401C94.6774 23.7894 94.6151 23.7703 94.5664 23.7304C94.5178 23.6906 94.4867 23.6333 94.4801 23.5709L91.9603 15.2316C91.9175 15.1272 91.8515 15.0338 91.767 14.9588C91.6626 14.8835 91.5356 14.8459 91.407 14.8523H88.9006C88.8239 14.8509 88.7497 14.8796 88.6939 14.9322C88.6603 14.9711 88.6415 15.0206 88.6406 15.0719V15.2051L92.5136 27.4708C92.5513 27.613 92.6401 27.7364 92.763 27.8173C92.886 27.8984 93.0344 27.9314 93.1801 27.9101H96.2665C96.4313 27.9371 96.6002 27.9016 96.7399 27.8103C96.8316 27.7218 96.9003 27.6121 96.9399 27.4908L100.84 15.1651V15.0786C100.838 15.0208 100.814 14.9658 100.773 14.9255C100.725 14.8828 100.664 14.8571 100.6 14.8523Z" fill="#9F9F9F"/>
<path d="M112.318 17.4089C112.363 17.4126 112.408 17.4069 112.451 17.3919C112.493 17.377 112.532 17.3533 112.565 17.3224C112.596 17.2974 112.621 17.2647 112.636 17.2274C112.651 17.19 112.656 17.1493 112.651 17.1094V15.206C112.657 15.161 112.652 15.1154 112.637 15.0726C112.622 15.0298 112.598 14.9909 112.566 14.9589C112.533 14.9268 112.495 14.9025 112.452 14.8876C112.409 14.8728 112.363 14.8679 112.318 14.8732H104.452C104.253 14.8705 104.056 14.9076 103.872 14.9822C103.688 15.0569 103.521 15.1676 103.381 15.3078C103.24 15.448 103.129 15.6149 103.055 15.7986C102.98 15.9823 102.943 16.1791 102.945 16.3773V27.6382C102.956 27.7173 102.993 27.7908 103.049 27.8472C103.106 27.9037 103.18 27.9402 103.259 27.951H112.471C112.516 27.9539 112.561 27.9478 112.604 27.933C112.646 27.9181 112.685 27.8947 112.718 27.8645C112.75 27.837 112.775 27.802 112.79 27.7624C112.805 27.7228 112.81 27.6801 112.805 27.6382V25.7548C112.805 25.5152 112.705 25.4153 112.471 25.4153H106.845C106.746 25.4153 106.648 25.3956 106.556 25.3573C106.465 25.3191 106.382 25.2629 106.312 25.1923C106.243 25.1217 106.188 25.0379 106.151 24.9459C106.115 24.8539 106.097 24.7556 106.099 24.6566V23.7514C106.085 23.5243 105.985 23.3109 105.819 23.155C105.653 22.9991 105.433 22.9125 105.205 22.9129V22.5801H111.045C111.089 22.5831 111.134 22.5765 111.176 22.5608C111.217 22.5452 111.255 22.5208 111.287 22.4892C111.319 22.4577 111.343 22.4199 111.359 22.3781C111.374 22.3364 111.381 22.2918 111.378 22.2473V20.4904C111.383 20.4454 111.378 20.3998 111.364 20.3569C111.349 20.3141 111.324 20.2752 111.292 20.2432C111.26 20.2112 111.221 20.1868 111.178 20.1719C111.136 20.1572 111.09 20.1523 111.045 20.1576H106.845C106.745 20.1576 106.647 20.1376 106.555 20.099C106.463 20.0603 106.38 20.0036 106.31 19.9323C106.24 19.8609 106.186 19.7763 106.15 19.6835C106.113 19.5908 106.096 19.4918 106.099 19.3922V18.5869C106.098 18.471 106.074 18.3564 106.028 18.2497C105.983 18.1429 105.917 18.0464 105.834 17.9653C105.751 17.8843 105.652 17.8203 105.545 17.7774C105.437 17.7345 105.321 17.7132 105.205 17.715V17.3822L112.318 17.4089Z" fill="#9F9F9F"/>
<path d="M125.901 14.8529H124.668C124.468 14.8494 124.27 14.8857 124.084 14.9598C123.899 15.0339 123.73 15.1442 123.588 15.2843C123.445 15.4245 123.333 15.5916 123.256 15.7757C123.18 15.9599 123.141 16.1576 123.141 16.3571L122.948 22.5665L122.655 21.9742L122.541 21.8012L122.328 21.4617L121.948 20.8761C121.755 20.5898 121.562 20.2771 121.348 19.931L121.122 19.5849C120.935 19.3054 120.715 18.9593 120.455 18.5667L119.049 16.3637L118.382 15.372C118.288 15.203 118.148 15.0644 117.978 14.9724C117.808 14.8804 117.615 14.839 117.422 14.8529H116.755C116.355 14.8529 115.971 15.0112 115.688 15.2931C115.404 15.5749 115.244 15.9575 115.242 16.3571V27.6179C115.254 27.6966 115.291 27.7695 115.347 27.8258C115.404 27.8821 115.477 27.9188 115.555 27.9308H118.069C118.112 27.9325 118.154 27.9258 118.195 27.9111C118.235 27.8963 118.272 27.8737 118.304 27.8447C118.335 27.8156 118.361 27.7807 118.379 27.7418C118.397 27.7028 118.407 27.6608 118.409 27.6179L118.622 20.51L118.915 21.0956C118.915 21.0956 118.955 21.1622 119.135 21.4218L119.615 22.1539L120.235 23.099C120.402 23.3785 120.628 23.7179 120.902 24.1238L121.128 24.4699C121.746 25.4061 122.439 26.4644 123.208 27.6445C123.259 27.7361 123.335 27.8116 123.427 27.8622C123.519 27.9127 123.623 27.9365 123.728 27.9308H125.901C125.989 27.9295 126.073 27.8937 126.134 27.8309C126.188 27.765 126.219 27.683 126.221 27.598V15.1658C126.221 15.0698 126.186 14.9773 126.121 14.9062C126.058 14.8604 125.979 14.8413 125.901 14.8529Z" fill="#9F9F9F"/>
<path d="M140.068 14.9131H138.621C138.345 14.9166 138.074 14.9953 137.84 15.1407C137.605 15.2862 137.414 15.4928 137.288 15.7384C137.177 15.9426 137.123 16.1719 137.128 16.4039V23.0592C137.128 24.7364 136.341 25.595 134.788 25.595C133.235 25.595 132.441 24.7165 132.441 23.0592V15.2259C132.444 15.1825 132.436 15.1392 132.421 15.0988C132.405 15.0585 132.38 15.0222 132.348 14.9925C132.315 14.9627 132.278 14.9402 132.237 14.9265C132.196 14.9128 132.152 14.9082 132.109 14.9131H130.662C130.488 14.9173 130.314 14.9465 130.148 14.9996C129.973 15.0659 129.813 15.1653 129.675 15.2925C129.518 15.4164 129.392 15.5761 129.309 15.7583C129.198 15.9625 129.143 16.192 129.149 16.4239V23.0792C129.149 26.367 131.149 28.1839 134.809 28.1839C138.468 28.1839 140.422 26.367 140.422 23.0792V15.2259C140.424 15.1806 140.417 15.1352 140.399 15.0932C140.381 15.0513 140.355 15.0138 140.321 14.9836C140.287 14.9535 140.247 14.9315 140.203 14.9193C140.159 14.907 140.112 14.9049 140.068 14.9131Z" fill="#9F9F9F"/>
<path d="M152.619 17.4089C152.664 17.4126 152.71 17.4069 152.753 17.3919C152.794 17.377 152.833 17.3533 152.866 17.3224C152.897 17.2974 152.922 17.2647 152.938 17.2274C152.953 17.19 152.958 17.1493 152.953 17.1094V15.206C152.958 15.161 152.953 15.1154 152.939 15.0726C152.924 15.0298 152.899 14.9909 152.867 14.9589C152.834 14.9268 152.795 14.9025 152.753 14.8876C152.71 14.8728 152.664 14.8679 152.619 14.8732H144.733C144.536 14.8705 144.338 14.9076 144.154 14.9822C143.969 15.0569 143.803 15.1676 143.662 15.3078C143.522 15.448 143.41 15.6149 143.336 15.7986C143.262 15.9823 143.224 16.1791 143.227 16.3773V27.6382C143.238 27.7173 143.275 27.7908 143.331 27.8472C143.388 27.9037 143.461 27.9402 143.54 27.951H152.753C152.846 27.9565 152.936 27.9253 153.006 27.8645C153.052 27.8246 153.086 27.7779 153.086 27.6382V25.7548C153.086 25.5152 152.987 25.4153 152.753 25.4153H147.127C147.028 25.4153 146.929 25.3956 146.837 25.3573C146.747 25.3191 146.664 25.2629 146.595 25.1923C146.524 25.1217 146.47 25.0379 146.433 24.9459C146.396 24.8539 146.378 24.7556 146.381 24.6566V23.7514C146.368 23.5238 146.269 23.3094 146.102 23.1531C145.935 22.997 145.715 22.9108 145.487 22.9129V22.5801H151.327C151.371 22.583 151.416 22.5764 151.458 22.5608C151.5 22.5452 151.538 22.5209 151.571 22.4895C151.602 22.458 151.627 22.4203 151.644 22.3786C151.66 22.3369 151.668 22.2922 151.666 22.2473V20.4904C151.67 20.445 151.664 20.3993 151.649 20.3566C151.634 20.3137 151.609 20.275 151.576 20.2431C151.543 20.2112 151.504 20.1871 151.46 20.1722C151.417 20.1575 151.372 20.1524 151.327 20.1576H147.127C147.028 20.1576 146.928 20.1376 146.836 20.099C146.744 20.0603 146.661 20.0036 146.592 19.9323C146.522 19.8609 146.467 19.7763 146.431 19.6835C146.394 19.5908 146.377 19.4918 146.381 19.3922V18.5869C146.379 18.471 146.355 18.3564 146.31 18.2497C146.265 18.1429 146.198 18.0464 146.115 17.9653C146.032 17.8843 145.934 17.8203 145.826 17.7774C145.719 17.7345 145.603 17.7132 145.487 17.715V17.3822L152.619 17.4089Z" fill="#9F9F9F"/>
<path d="M166.729 14.8926H165.303C164.904 14.8961 164.521 15.0555 164.239 15.3367C163.956 15.6177 163.795 15.9983 163.79 16.3967V19.0589C163.79 19.2093 163.746 19.3563 163.663 19.4818C163.58 19.6072 163.461 19.7056 163.323 19.7644C162.173 20.2321 160.938 20.4587 159.696 20.4299C159.531 20.4236 159.37 20.3679 159.237 20.2702C159.135 20.2132 159.053 20.1283 158.997 20.0256C158.943 19.923 158.919 19.8068 158.929 19.6912V15.2254C158.929 14.9925 158.83 14.8926 158.596 14.8926H157.17C156.77 14.8926 156.386 15.0509 156.103 15.3329C155.818 15.6147 155.659 15.9972 155.657 16.3967V27.6577C155.653 27.6995 155.66 27.7414 155.675 27.7808C155.689 27.8201 155.713 27.8558 155.742 27.8854C155.772 27.9151 155.807 27.938 155.847 27.9527C155.886 27.9673 155.928 27.9734 155.971 27.9705H158.596C158.641 27.9742 158.687 27.9683 158.729 27.9535C158.772 27.9386 158.81 27.9149 158.843 27.884C158.875 27.8564 158.901 27.8213 158.916 27.7818C158.931 27.7423 158.936 27.6996 158.929 27.6577V23.9839C158.935 23.7762 158.86 23.5744 158.723 23.4181C158.568 23.2733 158.373 23.1782 158.163 23.1453V22.8126H158.59C158.812 22.824 159.034 22.824 159.257 22.8126C160.45 22.8367 161.642 22.6957 162.796 22.3933H162.842C162.905 22.3714 162.971 22.3601 163.036 22.36C163.216 22.36 163.392 22.4184 163.536 22.5264C163.616 22.5931 163.68 22.6779 163.722 22.7739C163.764 22.8699 163.782 22.9743 163.776 23.0787V27.6443C163.78 27.7297 163.816 27.8103 163.879 27.8687C163.941 27.9272 164.024 27.9589 164.11 27.9572H166.729C166.774 27.9608 166.819 27.9551 166.862 27.9401C166.904 27.9253 166.943 27.9015 166.975 27.8706C167.008 27.8432 167.033 27.808 167.048 27.7685C167.063 27.729 167.068 27.6863 167.062 27.6443V15.2254C167.042 14.9925 166.943 14.8926 166.729 14.8926Z" fill="#9F9F9F"/>
<path d="M179.394 17.4088C179.44 17.4126 179.487 17.4069 179.53 17.392C179.574 17.3772 179.614 17.3534 179.648 17.3223C179.678 17.2961 179.702 17.2632 179.716 17.2262C179.731 17.1891 179.737 17.1491 179.735 17.1093V15.2058C179.739 15.1605 179.732 15.1147 179.717 15.072C179.701 15.0293 179.676 14.9905 179.644 14.9586C179.611 14.9268 179.571 14.9025 179.528 14.8877C179.486 14.8729 179.439 14.8679 179.394 14.8731H171.548C171.349 14.8704 171.152 14.9074 170.968 14.982C170.783 15.0566 170.615 15.1671 170.474 15.3072C170.333 15.4474 170.223 15.6142 170.147 15.7979C170.072 15.9817 170.034 16.1786 170.035 16.3772V27.638C170.047 27.7168 170.084 27.7896 170.14 27.8459C170.196 27.9022 170.269 27.9389 170.349 27.9509H179.567C179.613 27.9534 179.657 27.9471 179.699 27.9322C179.742 27.9173 179.781 27.8943 179.814 27.8643C179.847 27.8369 179.871 27.8018 179.886 27.7623C179.902 27.7227 179.906 27.68 179.901 27.638V25.7547C179.901 25.515 179.801 25.4152 179.567 25.4152H173.934C173.836 25.4152 173.738 25.3955 173.646 25.3572C173.554 25.3188 173.471 25.2628 173.402 25.1922C173.333 25.1215 173.278 25.0378 173.241 24.9458C173.204 24.8538 173.187 24.7555 173.188 24.6565V23.7513C173.176 23.5236 173.077 23.3093 172.91 23.153C172.744 22.9968 172.523 22.9107 172.294 22.9127V22.58H178.141C178.185 22.5819 178.23 22.5745 178.271 22.5585C178.313 22.5425 178.349 22.518 178.381 22.4867C178.412 22.4554 178.437 22.418 178.452 22.3768C178.469 22.3355 178.476 22.2914 178.474 22.2472V20.4902C178.48 20.4452 178.475 20.3996 178.46 20.3568C178.445 20.314 178.421 20.2751 178.388 20.2431C178.357 20.2111 178.318 20.1867 178.275 20.1718C178.232 20.1569 178.185 20.1521 178.141 20.1575H173.934C173.835 20.1566 173.737 20.1361 173.646 20.097C173.554 20.058 173.471 20.0013 173.402 19.9301C173.333 19.859 173.277 19.7748 173.241 19.6824C173.204 19.59 173.187 19.4914 173.188 19.3921V18.5868C173.188 18.4709 173.164 18.3563 173.119 18.2495C173.072 18.1428 173.007 18.0462 172.924 17.9652C172.84 17.8841 172.742 17.8202 172.634 17.7773C172.526 17.7343 172.411 17.7131 172.294 17.7149V17.3821L179.394 17.4088Z" fill="#9F9F9F"/>
<path d="M187.333 23.2923C187.471 23.2873 187.607 23.3224 187.725 23.3933C187.844 23.4642 187.939 23.5679 188 23.6917L189.999 27.5451C190.051 27.6664 190.137 27.7699 190.247 27.842C190.358 27.9143 190.488 27.9523 190.62 27.951H193.34C193.409 27.947 193.474 27.9186 193.526 27.8712C193.56 27.8329 193.58 27.7831 193.579 27.7315C193.574 27.6851 193.56 27.64 193.538 27.5983L191.113 23.2125C191.082 23.1659 191.062 23.1134 191.052 23.0584C191.043 23.0034 191.045 22.947 191.059 22.893C191.064 22.8207 191.087 22.7508 191.127 22.6902C191.166 22.6294 191.221 22.5801 191.286 22.547C191.907 22.2185 192.425 21.7226 192.778 21.1157C193.132 20.5086 193.307 19.8146 193.285 19.1127C193.285 15.4391 190.006 14.8933 188.052 14.8933H183.966C183.768 14.8869 183.571 14.9208 183.386 14.9928C183.202 15.0648 183.033 15.1735 182.892 15.3122C182.75 15.451 182.638 15.6168 182.564 15.7999C182.488 15.983 182.451 16.1794 182.453 16.3774V27.6583C182.47 27.7343 182.509 27.8034 182.566 27.8559C182.623 27.9084 182.696 27.9416 182.773 27.951H185.44C185.481 27.9537 185.523 27.9472 185.563 27.9324C185.602 27.9174 185.637 27.8942 185.666 27.8645C185.698 27.8411 185.723 27.8095 185.738 27.7733C185.753 27.7369 185.758 27.6972 185.753 27.6583V24.4836C185.74 24.2663 185.659 24.0589 185.52 23.8913C185.436 23.8002 185.331 23.7289 185.217 23.6829C185.101 23.6368 184.977 23.6171 184.853 23.6251V23.2923H187.333ZM184.667 17.6419V17.3091H188C188.483 17.2918 188.957 17.4503 189.332 17.7551C189.51 17.927 189.648 18.1347 189.738 18.3643C189.827 18.5939 189.866 18.84 189.852 19.0861C189.852 20.1576 189.152 20.7899 187.986 20.7899H186.313C186.212 20.7939 186.112 20.775 186.02 20.7346C185.927 20.6943 185.845 20.6336 185.78 20.557C185.71 20.4927 185.655 20.4143 185.618 20.327C185.582 20.2398 185.564 20.1458 185.567 20.0512V18.4938C185.557 18.2643 185.457 18.0476 185.291 17.8889C185.125 17.7302 184.904 17.6417 184.673 17.6419H184.667Z" fill="#9F9F9F"/>
<path d="M206.956 19.8247C206.856 16.5636 204.736 14.6934 201.15 14.6934C197.563 14.6934 195.43 16.5636 195.324 19.8247C195.324 20.1908 195.324 20.7365 195.324 21.4953C195.324 22.2539 195.324 22.7797 195.324 23.1392C195.424 26.4069 197.496 28.2105 201.15 28.2105C202.664 28.2981 204.159 27.8399 205.362 26.9193C206.996 25.5284 206.996 23.4718 206.996 21.4885C206.996 21.2312 206.996 20.8718 206.996 20.4104L206.956 19.8247ZM203.57 22.3804V23.0459C203.53 24.7097 202.65 25.6681 201.17 25.6681C199.69 25.6681 198.79 24.7097 198.75 23.0459C198.75 22.6798 198.75 22.1341 198.75 21.4419C198.75 20.7498 198.75 20.244 198.75 19.8779C198.79 18.1875 199.65 17.2557 201.17 17.2557C202.689 17.2557 203.53 18.1875 203.57 19.8779V20.4569C203.57 20.883 203.57 21.209 203.57 21.4419C203.57 21.6749 203.583 21.9345 203.57 22.3471V22.3804Z" fill="#9F9F9F"/>
</g>
</g>
</g>
</g>
<defs>
<clipPath id="clip0_459_3117">
<rect width="207" height="48" fill="white"/>
</clipPath>
</defs>
</svg>
