<svg width="126" height="40" viewBox="0 0 126 40" fill="none" xmlns="http://www.w3.org/2000/svg">
<mask id="mask0_459_3168" style="mask-type:luminance" maskUnits="userSpaceOnUse" x="7" y="5" width="114" height="30">
<path d="M120.67 5H7V34.58H120.67V5Z" fill="white"/>
</mask>
<g mask="url(#mask0_459_3168)">
<path d="M33.5694 19.1331C33.5677 18.7212 33.6628 18.3147 33.847 17.9464C34.0312 17.578 34.2993 17.258 34.6298 17.0123C35.3544 16.4273 36.3061 16.1348 37.4849 16.1348C38.6638 16.1348 39.6137 16.4193 40.3348 16.9884C40.6904 17.2642 40.9791 17.6167 41.1793 18.0198C41.3794 18.4229 41.4859 18.866 41.4906 19.316H38.9562C38.8873 18.4942 38.381 18.0833 37.4425 18.0833C37.0577 18.0607 36.6755 18.16 36.3503 18.3669C36.2266 18.4531 36.1264 18.5687 36.0588 18.7035C35.9912 18.8382 35.9583 18.9877 35.9633 19.1384C35.971 19.3108 36.0306 19.4769 36.1342 19.615C36.2377 19.753 36.3805 19.8567 36.5438 19.9125C36.9927 20.12 37.4669 20.268 37.9542 20.3525C38.5029 20.4586 39.0543 20.5885 39.5978 20.7475C40.1311 20.8989 40.6144 21.1899 40.9975 21.5906C41.1954 21.8074 41.3485 22.0612 41.4481 22.3373C41.5477 22.6134 41.5919 22.9065 41.5781 23.1997C41.584 23.6216 41.4851 24.0384 41.2904 24.4127C41.0956 24.787 40.811 25.1071 40.462 25.3444C39.6265 25.9231 38.625 26.2135 37.6095 26.1715C36.5984 26.2148 35.6006 25.9272 34.7676 25.3523C34.3999 25.0794 34.0992 24.7263 33.8884 24.3198C33.6775 23.9132 33.5621 23.464 33.5508 23.0062H36.0879C36.1806 23.828 36.7029 24.2363 37.6519 24.2363C38.0457 24.2559 38.4352 24.1481 38.7627 23.9288C38.893 23.8411 38.9996 23.7226 39.0731 23.5839C39.1467 23.4452 39.1848 23.2905 39.1842 23.1335C39.1778 22.9581 39.119 22.7887 39.0156 22.647C38.9121 22.5053 38.7687 22.3977 38.6037 22.3381C38.1573 22.1246 37.6836 21.9738 37.196 21.8901C36.6446 21.7841 36.0958 21.6551 35.5497 21.5031C35.0186 21.3594 34.5354 21.0766 34.15 20.6839C33.9529 20.4785 33.7997 20.235 33.6999 19.9683C33.6001 19.7017 33.5557 19.4175 33.5694 19.1331Z" fill="#9F9F9F"/>
<path d="M47.8264 23.9501H49.0061V26.0259H47.4393C46.4399 26.0259 45.6711 25.7952 45.1329 25.3393C44.5948 24.8833 44.3217 24.1251 44.3217 23.0726V18.3008H43.2852V16.286H44.3217V13.8789H46.8057V16.286H48.9875V18.3088H46.8057V23.0806C46.7931 23.203 46.8069 23.3268 46.8462 23.4434C46.8856 23.56 46.9495 23.6668 47.0337 23.7566C47.2672 23.9119 47.5476 23.9803 47.8264 23.9501Z" fill="#9F9F9F"/>
<path d="M52.0669 24.7774C51.1178 23.8531 50.6424 22.6398 50.6406 21.1376C50.6389 19.6353 51.1143 18.4282 52.0669 17.5163C53.0508 16.6354 54.3251 16.1484 55.6457 16.1484C56.9664 16.1484 58.2406 16.6354 59.2246 17.5163C60.1896 18.43 60.6712 19.6371 60.6694 21.1376C60.6676 22.638 60.186 23.8513 59.2246 24.7774C58.7461 25.2354 58.1816 25.594 57.5637 25.8324C56.9457 26.0709 56.2866 26.1844 55.6245 26.1665C54.9689 26.1838 54.3164 26.0698 53.7054 25.8312C53.0945 25.5927 52.5374 25.2344 52.0669 24.7774ZM55.6272 24.0881C55.9619 24.0917 56.2937 24.0254 56.6014 23.8935C56.909 23.7616 57.1858 23.5669 57.414 23.322C57.9141 22.8042 58.1642 22.0795 58.1642 21.1482C58.1642 20.2168 57.9177 19.4983 57.4246 18.9929C57.1961 18.7498 56.9194 18.5571 56.6122 18.427C56.305 18.2969 55.974 18.2323 55.6404 18.2373C55.3087 18.2314 54.9794 18.2956 54.6742 18.4258C54.369 18.556 54.0948 18.7493 53.8696 18.9929C53.3888 19.4966 53.1485 20.2177 53.1485 21.1561C53.1485 22.0946 53.3888 22.8156 53.8696 23.3193C54.0917 23.5642 54.3632 23.7593 54.6661 23.8918C54.969 24.0243 55.2966 24.0912 55.6272 24.0881Z" fill="#9F9F9F"/>
<path d="M65.4879 16.2849V18.008C66.1418 16.7709 67.0917 16.1523 68.3377 16.1523V18.684H67.7227C66.983 18.684 66.4263 18.867 66.0499 19.2381C65.6734 19.6093 65.4879 20.2428 65.4879 21.1442V26.0247H63.0039V16.2849H65.4879Z" fill="#9F9F9F"/>
<path d="M73.0714 25.8474L69.2539 16.2852H72.0348L74.5162 23.2123L77.138 16.2852H79.7254L73.6281 30.6298H71.0486L73.0714 25.8474Z" fill="#9F9F9F"/>
<path d="M81.5234 26.0241V13.0156H84.0047V26.0241H81.5234Z" fill="#9F9F9F"/>
<path d="M87.6223 24.7494C86.7386 23.8057 86.3021 22.6012 86.3127 21.1361C86.3233 19.671 86.7571 18.4727 87.6143 17.5413C88.0327 17.0834 88.5447 16.7206 89.1155 16.4778C89.6863 16.2349 90.3026 16.1175 90.9228 16.1336C91.5347 16.1093 92.1419 16.2498 92.6809 16.5403C93.22 16.8308 93.6712 17.2608 93.9873 17.7852V16.2741H96.4501V26.0246H93.9873V24.3889C93.2468 25.573 92.22 26.1651 90.9069 26.1651C90.2898 26.1792 89.6769 26.06 89.1101 25.8157C88.5432 25.5714 88.0357 25.2077 87.6223 24.7494ZM93.2132 23.2543C93.4785 22.9755 93.6841 22.6455 93.8172 22.2844C93.9503 21.9234 94.0082 21.5389 93.9873 21.1547C94.0089 20.7695 93.9514 20.3841 93.8183 20.022C93.6851 19.66 93.4792 19.3291 93.2132 19.0498C92.9775 18.8089 92.696 18.6175 92.3853 18.4869C92.0746 18.3562 91.741 18.2889 91.4039 18.2889C91.0669 18.2889 90.7332 18.3562 90.4225 18.4869C90.1118 18.6175 89.8304 18.8089 89.5946 19.0498C89.0821 19.5535 88.8267 20.2507 88.8285 21.1414C88.8065 21.529 88.8639 21.9169 88.997 22.2816C89.1301 22.6462 89.3361 22.9799 89.6026 23.2622C89.8359 23.5058 90.1162 23.6997 90.4264 23.8322C90.7367 23.9646 91.0706 24.0329 91.4079 24.0329C91.7453 24.0329 92.0791 23.9646 92.3894 23.8322C92.6996 23.6997 92.9799 23.5058 93.2132 23.2622V23.2543Z" fill="#9F9F9F"/>
<path d="M101.919 16.2852V17.7433C102.543 16.6829 103.553 16.1527 104.949 16.1527C105.455 16.1347 105.959 16.2231 106.429 16.4121C106.899 16.6012 107.324 16.8867 107.677 17.2502C108.384 17.9854 108.737 19.0025 108.737 20.3015V26.025H106.274V20.6408C106.274 19.8774 106.08 19.2941 105.691 18.8912C105.484 18.6837 105.235 18.5224 104.961 18.4178C104.687 18.3132 104.393 18.2676 104.101 18.2841C103.808 18.2699 103.515 18.3165 103.242 18.421C102.968 18.5255 102.719 18.6856 102.51 18.8912C102.118 19.2941 101.919 19.8774 101.919 20.6408V26.025H99.4375V16.2852H101.919Z" fill="#9F9F9F"/>
<path d="M115.759 26.1656C115.117 26.1897 114.477 26.0792 113.88 25.8414C113.283 25.6035 112.742 25.2435 112.292 24.7844C111.398 23.8654 110.951 22.6495 110.953 21.1366C110.955 19.6238 111.404 18.414 112.3 17.5074C112.755 17.0509 113.3 16.6933 113.9 16.457C114.499 16.2207 115.142 16.1108 115.786 16.1341C116.43 16.1104 117.072 16.2154 117.675 16.443C118.277 16.6706 118.828 17.0163 119.296 17.4597C120.213 18.3433 120.671 19.5239 120.669 21.0014C120.67 21.3191 120.647 21.6363 120.6 21.9505H113.487C113.522 22.5309 113.774 23.0771 114.193 23.4801C114.401 23.6792 114.647 23.8353 114.916 23.9395C115.184 24.0437 115.471 24.0938 115.759 24.0872C116.144 24.1065 116.526 24.0173 116.862 23.8298C117.198 23.6423 117.475 23.364 117.66 23.0268H120.335C120.059 23.9442 119.483 24.7424 118.699 25.2934C117.838 25.8923 116.808 26.1981 115.759 26.1656ZM117.387 18.817C116.949 18.4306 116.381 18.2234 115.797 18.2364C115.221 18.2185 114.661 18.4269 114.238 18.817C113.807 19.2288 113.541 19.7825 113.487 20.3758H118.1C118.096 20.0806 118.031 19.7895 117.908 19.5211C117.785 19.2527 117.608 19.0129 117.387 18.817Z" fill="#9F9F9F"/>
<path d="M7.92256 15.7365L18.85 7.49712C18.9954 7.38717 19.1175 7.24961 19.2096 7.09233C19.3016 6.93505 19.3616 6.76114 19.3862 6.58059C19.4109 6.40004 19.3996 6.2164 19.3531 6.04022C19.3066 5.86403 19.2257 5.69877 19.1151 5.55392C18.8922 5.26085 18.562 5.06829 18.1971 5.01858C17.8322 4.96887 17.4625 5.06607 17.1693 5.28882L7.7476 12.3882C7.55055 12.5369 7.38471 12.7229 7.25955 12.9356C7.1344 13.1484 7.05237 13.3837 7.01815 13.6281C6.98393 13.8726 6.9982 14.1214 7.06013 14.3603C7.12206 14.5993 7.23045 14.8236 7.37911 15.0207L7.92256 15.7365Z" fill="#9F9F9F"/>
<path d="M15.0368 16.4598L22.0169 11.1975C22.1635 11.0861 22.2867 10.9468 22.3794 10.7877C22.4721 10.6286 22.5325 10.4528 22.5571 10.2703C22.5817 10.0878 22.5701 9.90229 22.5229 9.7243C22.4757 9.54632 22.3939 9.3794 22.282 9.23311C22.1706 9.08688 22.0315 8.96404 21.8727 8.87158C21.7138 8.77912 21.5382 8.71886 21.3561 8.69425C21.1739 8.66963 20.9887 8.68114 20.811 8.72811C20.6332 8.77508 20.4665 8.8566 20.3203 8.968L13.3455 14.2223C13.3112 14.249 13.2887 14.2881 13.2828 14.3312C13.2768 14.3742 13.2879 14.4179 13.3137 14.4529L14.8062 16.4279C14.8329 16.4622 14.872 16.4847 14.9151 16.4907C14.9581 16.4966 15.0018 16.4855 15.0368 16.4598Z" fill="#9F9F9F"/>
<path d="M14.5043 34.3017L23.3666 27.6212C23.9504 27.1778 24.3342 26.5207 24.4336 25.7944C24.533 25.0681 24.3399 24.332 23.8968 23.748L12.8315 32.0934C12.5396 32.3154 12.3476 32.6442 12.2979 33.0075C12.2482 33.3709 12.3448 33.7391 12.5664 34.0313C12.788 34.3235 13.1163 34.516 13.4795 34.5667C13.8427 34.6174 14.2112 34.5221 14.5043 34.3017Z" fill="#9F9F9F"/>
<path d="M11.6156 30.3337L18.8793 24.8593C18.8882 24.8525 18.8957 24.8441 18.9014 24.8344C18.907 24.8247 18.9106 24.8141 18.9121 24.803C18.9136 24.7919 18.9129 24.7806 18.91 24.7698C18.9071 24.759 18.9021 24.7489 18.8952 24.74L17.3205 22.6563C17.314 22.6472 17.3057 22.6395 17.2961 22.6336C17.2865 22.6278 17.2759 22.6238 17.2648 22.6221C17.2537 22.6204 17.2423 22.6209 17.2314 22.6236C17.2205 22.6263 17.2103 22.6311 17.2013 22.6378L9.94018 28.1121C9.79459 28.2228 9.67225 28.361 9.58013 28.519C9.48801 28.677 9.42792 28.8515 9.4033 29.0327C9.37868 29.2139 9.39001 29.3982 9.43664 29.575C9.48328 29.7519 9.5643 29.9178 9.67508 30.0633C9.89757 30.355 10.2262 30.5471 10.5897 30.5978C10.9531 30.6484 11.3218 30.5535 11.6156 30.3337Z" fill="#9F9F9F"/>
<path d="M22.7001 22.1601L18.3869 16.4551L16.168 18.1279L20.4812 23.8328L22.7001 22.1601Z" fill="#9F9F9F"/>
<path d="M15.569 21.4701L11.2267 15.7227L9.00781 17.3982L13.3501 23.1429L15.569 21.4701Z" fill="#9F9F9F"/>
</g>
</svg>
