<svg width="20" height="20" viewBox="0 0 20 20" fill="none" xmlns="http://www.w3.org/2000/svg">
<mask id="mask0_459_3458" style="mask-type:alpha" maskUnits="userSpaceOnUse" x="0" y="0" width="20" height="20">
<rect width="20" height="20" fill="#D9D9D9"/>
</mask>
<g mask="url(#mask0_459_3458)">
<path d="M15.8961 16.9792C14.1877 16.8404 12.5766 16.4133 11.0627 15.698C9.54885 14.9827 8.21898 14.0487 7.07315 12.8959C5.92732 11.7431 4.99329 10.4098 4.27107 8.89592C3.54885 7.38203 3.12523 5.77091 3.00023 4.06258C2.97246 3.77091 3.05778 3.51744 3.25619 3.30216C3.4546 3.08689 3.70261 2.97925 4.00023 2.97925H6.83357C7.06968 2.97925 7.27454 3.04869 7.44815 3.18758C7.62176 3.32647 7.73635 3.51397 7.7919 3.75008L8.2919 5.97925C8.31968 6.14591 8.31273 6.31258 8.27107 6.47925C8.2294 6.64591 8.14607 6.79175 8.02107 6.91675L6.00023 8.95842C6.58357 10.014 7.29885 10.9654 8.14607 11.8126C8.99329 12.6598 9.94468 13.3751 11.0002 13.9584L13.0627 11.9584C13.2016 11.8195 13.353 11.7327 13.5169 11.698C13.6809 11.6633 13.842 11.6598 14.0002 11.6876L16.2294 12.1667C16.4655 12.2223 16.653 12.3397 16.7919 12.5188C16.9308 12.698 17.0002 12.907 17.0002 13.1459V15.9792C17.0002 16.3542 16.8683 16.6181 16.6044 16.7709C16.3405 16.9237 16.1044 16.9931 15.8961 16.9792ZM5.31273 7.50008L6.77107 6.04175L6.41357 4.47925H4.5419C4.61135 5.00703 4.70857 5.52091 4.83357 6.02091C4.95857 6.52091 5.11829 7.01397 5.31273 7.50008ZM12.4794 14.6667C12.9669 14.8646 13.4638 15.0217 13.97 15.138C14.4763 15.2544 14.9863 15.3473 15.5002 15.4167V13.5417L13.9377 13.2084L12.4794 14.6667Z" fill="white"/>
</g>
</svg>
