<svg width="16" height="17" viewBox="0 0 16 17" fill="none" xmlns="http://www.w3.org/2000/svg">
<path d="M15.8 4.99687C15.8 4.09687 15.6 3.59688 15.4 3.09688C15.2 2.49688 14.9 2.09688 14.4 1.69688C13.9 1.19688 13.5 0.996875 13 0.696875C12.5 0.496875 11.9 0.396875 11.1 0.296875H8C5.9 0.296875 5.5 0.296875 4.7 0.396875C3.8 0.396875 3.3 0.596875 2.8 0.796875C2.2 0.996875 1.8 1.19688 1.4 1.69688C0.9 2.09688 0.7 2.59688 0.4 3.09688C0.2 3.69688 0.0999999 4.19688 0.0999999 5.09688C-9.68575e-08 5.79688 0 6.09688 0 8.29688C0 10.4969 -9.68575e-08 10.7969 0.0999999 11.5969C0.0999999 12.4969 0.3 12.9969 0.5 13.4969C0.7 14.0969 1 14.4969 1.5 14.8969C2 15.2969 2.4 15.5969 2.9 15.8969C3.3 16.0969 4 16.1969 4.8 16.2969H8C10.1 16.2969 10.4 16.2969 11.2 16.1969C12.1 16.1969 12.6 15.9969 13.1 15.7969C13.7 15.5969 14.1 15.2969 14.5 14.7969C15 14.2969 15.2 13.8969 15.5 13.3969C15.7 12.8969 15.8 12.2969 15.9 11.4969C15.9 10.5969 16 10.4969 16 8.29688C15.9 6.19688 15.9 5.79688 15.8 4.99687ZM14.4 11.4969C14.4 12.2969 14.2 12.6969 14.2 12.9969C14 13.3969 13.9 13.5969 13.6 13.8969C13.4 14.0969 13 14.3969 12.7 14.4969C12.4 14.5969 12 14.6969 11.2 14.6969C10.3 14.6969 10.1 14.7969 8 14.7969C5.9 14.7969 5.6 14.7969 4.8 14.6969C4 14.6969 3.6 14.4969 3.3 14.4969C2.8 14.3969 2.6 14.2969 2.3 13.8969C2.1 13.6969 1.8 13.2969 1.7 12.9969C1.5 12.6969 1.4 12.2969 1.4 11.4969C1.4 10.5969 1.3 10.3969 1.3 8.29688C1.3 6.09688 1.3 5.89688 1.4 5.09688C1.4 4.29688 1.6 3.89688 1.6 3.59688C1.8 3.19688 1.9 2.99688 2.2 2.69688C2.4 2.49688 2.8 2.19687 3.1 2.09687C3.6 1.99687 4 1.79688 4.8 1.79688C5.7 1.79688 6 1.69688 8 1.69688C10 1.69688 10.3 1.69687 11.1 1.79688C11.9 1.79688 12.3 1.99688 12.6 1.99688C13 2.19688 13.2 2.29688 13.5 2.59688C13.8 2.89688 14 3.29688 14.1 3.59688C14.3 3.89688 14.4 4.29688 14.4 5.09688C14.4 5.99688 14.5 6.19688 14.5 8.29688C14.5 10.4969 14.5 10.6969 14.4 11.4969ZM8 4.19688C5.8 4.19688 3.9 5.99687 3.9 8.29688C3.9 10.5969 5.7 12.3969 8 12.3969C10.3 12.3969 12 10.4969 12 8.29688C12 6.09688 10.2 4.19688 8 4.19688ZM8 10.8969C6.6 10.8969 5.4 9.69687 5.4 8.29688C5.4 6.89687 6.5 5.69688 8 5.69688C9.5 5.69688 10.6 6.89687 10.6 8.29688C10.6 9.69687 9.4 10.8969 8 10.8969ZM13.1 4.09688C13.1 4.69688 12.7 5.09688 12.1 5.09688C11.5 5.09688 11.1 4.69688 11.1 4.09688C11.1 3.49688 11.5 3.09688 12.1 3.09688C12.7 3.09688 13.1 3.49688 13.1 4.09688Z" fill="white"/>
</svg>
