<svg width="300" height="300" viewBox="0 0 300 300" fill="none" xmlns="http://www.w3.org/2000/svg">
<g clip-path="url(#clip0_1182_44)">
<path d="M87.8762 1.05004C71.9162 1.80304 61.0172 4.35004 51.4892 8.09404C41.6282 11.937 33.2702 17.094 24.9542 25.44C16.6382 33.786 11.5172 42.15 7.70124 52.026C4.00824 61.575 1.50624 72.483 0.801243 88.452C0.0962433 104.421 -0.0597568 109.554 0.0182432 150.288C0.0962432 191.022 0.276243 196.128 1.05024 212.13C1.81224 228.087 4.35024 238.983 8.09424 248.514C11.9432 258.375 17.0942 266.73 25.4432 275.049C33.7922 283.368 42.1502 288.477 52.0502 292.299C61.5902 295.986 72.5012 298.5 88.4672 299.199C104.433 299.898 109.572 300.06 150.294 299.982C191.016 299.904 196.143 299.724 212.142 298.965C228.141 298.206 238.98 295.65 248.514 291.924C258.375 288.066 266.736 282.924 275.049 274.572C283.362 266.22 288.48 257.85 292.293 247.968C295.989 238.428 298.5 227.517 299.193 211.563C299.892 195.552 300.057 190.44 299.979 149.712C299.901 108.984 299.718 103.878 298.959 87.882C298.2 71.886 295.659 61.023 291.918 51.486C288.063 41.625 282.918 33.276 274.572 24.951C266.226 16.626 257.85 11.511 247.971 7.70704C238.425 4.01404 227.52 1.49704 211.554 0.807041C195.588 0.117041 190.449 -0.0599593 149.712 0.0180407C108.975 0.0960407 103.875 0.270041 87.8762 1.05004ZM89.6282 272.214C75.0032 271.578 67.0622 269.148 61.7702 267.114C54.7622 264.414 49.7702 261.15 44.4962 255.927C39.2222 250.704 35.9822 245.694 33.2462 238.701C31.1912 233.409 28.7162 225.477 28.0322 210.852C27.2882 195.045 27.1322 190.299 27.0452 150.252C26.9582 110.205 27.1112 105.465 27.8042 89.652C28.4282 75.039 30.8732 67.089 32.9042 61.8C35.6042 54.783 38.8562 49.8 44.0912 44.529C49.3262 39.258 54.3212 36.012 61.3202 33.276C66.6062 31.212 74.5382 28.758 89.1572 28.062C104.976 27.312 109.716 27.162 149.757 27.075C189.798 26.988 194.55 27.138 210.375 27.834C224.988 28.47 232.941 30.891 238.224 32.934C245.235 35.634 250.224 38.877 255.495 44.121C260.766 49.365 264.015 54.342 266.751 61.356C268.818 66.627 271.272 74.556 271.962 89.184C272.715 105.003 272.886 109.746 272.958 149.784C273.03 189.822 272.889 194.577 272.196 210.384C271.557 225.009 269.133 232.953 267.096 238.251C264.396 245.256 261.141 250.251 255.903 255.519C250.665 260.787 245.676 264.033 238.674 266.769C233.394 268.83 225.453 271.29 210.846 271.986C195.027 272.73 190.287 272.886 150.231 272.973C110.175 273.06 105.45 272.898 89.6312 272.214M211.911 69.831C211.917 73.3914 212.979 76.8699 214.962 79.8269C216.945 82.7838 219.76 85.0862 223.052 86.4429C226.344 87.7996 229.964 88.1497 233.454 87.4488C236.945 86.748 240.15 85.0277 242.662 82.5056C245.175 79.9834 246.884 76.7727 247.572 73.2795C248.26 69.7863 247.897 66.1675 246.528 62.8809C245.159 59.5942 242.846 56.7872 239.882 54.815C236.918 52.8428 233.436 51.7939 229.875 51.801C225.102 51.8106 220.529 53.7153 217.16 57.0964C213.791 60.4776 211.903 65.0582 211.911 69.831ZM72.9812 150.15C73.0652 192.69 107.613 227.097 150.144 227.016C192.675 226.935 227.106 192.39 227.025 149.85C226.944 107.31 192.387 72.894 149.85 72.978C107.313 73.062 72.9002 107.616 72.9812 150.15ZM99.9992 150.096C99.9797 140.207 102.893 130.534 108.371 122.3C113.849 114.067 121.645 107.643 130.774 103.84C139.903 100.038 149.955 99.0276 159.658 100.938C169.361 102.848 178.28 107.592 185.286 114.571C192.293 121.55 197.072 130.45 199.021 140.145C200.969 149.841 199.999 159.896 196.233 169.04C192.466 178.184 186.073 186.006 177.862 191.516C169.65 197.027 159.988 199.978 150.099 199.998C143.533 200.012 137.028 198.732 130.956 196.231C124.884 193.731 119.365 190.059 114.712 185.425C110.06 180.791 106.366 175.286 103.842 169.224C101.317 163.162 100.011 156.663 99.9992 150.096Z" fill="white"/>
</g>
<defs>
<clipPath id="clip0_1182_44">
<rect width="300" height="300" fill="white"/>
</clipPath>
</defs>
</svg>
