<svg width="300" height="254" viewBox="0 0 300 254" fill="none" xmlns="http://www.w3.org/2000/svg">
<g clip-path="url(#clip0_1182_36)">
<path d="M285.279 236.899C285.922 236.905 286.561 236.78 287.154 236.533C287.747 236.285 288.282 235.919 288.726 235.457C289.17 234.996 289.514 234.449 289.736 233.851C289.958 233.253 290.053 232.616 290.016 231.979C290.016 228.49 287.89 226.823 283.529 226.823H276.481V245.09H279.132V237.127H282.389L282.464 237.224L287.518 245.09H290.353L284.915 236.949L285.279 236.899ZM282.213 235.069H279.14V228.893H283.035C285.048 228.893 287.342 229.219 287.342 231.828C287.342 234.829 285.02 235.069 282.198 235.069" fill="white"/>
<path d="M216.136 214.007H178.55V155.726C178.55 141.828 178.299 123.937 159.001 123.937C139.425 123.937 136.43 139.079 136.43 154.714V214.003H98.8435V94.1526H134.926V110.531H135.431C139.042 104.418 144.26 99.389 150.53 95.9798C156.799 92.5705 163.885 90.9088 171.033 91.1715C209.128 91.1715 216.152 115.982 216.152 148.259L216.136 214.007ZM56.4339 77.7698C52.12 77.7706 47.9026 76.5047 44.3152 74.1323C40.7279 71.7598 37.9318 68.3873 36.2802 64.4413C34.6287 60.4953 34.1958 56.153 35.0367 51.9634C35.8775 47.7739 37.9543 43.9253 41.0041 40.9044C44.054 37.8835 47.9401 35.8259 52.171 34.9918C56.4019 34.1577 60.7875 34.5847 64.7734 36.2186C68.7592 37.8525 72.1662 40.62 74.5636 44.1711C76.9609 47.7223 78.241 51.8976 78.2418 56.1691C78.2423 59.0052 77.6785 61.8137 76.5829 64.4341C75.4872 67.0546 73.8811 69.4357 71.8561 71.4415C69.8311 73.4473 67.4267 75.0386 64.7805 76.1244C62.1344 77.2102 59.2983 77.7693 56.4339 77.7698ZM75.227 214.007H37.6017V94.1526H75.227V214.007ZM234.874 0.0156474H18.7148C13.8086 -0.0391739 9.08088 1.83688 5.57094 5.23157C2.061 8.62625 0.0559713 13.2618 -0.00390625 18.1196V233.038C0.053922 237.898 2.05777 242.537 5.56759 245.935C9.07741 249.333 13.8062 251.213 18.7148 251.161H234.874C239.792 251.222 244.534 249.348 248.058 245.95C251.582 242.552 253.599 237.908 253.667 233.038V18.1041C253.597 13.2367 251.578 8.59583 248.054 5.20123C244.531 1.80664 239.79 -0.0640616 234.874 0.000134463" fill="white"/>
<path d="M282.535 218.687C277.962 218.73 273.592 220.565 270.382 223.79C267.171 227.015 265.382 231.367 265.404 235.895C265.426 240.423 267.258 244.758 270.499 247.953C273.741 251.147 278.128 252.94 282.701 252.94C287.274 252.94 291.661 251.147 294.902 247.953C298.144 244.758 299.976 240.423 299.998 235.895C300.02 231.367 298.23 227.015 295.02 223.79C291.81 220.565 287.44 218.73 282.867 218.687H282.535ZM282.535 250.979C279.535 251.028 276.588 250.196 274.067 248.587C271.545 246.978 269.562 244.665 268.368 241.94C267.174 239.215 266.823 236.201 267.359 233.279C267.895 230.356 269.294 227.657 271.38 225.522C273.466 223.387 276.144 221.912 279.076 221.284C282.008 220.656 285.062 220.903 287.852 221.994C290.643 223.085 293.043 224.971 294.751 227.413C296.459 229.854 297.397 232.743 297.447 235.713C297.447 235.798 297.447 235.88 297.447 235.965C297.531 239.861 296.049 243.63 293.327 246.444C290.604 249.259 286.865 250.887 282.93 250.971H282.538" fill="white"/>
</g>
<defs>
<clipPath id="clip0_1182_36">
<rect width="300" height="253.247" fill="white"/>
</clipPath>
</defs>
</svg>
