<svg width="205" height="23" viewBox="0 0 205 23" fill="none" xmlns="http://www.w3.org/2000/svg">
<path d="M38.6397 0.285156C39.0476 0.3607 39.4607 0.4266 39.8669 0.511787C41.3943 0.840726 42.7798 1.60107 43.8395 2.69193C44.8993 3.78279 45.5832 5.15259 45.8006 6.61957C46.37 10.6186 43.591 14.2639 39.4114 14.9069C38.3202 15.0945 37.1986 15.0524 36.1266 14.7835C35.0546 14.5146 34.0584 14.0255 33.2091 13.351C32.9592 13.1597 32.8199 13.1726 32.6142 13.3783C32.2573 13.7335 31.8884 14.0807 31.5043 14.4102C31.4606 14.4377 31.4232 14.4731 31.394 14.5144C31.3648 14.5556 31.3445 14.6019 31.3342 14.6505C31.324 14.6992 31.324 14.7493 31.3342 14.798C31.3444 14.8466 31.3647 14.8929 31.3938 14.9342C31.7521 15.6607 31.9429 16.4509 31.9535 17.2524C31.964 18.054 31.7942 18.8485 31.4551 19.5832C31.1161 20.3179 30.6156 20.9759 29.987 21.5137C29.3584 22.0515 28.616 22.4567 27.8091 22.7023C24.3281 23.7889 20.5326 21.5692 20.038 18.1617C19.9069 17.2902 19.9901 16.4019 20.281 15.5659C20.3038 15.5272 20.3175 15.4844 20.3212 15.4403C20.3249 15.3962 20.3184 15.3519 20.3022 15.3103C20.2861 15.2688 20.2607 15.2311 20.2277 15.1997C20.1947 15.1684 20.1549 15.1441 20.1111 15.1287C19.3666 14.7284 18.6323 14.3122 17.9303 13.9232C17.5064 14.2585 17.0626 14.5709 16.6012 14.8586C15.7051 15.3582 14.6574 15.5584 13.6265 15.4269C12.5956 15.2954 11.6414 14.8399 10.9173 14.1337C10.6453 13.8701 10.4703 13.8509 10.183 14.0871C9.86366 14.337 9.52817 14.5678 9.17848 14.7783C9.09619 14.8213 9.03344 14.8913 9.00211 14.9752C8.97079 15.059 8.97306 15.1508 9.00851 15.2331C9.37395 16.6379 8.4561 17.919 6.93315 18.0636C6.62641 18.0949 6.31616 18.0678 6.0206 17.9842C5.72505 17.9005 5.45014 17.7618 5.21202 17.5763C4.9739 17.3908 4.77735 17.1622 4.63392 16.9039C4.4905 16.6456 4.40307 16.3628 4.37678 16.0722C4.38147 15.944 4.34092 15.8181 4.26151 15.7142C4.1821 15.6103 4.06836 15.5343 3.93825 15.4983C2.70935 15.0162 1.49235 14.534 0.270255 14.0373C0.169525 14.0017 0.0775554 13.947 0 13.8766C0.937112 14.0309 1.87309 14.1798 2.80794 14.3234C3.35355 14.4102 3.89915 14.5018 4.44816 14.5693C4.51367 14.5766 4.58008 14.5702 4.64265 14.5505C4.70523 14.5307 4.76244 14.4982 4.8102 14.4552C5.17954 14.0036 5.71422 13.6991 6.30905 13.6015C6.90388 13.5039 7.51578 13.6204 8.02437 13.928C8.07811 13.9508 8.13663 13.9618 8.19552 13.9601C8.2544 13.9585 8.31212 13.9442 8.36432 13.9184C8.83854 13.6258 9.29066 13.2899 9.75809 12.9829C9.95185 12.8575 9.88727 12.729 9.82947 12.5698C9.21078 10.8709 9.48953 9.30699 10.7694 7.98256C12.0884 6.62599 13.7643 6.21452 15.6238 6.73208C17.4476 7.24642 18.5235 8.46315 18.8992 10.228C19.0331 10.8803 18.9981 11.5537 18.7972 12.1905C18.7777 12.2278 18.7667 12.2685 18.7648 12.31C18.7629 12.3515 18.7702 12.393 18.7861 12.4317C18.8021 12.4704 18.8265 12.5056 18.8577 12.5349C18.8888 12.5642 18.9261 12.5871 18.9672 12.602C19.638 12.9652 20.3037 13.336 20.9643 13.7142C20.9973 13.742 21.0364 13.7626 21.0788 13.7743C21.1212 13.786 21.1658 13.7887 21.2095 13.7821C21.2531 13.7754 21.2946 13.7597 21.331 13.736C21.3674 13.7123 21.3977 13.6813 21.4199 13.6451C22.8153 12.1262 24.5983 11.5058 26.689 11.6987C27.6796 11.7946 28.6247 12.1405 29.4255 12.7C29.5615 12.7916 29.6958 12.8865 29.8658 13.0038C30.3757 12.5361 30.8856 12.0844 31.3581 11.607C31.4176 11.546 31.3666 11.3306 31.302 11.2213C30.642 10.1238 30.3068 8.87844 30.3315 7.6161C30.3392 5.89709 30.9865 4.2355 32.1601 2.92268C33.3336 1.60985 34.9584 0.729591 36.7496 0.436243C37.0182 0.392846 37.2833 0.33659 37.5519 0.285156H38.6397ZM38.1298 3.61711C35.9644 3.51585 33.8244 5.31764 33.8125 7.65949C33.7989 9.47093 35.2726 11.7147 38.1077 11.7356C38.6744 11.7436 39.2371 11.6442 39.7627 11.4435C40.2882 11.2427 40.7659 10.9445 41.1678 10.5664C41.5696 10.1884 41.8874 9.73818 42.1024 9.24226C42.3174 8.74634 42.4254 8.21475 42.4199 7.67878C42.4199 5.18745 40.2001 3.53996 38.1264 3.62032M25.9564 20.4698C26.6167 20.4707 27.2623 20.2861 27.8114 19.9393C28.3605 19.5926 28.7883 19.0994 29.0404 18.5223C29.2925 17.9453 29.3576 17.3104 29.2274 16.6983C29.0973 16.0862 28.7777 15.5244 28.3092 15.0844C27.8408 14.6444 27.2446 14.3459 26.5965 14.2269C25.9483 14.1079 25.2774 14.1736 24.6688 14.4159C24.0603 14.6581 23.5416 15.0659 23.1786 15.5875C22.8156 16.109 22.6247 16.7208 22.6301 17.3451C22.6385 18.175 22.9924 18.9682 23.615 19.5531C24.2376 20.1379 25.0788 20.4673 25.9564 20.4698ZM14.247 13.1999C14.8686 13.202 15.4657 12.9712 15.9075 12.5578C16.3494 12.1445 16.6001 11.5824 16.6046 10.9947C16.594 10.4067 16.3422 9.84554 15.9023 9.42984C15.4624 9.01415 14.8689 8.77644 14.247 8.76693C13.6253 8.77446 13.0315 9.01179 12.5925 9.42813C12.1535 9.84447 11.9042 10.4067 11.898 10.9947C11.8943 11.2866 11.9527 11.5762 12.0696 11.8464C12.1866 12.1166 12.3598 12.3618 12.5789 12.5675C12.798 12.7732 13.0585 12.9352 13.3451 13.0438C13.6316 13.1524 13.9384 13.2055 14.247 13.1999ZM5.62607 15.8262C5.6272 16.1015 5.74089 16.3656 5.94335 16.5634C6.14581 16.7611 6.42132 16.8771 6.71219 16.8871C7.00938 16.8767 7.29142 16.7604 7.5017 16.5616C7.71199 16.3627 7.83495 16.096 7.8459 15.815C7.83415 15.5336 7.70852 15.2673 7.49498 15.0711C7.28145 14.8748 6.99634 14.7637 6.69859 14.7606C6.40735 14.7686 6.13123 14.8851 5.93036 15.0846C5.72949 15.2842 5.62012 15.5508 5.62607 15.8262Z" fill="white"/>
<path d="M204.137 2.13664C204.036 2.26201 203.928 2.38095 203.841 2.51436C201.818 5.62182 199.799 8.73519 197.783 11.8544C197.67 12.0381 197.608 12.2461 197.603 12.4588C197.591 14.6865 197.603 16.9143 197.603 19.142V19.5727H195.091V19.179C195.091 16.9962 195.091 14.8151 195.091 12.6324C195.094 12.3258 195.006 12.0245 194.838 11.7628C192.946 8.67571 191.06 5.58486 189.179 2.49025C189.108 2.37291 189.043 2.25237 188.953 2.09806C189.038 2.08176 189.124 2.07049 189.21 2.06431C189.973 2.06431 190.74 2.06431 191.494 2.06431C191.582 2.05616 191.67 2.07569 191.745 2.11986C191.82 2.16404 191.878 2.23039 191.909 2.30862C193.382 4.96711 194.855 7.62346 196.328 10.2777C196.372 10.3548 196.427 10.4288 196.498 10.5364C196.814 9.94656 197.098 9.384 197.413 8.83591C198.657 6.658 199.911 4.48492 201.152 2.30701C201.185 2.22948 201.244 2.16409 201.32 2.12042C201.395 2.07675 201.484 2.05709 201.572 2.06431C202.422 2.07556 203.287 2.06431 204.145 2.07235L204.137 2.13664Z" fill="white"/>
<path d="M77.8308 19.4565H63.7656V2.24219H77.4654V5.80238H67.777V7.03519C67.777 7.50291 67.794 7.97225 67.777 8.43997C67.76 8.72929 67.867 8.80483 68.1645 8.80483C70.5679 8.79358 72.973 8.80483 75.3764 8.80483H76.8569V12.3393H76.4064C73.6767 12.3393 70.9469 12.3393 68.2172 12.3393C67.867 12.3393 67.7651 12.4277 67.7736 12.7588C67.7974 13.6493 67.7821 14.5413 67.7821 15.4318C67.7821 15.8818 67.7821 15.8818 68.2461 15.8818H77.8308V19.4565Z" fill="white"/>
<path d="M98.6211 2.23828H102.626V8.55822C102.808 8.55822 102.949 8.5759 103.09 8.57751H108.814C109.324 8.57751 109.324 8.57751 109.324 8.11621C109.324 6.2946 109.324 4.47834 109.324 2.66743V2.2431H113.354V19.451H109.316V19.0122C109.316 16.8648 109.316 14.719 109.316 12.5717C109.316 12.2502 109.226 12.1409 108.87 12.1441C106.926 12.1602 104.981 12.1441 103.037 12.1441C102.92 12.1441 102.801 12.1554 102.639 12.1634V19.4445H98.6211V2.23828Z" fill="white"/>
<path d="M182.912 4.33029C182.773 4.73372 182.661 5.11305 182.516 5.48273C181.156 8.96845 179.797 12.4542 178.437 15.9399C178.005 17.0393 177.545 18.1307 177.111 19.2301C177.092 19.3121 177.041 19.3842 176.967 19.4319C176.894 19.4796 176.805 19.4994 176.717 19.4872C176.258 19.4744 175.799 19.4969 175.342 19.4744C175.277 19.4676 175.216 19.4468 175.161 19.4136C175.107 19.3804 175.062 19.3357 175.029 19.2831C173.26 14.4612 171.239 9.7196 169.811 4.78676C169.772 4.65014 169.734 4.51352 169.675 4.30457C169.36 9.44796 169.051 14.5126 168.74 19.5853H166.328C166.78 13.7459 167.232 7.92423 167.688 2.06559C168.368 2.06559 168.997 2.06559 169.634 2.06559C170.044 2.06559 170.55 1.94665 170.834 2.12827C171.118 2.3099 171.174 2.79852 171.317 3.16017C172.695 6.7734 174.079 10.3931 175.439 14.0047C175.736 14.7955 175.949 15.612 176.217 16.4832C176.268 16.4135 176.311 16.3392 176.346 16.2614C177.281 13.0307 178.6 9.92855 179.873 6.8168C180.478 5.33968 181.088 3.86256 181.682 2.38223C181.707 2.27916 181.772 2.18879 181.864 2.12919C181.956 2.06959 182.069 2.04515 182.18 2.06077C183.011 2.08005 183.845 2.07523 184.678 2.06077C184.935 2.06077 185.042 2.12184 185.059 2.38223C185.172 4.26171 185.296 6.14119 185.431 8.02067C185.588 10.2709 185.753 12.5292 185.911 14.7826C186.018 16.3096 186.122 17.8354 186.222 19.3602C186.222 19.4354 186.218 19.5105 186.21 19.5853H183.769C183.483 14.5158 183.198 9.44957 182.919 4.33672" fill="white"/>
<path d="M95.965 8.13654H91.8857C91.8611 8.07227 91.8401 8.00682 91.8228 7.94045C91.5237 6.53888 90.5786 5.75933 89.127 5.52949C87.1656 5.22249 85.301 5.90399 84.4443 7.81026C84.231 8.28265 84.078 8.77746 83.9888 9.28416C83.744 10.7211 83.7763 12.1516 84.3033 13.5403C85.1905 15.8806 87.3525 16.6055 89.4449 16.1201C90.7605 15.8147 91.5084 14.9644 91.7837 13.7252C91.8041 13.6368 91.8177 13.5451 91.8381 13.4567C91.85 13.4005 91.8653 13.3458 91.8908 13.251H95.9701C95.9456 13.9273 95.808 14.5957 95.5622 15.2312C94.6205 17.7145 92.722 19.1289 90.0092 19.5918C88.3756 19.8871 86.6881 19.7628 85.1225 19.2318C84.0944 18.9 83.1565 18.3575 82.3758 17.6431C81.5951 16.9288 80.9909 16.0602 80.6064 15.0994C79.386 12.195 79.3656 9.2488 80.7032 6.37814C81.9372 3.73091 84.1911 2.3213 87.2132 1.99662C89.4398 1.75874 91.4948 2.17985 93.2778 3.50588C94.8551 4.67761 95.7118 6.23831 95.965 8.13172" fill="white"/>
<path d="M133.875 19.5828V2.29139C134.458 2.22227 135.038 2.1178 135.621 2.09208C137.174 2.02618 138.731 1.93135 140.285 1.9635C142.216 2.00207 144.106 2.32353 145.816 3.24934C148.137 4.50304 149.417 6.4286 149.759 8.9135C150.023 10.6139 149.855 12.3492 149.271 13.9765C148.238 16.7652 146.121 18.4304 143.152 19.2051C141.27 19.6969 139.35 19.7982 137.414 19.7452C136.246 19.7146 135.08 19.6423 133.875 19.5844M136.353 10.8567C136.353 13.062 136.353 15.2672 136.353 17.4708C136.353 17.7441 136.43 17.8453 136.729 17.8678C138.333 17.99 139.936 18.0286 141.52 17.7071C144.157 17.1638 146.03 15.7671 146.857 13.2645C147.286 11.9245 147.39 10.5103 147.16 9.12727C146.781 6.65363 145.35 4.96916 142.819 4.17998C140.823 3.55795 138.78 3.61581 136.727 3.86655C136.425 3.90513 136.345 4.02728 136.346 4.30695C136.358 6.48968 136.346 8.6708 136.346 10.8535" fill="white"/>
<path d="M56.177 19.4544H52.147V5.83406C51.9634 5.82441 51.8257 5.80995 51.6863 5.80995C50.1651 5.80995 48.6421 5.8003 47.1209 5.80995C46.8014 5.80995 46.7045 5.72798 46.7113 5.42419C46.73 4.47749 46.7113 3.52757 46.7198 2.57926C46.7198 2.46835 46.7317 2.35745 46.7402 2.23047H61.577V5.79709H56.177V19.4544Z" fill="white"/>
<path d="M131.53 19.6028C130.68 19.6028 129.859 19.6124 129.042 19.5899C128.945 19.5899 128.814 19.4179 128.768 19.3022C128.149 17.6852 127.534 16.0651 126.936 14.4401C126.909 14.321 126.835 14.2158 126.73 14.1458C126.625 14.0757 126.495 14.0459 126.368 14.0624C124.328 14.0774 122.289 14.0774 120.249 14.0624C120.126 14.0447 120.001 14.0733 119.9 14.1422C119.799 14.211 119.731 14.3145 119.71 14.4304C119.129 16.0602 118.52 17.682 117.932 19.3102C117.856 19.5208 117.762 19.6204 117.502 19.6124C116.768 19.5931 116.032 19.6124 115.25 19.6124C115.298 19.4613 115.33 19.3424 115.372 19.2299C117.489 13.6289 119.604 8.02798 121.717 2.42704C121.819 2.15219 121.952 2.05897 122.256 2.06701C123.004 2.0879 123.754 2.08951 124.502 2.06701C124.813 2.05736 124.937 2.16344 125.037 2.43026C126.818 7.15253 128.607 11.8721 130.403 16.5891L131.404 19.2266C131.448 19.3424 131.481 19.4613 131.53 19.6124M126.223 12.2927L123.303 4.22884C122.367 6.84232 121.396 9.55546 120.414 12.2927H126.223Z" fill="white"/>
<path d="M154.505 17.7122H162.925V19.5831H152.047V2.08594H162.493V3.92309H162.026C159.658 3.92309 157.289 3.92309 154.921 3.91506C154.569 3.91506 154.472 4.0131 154.476 4.34099C154.493 5.9483 154.489 7.53954 154.476 9.14042C154.476 9.42331 154.561 9.5085 154.863 9.50689C157.11 9.49724 159.357 9.50689 161.604 9.50689H162.057V11.3376C161.912 11.3376 161.771 11.3585 161.628 11.3585C159.381 11.3585 157.136 11.3585 154.887 11.3585C154.574 11.3585 154.472 11.4324 154.474 11.7394C154.488 13.612 154.474 15.4861 154.474 17.365C154.474 17.4663 154.486 17.5675 154.496 17.7235" fill="white"/>
</svg>
