<svg width="17" height="15" viewBox="0 0 17 15" fill="none" xmlns="http://www.w3.org/2000/svg">
<path d="M14.4016 3.89766V4.39766C14.4016 9.19766 11.1016 14.4977 5.10156 14.4977C3.20156 14.4977 1.50156 14.0977 0.101562 13.0977C0.401563 13.0977 0.601563 13.1977 0.901563 13.1977C2.40156 13.1977 3.90156 12.5977 5.00156 11.5977C3.60156 11.5977 2.40156 10.4977 1.90156 9.09766C2.10156 9.09766 2.30156 9.19766 2.50156 9.19766C2.80156 9.19766 3.20156 9.19766 3.50156 9.09766C1.90156 8.69766 1.00156 7.19766 1.00156 5.39766C1.00156 5.69766 1.70156 5.79766 2.20156 5.89766C1.30156 5.19766 0.801563 4.09766 0.801563 2.89766C0.801563 2.19766 0.901563 1.59766 1.20156 1.09766C2.80156 3.29766 5.10156 4.69766 7.80156 4.89766V3.99766C7.80156 1.99766 9.30156 0.0976562 11.1016 0.0976562C12.0016 0.0976562 12.9016 0.797656 13.5016 1.49766C14.2016 1.29766 14.9016 0.997656 15.6016 0.597656C15.4016 1.39766 14.8016 2.19766 14.2016 2.59766C14.8016 2.49766 15.4016 2.29766 16.0016 1.99766C15.6016 2.79766 15.0016 3.39766 14.4016 3.89766Z" fill="white"/>
</svg>
