<svg width="300" height="211" viewBox="0 0 300 211" fill="none" xmlns="http://www.w3.org/2000/svg">
<g clip-path="url(#clip0_1182_40)">
<path d="M119.318 149.772V60.8662L197.727 105.321L119.318 149.772ZM293.731 32.8917C290.281 19.9443 280.115 9.74872 267.208 6.28847C243.813 -0.000106812 150 -0.000106812 150 -0.000106812C150 -0.000106812 56.1874 -0.000106812 32.7919 6.28847C19.8845 9.74872 9.71857 19.9443 6.26886 32.8917C0 56.358 0 105.319 0 105.319C0 105.319 0 154.279 6.26886 177.747C9.71857 190.694 19.8845 200.889 32.7919 204.351C56.1874 210.638 150 210.638 150 210.638C150 210.638 243.813 210.638 267.208 204.351C280.115 200.889 290.281 190.694 293.731 177.747C300 154.279 300 105.319 300 105.319C300 105.319 300 56.358 293.731 32.8917Z" fill="white"/>
</g>
<defs>
<clipPath id="clip0_1182_40">
<rect width="300" height="210.638" fill="white"/>
</clipPath>
</defs>
</svg>
