<svg width="34" height="34" viewBox="0 0 34 34" fill="none" xmlns="http://www.w3.org/2000/svg">
<path d="M29.6384 23.8499C30.7562 21.6144 30.8125 15.7526 30.8125 6.375C30.8125 5.7885 30.3365 5.3125 29.75 5.3125C25.6201 5.3125 21.7558 4.01838 17.5897 1.241C17.2327 1.003 16.7684 1.003 16.4114 1.241C12.2443 4.01838 8.37994 5.3125 4.25 5.3125C3.6635 5.3125 3.1875 5.7885 3.1875 6.375C3.1875 15.7526 3.24381 21.6144 4.36156 23.8499C6.42494 27.9756 10.4901 30.5947 16.7907 31.8538C16.9288 31.8803 17.0627 31.8824 17.2082 31.8538C23.5089 30.5947 27.5751 27.9756 29.6384 23.8499ZM17 29.7277C11.5048 28.5919 7.99106 26.3564 6.26344 22.899C5.35819 21.0906 5.31463 14.2651 5.3125 7.41094C9.24694 7.21012 13.0868 5.88944 17 3.39363C20.9132 5.88944 24.7531 7.21012 28.6875 7.41094C28.6854 14.2651 28.6418 21.0906 27.7366 22.9001C26.0089 26.3574 22.4953 28.5919 17 29.7277Z" fill="#0023B5"/>
<path d="M18.8002 7.41413C18.4187 6.76388 17.7451 6.375 16.9982 6.375C16.2512 6.375 15.5776 6.76388 15.1962 7.41519L7.72997 20.1726C7.34322 20.8324 7.34004 21.6559 7.72041 22.3199C8.09972 22.9808 8.77653 23.375 9.53197 23.375H24.4643C25.2198 23.375 25.8966 22.9808 26.2759 22.3199C26.6563 21.6559 26.652 20.8335 26.2663 20.1726L18.8002 7.41413ZM9.56385 21.2458L16.9663 8.48725L24.4218 21.25L9.56385 21.2458Z" fill="#0023B5"/>
<path d="M17 11.6875C17.5865 11.6875 18.0625 12.1635 18.0625 12.75V15.9375C18.0625 16.524 17.5865 17 17 17C16.4135 17 15.9375 16.524 15.9375 15.9375V12.75C15.9375 12.1635 16.4135 11.6875 17 11.6875Z" fill="#0023B5"/>
<path d="M18.0625 19.125C18.0625 19.7115 17.5865 20.1875 17 20.1875C16.4135 20.1875 15.9375 19.7115 15.9375 19.125C15.9375 18.5385 16.4135 18.0625 17 18.0625C17.5865 18.0625 18.0625 18.5385 18.0625 19.125Z" fill="#0023B5"/>
</svg>
