<svg width="40" height="40" viewBox="0 0 40 40" fill="none" xmlns="http://www.w3.org/2000/svg">
<path d="M13.0704 18.0063C13.3355 18.0067 13.5899 17.9013 13.7773 17.7138C13.9647 17.5264 14.0702 17.2719 14.0698 17.0069C14.0698 16.4549 14.5176 16.0071 15.0696 16.0071C15.6217 16.0071 16.0694 16.4548 16.0694 17.0069C16.0694 17.559 16.5169 18.0063 17.0689 18.0063C17.6214 18.0063 18.0687 17.5589 18.0687 17.0069C18.0687 15.3503 16.7259 14.0078 15.0696 14.0078C13.4135 14.0078 12.0706 15.3503 12.0706 17.0069C12.0705 17.1382 12.0963 17.2682 12.1466 17.3895C12.1968 17.5108 12.2704 17.621 12.3633 17.7138C12.4562 17.8067 12.5664 17.8803 12.6877 17.9305C12.809 17.9806 12.9391 18.0064 13.0704 18.0063ZM26.619 24.61C22.8855 26.4764 17.2516 26.4764 13.5174 24.61C13.0235 24.3629 12.4231 24.5632 12.176 25.0571C11.9293 25.5509 12.1291 26.1516 12.623 26.3984C14.9496 27.4959 17.4957 28.0488 20.068 28.0151C22.6402 28.0486 25.1863 27.4958 27.513 26.3984C28.0069 26.1516 28.2071 25.5509 27.9603 25.057C27.7133 24.5631 27.1128 24.3629 26.619 24.6099V24.61Z" fill="#0023B5"/>
<path d="M37.0669 16.0076H36.067V13.0085C36.0645 10.2493 33.828 8.01278 31.0687 8.01025H28.0696V5.82646C29.4466 5.33995 30.2728 3.93151 30.0258 2.49205C29.7785 1.05221 28.5305 0 27.0697 0C25.609 0 24.361 1.05221 24.1139 2.49205C23.8668 3.9316 24.693 5.33995 26.0699 5.82646V8.01016H14.0736V5.82646C15.4509 5.33995 16.2768 3.93151 16.03 2.49205C15.7832 1.05221 14.535 0 13.0742 0C11.6135 0 10.3651 1.05221 10.1184 2.49205C9.87133 3.9316 10.6972 5.33995 12.0744 5.82646V8.01016H9.07536C6.31611 8.01316 4.08002 10.2493 4.07702 13.0086V16.0077H3.0772C1.42171 16.0095 0.0799994 17.3513 0.078125 19.0067V23.0056C0.0799994 24.6611 1.42171 26.0028 3.0772 26.0047H4.07702V30.0032C4.08002 32.7629 6.31611 34.999 9.07536 35.0019H14.0737V39.0005C14.0738 39.1789 14.1217 39.3541 14.2123 39.5078C14.303 39.6615 14.4331 39.7882 14.5892 39.8747C14.7452 39.9612 14.9215 40.0043 15.0998 39.9996C15.2782 39.9949 15.452 39.9425 15.6032 39.848L23.358 35.0019H31.0687C33.828 34.9993 36.0645 32.7629 36.067 30.0032V26.0047H37.0669C38.7224 26.0028 40.0641 24.6611 40.0659 23.0056V19.0066C40.0641 17.3512 38.7224 16.0094 37.0669 16.0076ZM27.0698 2.01219C27.6219 2.01219 28.0696 2.45952 28.0696 3.01164C28.0696 3.56403 27.6219 4.01145 27.0698 4.01145C26.5178 4.01145 26.07 3.56403 26.07 3.01164C26.0711 2.46027 26.5182 2.01322 27.0698 2.01219ZM13.0742 2.01219C13.6264 2.01219 14.0737 2.45952 14.0737 3.01164C14.0737 3.56403 13.6264 4.01145 13.0742 4.01145C12.5221 4.01145 12.0744 3.56403 12.0744 3.01164C12.0752 2.4599 12.5222 2.01294 13.0742 2.01219ZM3.0772 24.0051C2.52556 24.0047 2.07813 23.5573 2.07738 23.0056V19.0066C2.07813 18.4549 2.52556 18.0076 3.0772 18.0068H4.07702V24.005L3.0772 24.0051ZM34.0678 30.0032C34.0659 31.6591 32.7242 33.0008 31.0687 33.0023H23.0709C22.8839 33.0023 22.7004 33.055 22.542 33.1546L16.0733 37.1963V34.002C16.0733 33.7369 15.9679 33.4826 15.7804 33.2951C15.5929 33.1077 15.3387 33.0023 15.0735 33.0022H9.07536C7.41987 33.0007 6.07815 31.659 6.07628 30.0031V13.0085C6.07815 11.353 7.41987 10.0113 9.07536 10.0094H31.0687C32.7242 10.0113 34.0659 11.353 34.0678 13.0085V30.0032ZM38.0663 23.0056C38.0657 23.5573 37.6186 24.0043 37.0669 24.0051H36.067V18.0069H37.0669C37.6186 18.0081 38.0657 18.455 38.0663 19.0067V23.0056Z" fill="#0023B5"/>
<path d="M25.0694 14.0078C23.4139 14.0097 22.0722 15.3514 22.0703 17.0069C22.0703 17.5589 22.5177 18.0063 23.0698 18.0063C23.6222 18.0063 24.0696 17.5589 24.0696 17.0069C24.0696 16.4549 24.5174 16.0071 25.0694 16.0071C25.6214 16.0071 26.0688 16.4548 26.0688 17.0069C26.0688 17.559 26.5166 18.0063 27.0687 18.0063C27.6208 18.0063 28.0685 17.5589 28.0685 17.0069C28.0666 15.3514 26.7249 14.0097 25.0694 14.0078Z" fill="#0023B5"/>
</svg>
