<svg width="30" height="36" viewBox="0 0 30 36" fill="none" xmlns="http://www.w3.org/2000/svg">
<path d="M12.3909 33.7464C12.2801 33.9375 12.098 34.0768 11.8846 34.1337C11.6711 34.1906 11.4438 34.1604 11.2526 34.0497C9.60813 33.0958 8.24255 31.7274 7.2921 30.0809C6.34165 28.4344 5.83956 26.5675 5.83594 24.6664V14.6664C5.83594 14.4454 5.92374 14.2334 6.08002 14.0772C6.2363 13.9209 6.44826 13.8331 6.66927 13.8331C6.89029 13.8331 7.10225 13.9209 7.25853 14.0772C7.41481 14.2334 7.5026 14.4454 7.5026 14.6664V24.6664C7.50576 26.2753 7.93062 27.8552 8.73482 29.2487C9.53902 30.6421 10.6945 31.8004 12.0859 32.6081C12.2773 32.7186 12.417 32.9006 12.4742 33.1141C12.5314 33.3276 12.5014 33.555 12.3909 33.7464ZM23.3359 22.9997C23.557 22.9997 23.7689 22.9119 23.9252 22.7557C24.0815 22.5994 24.1693 22.3874 24.1693 22.1664V15.0247C24.1693 10.1497 20.5359 5.98474 15.9026 5.54308C14.3339 5.38122 12.75 5.63013 11.3065 6.26537C9.86306 6.90062 8.60961 7.90035 7.66927 9.16641C7.53666 9.34322 7.47972 9.56547 7.51098 9.78426C7.54224 10.0031 7.65913 10.2005 7.83594 10.3331C8.01275 10.4657 8.235 10.5226 8.45379 10.4914C8.67258 10.4601 8.87 10.3432 9.0026 10.1664C9.77501 9.13336 10.8013 8.31751 11.982 7.79801C13.1626 7.2785 14.4575 7.07299 15.7409 7.20141C19.5359 7.56308 22.5026 10.9997 22.5026 15.0247V22.1664C22.5026 22.3874 22.5904 22.5994 22.7467 22.7557C22.903 22.9119 23.1149 22.9997 23.3359 22.9997ZM14.1693 2.19308C16.6409 2.02452 19.1067 2.59728 21.2509 3.83808C21.441 3.93331 21.6602 3.95246 21.8639 3.89162C22.0676 3.83078 22.2405 3.69454 22.3472 3.51067C22.4539 3.32679 22.4864 3.10914 22.4382 2.9021C22.39 2.69505 22.2646 2.51419 22.0876 2.39641C19.6571 0.991735 16.8636 0.341948 14.0626 0.529744C6.64594 1.00974 0.835938 7.42141 0.835938 15.1231V20.6181C0.835938 20.8391 0.923735 21.0511 1.08002 21.2073C1.2363 21.3636 1.44826 21.4514 1.66927 21.4514C1.89028 21.4514 2.10225 21.3636 2.25853 21.2073C2.41481 21.0511 2.5026 20.8391 2.5026 20.6181V15.1231C2.5026 8.29641 7.6276 2.61641 14.1693 2.19308ZM27.2726 7.58308C27.2205 7.48349 27.1488 7.39547 27.0618 7.32431C26.9748 7.25315 26.8743 7.20033 26.7664 7.16901C26.6584 7.1377 26.5453 7.12854 26.4337 7.14209C26.3221 7.15565 26.2145 7.19163 26.1172 7.24787C26.0199 7.30412 25.9349 7.37947 25.8675 7.46938C25.8001 7.5593 25.7515 7.66192 25.7248 7.77109C25.6981 7.88025 25.6937 7.9937 25.7119 8.1046C25.7302 8.2155 25.7706 8.32156 25.8309 8.41641C26.9272 10.3169 27.5038 12.4724 27.5026 14.6664V22.9997C27.5026 25.2981 25.6343 27.1664 23.3359 27.1664C21.0376 27.1664 19.1693 25.2981 19.1693 22.9997V14.8447C19.1693 12.7214 17.6776 10.8781 15.6959 10.5564C15.0966 10.4585 14.4832 10.4914 13.8978 10.6528C13.3124 10.8142 12.7688 11.1003 12.3043 11.4914C11.3693 12.2864 10.8359 13.4414 10.8359 14.6664V21.3331C10.8359 29.1447 17.1909 35.4997 25.0026 35.4997C25.2236 35.4997 25.4356 35.4119 25.5919 35.2557C25.7481 35.0994 25.8359 34.8874 25.8359 34.6664C25.8359 34.4454 25.7481 34.2334 25.5919 34.0772C25.4356 33.9209 25.2236 33.8331 25.0026 33.8331C18.1093 33.8331 12.5026 28.2264 12.5026 21.3331V14.6664C12.5021 14.3018 12.5814 13.9414 12.7349 13.6107C12.8885 13.2799 13.1126 12.9868 13.3915 12.7519C13.6704 12.517 13.9974 12.346 14.3494 12.2509C14.7014 12.1558 15.07 12.1389 15.4293 12.2014C16.6109 12.3931 17.5026 13.5297 17.5026 14.8447V22.9997C17.5026 26.2164 20.1193 28.8331 23.3359 28.8331C26.5526 28.8331 29.1693 26.2164 29.1693 22.9997V14.6664C29.1697 12.1798 28.5155 9.73681 27.2726 7.58308Z" fill="#0023B5"/>
</svg>
