<svg width="30" height="30" viewBox="0 0 30 30" fill="none" xmlns="http://www.w3.org/2000/svg">
<path d="M2.78453 1.87126C2.53736 1.87592 2.302 1.97787 2.12953 2.15498C1.95706 2.33209 1.8614 2.57008 1.86331 2.81729V27.1907C1.86236 27.4391 1.9599 27.6778 2.13456 27.8545C2.30921 28.0311 2.54676 28.1313 2.79516 28.1332H27.1757C27.4247 28.1332 27.6635 28.0343 27.8396 27.8582C28.0157 27.6821 28.1146 27.4433 28.1146 27.1943C28.1146 26.9453 28.0157 26.7064 27.8396 26.5303C27.6635 26.3543 27.4247 26.2553 27.1757 26.2553H3.73764V2.81729C3.73861 2.69188 3.71445 2.56756 3.66658 2.45164C3.61872 2.33573 3.54811 2.23058 3.45894 2.1424C3.36977 2.05422 3.26384 1.9848 3.1474 1.93823C3.03096 1.89166 2.90992 1.86889 2.78453 1.87126ZM27.1544 7.96551C26.9121 7.97364 26.6823 8.07521 26.5131 8.24896L16.8934 17.8687L12.8613 13.4397C12.6936 13.2573 12.4605 13.1486 12.2129 13.1373C11.9653 13.126 11.7233 13.2131 11.5397 13.3795L5.91669 18.5312C5.8191 18.6126 5.73905 18.7129 5.68137 18.8262C5.62369 18.9394 5.5896 19.0631 5.58115 19.1899C5.5727 19.3167 5.59007 19.4439 5.63221 19.5638C5.67435 19.6836 5.74038 19.7937 5.82631 19.8873C5.91223 19.9809 6.01626 20.0561 6.1321 20.1083C6.24794 20.1606 6.37317 20.1887 6.50021 20.1911C6.62725 20.1935 6.75346 20.1701 6.8712 20.1223C6.98893 20.0745 7.09574 20.0034 7.18515 19.9131L12.1172 15.3991L16.1635 19.8564C16.2488 19.9503 16.3522 20.0261 16.4675 20.079C16.5828 20.1319 16.7077 20.1608 16.8345 20.1642C16.9613 20.1675 17.0875 20.145 17.2054 20.0982C17.3233 20.0514 17.4305 19.9812 17.5206 19.8918L27.8312 9.57411C27.9643 9.44194 28.0548 9.27293 28.091 9.08886C28.1271 8.90479 28.1073 8.71411 28.0341 8.5414C27.9609 8.36868 27.8377 8.22185 27.6802 8.11984C27.5228 8.01783 27.3384 7.96531 27.1509 7.96905L27.1544 7.96551Z" fill="#0023B5"/>
</svg>
