<svg width="36" height="26" viewBox="0 0 36 26" fill="none" xmlns="http://www.w3.org/2000/svg">
<path d="M12.4653 21.749C12.1495 21.7479 11.8458 21.6274 11.6153 21.4115C10.4738 20.3278 9.56482 19.0231 8.94366 17.5768C8.3225 16.1306 8.00217 14.573 8.00217 12.999C8.00217 11.425 8.3225 9.86749 8.94366 8.42124C9.56482 6.97498 10.4738 5.67027 11.6153 4.58653C11.8613 4.38707 12.1738 4.28841 12.4897 4.31048C12.8056 4.33256 13.1014 4.47371 13.3173 4.70544C13.5331 4.93717 13.653 5.24219 13.6526 5.55887C13.6522 5.87556 13.5317 6.1803 13.3153 6.41153C12.4268 7.26324 11.7197 8.28591 11.2367 9.418C10.7536 10.5501 10.5046 11.7682 10.5046 12.999C10.5046 14.2299 10.7536 15.448 11.2367 16.5801C11.7197 17.7122 12.4268 18.7348 13.3153 19.5865C13.4981 19.7576 13.6253 19.9797 13.6804 20.2239C13.7355 20.4682 13.716 20.7233 13.6244 20.9563C13.5328 21.1893 13.3733 21.3895 13.1667 21.5308C12.96 21.6721 12.7157 21.7482 12.4653 21.749ZM7.46531 25.099C7.69813 24.8648 7.8288 24.548 7.8288 24.2178C7.8288 23.8876 7.69813 23.5707 7.46531 23.3365C6.06686 22.0023 4.95365 20.3983 4.19306 18.6214C3.43247 16.8446 3.04031 14.9318 3.04031 12.999C3.04031 11.0662 3.43247 9.15352 4.19306 7.37665C4.95365 5.59979 6.06686 3.99573 7.46531 2.66153C7.70732 2.42781 7.84658 2.10752 7.85244 1.77113C7.8583 1.43474 7.73029 1.10979 7.49656 0.867784C7.26284 0.625774 6.94255 0.486522 6.60616 0.480661C6.26977 0.474801 5.94482 0.602812 5.70281 0.836534C4.05622 2.40554 2.74536 4.29255 1.84969 6.3832C0.954019 8.47385 0.492187 10.7246 0.492188 12.999C0.492187 15.2735 0.954019 17.5242 1.84969 19.6149C2.74536 21.7055 4.05622 23.5925 5.70281 25.1615C5.82309 25.2747 5.9646 25.3629 6.11917 25.4211C6.27374 25.4792 6.4383 25.5062 6.60334 25.5004C6.76839 25.4945 6.93064 25.4561 7.08074 25.3872C7.23083 25.3183 7.36579 25.2204 7.47781 25.099H7.46531ZM24.3778 21.4115C25.5193 20.3278 26.4283 19.0231 27.0495 17.5768C27.6706 16.1306 27.991 14.573 27.991 12.999C27.991 11.425 27.6706 9.86749 27.0495 8.42124C26.4283 6.97498 25.5193 5.67027 24.3778 4.58653C24.258 4.47409 24.1172 4.38635 23.9634 4.32832C23.8097 4.27029 23.646 4.24312 23.4818 4.24834C23.3175 4.25356 23.1559 4.29108 23.0062 4.35876C22.8565 4.42644 22.7215 4.52295 22.6091 4.64278C22.4966 4.76261 22.4089 4.90342 22.3509 5.05716C22.2928 5.2109 22.2656 5.37456 22.2709 5.53881C22.2761 5.70305 22.3136 5.86466 22.3813 6.0144C22.449 6.16414 22.5455 6.29909 22.6653 6.41153C23.5587 7.26046 24.27 8.28223 24.7561 9.41469C25.2422 10.5472 25.4928 11.7667 25.4928 12.999C25.4928 14.2314 25.2422 15.4509 24.7561 16.5834C24.27 17.7158 23.5587 18.7376 22.6653 19.5865C22.424 19.8124 22.282 20.1246 22.2703 20.4549C22.2585 20.7852 22.3781 21.1067 22.6028 21.349C22.7208 21.4763 22.864 21.5775 23.0232 21.6464C23.1825 21.7153 23.3543 21.7502 23.5278 21.749C23.8436 21.7479 24.1473 21.6274 24.3778 21.4115ZM30.2778 25.1615C31.9292 23.5953 33.2444 21.7092 34.1431 19.6182C35.0419 17.5272 35.5054 15.275 35.5054 12.999C35.5054 10.723 35.0419 8.47089 34.1431 6.37986C33.2444 4.28883 31.9292 2.40273 30.2778 0.836534C30.0318 0.637074 29.7193 0.538413 29.4034 0.560484C29.0875 0.582555 28.7917 0.723714 28.5759 0.95544C28.36 1.18717 28.2402 1.49218 28.2405 1.80887C28.2409 2.12556 28.3614 2.4303 28.5778 2.66153C29.9763 3.99573 31.0895 5.59979 31.8501 7.37665C32.6107 9.15352 33.0028 11.0662 33.0028 12.999C33.0028 14.9318 32.6107 16.8446 31.8501 18.6214C31.0895 20.3983 29.9763 22.0023 28.5778 23.3365C28.3365 23.5624 28.1945 23.8746 28.1828 24.2049C28.171 24.5352 28.2906 24.8567 28.5153 25.099C28.6319 25.2247 28.773 25.3251 28.93 25.3939C29.087 25.4627 29.2564 25.4985 29.4278 25.499C29.7436 25.4979 30.0473 25.3774 30.2778 25.1615ZM20.5028 12.999C20.5028 12.5046 20.3562 12.0212 20.0815 11.6101C19.8068 11.199 19.4163 10.8786 18.9595 10.6893C18.5027 10.5001 18 10.4506 17.5151 10.5471C17.0301 10.6435 16.5847 10.8816 16.235 11.2313C15.8854 11.5809 15.6473 12.0264 15.5508 12.5113C15.4544 12.9963 15.5039 13.4989 15.6931 13.9557C15.8823 14.4126 16.2028 14.803 16.6139 15.0777C17.025 15.3524 17.5084 15.499 18.0028 15.499C18.6659 15.499 19.3017 15.2356 19.7706 14.7668C20.2394 14.298 20.5028 13.6621 20.5028 12.999Z" fill="#0023B5"/>
</svg>
