<svg width="34" height="40" viewBox="0 0 34 40" fill="none" xmlns="http://www.w3.org/2000/svg">
<path d="M17.7947 39.2126C17.7947 39.6465 17.4412 40 17.0065 40C16.5727 40 16.2191 39.6465 16.2191 39.2126C16.2191 38.7787 16.5727 38.4252 17.0065 38.4252C17.4412 38.4252 17.7947 38.7787 17.7947 39.2126ZM0.464013 39.2126V38.2165C0.464013 32.9668 4.02464 30.1039 5.5837 29.1693C7.69513 27.9038 9.97418 26.9418 12.3538 26.3116V25.0438C11.9509 24.6879 11.5889 24.2882 11.2744 23.8521C10.3334 22.5497 9.56281 21.1323 8.98134 19.6344C8.45039 19.5619 7.96496 19.224 7.71535 18.6954C7.47732 18.1916 5.82622 15.1372 5.57323 14.5937C4.93189 13.2157 5.77008 11.8543 6.83267 11.416C7.0096 11.343 7.19149 11.2891 7.37653 11.2583C7.20381 10.55 7.11687 9.82357 7.11756 9.09457C7.11756 4.07976 11.1973 0 16.212 0C17.0933 0 17.928 0.337087 18.5621 0.949134C18.5654 0.952284 18.5697 0.954047 18.5742 0.954047C18.5787 0.954047 18.5831 0.952284 18.5863 0.949134C19.2206 0.337087 20.0552 0 20.9365 0C24.3447 0 27.1176 2.77283 27.1176 6.1811V7.61504C27.1176 8.84976 26.948 10.0652 26.6135 11.2433C26.8025 11.2739 26.9913 11.3233 27.1703 11.4043C28.4777 11.9964 28.9883 13.4594 28.4297 14.582C28.1627 15.1187 26.5257 18.1797 26.2876 18.6838C26.038 19.212 25.5528 19.5499 25.0222 19.6227C24.4404 21.1242 23.6686 22.5449 22.7257 23.8502C22.4109 24.2868 22.0485 24.687 21.6451 25.0434V26.3115C24.0247 26.9417 26.3038 27.9037 28.4152 29.1692C29.9743 30.1039 33.5349 32.9667 33.5349 38.2165V39.2126C33.5349 39.6475 33.1824 40 32.7475 40H20.5498C20.0986 40 19.7342 39.6183 19.7642 39.1599C19.7916 38.7414 20.1581 38.4252 20.5775 38.4252H31.9601C31.9601 35.1003 30.2916 32.1299 27.605 30.5205C25.7138 29.3864 23.679 28.5112 21.555 27.9183C21.1306 30.0454 19.2495 31.6535 16.9994 31.6535C14.7494 31.6535 12.8683 30.0455 12.4439 27.9183C10.32 28.5112 8.28515 29.3864 6.39393 30.5205C3.70732 32.1299 2.03882 35.0089 2.03882 38.4252H13.464C13.916 38.4252 14.2799 38.8088 14.2488 39.2673C14.2204 39.685 13.8541 40 13.4354 40H1.25141C0.816533 40 0.464013 39.6475 0.464013 39.2126ZM8.69519 9.2152C8.76787 9.12976 9.85441 7.79528 11.7244 7.79528C12.6494 7.79537 13.546 8.1149 14.2625 8.69984C14.9161 9.23362 15.7482 9.52756 16.6057 9.52756C18.6351 9.52756 20.2608 7.89535 20.3067 5.81173C20.3108 5.60567 20.3955 5.40942 20.5426 5.26511C20.6898 5.12081 20.8877 5.03996 21.0938 5.03992C21.2999 5.03988 21.4978 5.12065 21.645 5.26489C21.7922 5.40914 21.877 5.60535 21.8812 5.81142C21.9038 6.81693 22.445 7.68882 23.2937 8.08685C24.1284 8.47835 24.8269 9.07102 25.3392 9.79622C25.475 9.07714 25.5432 8.34691 25.5428 7.61512V6.1811C25.5428 3.64118 23.4765 1.5748 20.9365 1.5748C20.4676 1.5739 20.0168 1.75597 19.68 2.08228C19.3839 2.37014 18.9872 2.53119 18.5742 2.53119C18.1613 2.53119 17.7646 2.37014 17.4685 2.08228C17.1317 1.75597 16.681 1.5739 16.212 1.5748C12.0657 1.5748 8.65551 4.90472 8.69519 9.2152ZM20.0703 26.0924C18.206 26.9724 16.052 27.0739 13.9286 26.0927V27.0079C13.9286 28.7012 15.3061 30.0787 16.9994 30.0787C18.6928 30.0787 20.0703 28.7012 20.0703 27.0079V26.0924ZM21.4489 22.9285C22.4256 21.5756 23.1999 20.0944 23.7485 18.5254C23.8448 18.25 24.2105 17.8334 24.8303 18.0772C25.1224 17.455 26.7674 14.4133 27.0058 13.9094C27.1875 13.5255 26.9678 13.0256 26.555 12.8539C26.3218 12.757 26.0639 12.7739 25.8372 12.8898C25.3484 13.1394 24.7439 12.8448 24.6816 12.3046C24.5399 11.0784 23.745 10.038 22.625 9.51268C22.0683 9.25164 21.5803 8.86415 21.1998 8.3811C20.9629 8.8074 20.6554 9.19094 20.3176 9.55488C18.8231 11.1659 15.6989 11.8822 13.2663 9.91961C12.3173 9.15394 10.906 9.2 10.0352 10.0834C9.56149 10.5639 9.28291 11.2126 9.28291 11.8754V12.1854C9.28543 12.7637 8.67079 13.1498 8.14228 12.8891C7.92338 12.7812 7.67315 12.7764 7.44795 12.8658C7.09086 13.0076 6.78606 13.4698 6.99708 13.9212C7.2333 14.4264 8.91456 17.5135 9.16354 18.0774C9.85693 17.8361 10.1824 18.3313 10.2544 18.5367C10.8047 20.1041 11.5782 21.5839 12.5512 22.9304C13.5996 24.3824 15.2209 25.2151 16.9992 25.215C18.7782 25.2146 20.4001 24.3813 21.4489 22.9285ZM33.9286 4.72441V0.787402C33.9286 0.35252 33.5761 0 33.1412 0H29.2042C28.7693 0 28.4168 0.35252 28.4168 0.787402C28.4168 1.22228 28.7693 1.5748 29.2042 1.5748H32.3538V4.72441C32.3538 5.15929 32.7063 5.51181 33.1412 5.51181C33.5761 5.51181 33.9286 5.15929 33.9286 4.72441ZM33.9286 26.2205V22.2835C33.9286 21.8486 33.5761 21.4961 33.1412 21.4961C32.7063 21.4961 32.3538 21.8486 32.3538 22.2835V25.4331H29.2042C28.7693 25.4331 28.4168 25.7856 28.4168 26.2205C28.4168 26.6554 28.7693 27.0079 29.2042 27.0079H33.1412C33.5761 27.0079 33.9286 26.6554 33.9286 26.2205ZM1.64512 4.72441V1.5748H4.79472C5.2296 1.5748 5.58212 1.22228 5.58212 0.787402C5.58212 0.35252 5.2296 0 4.79472 0H0.857714C0.422832 0 0.0703125 0.35252 0.0703125 0.787402V4.72441C0.0703125 5.15929 0.422832 5.51181 0.857714 5.51181C1.2926 5.51181 1.64512 5.15929 1.64512 4.72441ZM5.58212 26.2205C5.58212 25.7856 5.2296 25.4331 4.79472 25.4331H1.64512V22.2835C1.64512 21.8486 1.2926 21.4961 0.857714 21.4961C0.422832 21.4961 0.0703125 21.8486 0.0703125 22.2835V26.2205C0.0703125 26.6554 0.422832 27.0079 0.857714 27.0079H4.79472C5.2296 27.0079 5.58212 26.6554 5.58212 26.2205Z" fill="#0023B5"/>
</svg>
