<svg width="40" height="28" viewBox="0 0 40 28" fill="none" xmlns="http://www.w3.org/2000/svg">
<path d="M36.125 2.07227H3.87539C3.77179 2.07227 3.67243 2.11342 3.59918 2.18668C3.52592 2.25993 3.48477 2.35929 3.48477 2.46289V21.5674C3.48477 21.671 3.52592 21.7704 3.59918 21.8436C3.67243 21.9169 3.77179 21.958 3.87539 21.958H36.125C36.2286 21.958 36.328 21.9169 36.4012 21.8436C36.4745 21.7704 36.5156 21.671 36.5156 21.5674V2.46289C36.5156 2.35929 36.4745 2.25993 36.4012 2.18668C36.328 2.11342 36.2286 2.07227 36.125 2.07227ZM35.7344 21.1768H4.26602V2.85352H35.7344V21.1768ZM39.6098 23.1299H38.4688V1.68164C38.4683 1.26739 38.3035 0.870234 38.0106 0.577311C37.7177 0.284389 37.3205 0.119616 36.9062 0.119141H3.09375C2.6795 0.119616 2.28234 0.284389 1.98942 0.577311C1.6965 0.870234 1.53173 1.26739 1.53125 1.68164V23.1299H0.390625C0.287025 23.1299 0.187668 23.1711 0.114411 23.2443C0.041155 23.3176 0 23.4169 0 23.5205L0 25.5049C0.000661783 26.1346 0.251097 26.7383 0.696352 27.1836C1.14161 27.6288 1.74531 27.8793 2.375 27.8799H37.625C38.2547 27.8793 38.8584 27.6288 39.3036 27.1836C39.7489 26.7383 39.9993 26.1346 40 25.5049V23.5205C40 23.4169 39.9588 23.3176 39.8856 23.2443C39.8123 23.1711 39.713 23.1299 39.6094 23.1299H39.6098ZM2.31289 1.68164C2.31312 1.47451 2.3955 1.27593 2.54196 1.12946C2.68843 0.983001 2.88701 0.900618 3.09414 0.900391H36.9062C37.1134 0.900618 37.312 0.983001 37.4584 1.12946C37.6049 1.27593 37.6873 1.47451 37.6875 1.68164V23.1299H2.31289V1.68164ZM13.2812 23.9112H26.7188V24.992C26.7186 25.0791 26.684 25.1626 26.6224 25.2243C26.5608 25.2859 26.4772 25.3206 26.3901 25.3207H13.6102C13.523 25.3206 13.4394 25.286 13.3777 25.2244C13.316 25.1627 13.2814 25.0791 13.2812 24.992V23.9112ZM39.2188 25.5049C39.2183 25.9275 39.0503 26.3326 38.7515 26.6314C38.4527 26.9302 38.0476 27.0983 37.625 27.0987H2.375C1.95243 27.0982 1.54729 26.9302 1.2485 26.6314C0.949706 26.3326 0.781664 25.9274 0.78125 25.5048V23.9111H12.5V24.9919C12.5003 25.2861 12.6174 25.5683 12.8254 25.7764C13.0335 25.9845 13.3156 26.1015 13.6099 26.1019H26.3898C26.6841 26.1016 26.9663 25.9846 27.1744 25.7765C27.3826 25.5684 27.4996 25.2863 27.5 24.992V23.9112H39.2188V25.5049ZM14.8828 17.113C15.5533 17.7877 16.3506 18.3232 17.2288 18.6885C18.107 19.0539 19.0488 19.242 20 19.242C20.9512 19.242 21.893 19.0539 22.7712 18.6885C23.6494 18.3232 24.4467 17.7877 25.1172 17.113C25.1426 17.0929 25.1653 17.0696 25.1848 17.0438C26.1742 16.0249 26.8413 14.737 27.103 13.3411C27.3646 11.9452 27.2092 10.5032 26.656 9.19514C26.1029 7.88708 25.1766 6.77101 23.9928 5.98634C22.809 5.20167 21.4203 4.7832 20.0001 4.7832C18.5799 4.7832 17.1912 5.20167 16.0074 5.98634C14.8237 6.77101 13.8974 7.88708 13.3442 9.19514C12.7911 10.5032 12.6356 11.9452 12.8973 13.3411C13.1589 14.737 13.8261 16.0249 14.8154 17.0438C14.8349 17.0696 14.8575 17.0929 14.8828 17.113ZM15.5839 16.7036C15.935 15.8191 16.5437 15.0604 17.331 14.5259C18.1184 13.9913 19.0481 13.7055 19.9998 13.7055C20.9514 13.7055 21.8811 13.9913 22.6685 14.5259C23.4558 15.0604 24.0645 15.8191 24.4156 16.7036C23.2222 17.8319 21.6421 18.4605 19.9998 18.4605C18.3574 18.4605 16.7773 17.8319 15.5839 16.7036ZM20 12.9243C19.5785 12.9243 19.1665 12.7993 18.8161 12.5652C18.4656 12.3311 18.1925 11.9983 18.0312 11.6089C17.8699 11.2195 17.8277 10.791 17.9099 10.3777C17.9921 9.96428 18.1951 9.58458 18.4931 9.28656C18.7911 8.98854 19.1708 8.78558 19.5842 8.70336C19.9976 8.62114 20.4261 8.66335 20.8154 8.82465C21.2048 8.98594 21.5376 9.25908 21.7718 9.60952C22.0059 9.95997 22.1309 10.372 22.1309 10.7934C22.1302 11.3584 21.9055 11.9 21.5061 12.2995C21.1066 12.699 20.5649 12.9237 20 12.9243ZM20 5.56984C21.2186 5.56908 22.4125 5.91403 23.4429 6.56464C24.4733 7.21525 25.2981 8.14482 25.8213 9.24541C26.3446 10.346 26.5449 11.5724 26.399 12.7823C26.2531 13.9922 25.7669 15.1358 24.997 16.0805C24.6709 15.394 24.2067 14.7821 23.6333 14.2832C23.06 13.7842 22.3899 13.4089 21.665 13.1806C22.1736 12.8262 22.5558 12.3188 22.756 11.7321C22.9562 11.1455 22.964 10.5102 22.7783 9.91886C22.5926 9.32746 22.223 8.81077 21.7233 8.44396C21.2236 8.07714 20.6199 7.87934 20 7.87934C19.3801 7.87934 18.7764 8.07714 18.2767 8.44396C17.777 8.81077 17.4074 9.32746 17.2217 9.91886C17.036 10.5102 17.0438 11.1455 17.244 11.7321C17.4442 12.3188 17.8264 12.8262 18.335 13.1806C17.6101 13.4089 16.94 13.7842 16.3667 14.2832C15.7934 14.7821 15.3292 15.394 15.003 16.0805C14.2331 15.1358 13.7469 13.9922 13.6009 12.7823C13.455 11.5724 13.6553 10.3459 14.1785 9.24527C14.7018 8.14465 15.5265 7.21505 16.557 6.56443C17.5874 5.91382 18.7813 5.56888 20 5.56969V5.56984Z" fill="#0023B5"/>
</svg>
