<svg width="1262" height="338" viewBox="0 0 1262 338" fill="none" xmlns="http://www.w3.org/2000/svg">
<rect width="1262" height="338" rx="10" fill="#02387A"/>
<g opacity="0.1">
<mask id="mask0_552_19" style="mask-type:alpha" maskUnits="userSpaceOnUse" x="959" y="0" width="303" height="338">
<rect x="959" width="303" height="338" rx="10" fill="#1F0F83"/>
</mask>
<g mask="url(#mask0_552_19)">
<mask id="mask1_552_19" style="mask-type:alpha" maskUnits="userSpaceOnUse" x="977" y="-27" width="383" height="378">
<g clip-path="url(#clip0_552_19)">
<path d="M1168.02 351C1062.71 351 977.031 266.208 977.031 161.993C977.031 57.7786 1062.71 -27 1168.02 -27C1273.34 -27 1359.02 57.7786 1359.02 161.993C1359.02 266.208 1273.34 351 1168.02 351ZM1168.02 -24.5655C1064.07 -24.5655 979.492 59.1237 979.492 162.007C979.492 264.89 1064.07 348.579 1168.02 348.579C1271.98 348.579 1356.56 264.89 1356.56 162.007C1356.56 59.1237 1271.98 -24.5655 1168.02 -24.5655Z" fill="#452AEA"/>
<path d="M1168.03 328.217C1075.41 328.217 1000.05 253.647 1000.05 161.995C1000.05 70.3431 1075.41 -4.22656 1168.03 -4.22656C1260.65 -4.22656 1336.01 70.3431 1336.01 161.995C1336.01 253.647 1260.65 328.217 1168.03 328.217ZM1168.03 -1.79202C1076.76 -1.79202 1002.51 71.6747 1002.51 161.995C1002.51 252.302 1076.76 325.782 1168.03 325.782C1259.29 325.782 1333.55 252.302 1333.55 161.995C1333.55 71.6882 1259.3 -1.79202 1168.03 -1.79202Z" fill="#452AEA"/>
<path d="M1168.02 305.427C1088.1 305.427 1023.07 241.08 1023.07 161.991C1023.07 82.902 1088.1 18.5547 1168.02 18.5547C1247.95 18.5547 1312.98 82.902 1312.98 161.991C1312.98 241.08 1247.95 305.427 1168.02 305.427ZM1168.02 20.9892C1089.46 20.9892 1025.53 84.247 1025.53 161.991C1025.53 239.735 1089.46 302.993 1168.02 302.993C1246.59 302.993 1310.52 239.735 1310.52 161.991C1310.52 84.247 1246.6 20.9892 1168.02 20.9892Z" fill="#452AEA"/>
<path d="M1168.02 282.658C1100.79 282.658 1046.09 228.533 1046.09 162.007C1046.09 95.4804 1100.79 41.3555 1168.02 41.3555C1235.25 41.3555 1289.95 95.4804 1289.95 162.007C1289.95 228.533 1235.25 282.658 1168.02 282.658ZM1168.02 43.7766C1102.14 43.7766 1048.54 96.812 1048.54 162.007C1048.54 227.201 1102.14 280.237 1168.02 280.237C1233.91 280.237 1287.49 227.201 1287.49 162.007C1287.49 96.812 1233.91 43.7766 1168.02 43.7766Z" fill="#452AEA"/>
<path d="M1168.02 259.872C1113.49 259.872 1069.11 215.97 1069.11 161.993C1069.11 108.016 1113.48 64.1133 1168.02 64.1133C1222.57 64.1133 1266.94 108.016 1266.94 161.993C1266.94 215.97 1222.57 259.872 1168.02 259.872ZM1168.02 66.5478C1114.84 66.5478 1071.57 109.361 1071.57 161.993C1071.57 214.625 1114.84 257.438 1168.02 257.438C1221.21 257.438 1264.48 214.625 1264.48 161.993C1264.48 109.361 1221.21 66.5478 1168.02 66.5478Z" fill="#452AEA"/>
<path d="M1168.02 237.087C1126.18 237.087 1092.13 203.407 1092.13 161.993C1092.13 120.579 1126.17 86.8984 1168.02 86.8984C1209.87 86.8984 1243.91 120.579 1243.91 161.993C1243.91 203.407 1209.87 237.087 1168.02 237.087ZM1168.02 89.333C1127.53 89.333 1094.59 121.924 1094.59 161.993C1094.59 202.062 1127.53 234.652 1168.02 234.652C1208.51 234.652 1241.45 202.062 1241.45 161.993C1241.45 121.924 1208.51 89.333 1168.02 89.333Z" fill="#452AEA"/>
<path d="M1168.02 214.313C1138.86 214.313 1115.16 190.842 1115.16 162.004C1115.16 133.166 1138.88 109.695 1168.02 109.695C1197.16 109.695 1220.88 133.166 1220.88 162.004C1220.88 190.842 1197.18 214.313 1168.02 214.313ZM1168.02 112.116C1140.22 112.116 1117.6 134.498 1117.6 161.991C1117.6 189.484 1140.22 211.865 1168.02 211.865C1195.82 211.865 1218.42 189.484 1218.42 161.991C1218.42 134.498 1195.82 112.116 1168.02 112.116Z" fill="#452AEA"/>
<path d="M1168.02 191.528C1151.56 191.528 1138.17 178.279 1138.17 161.99C1138.17 145.702 1151.56 132.453 1168.02 132.453C1184.48 132.453 1197.87 145.702 1197.87 161.99C1197.87 178.279 1184.48 191.528 1168.02 191.528ZM1168.02 134.888C1152.92 134.888 1140.63 147.047 1140.63 161.99C1140.63 176.934 1152.92 189.093 1168.02 189.093C1183.12 189.093 1195.41 176.934 1195.41 161.99C1195.41 147.047 1183.12 134.888 1168.02 134.888Z" fill="#452AEA"/>
</g>
</mask>
<g mask="url(#mask1_552_19)">
<rect x="955.812" width="305.184" height="338" rx="10" fill="white"/>
</g>
</g>
</g>
<g opacity="0.1">
<g clip-path="url(#clip1_552_19)">
<path d="M16 298.179L30.17 305.239L44.51 298.099L58.85 305.239L73.19 298.099L87.52 305.239L101.86 298.099L114.86 304.569V302.579L101.86 296.109L87.52 303.249L73.19 296.109L58.85 303.249L44.51 296.109L30.17 303.249L16 296.189V298.179Z" fill="white"/>
<path d="M16 290.07L30.17 297.13L44.51 289.99L58.85 297.13L73.19 289.99L87.52 297.13L101.86 289.99L114.86 296.46V294.47L101.86 288L87.52 295.14L73.19 288L58.85 295.14L44.51 288L30.17 295.14L16 288.08V290.07Z" fill="white"/>
</g>
<g clip-path="url(#clip2_552_19)">
<path d="M102 298.179L116.17 305.239L130.51 298.099L144.85 305.239L159.19 298.099L173.52 305.239L187.86 298.099L200.86 304.569V302.579L187.86 296.109L173.52 303.249L159.19 296.109L144.85 303.249L130.51 296.109L116.17 303.249L102 296.189V298.179Z" fill="white"/>
<path d="M102 290.07L116.17 297.13L130.51 289.99L144.85 297.13L159.19 289.99L173.52 297.13L187.86 289.99L200.86 296.46V294.47L187.86 288L173.52 295.14L159.19 288L144.85 295.14L130.51 288L116.17 295.14L102 288.08V290.07Z" fill="white"/>
</g>
</g>
<defs>
<clipPath id="clip0_552_19">
<rect width="381.985" height="378" fill="white" transform="translate(977.031 -27)"/>
</clipPath>
<clipPath id="clip1_552_19">
<rect width="98.86" height="17.24" fill="white" transform="translate(16 288)"/>
</clipPath>
<clipPath id="clip2_552_19">
<rect width="98.86" height="17.24" fill="white" transform="translate(102 288)"/>
</clipPath>
</defs>
</svg>
