<svg width="59" height="59" viewBox="0 0 59 59" fill="none" xmlns="http://www.w3.org/2000/svg">
<circle cx="29.5" cy="29.5" r="28.75" stroke="#178FFF" stroke-width="1.5"/>
<mask id="path-2-outside-1_1151_302" maskUnits="userSpaceOnUse" x="11" y="14" width="37" height="31" fill="black">
<rect fill="white" x="11" y="14" width="37" height="31"/>
<path d="M46.4531 19.93H40.9844V18.19C40.9844 17.344 40.6675 16.5326 40.1034 15.9343C39.5393 15.3361 38.7743 15 37.9766 15C37.1788 15 36.4138 15.3361 35.8497 15.9343C35.2856 16.5326 34.9688 17.344 34.9688 18.19V19.93H23.4844C23.3393 19.93 23.2002 19.9911 23.0977 20.0999C22.9951 20.2086 22.9375 20.3562 22.9375 20.51V22.54C22.9375 23.0784 22.7358 23.5947 22.3769 23.9754C22.0179 24.3561 21.5311 24.57 21.0234 24.57C20.5158 24.57 20.0289 24.3561 19.67 23.9754C19.311 23.5947 19.1094 23.0784 19.1094 22.54V20.51C19.1094 20.3562 19.0518 20.2086 18.9492 20.0999C18.8466 19.9911 18.7075 19.93 18.5625 19.93H12.5469C12.4018 19.93 12.2627 19.9911 12.1602 20.0999C12.0576 20.2086 12 20.3562 12 20.51V38.49C12 38.6438 12.0576 38.7914 12.1602 38.9001C12.2627 39.0089 12.4018 39.07 12.5469 39.07H18.0156V40.81C18.0156 41.656 18.3325 42.4674 18.8966 43.0657C19.4607 43.6639 20.2257 44 21.0234 44C21.8212 44 22.5862 43.6639 23.1503 43.0657C23.7144 42.4674 24.0312 41.656 24.0312 40.81V39.07H35.5156C35.6607 39.07 35.7998 39.0089 35.9023 38.9001C36.0049 38.7914 36.0625 38.6438 36.0625 38.49V36.46C36.0625 35.9216 36.2642 35.4053 36.6231 35.0246C36.9821 34.6439 37.4689 34.43 37.9766 34.43C38.4842 34.43 38.9711 34.6439 39.33 35.0246C39.689 35.4053 39.8906 35.9216 39.8906 36.46V38.49C39.8906 38.6438 39.9482 38.7914 40.0508 38.9001C40.1534 39.0089 40.2925 39.07 40.4375 39.07H46.4531C46.5982 39.07 46.7373 39.0089 46.8398 38.9001C46.9424 38.7914 47 38.6438 47 38.49V20.51C47 20.3562 46.9424 20.2086 46.8398 20.0999C46.7373 19.9911 46.5982 19.93 46.4531 19.93ZM23.4844 37.91C23.3393 37.91 23.2002 37.9711 23.0977 38.0799C22.9951 38.1886 22.9375 38.3362 22.9375 38.49V40.81C22.9375 41.3484 22.7358 41.8647 22.3769 42.2454C22.0179 42.6261 21.5311 42.84 21.0234 42.84C20.5158 42.84 20.0289 42.6261 19.67 42.2454C19.311 41.8647 19.1094 41.3484 19.1094 40.81V38.49C19.1094 38.3362 19.0518 38.1886 18.9492 38.0799C18.8466 37.9711 18.7075 37.91 18.5625 37.91H13.0938V21.09H18.0156V22.54C18.0156 23.386 18.3325 24.1974 18.8966 24.7957C19.4607 25.3939 20.2257 25.73 21.0234 25.73C21.8212 25.73 22.5862 25.3939 23.1503 24.7957C23.7144 24.1974 24.0312 23.386 24.0312 22.54V21.09H28.9531V26.31H27.5859C26.7882 26.31 26.0232 26.6461 25.4591 27.2443C24.895 27.8426 24.5781 28.654 24.5781 29.5C24.5781 30.346 24.895 31.1574 25.4591 31.7557C26.0232 32.3539 26.7882 32.69 27.5859 32.69H28.9531V37.91H23.4844ZM45.9062 37.91H40.9844V36.46C40.9844 35.614 40.6675 34.8026 40.1034 34.2043C39.5393 33.6061 38.7743 33.27 37.9766 33.27C37.1788 33.27 36.4138 33.6061 35.8497 34.2043C35.2856 34.8026 34.9688 35.614 34.9688 36.46V37.91H30.0469V32.11C30.0469 31.9562 29.9893 31.8086 29.8867 31.6999C29.7841 31.5911 29.645 31.53 29.5 31.53H27.5859C27.0783 31.53 26.5914 31.3161 26.2325 30.9354C25.8735 30.5547 25.6719 30.0384 25.6719 29.5C25.6719 28.9616 25.8735 28.4453 26.2325 28.0646C26.5914 27.6839 27.0783 27.47 27.5859 27.47H29.5C29.645 27.47 29.7841 27.4089 29.8867 27.3001C29.9893 27.1914 30.0469 27.0438 30.0469 26.89V21.09H35.5156C35.6607 21.09 35.7998 21.0289 35.9023 20.9201C36.0049 20.8114 36.0625 20.6638 36.0625 20.51V18.19C36.0625 17.6516 36.2642 17.1353 36.6231 16.7546C36.9821 16.3739 37.4689 16.16 37.9766 16.16C38.4842 16.16 38.9711 16.3739 39.33 16.7546C39.689 17.1353 39.8906 17.6516 39.8906 18.19V20.51C39.8906 20.6638 39.9482 20.8114 40.0508 20.9201C40.1534 21.0289 40.2925 21.09 40.4375 21.09H45.9062V37.91Z"/>
</mask>
<path d="M46.4531 19.93H40.9844V18.19C40.9844 17.344 40.6675 16.5326 40.1034 15.9343C39.5393 15.3361 38.7743 15 37.9766 15C37.1788 15 36.4138 15.3361 35.8497 15.9343C35.2856 16.5326 34.9688 17.344 34.9688 18.19V19.93H23.4844C23.3393 19.93 23.2002 19.9911 23.0977 20.0999C22.9951 20.2086 22.9375 20.3562 22.9375 20.51V22.54C22.9375 23.0784 22.7358 23.5947 22.3769 23.9754C22.0179 24.3561 21.5311 24.57 21.0234 24.57C20.5158 24.57 20.0289 24.3561 19.67 23.9754C19.311 23.5947 19.1094 23.0784 19.1094 22.54V20.51C19.1094 20.3562 19.0518 20.2086 18.9492 20.0999C18.8466 19.9911 18.7075 19.93 18.5625 19.93H12.5469C12.4018 19.93 12.2627 19.9911 12.1602 20.0999C12.0576 20.2086 12 20.3562 12 20.51V38.49C12 38.6438 12.0576 38.7914 12.1602 38.9001C12.2627 39.0089 12.4018 39.07 12.5469 39.07H18.0156V40.81C18.0156 41.656 18.3325 42.4674 18.8966 43.0657C19.4607 43.6639 20.2257 44 21.0234 44C21.8212 44 22.5862 43.6639 23.1503 43.0657C23.7144 42.4674 24.0312 41.656 24.0312 40.81V39.07H35.5156C35.6607 39.07 35.7998 39.0089 35.9023 38.9001C36.0049 38.7914 36.0625 38.6438 36.0625 38.49V36.46C36.0625 35.9216 36.2642 35.4053 36.6231 35.0246C36.9821 34.6439 37.4689 34.43 37.9766 34.43C38.4842 34.43 38.9711 34.6439 39.33 35.0246C39.689 35.4053 39.8906 35.9216 39.8906 36.46V38.49C39.8906 38.6438 39.9482 38.7914 40.0508 38.9001C40.1534 39.0089 40.2925 39.07 40.4375 39.07H46.4531C46.5982 39.07 46.7373 39.0089 46.8398 38.9001C46.9424 38.7914 47 38.6438 47 38.49V20.51C47 20.3562 46.9424 20.2086 46.8398 20.0999C46.7373 19.9911 46.5982 19.93 46.4531 19.93ZM23.4844 37.91C23.3393 37.91 23.2002 37.9711 23.0977 38.0799C22.9951 38.1886 22.9375 38.3362 22.9375 38.49V40.81C22.9375 41.3484 22.7358 41.8647 22.3769 42.2454C22.0179 42.6261 21.5311 42.84 21.0234 42.84C20.5158 42.84 20.0289 42.6261 19.67 42.2454C19.311 41.8647 19.1094 41.3484 19.1094 40.81V38.49C19.1094 38.3362 19.0518 38.1886 18.9492 38.0799C18.8466 37.9711 18.7075 37.91 18.5625 37.91H13.0938V21.09H18.0156V22.54C18.0156 23.386 18.3325 24.1974 18.8966 24.7957C19.4607 25.3939 20.2257 25.73 21.0234 25.73C21.8212 25.73 22.5862 25.3939 23.1503 24.7957C23.7144 24.1974 24.0312 23.386 24.0312 22.54V21.09H28.9531V26.31H27.5859C26.7882 26.31 26.0232 26.6461 25.4591 27.2443C24.895 27.8426 24.5781 28.654 24.5781 29.5C24.5781 30.346 24.895 31.1574 25.4591 31.7557C26.0232 32.3539 26.7882 32.69 27.5859 32.69H28.9531V37.91H23.4844ZM45.9062 37.91H40.9844V36.46C40.9844 35.614 40.6675 34.8026 40.1034 34.2043C39.5393 33.6061 38.7743 33.27 37.9766 33.27C37.1788 33.27 36.4138 33.6061 35.8497 34.2043C35.2856 34.8026 34.9688 35.614 34.9688 36.46V37.91H30.0469V32.11C30.0469 31.9562 29.9893 31.8086 29.8867 31.6999C29.7841 31.5911 29.645 31.53 29.5 31.53H27.5859C27.0783 31.53 26.5914 31.3161 26.2325 30.9354C25.8735 30.5547 25.6719 30.0384 25.6719 29.5C25.6719 28.9616 25.8735 28.4453 26.2325 28.0646C26.5914 27.6839 27.0783 27.47 27.5859 27.47H29.5C29.645 27.47 29.7841 27.4089 29.8867 27.3001C29.9893 27.1914 30.0469 27.0438 30.0469 26.89V21.09H35.5156C35.6607 21.09 35.7998 21.0289 35.9023 20.9201C36.0049 20.8114 36.0625 20.6638 36.0625 20.51V18.19C36.0625 17.6516 36.2642 17.1353 36.6231 16.7546C36.9821 16.3739 37.4689 16.16 37.9766 16.16C38.4842 16.16 38.9711 16.3739 39.33 16.7546C39.689 17.1353 39.8906 17.6516 39.8906 18.19V20.51C39.8906 20.6638 39.9482 20.8114 40.0508 20.9201C40.1534 21.0289 40.2925 21.09 40.4375 21.09H45.9062V37.91Z" fill="#178FFF"/>
<path d="M46.4531 19.93H40.9844V18.19C40.9844 17.344 40.6675 16.5326 40.1034 15.9343C39.5393 15.3361 38.7743 15 37.9766 15C37.1788 15 36.4138 15.3361 35.8497 15.9343C35.2856 16.5326 34.9688 17.344 34.9688 18.19V19.93H23.4844C23.3393 19.93 23.2002 19.9911 23.0977 20.0999C22.9951 20.2086 22.9375 20.3562 22.9375 20.51V22.54C22.9375 23.0784 22.7358 23.5947 22.3769 23.9754C22.0179 24.3561 21.5311 24.57 21.0234 24.57C20.5158 24.57 20.0289 24.3561 19.67 23.9754C19.311 23.5947 19.1094 23.0784 19.1094 22.54V20.51C19.1094 20.3562 19.0518 20.2086 18.9492 20.0999C18.8466 19.9911 18.7075 19.93 18.5625 19.93H12.5469C12.4018 19.93 12.2627 19.9911 12.1602 20.0999C12.0576 20.2086 12 20.3562 12 20.51V38.49C12 38.6438 12.0576 38.7914 12.1602 38.9001C12.2627 39.0089 12.4018 39.07 12.5469 39.07H18.0156V40.81C18.0156 41.656 18.3325 42.4674 18.8966 43.0657C19.4607 43.6639 20.2257 44 21.0234 44C21.8212 44 22.5862 43.6639 23.1503 43.0657C23.7144 42.4674 24.0312 41.656 24.0312 40.81V39.07H35.5156C35.6607 39.07 35.7998 39.0089 35.9023 38.9001C36.0049 38.7914 36.0625 38.6438 36.0625 38.49V36.46C36.0625 35.9216 36.2642 35.4053 36.6231 35.0246C36.9821 34.6439 37.4689 34.43 37.9766 34.43C38.4842 34.43 38.9711 34.6439 39.33 35.0246C39.689 35.4053 39.8906 35.9216 39.8906 36.46V38.49C39.8906 38.6438 39.9482 38.7914 40.0508 38.9001C40.1534 39.0089 40.2925 39.07 40.4375 39.07H46.4531C46.5982 39.07 46.7373 39.0089 46.8398 38.9001C46.9424 38.7914 47 38.6438 47 38.49V20.51C47 20.3562 46.9424 20.2086 46.8398 20.0999C46.7373 19.9911 46.5982 19.93 46.4531 19.93ZM23.4844 37.91C23.3393 37.91 23.2002 37.9711 23.0977 38.0799C22.9951 38.1886 22.9375 38.3362 22.9375 38.49V40.81C22.9375 41.3484 22.7358 41.8647 22.3769 42.2454C22.0179 42.6261 21.5311 42.84 21.0234 42.84C20.5158 42.84 20.0289 42.6261 19.67 42.2454C19.311 41.8647 19.1094 41.3484 19.1094 40.81V38.49C19.1094 38.3362 19.0518 38.1886 18.9492 38.0799C18.8466 37.9711 18.7075 37.91 18.5625 37.91H13.0938V21.09H18.0156V22.54C18.0156 23.386 18.3325 24.1974 18.8966 24.7957C19.4607 25.3939 20.2257 25.73 21.0234 25.73C21.8212 25.73 22.5862 25.3939 23.1503 24.7957C23.7144 24.1974 24.0312 23.386 24.0312 22.54V21.09H28.9531V26.31H27.5859C26.7882 26.31 26.0232 26.6461 25.4591 27.2443C24.895 27.8426 24.5781 28.654 24.5781 29.5C24.5781 30.346 24.895 31.1574 25.4591 31.7557C26.0232 32.3539 26.7882 32.69 27.5859 32.69H28.9531V37.91H23.4844ZM45.9062 37.91H40.9844V36.46C40.9844 35.614 40.6675 34.8026 40.1034 34.2043C39.5393 33.6061 38.7743 33.27 37.9766 33.27C37.1788 33.27 36.4138 33.6061 35.8497 34.2043C35.2856 34.8026 34.9688 35.614 34.9688 36.46V37.91H30.0469V32.11C30.0469 31.9562 29.9893 31.8086 29.8867 31.6999C29.7841 31.5911 29.645 31.53 29.5 31.53H27.5859C27.0783 31.53 26.5914 31.3161 26.2325 30.9354C25.8735 30.5547 25.6719 30.0384 25.6719 29.5C25.6719 28.9616 25.8735 28.4453 26.2325 28.0646C26.5914 27.6839 27.0783 27.47 27.5859 27.47H29.5C29.645 27.47 29.7841 27.4089 29.8867 27.3001C29.9893 27.1914 30.0469 27.0438 30.0469 26.89V21.09H35.5156C35.6607 21.09 35.7998 21.0289 35.9023 20.9201C36.0049 20.8114 36.0625 20.6638 36.0625 20.51V18.19C36.0625 17.6516 36.2642 17.1353 36.6231 16.7546C36.9821 16.3739 37.4689 16.16 37.9766 16.16C38.4842 16.16 38.9711 16.3739 39.33 16.7546C39.689 17.1353 39.8906 17.6516 39.8906 18.19V20.51C39.8906 20.6638 39.9482 20.8114 40.0508 20.9201C40.1534 21.0289 40.2925 21.09 40.4375 21.09H45.9062V37.91Z" stroke="#178FFF" stroke-width="0.4" mask="url(#path-2-outside-1_1151_302)"/>
</svg>
