<svg width="209" height="24" viewBox="0 0 209 24" fill="none" xmlns="http://www.w3.org/2000/svg">
<path d="M39.9426 0C40.3578 0.0788722 40.7782 0.147676 41.1916 0.236617C42.7461 0.580049 44.1562 1.3739 45.2348 2.51282C46.3133 3.65174 47.0094 5.0819 47.2307 6.61352C47.8102 10.7887 44.9818 14.5947 40.728 15.266C39.6175 15.4619 38.476 15.4179 37.385 15.1372C36.2939 14.8564 35.2801 14.3457 34.4157 13.6415C34.1614 13.4418 34.0195 13.4553 33.8102 13.6701C33.4469 14.0409 33.0716 14.4034 32.6806 14.7474C32.6362 14.7762 32.598 14.8131 32.5683 14.8562C32.5386 14.8992 32.518 14.9476 32.5075 14.9984C32.4971 15.0492 32.4971 15.1015 32.5075 15.1523C32.5179 15.2031 32.5385 15.2514 32.5682 15.2945C32.9328 16.053 33.127 16.878 33.1377 17.7149C33.1485 18.5517 32.9756 19.3812 32.6306 20.1483C32.2855 20.9154 31.7762 21.6025 31.1364 22.1639C30.4966 22.7254 29.7411 23.1484 28.9198 23.4049C25.377 24.5393 21.5142 22.2218 21.0108 18.6642C20.8774 17.7544 20.962 16.8269 21.2582 15.954C21.2814 15.9137 21.2953 15.8689 21.299 15.8229C21.3028 15.7769 21.2962 15.7306 21.2797 15.6872C21.2633 15.6439 21.2374 15.6045 21.2038 15.5717C21.1703 15.539 21.1298 15.5137 21.0852 15.4975C20.3275 15.0797 19.5802 14.6451 18.8657 14.2389C18.4342 14.5891 17.9826 14.9152 17.513 15.2156C16.601 15.7372 15.5347 15.9462 14.4855 15.8089C13.4363 15.6716 12.4652 15.1961 11.7282 14.4588C11.4515 14.1836 11.2733 14.1634 10.9809 14.4101C10.6559 14.671 10.3145 14.912 9.95856 15.1317C9.87481 15.1766 9.81095 15.2498 9.77906 15.3373C9.74718 15.4248 9.7495 15.5206 9.78557 15.6066C10.1575 17.0733 9.22336 18.4108 7.67339 18.5618C7.3612 18.5944 7.04544 18.5662 6.74464 18.4789C6.44384 18.3915 6.16405 18.2467 5.92171 18.0531C5.67936 17.8594 5.47933 17.6207 5.33335 17.351C5.18738 17.0813 5.0984 16.7861 5.07164 16.4826C5.07642 16.3488 5.03514 16.2173 4.95433 16.1089C4.87351 16.0004 4.75776 15.9211 4.62533 15.8835C3.37462 15.3801 2.13603 14.8766 0.892239 14.3581C0.789721 14.3209 0.696119 14.2638 0.617188 14.1903C1.57093 14.3514 2.52352 14.5069 3.47496 14.6568C4.03025 14.7474 4.58554 14.8431 5.1443 14.9136C5.21096 14.9212 5.27855 14.9145 5.34224 14.8939C5.40592 14.8733 5.46415 14.8393 5.51276 14.7944C5.88865 14.3229 6.43282 14.005 7.03821 13.9031C7.64359 13.8012 8.26636 13.9228 8.78397 14.244C8.83867 14.2678 8.89822 14.2793 8.95815 14.2775C9.01808 14.2758 9.07683 14.2609 9.12995 14.2339C9.61259 13.9285 10.0727 13.5778 10.5485 13.2572C10.7457 13.1263 10.6799 12.9921 10.6211 12.826C9.99143 11.0522 10.2751 9.41935 11.5777 8.03657C12.9201 6.62023 14.6258 6.19063 16.5183 6.73099C18.3745 7.26799 19.4695 8.53833 19.8518 10.3809C19.9881 11.062 19.9525 11.7651 19.748 12.4299C19.7282 12.4688 19.7169 12.5113 19.715 12.5547C19.7131 12.5981 19.7205 12.6413 19.7367 12.6818C19.753 12.7222 19.7778 12.7589 19.8095 12.7895C19.8413 12.8201 19.8792 12.8439 19.921 12.8595C20.6037 13.2388 21.2812 13.6259 21.9536 14.0208C21.9871 14.0498 22.0269 14.0712 22.0701 14.0835C22.1132 14.0957 22.1587 14.0985 22.2031 14.0916C22.2475 14.0847 22.2897 14.0683 22.3268 14.0435C22.3638 14.0188 22.3947 13.9864 22.4172 13.9486C23.8374 12.3628 25.6521 11.715 27.7798 11.9164C28.788 12.0166 29.7499 12.3777 30.5649 12.9619C30.7033 13.0575 30.84 13.1566 31.013 13.2791C31.532 12.7907 32.0509 12.3192 32.5318 11.8208C32.5924 11.757 32.5405 11.5321 32.4747 11.418C31.803 10.2721 31.4618 8.97192 31.487 7.65396C31.4948 5.85921 32.1536 4.1244 33.348 2.75373C34.5424 1.38306 36.196 0.464017 38.019 0.157744C38.2923 0.112435 38.5622 0.0537002 38.8355 0H39.9426ZM39.4237 3.47877C37.2198 3.37304 35.0419 5.25423 35.0298 7.69927C35.0159 9.59052 36.5157 11.9332 39.4012 11.955C39.978 11.9633 40.5507 11.8596 41.0855 11.65C41.6204 11.4403 42.1066 11.129 42.5156 10.7343C42.9245 10.3396 43.2479 9.86955 43.4668 9.35178C43.6857 8.834 43.7955 8.27899 43.7899 7.71941C43.7899 5.1183 41.5307 3.39822 39.4202 3.48212M27.0343 21.074C27.7062 21.075 28.3634 20.8822 28.9222 20.5202C29.4811 20.1582 29.9164 19.6432 30.173 19.0408C30.4296 18.4383 30.4958 17.7754 30.3633 17.1363C30.2308 16.4972 29.9056 15.9107 29.4288 15.4513C28.9521 14.9919 28.3454 14.6803 27.6857 14.556C27.026 14.4318 26.3432 14.5004 25.7238 14.7534C25.1045 15.0063 24.5766 15.432 24.2071 15.9766C23.8377 16.5211 23.6434 17.1598 23.6489 17.8117C23.6575 18.6781 24.0177 19.5063 24.6513 20.1169C25.285 20.7275 26.1411 21.0714 27.0343 21.074ZM15.1171 13.4838C15.7496 13.486 16.3573 13.245 16.8071 12.8134C17.2568 12.3819 17.5119 11.795 17.5164 11.1814C17.5057 10.5675 17.2495 9.98163 16.8017 9.54762C16.354 9.11361 15.7499 8.86543 15.1171 8.8555C14.4844 8.86336 13.8799 9.11115 13.4331 9.54583C12.9863 9.98051 12.7327 10.5676 12.7264 11.1814C12.7226 11.4862 12.782 11.7886 12.901 12.0707C13.0201 12.3528 13.1963 12.6088 13.4193 12.8235C13.6423 13.0383 13.9075 13.2074 14.1991 13.3208C14.4908 13.4342 14.8029 13.4897 15.1171 13.4838ZM6.3431 16.2259C6.34425 16.5132 6.45997 16.789 6.66602 16.9955C6.87207 17.2019 7.15247 17.323 7.4485 17.3334C7.75096 17.3226 8.03801 17.2012 8.25202 16.9936C8.46604 16.786 8.59118 16.5075 8.60233 16.2141C8.59037 15.9204 8.46251 15.6423 8.24519 15.4374C8.02786 15.2325 7.73769 15.1165 7.43466 15.1133C7.13825 15.1216 6.85723 15.2432 6.65279 15.4516C6.44836 15.66 6.33705 15.9382 6.3431 16.2259Z" fill="#0071BC"/>
<path d="M208.375 1.93288C208.273 2.06377 208.162 2.18795 208.074 2.32724C206.015 5.57162 203.96 8.82217 201.909 12.0789C201.793 12.2706 201.73 12.4878 201.725 12.7098C201.713 15.0357 201.725 17.3616 201.725 19.6875V20.1373H199.168V19.7261C199.168 17.4472 199.168 15.17 199.168 12.8911C199.172 12.571 199.083 12.2565 198.911 11.9832C196.986 8.76008 195.066 5.53303 193.152 2.30206C193.079 2.17956 193.014 2.0537 192.922 1.8926C193.008 1.87558 193.095 1.86381 193.183 1.85736C193.96 1.85736 194.74 1.85736 195.508 1.85736C195.598 1.84885 195.687 1.86924 195.764 1.91536C195.84 1.96148 195.899 2.03076 195.93 2.11244C197.429 4.88807 198.929 7.66146 200.428 10.4326C200.473 10.5132 200.528 10.5904 200.601 10.7028C200.923 10.0869 201.211 9.49957 201.531 8.92733C202.798 6.65346 204.074 4.38463 205.337 2.11076C205.371 2.02981 205.431 1.96154 205.508 1.91594C205.585 1.87035 205.675 1.84982 205.765 1.85736C206.629 1.86911 207.51 1.85736 208.384 1.86575L208.375 1.93288Z" fill="#4D4D4D"/>
<path d="M79.8304 20.0177H65.5156V2.04492H79.4585V5.76198H69.5982V7.04911C69.5982 7.53745 69.6155 8.02746 69.5982 8.5158C69.5809 8.81786 69.6898 8.89673 69.9926 8.89673C72.4386 8.88499 74.8864 8.89673 77.3325 8.89673H78.8392V12.5869H78.3808C75.6026 12.5869 72.8244 12.5869 70.0462 12.5869C69.6898 12.5869 69.586 12.6792 69.5947 13.0249C69.6189 13.9546 69.6033 14.886 69.6033 15.8157C69.6033 16.2855 69.6033 16.2855 70.0756 16.2855H79.8304V20.0177Z" fill="#4D4D4D"/>
<path d="M100.984 2.03711H105.06V8.63552C105.245 8.63552 105.389 8.65398 105.532 8.65566H111.358C111.877 8.65566 111.877 8.65566 111.877 8.17404C111.877 6.27215 111.877 4.37587 111.877 2.48517V2.04214H115.979V20.0082H111.869V19.5501C111.869 17.3081 111.869 15.0678 111.869 12.8258C111.869 12.4902 111.777 12.3761 111.416 12.3794C109.437 12.3962 107.458 12.3794 105.479 12.3794C105.359 12.3794 105.238 12.3912 105.074 12.3996V20.0015H100.984V2.03711Z" fill="#4D4D4D"/>
<path d="M186.777 4.22473C186.635 4.64594 186.521 5.04198 186.374 5.42795C184.99 9.06726 183.606 12.7066 182.222 16.3459C181.783 17.4937 181.314 18.6332 180.873 19.781C180.853 19.8667 180.801 19.9419 180.727 19.9917C180.652 20.0416 180.561 20.0622 180.472 20.0495C180.004 20.0361 179.537 20.0596 179.072 20.0361C179.007 20.0291 178.944 20.0073 178.889 19.9727C178.833 19.938 178.787 19.8914 178.754 19.8364C176.953 14.802 174.896 9.85151 173.443 4.70132C173.403 4.55868 173.365 4.41604 173.305 4.19788C172.985 9.5679 172.67 14.8557 172.353 20.1519H169.898C170.359 14.0552 170.819 7.97703 171.282 1.86024C171.974 1.86024 172.614 1.86024 173.263 1.86024C173.68 1.86024 174.195 1.73606 174.484 1.92569C174.773 2.11532 174.83 2.62547 174.976 3.00305C176.379 6.77549 177.787 10.5546 179.171 14.3254C179.473 15.151 179.69 16.0035 179.963 16.9131C180.015 16.8404 180.059 16.7628 180.094 16.6815C181.046 13.3085 182.388 10.0697 183.684 6.8208C184.3 5.2786 184.921 3.73639 185.524 2.19083C185.55 2.08323 185.616 1.98887 185.71 1.92664C185.804 1.86442 185.919 1.8389 186.031 1.85521C186.877 1.87535 187.727 1.87031 188.574 1.85521C188.835 1.85521 188.944 1.91898 188.962 2.19083C189.077 4.15313 189.203 6.11543 189.341 8.07772C189.5 10.4271 189.668 12.7849 189.828 15.1376C189.938 16.7318 190.044 18.325 190.145 19.9169C190.146 19.9954 190.142 20.0739 190.133 20.1519H187.649C187.358 14.8591 187.068 9.56958 186.784 4.23144" fill="#4D4D4D"/>
<path d="M98.285 8.19892H94.1333C94.1083 8.13182 94.0869 8.06348 94.0693 7.99419C93.7648 6.53086 92.803 5.71696 91.3257 5.47699C89.3294 5.15647 87.4317 5.868 86.5599 7.85826C86.3427 8.35147 86.1871 8.86808 86.0963 9.39711C85.8471 10.8974 85.88 12.3909 86.4163 13.8408C87.3193 16.2842 89.5197 17.041 91.6492 16.5342C92.9881 16.2154 93.7493 15.3276 94.0295 14.0338C94.0503 13.9415 94.0641 13.8458 94.0849 13.7535C94.097 13.6948 94.1125 13.6377 94.1385 13.5387H98.2902C98.2653 14.2448 98.1252 14.9427 97.875 15.6062C96.9167 18.1989 94.9844 19.6757 92.2235 20.159C90.5609 20.4672 88.8434 20.3374 87.2501 19.7831C86.2037 19.4366 85.2492 18.8702 84.4546 18.1244C83.6601 17.3785 83.0452 16.4717 82.6538 15.4686C81.4117 12.4362 81.391 9.36019 82.7524 6.36304C84.0083 3.59916 86.3021 2.12744 89.3778 1.78846C91.644 1.54009 93.7354 1.97976 95.5501 3.36422C97.1554 4.58758 98.0273 6.21705 98.285 8.19389" fill="#4D4D4D"/>
<path d="M137 20.4181V2.36471C137.593 2.29255 138.183 2.18347 138.777 2.15662C140.358 2.08782 141.942 1.98881 143.523 2.02237C145.489 2.06265 147.412 2.39828 149.152 3.36488C151.515 4.67382 152.818 6.68422 153.166 9.27861C153.434 11.0539 153.264 12.8657 152.669 14.5647C151.618 17.4763 149.464 19.2148 146.442 20.0237C144.527 20.5372 142.572 20.6429 140.602 20.5875C139.413 20.5557 138.226 20.4801 137 20.4197M139.522 11.3075C139.522 13.6099 139.522 15.9123 139.522 18.213C139.522 18.4983 139.6 18.604 139.904 18.6275C141.537 18.755 143.169 18.7953 144.781 18.4597C147.464 17.8925 149.37 16.4342 150.213 13.8213C150.649 12.4223 150.755 10.9458 150.521 9.50181C150.135 6.91916 148.678 5.16048 146.103 4.33652C144.072 3.68708 141.992 3.74749 139.903 4.00928C139.595 4.04956 139.514 4.17709 139.515 4.46909C139.527 6.74799 139.515 9.02522 139.515 11.3041" fill="#4D4D4D"/>
<path d="M57.7903 20.0122H53.6888V5.79167C53.5019 5.7816 53.3618 5.7665 53.22 5.7665C51.6717 5.7665 50.1217 5.75643 48.5735 5.7665C48.2483 5.7665 48.1497 5.68091 48.1566 5.36374C48.1756 4.37532 48.1566 3.38355 48.1652 2.39345C48.1652 2.27766 48.1773 2.16187 48.186 2.0293H63.2862V5.75307H57.7903V20.0122Z" fill="#4D4D4D"/>
<path d="M134.483 20.1684C133.618 20.1684 132.782 20.1785 131.95 20.155C131.852 20.155 131.719 19.9754 131.672 19.8546C131.042 18.1664 130.416 16.4748 129.807 14.7783C129.78 14.6539 129.705 14.5441 129.598 14.471C129.491 14.3978 129.359 14.3667 129.229 14.3839C127.153 14.3996 125.078 14.3996 123.002 14.3839C122.877 14.3654 122.749 14.3954 122.646 14.4672C122.544 14.5391 122.475 14.6472 122.453 14.7682C121.862 16.4698 121.242 18.163 120.644 19.863C120.566 20.0828 120.471 20.1869 120.206 20.1785C119.459 20.1583 118.71 20.1785 117.914 20.1785C117.962 20.0207 117.995 19.8966 118.039 19.7791C120.193 13.9314 122.345 8.08363 124.496 2.2359C124.6 1.94894 124.735 1.85161 125.045 1.86C125.806 1.88182 126.569 1.88349 127.33 1.86C127.646 1.84993 127.773 1.96069 127.875 2.23926C129.688 7.16961 131.508 12.0972 133.336 17.0219L134.355 19.7757C134.4 19.8966 134.433 20.0207 134.483 20.1785M129.082 12.5363L126.11 4.11709C125.157 6.84573 124.169 9.67841 123.169 12.5363H129.082Z" fill="#4D4D4D"/>
<path d="M157.861 18.1976H166.431V20.151H155.359V1.88281H165.991V3.80092H165.516C163.106 3.80092 160.694 3.80092 158.285 3.79253C157.927 3.79253 157.828 3.89489 157.831 4.23723C157.849 5.91536 157.845 7.57671 157.831 9.24813C157.831 9.54348 157.918 9.63243 158.226 9.63075C160.513 9.62068 162.8 9.63075 165.087 9.63075H165.547V11.5421C165.4 11.5421 165.256 11.564 165.111 11.564C162.824 11.564 160.539 11.564 158.25 11.564C157.932 11.564 157.828 11.6411 157.83 11.9617C157.843 13.9167 157.83 15.8734 157.83 17.8351C157.83 17.9409 157.842 18.0466 157.852 18.2094" fill="#4D4D4D"/>
</svg>
