<svg width="59" height="59" viewBox="0 0 59 59" fill="none" xmlns="http://www.w3.org/2000/svg">
<circle cx="29.5" cy="29.5" r="28.75" stroke="#FF8A3D" stroke-width="1.5"/>
<g clip-path="url(#clip0_1151_243)">
<path d="M43.7131 28.194L39.5789 21.8098C39.2585 21.315 38.7153 21.0195 38.1257 21.0195H19.8852C19.2966 21.0195 18.7538 21.3143 18.4333 21.8078L14.2862 28.1928C13.8624 28.8452 13.9279 29.7066 14.4454 30.2874L27.7055 45.1742C28.0337 45.5427 28.5048 45.754 28.9982 45.754C28.9982 45.754 28.9983 45.754 28.9982 45.754C29.4916 45.754 29.9629 45.5427 30.2911 45.1743L43.5527 30.2866C44.0695 29.7065 44.1355 28.846 43.7131 28.194ZM37.2883 22.5038L33.8114 27.8802L30.3325 22.5038H37.2883ZM32.4473 28.5046H25.5491L28.9982 23.1742L32.4473 28.5046ZM27.664 22.504L24.1947 27.8656L20.7265 22.504H27.664ZM19.3541 23.1152L22.8402 28.5046H15.8537L19.3541 23.1152ZM16.1672 29.9889H23.637L27.5866 42.8091L16.1672 29.9889ZM28.9982 42.3496L25.1901 29.9889H32.8063L28.9982 42.3496ZM30.4098 42.8096L34.3596 29.989H41.83L30.4098 42.8096ZM35.1755 28.5046L38.6583 23.1189L42.1458 28.5046H35.1755Z" fill="#FF8A3D"/>
<path d="M12.2513 28.5039H10.7422C10.3324 28.5039 10 28.8362 10 29.2461C10 29.656 10.3324 29.9883 10.7422 29.9883H12.2513C12.6611 29.9883 12.9935 29.656 12.9935 29.2461C12.9935 28.8362 12.6611 28.5039 12.2513 28.5039Z" fill="#FF8A3D"/>
<path d="M47.2591 28.5039H45.75C45.3402 28.5039 45.0078 28.8362 45.0078 29.2461C45.0078 29.656 45.3402 29.9883 45.75 29.9883H47.2591C47.6689 29.9883 48.0013 29.656 48.0013 29.2461C48.0013 28.8362 47.6689 28.5039 47.2591 28.5039Z" fill="#FF8A3D"/>
<path d="M42.4433 15.815C42.1534 15.5252 41.6836 15.5252 41.3936 15.815L38.9283 18.2803C38.6385 18.5702 38.6385 19.0401 38.9283 19.33C39.0733 19.4749 39.2633 19.5473 39.4532 19.5473C39.6432 19.5473 39.833 19.4748 39.978 19.33L42.4433 16.8646C42.7331 16.5748 42.7331 16.1049 42.4433 15.815Z" fill="#FF8A3D"/>
<path d="M19.1073 18.2668L16.642 15.8014C16.3523 15.5115 15.8825 15.5115 15.5924 15.8014C15.3025 16.0912 15.3025 16.5611 15.5924 16.851L18.0577 19.3163C18.2026 19.4612 18.3926 19.5337 18.5825 19.5337C18.7724 19.5337 18.9623 19.4612 19.1073 19.3163C19.3971 19.0265 19.3971 18.5565 19.1073 18.2668Z" fill="#FF8A3D"/>
<path d="M29.0234 10.2461C28.6136 10.2461 28.2812 10.5784 28.2812 10.9883V15.825C28.2812 16.2349 28.6135 16.5672 29.0234 16.5672C29.4333 16.5672 29.7656 16.2349 29.7656 15.825V10.9883C29.7656 10.5784 29.4333 10.2461 29.0234 10.2461Z" fill="#FF8A3D"/>
<path d="M29.5481 17.8112C29.4101 17.6732 29.2186 17.5938 29.0234 17.5938C28.8282 17.5938 28.6368 17.6732 28.4987 17.8112C28.3607 17.9493 28.2812 18.1407 28.2812 18.3359C28.2812 18.5319 28.3606 18.7226 28.4987 18.8607C28.6368 18.9995 28.8282 19.0781 29.0234 19.0781C29.2186 19.0781 29.4101 18.9995 29.5481 18.8607C29.6869 18.7226 29.7656 18.5311 29.7656 18.3359C29.7656 18.1407 29.6869 17.9493 29.5481 17.8112Z" fill="#FF8A3D"/>
</g>
<defs>
<clipPath id="clip0_1151_243">
<rect width="38" height="38" fill="white" transform="translate(10 9)"/>
</clipPath>
</defs>
</svg>
