<svg width="59" height="59" viewBox="0 0 59 59" fill="none" xmlns="http://www.w3.org/2000/svg">
<circle cx="29.5" cy="29.5" r="28.75" stroke="#FA4F5E" stroke-width="1.5"/>
<path d="M24.2697 38.8649C24.2689 38.8738 24.268 38.8808 24.2673 38.886L24.2624 38.8908V38.9115C24.2624 39.089 24.2988 39.2379 24.4454 39.3845C24.5558 39.4949 24.7369 39.5674 24.8846 39.5674H33.4673C33.6503 39.5674 33.7973 39.4938 33.9066 39.3845C34.018 39.273 34.0895 39.0915 34.0895 38.9115C34.0895 38.9104 34.0894 38.9065 34.0891 38.9C34.0852 38.7971 34.0561 38.0398 34.19 37.1223C34.3326 36.1446 34.6589 34.9971 35.3875 34.2685L35.4877 34.1683C37.4494 32.3753 38.5996 29.8381 38.5996 27.1987C38.5996 22.0214 34.37 17.7918 29.1928 17.7918C24.0155 17.7918 19.7859 22.0214 19.7859 27.1987C19.7859 29.9051 20.9696 32.5099 22.9655 34.2696C23.6935 34.9984 24.0278 36.1454 24.1746 37.1225C24.2479 37.6101 24.274 38.0528 24.2798 38.3755C24.2827 38.5368 24.2804 38.668 24.2765 38.7594C24.2745 38.8053 24.2721 38.8407 24.2697 38.8649ZM34.5453 33.3203L34.5452 33.3202L34.5427 33.3227L34.5422 33.3232C34.5255 33.3398 34.499 33.3663 34.4765 33.3933C34.4652 33.4069 34.4538 33.4219 34.4451 33.4367C34.4401 33.4451 34.4341 33.4564 34.4305 33.4694C33.7723 34.1834 33.3851 35.1215 33.158 36.0173C32.9361 36.8925 32.866 37.7311 32.8467 38.2894H25.5052C25.4859 37.7297 25.4154 36.8663 25.1812 35.9624C24.9403 35.0324 24.5249 34.0554 23.8097 33.3231L23.8098 33.323L23.8067 33.3203C22.0337 31.7814 20.9966 29.5401 20.9966 27.165C20.9966 22.6488 24.643 19.0025 29.1591 19.0025C33.6753 19.0025 37.3216 22.6488 37.3216 27.165C37.3216 29.5406 36.3179 31.7817 34.5453 33.3203Z" fill="#FA4F5E" stroke="#FA4F5E" stroke-width="0.1"/>
<path d="M29.1581 20.1824C28.8276 20.1824 28.5359 20.4741 28.5359 20.8046L36.4282 27.5025L36.4782 27.5029C36.4782 27.5028 36.4782 27.5028 36.4782 27.5027C36.512 23.4693 33.2244 20.1824 29.1581 20.1824Z" fill="#FA4F5E" stroke="#FA4F5E" stroke-width="0.1"/>
<path d="M32.8676 43.0355V43.0355L32.8697 43.0354C33.7008 43.0008 34.3649 42.3761 34.3649 41.5718C34.3649 40.7701 33.703 40.1082 32.9013 40.1082H25.4293C24.6275 40.1082 23.9656 40.7701 23.9656 41.5718C23.9656 42.3736 24.6275 43.0355 25.4293 43.0355H32.8676ZM32.9013 41.7574H25.4293C25.318 41.7574 25.21 41.6748 25.21 41.5382C25.21 41.4641 25.232 41.4106 25.2669 41.3758C25.3017 41.3409 25.3551 41.3189 25.4293 41.3189H32.8676C32.9788 41.3189 33.0869 41.4015 33.0869 41.5382C33.0869 41.6123 33.0648 41.6669 33.0326 41.7023C33.0006 41.7374 32.9555 41.7574 32.9013 41.7574Z" fill="#FA4F5E" stroke="#FA4F5E" stroke-width="0.1"/>
<path d="M31.7814 43.5066H26.5308C25.7291 43.5066 25.0672 44.1685 25.0672 44.9703C25.0672 45.772 25.7291 46.4339 26.5308 46.4339H31.7814C32.5832 46.4339 33.245 45.772 33.245 44.9703C33.245 44.1341 32.5824 43.5066 31.7814 43.5066ZM31.7814 45.1559H26.5308C26.4196 45.1559 26.3116 45.0733 26.3116 44.9366C26.3116 44.8625 26.3336 44.8091 26.3684 44.7742C26.4033 44.7394 26.4567 44.7173 26.5308 44.7173H31.7814C31.8926 44.7173 32.0007 44.7999 32.0007 44.9366C32.0007 45.0733 31.8926 45.1559 31.7814 45.1559Z" fill="#FA4F5E" stroke="#FA4F5E" stroke-width="0.1"/>
<path d="M29.1581 15.0987C29.5242 15.0987 29.7803 14.8051 29.7803 14.4765V10.5722C29.7803 10.2416 29.4887 9.95 29.1581 9.95C28.8276 9.95 28.5359 10.2416 28.5359 10.5722V14.4765C28.5359 14.807 28.8276 15.0987 29.1581 15.0987Z" fill="#FA4F5E" stroke="#FA4F5E" stroke-width="0.1"/>
<path d="M37.8715 12.999L37.8714 12.999L37.8705 13.0003L35.7172 16.2303C35.4997 16.5216 35.5712 16.9245 35.8655 17.109C35.9729 17.1804 36.0831 17.218 36.1956 17.218C36.4154 17.218 36.5994 17.1076 36.7091 16.9255L38.8609 13.6977C39.0813 13.4376 39.0054 13.0354 38.7146 12.8522C38.419 12.632 38.0526 12.7455 37.8715 12.999Z" fill="#FA4F5E" stroke="#FA4F5E" stroke-width="0.1"/>
<path d="M22.8376 16.0999L22.8376 16.0999L22.8374 16.0995L20.7508 12.8351C20.7508 12.835 20.7508 12.835 20.7507 12.8349C20.5663 12.5401 20.1644 12.4695 19.8742 12.6509C19.5792 12.8353 19.5085 13.2373 19.69 13.5276L19.69 13.5276L19.6902 13.528L21.777 16.7928L21.777 16.7928L21.7776 16.7936C21.849 16.9007 21.9309 16.9745 22.024 17.021C22.1168 17.0674 22.2175 17.0852 22.324 17.0852C22.4365 17.0852 22.5468 17.0476 22.6541 16.9762C22.9485 16.7916 23.0189 16.39 22.8376 16.0999Z" fill="#FA4F5E" stroke="#FA4F5E" stroke-width="0.1"/>
<path d="M14.8791 18.7069L14.8791 18.7068L14.8776 18.7061C14.5874 18.561 14.1867 18.6666 14.0374 18.9619C13.8557 19.2553 13.965 19.6576 14.2945 19.8054L17.6922 21.6556L17.6918 21.6563L17.7003 21.6591C17.7191 21.6654 17.7373 21.6719 17.7552 21.6784C17.8275 21.7044 17.896 21.729 17.9854 21.729C18.2035 21.729 18.4243 21.6197 18.535 21.3984C18.6803 21.1078 18.5741 20.7064 18.2778 20.5576L14.8791 18.7069Z" fill="#FA4F5E" stroke="#FA4F5E" stroke-width="0.1"/>
<path d="M43.4713 18.7061L43.4713 18.706L43.47 18.7068L40.0375 20.5576C39.7412 20.7063 39.6349 21.1078 39.7803 21.3984C39.8909 21.6197 40.1118 21.729 40.3299 21.729C40.4408 21.729 40.5495 21.6924 40.6215 21.6564L40.6215 21.6564L40.6229 21.6557L44.0553 19.8049C44.3517 19.6561 44.4579 19.2547 44.3125 18.964C44.1641 18.6671 43.7622 18.5606 43.4713 18.7061Z" fill="#FA4F5E" stroke="#FA4F5E" stroke-width="0.1"/>
</svg>
