<svg width="93" height="18" viewBox="0 0 93 18" fill="none" xmlns="http://www.w3.org/2000/svg">
<path d="M27.298 7.73709C27.3849 7.75875 27.49 7.67352 27.5323 7.54729C27.5323 7.54729 27.5323 7.54729 27.5561 7.54778C27.7305 7.56726 27.6893 7.44328 27.7421 7.38875C27.9204 7.21766 28.1066 7.05069 28.281 6.87554C28.3297 6.82491 28.3392 6.74963 28.3761 6.69081C28.4049 6.64374 28.4342 6.57284 28.4822 6.55794C28.9144 6.40002 28.9144 6.40002 28.9144 6.40002C29.1597 6.0595 29.4255 5.6916 29.5032 5.58596C29.5808 5.48031 30.0049 5.33414 30.054 5.26365C30.1031 5.19316 30.2988 4.95092 30.3678 4.87688C30.4369 4.80283 30.6802 4.56157 30.7333 4.4872C30.7865 4.41282 31.0919 4.24434 31.1524 4.19792C31.2129 4.15151 31.34 3.96346 31.2207 3.96895C31.1014 3.97443 30.8137 4.05589 30.6466 4.07231C30.4794 4.08872 30.1041 4.37492 30.0002 4.40456C29.8964 4.43023 29.4086 4.587 29.1444 4.68483C29.1444 4.68483 29.1444 4.68483 28.9043 4.77124C28.6762 4.85393 28.6762 4.85393 28.6762 4.85393C28.4471 4.98426 27.9489 5.25601 27.5715 5.45081C27.194 5.64958 25.7784 6.30361 25.3248 6.53656C25.3248 6.53656 25.3247 6.53656 24.9151 6.75453C24.5336 6.95719 24.1598 7.16795 23.7743 7.37053C23.5374 7.49672 23.5374 7.49672 23.5374 7.49672C23.284 7.64642 22.8301 7.89128 22.5252 8.03991C22.2202 8.18853 21.2273 8.76389 20.9301 8.92062C20.629 9.07727 19.5547 9.74231 19.1485 9.98418C19.1485 9.98418 19.1485 9.98418 18.7553 10.1747C18.3742 10.3575 18.3742 10.3575 18.3742 10.3575C17.9919 10.5959 17.417 10.9336 17.1035 11.1098C16.7861 11.286 15.9173 11.8083 15.8644 11.8708C15.8115 11.9332 15.4202 12.0324 15.3028 12.1373C15.3028 12.1373 15.3028 12.1373 15.1151 12.185C14.9434 12.2291 14.9434 12.2291 14.9434 12.2291C14.7822 12.341 14.5809 12.4719 14.4966 12.5178C14.4122 12.5638 14.0511 12.7391 13.8908 12.8072C13.8908 12.8072 13.8908 12.8072 13.7503 12.8798C13.5936 12.964 13.5936 12.964 13.5936 12.964C13.4287 13.0639 13.0353 13.2663 12.7184 13.4186C12.4054 13.5711 11.407 14.0232 11.2265 14.1108C11.0459 14.1984 10.4124 14.4833 10.2321 14.559C10.2321 14.559 10.2321 14.559 10.0718 14.6312C9.92345 14.6957 9.92345 14.6957 9.92345 14.6957C9.75174 14.7398 9.57516 14.8275 9.53026 14.8862C9.48536 14.9448 9.09155 14.9724 8.93215 14.997C8.93215 14.997 8.93216 14.997 8.78848 15.0298C8.62885 15.0662 8.62885 15.0662 8.62885 15.0662C8.45333 15.1023 8.24994 15.1418 8.17028 15.1521C8.0946 15.1624 7.86681 15.2292 7.82653 15.2562C7.82653 15.2562 7.82653 15.2562 7.82264 15.2521C7.71343 15.1546 7.60648 15.1404 7.45032 15.2008C7.36621 15.2348 7.24345 15.2164 7.13179 15.2379C7.01607 15.2633 6.88148 15.2407 6.7584 15.2382C6.61546 15.2352 6.61546 15.2352 6.61546 15.2352C6.45665 15.2319 6.21875 15.2111 6.08027 15.1845C5.9418 15.1578 5.44189 14.9369 5.22192 14.8172C5.22192 14.8172 5.22192 14.8172 5.19514 14.5744C5.18536 14.4709 5.18536 14.4709 5.18536 14.4709C5.02875 14.3604 4.92749 14.263 4.95941 14.2557C4.99134 14.2484 5.04169 14.1184 4.98467 13.9941C4.98467 13.9941 4.98467 13.9941 4.88283 13.9244C4.78487 13.8589 4.78487 13.8589 4.78487 13.8589C4.70321 13.7738 4.62933 13.6968 4.61758 13.6886C4.60583 13.6804 4.55229 13.58 4.49495 13.4716C4.4376 13.3631 4.1473 12.8011 3.99139 12.4642C3.99139 12.4642 3.99139 12.4642 3.9665 12.13C3.92925 11.6248 3.92925 11.6248 3.92925 11.6248C4.17373 11.1333 4.38474 10.7246 4.40483 10.713C4.40483 10.713 4.40483 10.713 4.40905 10.7012C4.43905 10.5946 4.43905 10.5946 4.43905 10.5946C4.4693 10.476 4.54429 10.3068 4.60962 10.2208C4.60962 10.2208 4.60962 10.2208 4.67867 10.1467C4.75988 10.061 4.82148 9.96296 4.87903 9.86881C4.99041 9.66853 4.99041 9.66853 4.99041 9.66853C5.15737 9.46939 5.35384 9.18745 5.42445 9.03796C5.42445 9.03796 5.42445 9.03796 5.51053 8.90866C5.69096 8.63433 5.69096 8.63433 5.69096 8.63433C5.90753 8.34088 6.12897 8.00384 6.1909 7.88993C6.25283 7.77601 6.34673 7.46018 6.26691 7.47839C6.26691 7.47839 6.26691 7.47839 6.20281 7.50488C5.86618 7.64888 5.86618 7.64888 5.86618 7.64888C5.49738 7.81208 4.93992 8.07069 4.63101 8.21924C4.32209 8.36779 3.37881 8.84486 3.19097 8.90057C3.19097 8.90057 3.19097 8.90057 3.02298 8.95669C3.00702 8.96033 3.00702 8.96033 3.00702 8.96033C3.02135 9.0361 2.89581 9.15268 2.73146 9.22476C2.56712 9.29684 2.02239 9.516 1.91826 9.55754C1.91826 9.55754 1.91826 9.55754 1.87508 9.53282C1.58438 9.37589 1.58438 9.37589 1.58438 9.37589C1.52875 9.56938 1.4028 9.70581 1.29609 9.67977C1.18938 9.65374 0.847021 9.69038 0.758444 9.74814C0.669867 9.80589 0.458818 9.63868 0.58452 9.51417C0.706253 9.38957 1.20841 9.30856 1.07092 9.23423C1.07092 9.23423 1.07092 9.23423 0.992246 9.19686C0.905714 9.15535 0.818528 9.14561 0.804408 9.25257C0.790287 9.35952 0.790287 9.35952 0.790287 9.35952C0.699294 9.34176 0.417186 9.15323 0.163363 8.94144C0.163363 8.94144 0.163363 8.94144 0.449765 8.72888C0.578865 8.63224 0.556188 8.57616 0.510916 8.46003C0.480544 8.39188 0.480544 8.39188 0.480544 8.39188C0.566624 8.26258 0.655447 8.19291 0.682258 8.24113C0.709069 8.28934 0.858227 8.37583 0.962195 8.34223C0.962195 8.34223 0.962195 8.34223 1.0425 8.30019C1.08667 8.27727 1.08667 8.27727 1.08667 8.27727C1.1195 8.22631 1.09293 8.16618 1.0299 8.14104C1.0299 8.14104 1.0299 8.14104 0.974801 8.11608C0.959083 8.10781 0.959083 8.10781 0.959083 8.10781C0.931781 8.08341 1.03092 7.89877 1.17406 7.69914C1.17406 7.69914 1.17406 7.69914 1.32465 7.52349C1.36533 7.47667 1.36533 7.47667 1.36533 7.47667C1.465 7.45886 1.6205 7.43029 1.71223 7.41232C1.71223 7.41232 1.71223 7.41232 1.69823 7.32067C1.67687 7.20107 1.74899 7.17078 1.88382 7.1815C1.92741 7.18637 2.01947 7.15252 2.01963 7.14458C1.96225 6.84548 2.35376 6.92903 2.46788 6.78838C2.5046 6.74147 2.5046 6.74147 2.5046 6.74147C2.54942 6.68679 2.65834 6.60562 2.74262 6.56366C2.74262 6.56366 2.74262 6.56366 2.82285 6.52559C2.92317 6.47602 3.02739 6.4305 3.12382 6.37688C3.31694 6.25773 3.31694 6.25773 3.31694 6.25773C3.54538 6.15916 3.83428 6.01815 3.96281 5.9493C4.09134 5.88045 4.48081 5.67795 4.63103 5.71282C4.63103 5.71282 4.63103 5.71282 4.72141 5.56772C4.78301 5.46968 4.91559 5.39695 5.02427 5.32769C5.08869 5.28532 5.17702 5.23948 5.24833 5.24889C5.41087 5.26416 5.41087 5.26416 5.41087 5.26416C5.5236 5.19101 5.98049 4.99388 6.421 4.82024C6.421 4.82024 6.421 4.82024 6.86131 4.84917C7.05173 4.86104 7.05173 4.86104 7.05173 4.86104C7.25446 4.85331 7.52073 4.84688 7.65184 4.84561C7.78294 4.84434 8.30332 4.84315 8.53012 4.82399C8.53012 4.82399 8.53012 4.82399 8.71444 4.93901C8.7223 4.94314 8.78771 4.85313 8.86565 4.92624C9.00994 5.05632 9.00993 5.05632 9.00993 5.05632C9.17788 5.19483 9.34591 5.32938 9.38512 5.35402C9.38512 5.35402 9.38512 5.35402 9.38083 5.36982C9.26311 5.68516 9.6367 5.86763 9.71451 6.13934C9.77006 6.33512 9.77006 6.33512 9.77006 6.33512C10.0045 6.52267 10.2065 6.7453 10.2206 6.82901C10.2206 6.82901 10.2206 6.82901 10.2513 6.88525C10.4271 7.21856 10.4271 7.21856 10.4271 7.21856C10.2616 7.54087 9.88014 8.12485 9.586 8.51997C9.586 8.51997 9.586 8.51997 9.52944 8.95177C9.52919 8.96368 9.49329 8.97089 9.49305 8.9828C9.50177 9.13789 9.50177 9.13789 9.50177 9.13789C9.3879 9.26662 9.20018 9.50903 9.07771 9.66936C9.07771 9.66936 9.07771 9.66936 8.97923 9.82224C8.88893 9.96338 8.82222 10.1169 8.72787 10.2619C8.63352 10.407 8.63352 10.407 8.63352 10.407C8.51518 10.5594 8.38015 10.7513 8.33062 10.8416C8.28118 10.928 8.0633 11.285 7.96473 11.4418C7.96473 11.4418 7.96473 11.4418 7.8665 11.5828C7.80919 11.665 7.65966 11.7891 7.67133 11.8012C7.81975 11.9234 7.62373 11.9909 7.60993 12.082C7.59622 12.1691 7.59622 12.1691 7.59622 12.1691C7.49475 12.2742 7.48915 12.3536 7.58468 12.3436C7.58468 12.3436 7.58468 12.3436 7.64878 12.3171C7.90915 12.2113 7.90915 12.2113 7.90915 12.2113C8.16256 12.0576 8.46022 11.8771 8.57279 11.8118C8.68535 11.7466 9.21289 11.5907 9.23282 11.5871C9.25275 11.5836 9.35721 11.5261 9.46159 11.4727C9.56589 11.4232 9.93997 11.1965 10.1046 11.1125C10.2691 11.0286 10.8229 10.7579 10.9789 10.7016C11.135 10.6452 11.4624 10.3739 11.4784 10.3663C11.4945 10.3547 11.6144 10.3214 11.7145 10.2838C11.8145 10.2501 12.1397 10.078 12.2397 10.0444C12.3397 10.0107 12.5977 9.8293 12.6381 9.79835C12.6784 9.76741 12.8739 9.72774 12.9183 9.69291C12.9183 9.69291 12.9183 9.69291 12.9626 9.66205C13.0352 9.60793 13.1156 9.56192 13.1843 9.50376C13.3378 9.37981 13.6036 9.39721 13.7179 9.24862C13.8566 9.07274 13.8566 9.07273 13.8566 9.07273C14.0887 8.98616 14.3572 8.87253 14.4577 8.81502C14.5581 8.76148 14.9229 8.5982 15.0504 8.58096C15.0504 8.58096 15.0504 8.58096 15.0613 8.43819C15.0662 8.3946 15.0662 8.3946 15.0662 8.3946C15.202 8.35768 15.3816 8.31371 15.4614 8.29947C15.5451 8.28134 15.8307 8.10848 15.9714 8.02796C16.1121 7.94745 16.6672 7.60934 16.9204 7.46759C17.1736 7.32584 18.0498 6.82355 18.3111 6.67402C18.5684 6.52441 19.4728 6.00681 19.742 5.85745C20.0112 5.70809 20.8877 5.19786 21.0969 5.06712C21.0969 5.06712 21.0969 5.06712 21.2939 4.95201C21.3019 4.94821 21.3019 4.94821 21.3019 4.94821C21.3565 4.997 21.4842 4.97182 21.5811 4.89438C21.678 4.81693 21.9833 4.65242 22.0662 4.67797C22.0662 4.67797 22.0662 4.67797 22.0903 4.66257C22.2515 4.55071 22.3263 4.39336 22.5349 4.29041C22.7235 4.19897 22.9273 4.13962 23.112 4.04412C23.2806 3.95624 23.2806 3.95624 23.2806 3.95624C23.4654 3.85677 23.8106 3.68117 24.0474 3.56291C24.2842 3.44465 25.0223 3.09443 25.1474 3.00168C25.2684 2.90884 25.7853 2.69308 25.9333 2.64053C26.0815 2.584 26.5463 2.38703 26.6389 2.32935C26.6389 2.32935 26.6389 2.32935 26.7116 2.2673C26.7885 2.20136 26.8689 2.15535 26.9914 2.18171C27.1379 2.20856 27.1379 2.20856 27.1379 2.20856C27.1875 2.11425 27.2525 2.04409 27.28 2.05657C27.3076 2.06509 27.4077 2.02743 27.4372 1.94859C27.4372 1.94859 27.4372 1.94859 27.457 1.949C27.6513 1.96492 27.7266 1.77979 27.8419 1.77422C27.969 1.77684 28.118 1.67663 28.2755 1.7474C28.2912 1.75567 28.2912 1.75567 28.2912 1.75567C28.3028 1.76783 28.387 1.72984 28.4757 1.66812C28.5644 1.60639 28.9681 1.48363 29.0841 1.44233C29.2002 1.40103 29.5804 1.26189 29.6803 1.23218C29.7762 1.20238 30.1653 1.2104 30.3042 1.21723C30.3042 1.21723 30.3042 1.21723 30.3589 1.06742C30.3799 1.01224 30.5554 0.980109 30.667 0.962548C31.0099 0.898118 31.3457 0.793819 31.711 0.801348C31.8499 0.804213 31.9683 0.651738 32.137 0.754518C32.3018 0.853246 32.3849 0.676213 32.512 0.674861C32.6512 0.665814 32.6512 0.665814 32.6512 0.665814C32.8052 0.70871 33.0823 0.758114 33.2607 0.773708C33.4391 0.789301 33.9867 0.816477 34.0788 0.778654C34.0788 0.778654 34.0788 0.778654 34.1159 0.906527C34.1234 0.930513 34.2788 0.905912 34.3815 0.931862C34.8043 1.03988 34.8043 1.03988 34.8043 1.03988C35.0324 1.34249 35.2216 1.60855 35.225 1.63643C35.225 1.63643 35.225 1.63643 35.2129 1.64412C35.0074 1.78685 35.1876 1.90973 35.2487 2.02618C35.3368 2.18688 35.4089 2.35123 35.4849 2.51565C35.5991 2.75633 35.5991 2.75633 35.5991 2.75633C35.7968 2.99476 36.0247 3.30929 36.1051 3.45394C36.1051 3.45394 36.1051 3.45394 36.0104 3.61485C35.924 3.76004 35.8968 3.9263 35.8458 4.08414C35.8331 4.1236 35.8321 4.17124 35.7998 4.19838C35.4441 4.4969 35.4441 4.4969 35.4441 4.4969C35.2093 4.90517 34.8727 5.43049 34.6891 5.66504C34.6891 5.66504 34.6891 5.66504 34.4673 5.8273C34.2012 6.02042 34.2012 6.02042 34.2012 6.02042C33.9343 6.24927 33.696 6.44297 33.6759 6.4505C33.6759 6.4505 33.6759 6.4505 33.6718 6.45836C33.5764 6.84963 33.5764 6.84963 33.5764 6.84963C33.1819 7.10366 32.8031 7.36596 32.73 7.43992C32.657 7.51389 32.2738 7.79993 32.0762 7.94283C32.0762 7.94283 32.0762 7.94283 31.9967 8.13979C31.98 8.17917 31.98 8.17917 31.98 8.17917C31.9514 8.21433 31.8381 8.31924 31.729 8.40835C31.6199 8.49746 31.1511 8.88501 30.9446 9.07539C30.738 9.26974 30.0621 9.87944 29.9201 10.0235C29.7781 10.1675 29.2755 10.6576 29.1491 10.8139C29.0228 10.9702 28.6 11.4382 28.5031 11.5156C28.5031 11.5156 28.5031 11.5156 28.4143 11.5853C28.2567 11.7131 28.1032 11.841 27.9768 11.9973C27.8872 12.1067 27.8872 12.1067 27.8872 12.1067C27.734 12.2147 27.5725 12.3425 27.5279 12.3853C27.5279 12.3853 27.5279 12.3853 27.503 12.4364C27.4078 12.6211 27.4078 12.6211 27.4078 12.6211C27.1817 12.8031 26.9915 12.97 26.9831 12.9937C26.9831 12.9937 26.9831 12.9937 26.9907 13.0097C27.0061 13.0339 27.0061 13.0339 27.0061 13.0339C27.0413 13.0624 26.9711 13.1881 26.8533 13.3167C26.7355 13.4414 26.3306 13.8144 26.2304 13.86C26.1301 13.9095 26.1481 14.1919 26.1156 14.227C26.1156 14.227 26.1156 14.227 26.087 14.2622C25.7942 14.5938 25.7942 14.5938 25.7942 14.5938C25.5831 15.0065 25.4046 15.3802 25.4037 15.4238C25.4028 15.4715 25.4513 15.6234 25.5192 15.601C25.5872 15.5786 25.8256 15.5755 25.9247 15.5855C25.9247 15.5855 25.9247 15.5855 26.0288 15.548C26.2408 15.4729 26.2408 15.4729 26.2408 15.4729C26.4844 15.4104 26.8838 15.3074 27.1235 15.2408C27.1235 15.2408 27.1235 15.2408 27.3316 15.1657C27.4717 15.1129 27.6113 15.0841 27.7512 15.0393C27.9511 14.9798 27.9511 14.9798 27.9511 14.9798C28.0487 15.0613 28.1711 15.0956 28.2195 15.0608C28.2719 15.0222 28.3894 14.9134 28.3777 14.9012C28.3621 14.889 28.3399 14.8091 28.4231 14.8188C28.5063 14.8284 28.7321 14.8569 28.7401 14.8571C28.7401 14.8571 28.7401 14.8571 28.7445 14.8373C28.7622 14.7503 28.7622 14.7503 28.7622 14.7503C28.8391 14.6804 28.984 14.588 29.0802 14.5463C29.1763 14.5046 29.7117 14.3567 30.0008 14.2038C30.0008 14.2038 30.0008 14.2038 30.0648 14.1813C30.1129 14.1624 30.2032 14.212 30.2473 14.193C30.2914 14.1741 30.2969 14.0987 30.3373 14.0638C30.3535 14.0522 30.4484 14.074 30.4676 14.1022C30.5218 14.1709 30.5218 14.1709 30.5218 14.1709C30.5676 14.2632 30.666 14.3049 30.7463 14.2629C30.8226 14.2247 31.0155 14.1175 31.0078 14.1054C31.0041 14.0934 30.9289 14.076 30.8573 14.0825C30.7816 14.0928 30.6114 14.0655 30.6364 14.0064C30.6655 13.9474 30.9882 13.8985 31.1747 13.9063C31.1747 13.9063 31.1747 13.9063 31.2501 13.7172C31.2795 13.6423 31.5237 13.548 31.559 13.5726C31.7549 13.7037 31.7549 13.7037 31.7549 13.7037C31.8526 13.5866 32.0501 13.4477 32.1982 13.3951C32.1982 13.3951 32.1982 13.3951 32.2033 13.3396C32.2156 13.1254 32.2156 13.1254 32.2156 13.1254C32.3571 13.1998 32.5397 13.2075 32.6205 13.1416C32.6205 13.1416 32.6205 13.1416 32.6971 13.0836C32.798 13.0063 32.9888 13.0023 33.0858 12.9209C33.1666 12.855 33.3162 13.1123 33.3133 12.8699C33.3142 12.8263 33.4897 12.7902 33.5146 12.7351C33.5814 12.5815 33.5814 12.5815 33.5814 12.5815C33.7197 12.6161 33.8786 12.6115 33.9351 12.569C33.9916 12.5264 34.1839 12.447 34.2346 12.4957C34.2852 12.5444 34.5041 12.3304 34.649 12.2381C34.7939 12.1457 35.1842 11.9035 35.2157 11.9161C35.2432 11.9286 35.3662 11.9351 35.3598 11.8635C35.3598 11.8635 35.3598 11.8635 35.3728 11.8121C35.3814 11.7765 35.3814 11.7765 35.3814 11.7765C35.4179 11.7415 35.4967 11.771 35.5589 11.8398C35.621 11.9086 35.8088 11.6622 35.9323 11.6449C35.9323 11.6449 35.9323 11.6449 35.9314 11.4979C35.9293 11.4065 36.1025 11.6722 36.147 11.4428C36.1781 11.2805 36.1781 11.2805 36.1781 11.2805C36.311 11.3866 36.4521 11.4769 36.4879 11.4776C36.5276 11.4784 36.6636 11.4335 36.637 11.3734C36.6144 11.3134 36.6334 11.1628 36.7367 11.161C36.84 11.1591 37.0721 10.8819 37.2371 10.7781C37.4021 10.6742 37.9531 10.5386 37.9431 10.4431C37.9431 10.4431 37.9431 10.4431 37.9874 10.4162C38.1361 10.3318 38.1361 10.3318 38.1361 10.3318C38.32 10.2721 38.5527 10.1617 38.6615 10.0845C38.7663 10.0112 39.1522 9.98338 39.1772 9.92431C39.1772 9.92431 39.1772 9.92431 39.1615 9.91604C39.0202 9.83369 39.0202 9.83369 39.0202 9.83369C39.1128 9.77601 39.2932 9.69235 39.4253 9.6474C39.5533 9.60238 39.8749 9.41834 39.9261 9.43529C39.9261 9.43529 39.9261 9.43529 39.9777 9.44032C40.0609 9.44998 40.0609 9.44998 40.0609 9.44998C40.1607 9.42423 40.217 9.38964 40.1816 9.377C40.1461 9.36435 40.1034 9.3158 40.175 9.30934C40.2507 9.29898 40.4697 9.27172 40.4961 9.14912C40.5224 9.02653 40.8826 8.89493 40.898 8.92305C40.898 8.92305 40.898 8.92305 40.9052 8.95895C40.9123 8.99882 40.9123 8.99882 40.9123 8.99882C40.9119 9.01867 40.9439 9.00741 40.9883 8.97258C41.0327 8.93774 41.1619 8.83713 41.1619 8.83713C41.1619 8.83713 41.1873 8.76218 41.2599 8.70807C41.3325 8.65396 41.5822 8.4883 41.666 8.47017C41.7498 8.45203 41.8493 8.24754 41.8897 8.21659C41.93 8.18565 42.2178 8.10022 42.3623 8.02375C42.3623 8.02375 42.3623 8.02375 42.4974 8.02257C42.6723 8.01823 42.6597 7.85908 42.6715 7.8633C42.9894 8.05257 42.9893 8.05257 42.9893 8.05257C43.0653 7.83566 43.2855 7.56215 43.4785 7.44697C43.4785 7.44697 43.4785 7.44697 43.6671 7.35155C43.7996 7.28279 43.9065 7.11021 44.126 7.25376C44.1534 7.27022 44.2858 7.20939 44.3384 7.16281C44.5285 6.99593 44.7534 6.87742 45.0209 6.80747C45.0449 6.80002 45.0449 6.80002 45.0449 6.80002C45.1266 6.88512 45.2098 6.89478 45.2392 6.81991C45.2645 6.74496 45.5581 6.5683 45.6745 6.51111C45.6745 6.51111 45.6745 6.51111 45.8 6.58917C45.8039 6.59322 45.8039 6.59322 45.8039 6.59322C45.8443 6.55831 45.8462 6.46699 45.8043 6.38271C45.8043 6.38271 45.8043 6.38271 45.9185 6.42876C46.0722 6.48753 46.1795 6.48577 46.2177 6.3674C46.2769 6.18987 46.4211 6.13326 46.6069 6.17681C46.8243 6.22896 46.7064 5.97231 46.8926 5.99998C47.0114 6.01832 47.1387 6.00506 47.262 5.99965C47.2779 5.99998 47.2907 5.95655 47.3071 5.93305C47.4094 5.78422 47.4094 5.78422 47.4094 5.78422C47.6084 5.76846 47.9097 5.79453 48.0796 5.83776C48.0796 5.83776 48.0796 5.83776 48.0799 5.63121C48.0801 5.6193 48.1679 5.60125 48.2156 5.59826C48.3429 5.58897 48.5124 5.65204 48.5203 5.46154C48.5206 5.44963 48.6439 5.44026 48.7116 5.43371C48.8071 5.42376 48.941 5.47816 48.9362 5.32712C48.9366 5.30727 48.9366 5.30727 48.9366 5.30727C48.9689 5.2841 49.1335 5.19613 49.2981 5.11214C49.4627 5.02815 50.0582 5.04439 50.1426 4.99449C50.2271 4.9446 50.6533 4.88585 50.8793 4.9064C50.8793 4.9064 50.8793 4.9064 51.0434 4.84623C51.2115 4.78614 51.2115 4.78614 51.2115 4.78614C51.3456 4.82863 51.52 4.84811 51.5959 4.82981C51.6758 4.80763 52.0338 4.78323 52.209 4.75903C52.209 4.75903 52.209 4.75903 52.3293 4.89657C52.3488 4.91683 52.4325 4.90267 52.4841 4.90373C52.6945 4.90807 52.6945 4.90807 52.6945 4.90807C52.8874 4.99546 53.1745 5.13245 53.3318 5.21117C53.3318 5.21117 53.3318 5.21117 53.4528 5.31296C53.6012 5.43519 53.6861 5.5561 53.6547 5.73023C53.6456 5.78962 53.6456 5.78962 53.6456 5.78962C53.6957 5.86215 53.7654 5.95098 53.7923 5.99125C53.8233 6.03161 53.8709 6.42186 53.8975 6.47802C53.8975 6.47802 53.8975 6.47802 53.9283 6.52632C54.0015 6.63508 54.0868 6.73614 54.16 6.8449C54.1947 6.89725 54.1794 7.05979 54.1583 7.12291C54.1329 7.19786 54.0123 7.26687 54.1454 7.36097C54.1846 7.38958 54.1846 7.38958 54.1846 7.38958C54.1546 7.49621 54.1095 7.56281 54.0781 7.5423C54.0469 7.51783 53.948 7.49593 53.9154 7.53895C53.8828 7.578 53.8636 7.73649 53.8568 7.87537C53.8568 7.87537 53.8568 7.87537 53.8224 8.00177C53.7922 8.11634 53.7922 8.11634 53.7922 8.11634C53.699 8.20578 53.5453 8.34164 53.4523 8.42313C53.3592 8.50463 53.309 8.82137 53.229 8.84752C53.1451 8.8736 53.0068 9.22029 52.8242 9.40719C52.8242 9.40719 52.8242 9.40719 52.7128 9.61145C52.5478 9.90596 52.5478 9.90596 52.5478 9.90596C52.3585 10.2278 52.205 10.5424 52.2077 10.606C52.2064 10.6695 51.9989 10.7129 52.0018 10.7686C52.0046 10.8242 51.6776 11.0757 51.4899 11.3181C51.4899 11.3181 51.4899 11.3181 51.4922 11.5922C51.4941 11.6955 51.3554 11.6808 51.3389 11.7082C51.2324 11.8649 51.2324 11.8649 51.2324 11.8649C51.157 12.054 51.1371 12.2482 51.1878 12.293C51.1878 12.293 51.1878 12.293 51.0604 12.3102C51.0285 12.3135 50.9688 12.3202 50.9686 12.3282C50.955 12.602 50.7325 12.8 50.6124 13.0358C50.5794 13.0987 50.5896 13.1784 50.6001 13.2501C50.6171 13.3855 50.6171 13.3855 50.6171 13.3855C50.7839 13.3889 51.0386 13.3664 51.1783 13.3335C51.318 13.3006 51.787 13.2864 51.9046 13.3643C51.9046 13.3643 51.9046 13.3643 52.0307 13.22C52.0957 13.1498 52.2195 13.1166 52.3198 13.067C52.3359 13.0594 52.6235 12.978 52.6313 12.9861C52.7015 13.0511 52.7015 13.0511 52.7015 13.0511C52.7893 13.0291 52.9067 12.9242 52.9604 12.8221C53.0181 12.72 53.3648 12.8582 53.3971 12.835C53.3971 12.835 53.3971 12.835 53.3976 12.8112C53.4132 12.6288 53.6423 12.6931 53.6655 12.7214C53.8167 12.9033 53.9472 12.7391 54.0709 12.7139C54.1786 12.6883 54.1786 12.6883 54.1786 12.6883C54.2678 12.6027 54.3453 12.505 54.3499 12.4733C54.3545 12.4417 54.3444 12.3541 54.3649 12.3227C54.3854 12.2914 54.4903 12.2141 54.5496 12.2272C54.6089 12.2404 54.8316 12.2291 54.891 12.2382C54.9504 12.2474 55.1136 12.2309 55.0912 12.1589C55.0689 12.087 55.0692 11.8804 55.1486 11.8821C55.224 11.8836 55.4231 11.8599 55.4437 11.8246C55.4643 11.7893 55.5639 11.7715 55.6136 11.8678C55.6136 11.8678 55.6136 11.8678 55.7867 11.7562C55.8632 11.7061 55.8632 11.7061 55.8632 11.7061C55.9633 11.6685 56.1795 11.5856 56.3398 11.5174C56.3398 11.5174 56.3398 11.5174 56.3353 11.3504C56.3357 11.3306 56.4041 11.2883 56.4398 11.289C56.4755 11.2898 56.5184 11.3304 56.5416 11.3587C56.5881 11.4152 56.5881 11.4152 56.5881 11.4152C56.6342 11.4916 56.7255 11.4975 56.7865 11.4273C56.7865 11.4273 56.7865 11.4273 56.847 11.3808C56.8793 11.3577 56.9588 11.3553 56.9633 11.3316C56.972 11.2921 56.972 11.2921 56.972 11.2921C56.9729 11.2484 56.9973 11.2211 57.0288 11.2336C57.0603 11.2462 57.1637 11.2404 57.1455 11.1606C57.1273 11.0808 57.135 10.8982 57.22 11.0152C57.22 11.0152 57.22 11.0151 57.2794 11.0243C57.3428 11.0336 57.3428 11.0336 57.3428 11.0336C57.4194 10.9756 57.6778 10.7743 57.9081 10.5884C57.9081 10.5884 57.9081 10.5884 58.1454 10.4424C58.1897 10.4155 58.2444 10.4563 58.2392 10.5198C58.2348 10.5395 58.2348 10.5395 58.2348 10.5395C58.1944 10.5705 58.2216 10.5989 58.301 10.6005C58.3805 10.6021 58.5876 10.5746 58.5924 10.535C58.5971 10.4954 58.6551 10.3814 58.7028 10.3824C58.7504 10.3833 58.9063 10.3349 58.9156 10.2716C58.9248 10.2082 59.0078 10.0351 59.0713 10.0364C59.1349 10.0378 59.3905 9.97152 59.4677 9.88573C59.5449 9.79993 59.811 9.61078 59.8466 9.61549C59.8466 9.61549 59.8466 9.61549 59.8782 9.62805C59.9373 9.64913 60.0235 9.70652 60.0516 9.69121C60.156 9.63775 60.156 9.63775 60.156 9.63775C60.2491 9.55626 60.4156 9.37697 60.5256 9.24418C60.5256 9.24418 60.5256 9.24418 60.9086 9.16469C60.9405 9.1574 60.9927 9.1267 60.989 9.11471C60.9072 8.84689 60.9072 8.84689 60.9072 8.84689C61.1593 8.75676 61.4384 8.70293 61.5213 8.72847C61.5213 8.72847 61.5213 8.72847 61.5841 8.76551C61.6665 8.81488 61.7045 8.89907 61.8489 8.83055C62.0374 8.74308 62.0374 8.74308 62.0374 8.74308C62.0636 8.62843 62.2878 8.54169 62.5339 8.55073C62.5339 8.55073 62.5339 8.55073 62.6688 8.36285C62.6729 8.35896 62.7749 8.42065 62.8109 8.40947C63.0825 8.33563 63.0825 8.33563 63.0825 8.33563C63.0993 8.09765 63.2737 7.9225 63.4718 7.95041C63.4718 7.95041 63.4718 7.95041 63.4752 7.97432C63.4888 8.08979 63.4888 8.08979 63.4888 8.08979C63.5881 8.08786 63.764 8.03191 63.8845 7.96686C63.8845 7.96686 63.8845 7.96686 63.7909 7.88549C63.6621 7.77162 63.778 7.73826 63.8425 7.69589C63.9913 7.60363 63.9913 7.60363 63.9913 7.60363C64.168 7.51194 64.3673 7.47633 64.4378 7.52544C64.5083 7.57456 64.8106 7.55299 64.7276 7.53539C64.6445 7.51779 64.4555 7.43842 64.4842 7.39532C64.5169 7.3523 64.7522 7.30551 64.9299 7.35684C64.9299 7.35684 64.9299 7.35684 65.0092 7.16781C65.0762 7.00236 65.2524 7.12516 65.3644 7.08775C65.4404 7.06151 65.4404 7.06151 65.4404 7.06151C65.5247 7.01955 65.6082 7.01333 65.6273 7.05344C65.6503 7.09364 65.7486 7.13936 65.8093 7.085C65.87 7.03064 65.7419 6.88898 65.8408 6.9069C65.9397 6.92483 66.0519 6.68881 66.1316 6.67457C66.2113 6.66032 66.4349 6.60535 66.4471 6.59368C66.4471 6.59368 66.4471 6.59368 66.463 6.59004C66.6425 6.55402 66.8665 6.66986 67.005 6.50588C67.0986 6.39659 67.0986 6.39659 67.0986 6.39659C67.1807 6.2672 67.3395 6.27048 67.4519 6.40387C67.4519 6.40387 67.4519 6.40387 67.5213 6.12328C67.5515 6.00474 67.745 5.8697 67.9904 5.91051C68.0538 5.91976 68.1423 5.86201 68.2107 5.82369C68.295 5.77777 68.364 5.70769 68.4522 5.66581C68.733 5.53258 68.733 5.53258 68.733 5.53258C68.8969 5.67498 69.1224 5.71935 69.2315 5.63024C69.2315 5.63024 69.2315 5.63024 69.3363 5.55693C69.3605 5.54154 69.4119 5.55054 69.4476 5.55128C69.6934 5.5762 69.6934 5.5762 69.6934 5.5762C69.7394 5.46196 69.7472 5.2794 69.7058 5.16733C69.7058 5.16733 69.7058 5.16733 69.8804 5.1749C69.9717 5.17678 69.9717 5.17678 69.9717 5.17678C70.0594 5.1627 70.1633 5.13307 70.2034 5.11403C70.2034 5.11403 70.2034 5.11403 70.2078 5.09426C70.2219 4.9873 70.2219 4.98731 70.2219 4.98731C70.3169 5.00515 70.3593 5.06561 70.3145 5.12029C70.3145 5.12029 70.3145 5.12029 70.3301 5.1365C70.3806 5.18918 70.4552 5.23044 70.53 5.26376C70.5418 5.26798 70.6068 5.19782 70.6355 5.15869C70.668 5.11964 70.7167 5.07297 70.7135 5.03319C70.7104 4.9934 70.5844 4.9352 70.7236 4.93012C70.8668 4.92115 70.8668 4.92115 70.8668 4.92115C71.0329 4.95635 71.1761 4.94342 71.1811 4.89585C71.1861 4.84432 71.225 4.69418 71.2571 4.67498C71.2571 4.67498 71.2571 4.67498 71.2889 4.67564C71.3962 4.67388 71.5035 4.67212 71.6105 4.68227C71.8642 4.70736 71.8642 4.70736 71.8642 4.70736C71.9258 4.60932 72.0265 4.5399 72.0859 4.55304C72.1452 4.56618 72.3156 4.58558 72.4318 4.53634C72.4318 4.53634 72.4318 4.53634 72.5086 4.66503C72.5163 4.6771 72.5163 4.6771 72.5163 4.6771C72.6519 4.64812 72.8125 4.56404 72.8776 4.48992C72.8776 4.48992 72.8776 4.48992 72.9455 4.47145C73.0573 4.44198 73.0573 4.44198 73.0573 4.44198C73.1962 4.44882 73.3711 4.44448 73.4468 4.43015C73.5226 4.41582 73.5707 4.58762 73.5945 4.59208C73.6182 4.59654 73.7974 4.5764 73.9605 4.56387C74.1196 4.55126 74.493 4.74168 74.4017 4.7398C74.3104 4.73791 74.2087 4.85498 74.3326 5.00848C74.3326 5.00848 74.3326 5.00848 74.5623 4.85035C74.659 4.78482 74.9613 4.95788 74.9312 5.06848C74.8839 5.24228 74.8839 5.24228 74.8839 5.24228C74.916 5.42169 75.026 5.67023 75.1268 5.79147C75.1268 5.79147 75.1268 5.79147 75.2078 5.90833C75.2888 6.02519 75.3737 6.1461 75.4267 6.2743C75.4644 6.37041 75.5489 6.51118 75.2946 6.51388C75.2788 6.51356 75.249 6.60827 75.256 6.65211C75.2666 6.71588 75.317 6.77651 75.3315 6.84433C75.3389 6.87229 75.3389 6.87229 75.3389 6.87229C75.3024 6.90728 75.2544 6.92615 75.2388 6.90995C75.2192 6.89762 75.1239 6.89566 75.1262 6.97515C75.1262 6.97515 75.1262 6.97515 75.1211 7.03066C75.1108 7.14564 75.1108 7.14564 75.1108 7.14564C75.0097 7.23491 74.8439 7.37449 74.7349 7.45963C74.6299 7.54485 74.4409 7.85078 74.4087 7.86998C74.3765 7.88918 74.3191 7.97538 74.2703 8.03396C74.2214 8.09253 73.9928 8.19904 74.0798 8.21672C74.1668 8.2344 74.1866 8.43342 73.9521 8.63116C73.9521 8.63116 73.9521 8.63116 73.8914 8.88016C73.8696 8.97504 73.7809 8.84213 73.7569 8.85355C73.6928 8.88003 73.6928 8.88003 73.6928 8.88003C73.636 8.93447 73.5709 9.01257 73.5422 9.05568C73.5135 9.09878 73.5227 9.23005 73.4667 9.24876C73.4068 9.26341 73.2586 9.32391 73.2981 9.33664C73.3375 9.34937 73.454 9.47888 73.4042 9.58113C73.3545 9.68338 72.9905 9.80298 73.0158 9.92664C73.0158 9.92664 73.0158 9.92664 72.978 10.0252C72.9571 10.0764 72.8133 10.1171 72.7178 10.1231C72.5905 10.1324 72.609 10.1963 72.576 10.2592C72.489 10.4322 72.489 10.4322 72.489 10.4322C72.3583 10.6082 72.2351 10.8003 72.2141 10.8595C72.193 10.9186 72.0836 11.0196 72.0649 10.9636C72.0462 10.9076 71.7599 10.9256 71.6638 10.9633C71.6638 10.9633 71.6638 10.9633 71.7181 11.024C71.8074 11.1252 71.8074 11.1252 71.8074 11.1252C71.7197 11.1392 71.6473 11.1814 71.6467 11.2132C71.6467 11.2132 71.6467 11.2132 71.6501 11.2411C71.6643 11.3248 71.6864 11.4047 71.6927 11.4882C71.7025 11.5877 71.6855 11.643 71.5255 11.6953C71.3016 11.7701 71.3016 11.7701 71.3016 11.7701C71.3009 11.9965 71.2882 12.2266 71.2753 12.274C71.2624 12.3214 71.1357 12.4936 71.0424 12.587C70.9491 12.6804 70.7254 12.938 70.7648 12.9507C70.8043 12.9634 70.9063 13.0251 70.8425 13.0357C70.7788 13.0424 70.5743 13.1374 70.5606 13.2245C70.5606 13.2245 70.5606 13.2245 70.5909 13.2967C70.6173 13.3608 70.6173 13.3608 70.6173 13.3608C70.7076 13.4143 70.7542 13.4669 70.7262 13.4742C70.6983 13.4816 70.6331 13.5597 70.7073 13.6208C70.7816 13.6779 70.9817 13.7973 71.01 13.774C71.0383 13.7508 71.1466 13.6974 71.1699 13.7257C71.1931 13.754 71.3985 13.8138 71.5463 13.7732C71.6942 13.7285 72.0667 13.5773 72.109 13.6457C72.1512 13.7141 72.387 13.6475 72.3675 13.6312C72.3479 13.6149 72.4094 13.5208 72.5689 13.4923C72.7284 13.4639 73.1623 13.4172 73.1416 13.4605C73.1208 13.5037 73.1222 13.6269 73.2061 13.6048C73.2901 13.5787 73.4743 13.5031 73.4549 13.4828C73.4355 13.4625 73.366 13.3658 73.4252 13.3829C73.4844 13.4 73.6266 13.4387 73.6543 13.4432C73.682 13.4517 73.841 13.4431 73.9528 13.4136C74.0647 13.3842 74.2585 13.2293 74.1844 13.1642C74.1103 13.0991 74.3735 13.0489 74.431 13.1494C74.431 13.1494 74.431 13.1494 74.5733 13.1841C74.5891 13.1884 74.5891 13.1884 74.5891 13.1884C74.6046 13.2046 74.6656 13.1383 74.7231 13.0442C74.7807 12.9461 75.1951 12.8831 75.2866 12.8771C75.3821 12.8711 75.6237 12.7092 75.684 12.6747C75.7443 12.6402 75.9803 12.7563 76.0255 12.8764C76.0255 12.8764 76.0255 12.8764 76.2144 12.7651C76.2868 12.7229 76.2868 12.7229 76.2868 12.7229C76.4459 12.7143 76.4426 12.6824 76.2803 12.6513C76.2803 12.6513 76.2803 12.6513 76.202 12.598C76.1628 12.5734 76.1628 12.5734 76.1628 12.5734C76.1848 12.4706 76.2659 12.3888 76.3493 12.3866C76.3493 12.3866 76.3493 12.3866 76.3728 12.4069C76.5834 12.594 76.5834 12.594 76.5834 12.594C76.6383 12.4362 76.7744 12.3834 76.8836 12.485C76.8836 12.485 76.8836 12.485 77.0836 12.4176C77.2195 12.3727 77.2195 12.3727 77.2195 12.3727C77.4097 12.3965 77.5801 12.4159 77.6 12.4124C77.62 12.4088 77.8114 12.1784 77.8961 12.1166C77.8961 12.1166 77.8961 12.1166 77.9882 12.0827C78.0202 12.0715 78.1342 12.1255 78.1337 12.1532C78.1426 12.3004 78.1426 12.3004 78.1426 12.3004C78.2622 12.2751 78.4545 12.1956 78.5672 12.1264C78.6798 12.0573 78.9852 11.8888 79.0006 11.9129C79.012 11.937 79.0601 11.9181 79.0624 11.803C79.0624 11.803 79.0624 11.803 79.191 11.7341C79.2632 11.6959 79.207 11.5319 79.3727 11.5909C79.42 11.6078 79.4178 11.711 79.4404 11.775C79.4518 11.7991 79.4518 11.7991 79.4518 11.7991C79.4712 11.8193 79.5364 11.7412 79.6024 11.6195C79.6024 11.6195 79.6024 11.6195 79.6918 11.526C79.8094 11.4053 79.8094 11.4053 79.8094 11.4053C79.966 11.5197 80.1223 11.6421 80.1573 11.6786C80.1573 11.6786 80.1573 11.6786 80.1969 11.6834C80.2881 11.6932 80.2767 11.6691 80.2624 11.5934C80.248 11.5176 80.248 11.5176 80.248 11.5176C80.3254 11.4278 80.4704 11.3275 80.5664 11.2977C80.6623 11.2679 80.9821 11.1713 81.0702 11.1373C81.1623 11.0995 81.4381 11.0138 81.4889 11.0546C81.5398 11.0914 81.6729 11.1855 81.6849 11.1818C81.6969 11.178 81.7097 11.1346 81.6946 11.0986C81.6794 11.0625 81.6976 10.9516 81.7886 10.9694C81.8796 10.9872 82.1374 11.0044 82.1105 10.9641C82.0835 10.9239 82.1063 10.7813 82.2067 10.7278C82.2067 10.7278 82.2067 10.7278 82.2986 10.7019C82.3465 10.687 82.4572 10.7131 82.4687 10.7372C82.5027 10.8213 82.4461 10.8678 82.3271 10.8613C82.3032 10.8609 82.3032 10.8609 82.3032 10.8609C82.2508 10.8995 82.3523 10.985 82.5297 11.0522C82.5297 11.0522 82.5297 11.0522 82.5816 10.8467C82.5988 10.7835 82.6476 10.725 82.6886 10.6662C82.803 10.5097 82.803 10.5097 82.803 10.5097C82.9772 10.5411 83.1907 10.5852 83.2816 10.6069C83.2816 10.6069 83.2817 10.6069 83.3649 10.6166C83.3846 10.621 83.3846 10.621 83.3846 10.621C83.417 10.5938 83.4177 10.5581 83.3821 10.5494C83.3467 10.5368 83.2527 10.4713 83.3049 10.4446C83.3571 10.4139 83.5249 10.3697 83.5356 10.4255C83.5464 10.4813 83.5835 10.6092 83.5994 10.6055C83.6154 10.6019 83.701 10.4964 83.7669 10.3826C83.7669 10.3826 83.7669 10.3826 83.9266 10.5368C83.95 10.5572 83.95 10.5572 83.95 10.5572C84.1181 10.4971 84.1635 10.4146 84.053 10.3766C84.053 10.3766 84.053 10.3766 84.0021 10.3398C83.9826 10.3235 84.0124 10.2288 84.0124 10.2288C84.183 10.2363 84.3535 10.2517 84.524 10.2671C84.5319 10.2673 84.5268 10.3228 84.5303 10.3467C84.534 10.3587 84.534 10.3587 84.534 10.3587C84.5575 10.3751 84.6298 10.3368 84.6868 10.2705C84.7477 10.2042 84.9891 10.0543 85.0715 10.1036C85.0715 10.1036 85.0715 10.1036 85.1342 10.1486C85.2007 10.1976 85.2007 10.1976 85.2007 10.1976C85.2787 10.2668 85.3737 10.2807 85.4105 10.2337C85.4511 10.1869 85.6118 10.0989 85.6988 10.1205C85.6988 10.1205 85.6988 10.1205 85.778 10.1301C85.786 10.1303 85.8193 10.0555 85.8161 10.0197C85.813 9.97591 85.813 9.97591 85.813 9.97591C85.7821 9.93158 85.8068 9.8884 85.8705 9.88574C85.8705 9.88574 85.8705 9.88574 85.9018 9.90624C85.9723 9.95536 86.0662 10.0248 86.1194 9.94648C86.2303 9.77399 86.4594 9.83432 86.616 9.75016C86.8009 9.64672 86.8009 9.64672 86.8009 9.64672C86.818 9.78213 86.8641 9.85458 86.9047 9.81172C86.9453 9.76887 87.1142 9.66907 87.124 9.77255C87.124 9.77255 87.124 9.77255 87.0958 9.79183C86.9991 9.85736 87.022 9.9055 87.1085 9.947C87.1596 9.97189 87.2743 9.99808 87.2825 9.98634C87.4134 9.80234 87.4134 9.80234 87.4134 9.80234C87.6603 9.77168 87.9082 9.68941 87.9693 9.61917C87.9693 9.61917 87.9693 9.61917 88.0415 9.58491C88.1097 9.55056 88.1097 9.55056 88.1097 9.55056C88.209 9.54864 88.3644 9.52801 88.4602 9.50615C88.556 9.48429 88.8774 9.49886 89.0487 9.47459C89.0487 9.47459 89.0487 9.47459 89.141 9.61949C89.1641 9.65571 89.2904 9.69804 89.3105 9.68256C89.4516 9.58617 89.4516 9.58617 89.4516 9.58617C89.6015 9.63295 89.8154 9.66119 89.9269 9.6476C90.0384 9.63401 90.3956 9.84395 90.5373 9.90645C90.6789 9.97293 91.1447 9.92295 91.1879 9.94767C91.1879 9.94767 91.1879 9.94767 91.231 9.97239C91.5373 10.1455 91.5373 10.1455 91.5373 10.1455C91.8751 10.3312 92.1964 10.5444 92.2546 10.6131C92.3127 10.6819 92.451 10.9111 92.506 10.9401C92.561 10.969 92.4788 11.1063 92.4747 11.1102C92.4707 11.1141 92.4551 11.2925 92.447 11.491C92.447 11.491 92.447 11.491 92.4911 11.6627C92.5131 11.7505 92.6069 11.8279 92.6688 11.9086C92.7307 11.9894 92.7307 11.9894 92.7307 11.9894C92.8041 12.0902 92.8133 12.2175 92.7526 12.2718C92.7526 12.2718 92.7526 12.2718 92.6809 12.2862C92.5651 12.3117 92.5651 12.3117 92.5651 12.3117C92.5549 12.228 92.5088 12.1556 92.4612 12.1506C92.4612 12.1506 92.4612 12.1506 92.441 12.1661C92.4209 12.1776 92.4395 12.2416 92.4275 12.2453C92.3677 12.256 92.3677 12.256 92.3677 12.256C92.3001 12.2585 92.2528 12.2417 92.2652 12.2181C92.2776 12.1945 92.231 12.1419 92.1355 12.1519C92.0399 12.1618 91.9176 11.9289 91.8388 11.8995C91.7559 11.8739 91.6017 11.6444 91.547 11.6035C91.4922 11.5627 91.2949 11.499 91.255 11.5101C91.215 11.5212 91.0881 11.5106 91.0615 11.4545C91.0615 11.4545 91.0615 11.4545 91.0306 11.4101C91.0267 11.4061 90.9585 11.4404 90.9188 11.4396C90.8591 11.4424 90.8591 11.4424 90.8591 11.4424C90.7918 11.433 90.6099 11.3935 90.4558 11.3546C90.3016 11.3196 89.766 11.2887 89.6068 11.3053C89.4476 11.3179 89.0015 11.3763 88.9576 11.3873C88.9137 11.3983 88.7189 11.4062 88.62 11.3883C88.521 11.3703 88.1694 11.4703 88.0034 11.4312C88.0034 11.4312 88.0034 11.4312 87.8933 11.5679C87.8852 11.5757 87.8613 11.5792 87.8455 11.5789C87.6477 11.539 87.6477 11.539 87.6477 11.539C87.4259 11.5066 87.183 11.5374 87.1102 11.5994C87.0373 11.6655 86.5703 11.775 86.3628 11.8224C86.3628 11.8224 86.3628 11.8224 86.175 11.8781C86.115 11.8967 86.0237 11.7002 85.9918 11.8981C85.9691 12.0367 85.8239 11.9503 85.7322 11.9683C85.6365 11.9861 85.6365 11.9861 85.6365 11.9861C85.5288 12.0078 85.3782 11.9927 85.2995 11.9554C85.2208 11.918 84.9471 12.0951 84.8632 12.1172C84.7793 12.1432 84.4081 12.227 84.2286 12.263C84.2286 12.263 84.2286 12.263 84.0728 12.3074C83.7931 12.3891 83.4597 12.3742 83.2487 12.5923C83.2202 12.6235 83.2202 12.6235 83.2202 12.6235C83.1251 12.6136 82.9188 12.6014 82.768 12.5943C82.768 12.5943 82.768 12.5943 82.6665 12.7035C82.6339 12.7385 82.634 12.7385 82.634 12.7385C82.5542 12.7528 82.4268 12.7661 82.3553 12.7685C82.2837 12.771 82.0826 12.894 82.0465 12.9131C82.0063 12.9322 81.6034 13.0152 81.2446 13.0793C81.2446 13.0793 81.2446 13.0793 80.967 13.2523C80.9509 13.26 80.8351 13.0987 80.7954 13.2885C80.7823 13.3478 80.7823 13.3478 80.7823 13.3478C80.6345 13.3885 80.347 13.462 80.1473 13.5135C79.9438 13.5609 79.3529 13.7076 79.2656 13.7019C79.1743 13.696 78.9299 13.7982 78.802 13.8393C78.6739 13.8843 78.3174 14.0319 78.2734 14.0469C78.2293 14.0658 78.0145 14.0812 77.8873 14.0866C77.7601 14.0919 77.4232 14.2478 77.3161 14.2416C77.2089 14.2354 76.7509 14.4882 76.4506 14.6051C76.4506 14.6051 76.4506 14.6051 76.1563 14.4282C76.1406 14.42 76.1406 14.42 76.1406 14.42C76.1005 14.439 75.9524 14.4955 75.8123 14.5483C75.8123 14.5483 75.8123 14.5483 75.7229 14.6457C75.5726 14.8055 75.3012 14.6728 75.1076 14.8158C74.9625 14.92 74.9625 14.92 74.9625 14.92C74.7077 14.9465 74.381 14.9954 74.2414 15.0243C74.2414 15.0243 74.2414 15.0243 74.1138 15.0495C73.9104 15.089 73.9104 15.089 73.9104 15.089C73.8283 15.0237 73.7169 15.0334 73.6636 15.1117C73.6104 15.1901 73.3151 15.0608 73.2795 15.0561C73.2795 15.0561 73.2795 15.0561 73.2753 15.064C73.2463 15.123 73.2679 15.2307 73.1376 15.1962C73.0467 15.1705 73.0467 15.1705 73.0467 15.1705C72.9569 15.0971 72.8661 15.0675 72.8494 15.1068C72.8327 15.1462 72.5378 15.1958 72.2355 15.2134C72.2355 15.2134 72.2355 15.2134 72.0027 15.141C71.8251 15.0857 71.7419 15.2667 71.585 15.1721C71.4515 15.0939 71.4515 15.0939 71.4515 15.0939C71.2779 15.0387 71.0726 14.9789 70.9935 14.9613C70.9144 14.9438 70.6695 14.8752 70.6262 14.8584C70.5828 14.8417 70.4433 14.6759 70.3743 14.5514C70.3743 14.5514 70.3743 14.5514 70.3029 14.5459C70.0769 14.5293 70.0769 14.5293 70.0769 14.5293C70.1148 14.4229 70.0523 14.1793 69.9371 13.9902C69.9371 13.9902 69.937 13.9902 69.8093 13.8287C69.6738 13.6591 69.6738 13.6591 69.6738 13.6591C69.6068 13.4392 69.5433 13.2433 69.5358 13.2233C69.5282 13.2033 69.5236 13.0443 69.5111 12.8812C69.5111 12.8812 69.5111 12.8812 69.5222 12.7265C69.5433 12.4727 69.5433 12.4727 69.5433 12.4727C69.6382 12.2999 69.7537 12.0917 69.8071 12.0094C69.8071 12.0094 69.8071 12.0094 69.7042 11.9874C69.4274 11.9301 69.5443 11.8451 69.6652 11.7642C69.8463 11.6488 69.9962 11.5049 70.1656 11.3813C70.3632 11.2384 70.3149 11.0745 70.3263 10.9079C70.3266 10.8921 70.3266 10.8921 70.3266 10.8921C70.2873 10.8714 70.2247 10.8264 70.1857 10.7938C70.1466 10.7612 70.3514 10.6542 70.4076 10.6236C70.4076 10.6236 70.4076 10.6236 70.4362 10.5845C70.526 10.4711 70.526 10.4711 70.526 10.4711C70.6323 10.3224 70.733 10.2569 70.7514 10.3248C70.7514 10.3248 70.7514 10.3248 70.7665 10.3649C70.7852 10.4209 70.5624 10.4361 70.7357 10.5072C70.7594 10.5157 70.832 10.4616 70.8724 10.4266C70.9048 10.3995 70.9255 10.3602 70.95 10.325C71.0726 10.1607 71.0726 10.1607 71.0726 10.1607C70.8876 10.0774 70.7898 10.0039 70.8575 9.99735C70.9251 9.9908 71.1087 9.95089 71.0575 9.92997C71.0063 9.90905 70.9322 9.84 70.9765 9.80914C71.0209 9.77828 71.216 9.75449 71.2177 9.67111C71.2194 9.58773 71.2722 9.33858 71.3267 9.39134C71.3813 9.4441 71.4757 9.48974 71.4495 9.40976C71.4234 9.32978 71.6059 9.14685 71.6255 9.15917C71.6451 9.17149 71.7321 9.18917 71.7409 9.14566C71.7498 9.10215 71.7326 8.97468 71.6763 9.0053C71.6763 9.0053 71.6763 9.0053 71.6446 9.00465C71.6168 9.00407 71.5539 8.971 71.5579 8.97108C71.5994 8.88455 71.5994 8.88455 71.5994 8.88455C71.6529 8.7943 71.7753 8.63396 71.865 8.52459C71.9585 8.41927 72.34 8.02595 72.4746 7.85395C72.4746 7.85395 72.4746 7.85395 72.5498 7.67278C72.5875 7.5822 72.5875 7.5822 72.5875 7.5822C72.6568 7.49227 72.762 7.40308 72.8259 7.38453C72.8898 7.36599 72.9633 7.2682 72.9742 7.32006C72.9851 7.36796 73.0434 7.43271 73.0846 7.35809C73.1219 7.28339 73.0307 7.0829 73.1142 7.08065C73.1976 7.0784 73.4536 6.99231 73.5383 6.93051C73.5383 6.93051 73.5383 6.93051 73.5273 6.88659C73.4831 6.71885 73.4156 6.91209 73.3763 6.88745C73.3449 6.87091 73.3148 6.79085 73.3269 6.77918C73.3956 6.72499 73.3956 6.72499 73.3956 6.72499C73.488 6.67525 73.6361 6.61872 73.72 6.59662C73.72 6.59662 73.72 6.59662 73.7882 6.56228C73.8243 6.54316 73.8695 6.47259 73.8577 6.46441C73.8032 6.41164 73.7006 6.37775 73.6741 6.31762C73.6512 6.27346 73.6512 6.27346 73.6512 6.27346C73.7003 6.20297 73.686 6.12324 73.615 6.10191C73.615 6.10191 73.615 6.10191 73.5988 6.11747C73.4773 6.23015 73.3022 6.2464 73.1579 6.30699C73.0017 6.37129 72.8475 6.14567 72.728 6.35373C72.6292 6.51853 72.4051 6.41063 72.2416 6.43904C72.1818 6.44972 72.1253 6.49225 72.0729 6.53089C71.9238 6.63507 71.7601 6.67539 71.565 6.6952C71.3899 6.71145 71.2099 6.77527 71.0612 6.85562C70.7961 7.00109 70.7961 7.00109 70.7961 7.00109C70.4757 7.12954 70.1645 7.19463 70.1097 7.15378C70.0551 7.10896 69.8784 7.00601 69.8932 7.05796C69.9081 7.1099 69.9331 7.24547 69.9248 7.26118C69.9248 7.26118 69.9248 7.26119 69.9009 7.26466C69.4708 7.31935 69.4708 7.31935 69.4708 7.31935C69.1007 7.54211 68.5745 7.82917 68.3057 7.95869C68.3057 7.95869 68.3057 7.95869 68.0306 8.00862C67.899 8.03372 67.9489 8.11816 67.8964 8.1568C67.852 8.19164 67.7763 8.20199 67.7165 8.21665C67.5087 8.27592 67.2854 8.31501 67.1509 8.48304C67.1346 8.50256 67.1346 8.50256 67.1346 8.50256C67.0947 8.51366 66.943 8.55025 66.7914 8.58287C66.6397 8.6155 66.097 8.93003 65.8634 9.08807C65.8634 9.08807 65.8634 9.08807 65.6157 9.15843C64.9365 9.34702 64.9365 9.34702 64.9365 9.34702C64.2978 9.69531 63.623 10.0588 63.4383 10.1543C63.2536 10.2498 62.6642 10.5157 62.587 10.5975C62.587 10.5975 62.587 10.5975 62.4994 10.6116C62.2841 10.6508 62.2841 10.6508 62.2841 10.6508C62.1186 10.7745 61.9248 10.9294 61.8519 10.9954C61.7791 11.0615 61.3255 11.0998 61.1371 11.1793C60.9488 11.2588 60.4364 11.6455 60.3275 11.7227C60.2187 11.7999 59.7714 11.9178 59.6952 11.952C59.619 11.9861 59.2364 12.2404 58.9745 12.4217C58.9745 12.4217 58.9745 12.4217 58.6909 12.4993C58.5232 12.5435 58.5232 12.5435 58.5232 12.5435C58.4458 12.6372 58.3206 12.7339 58.2445 12.7641C58.1685 12.7904 57.9595 12.9092 57.9233 12.9323C57.8871 12.9554 57.7472 12.9962 57.6709 13.0383C57.5946 13.0765 57.2949 13.1656 57.1428 13.2221C57.1428 13.2221 57.1428 13.2221 57.0219 13.303C56.7843 13.4609 56.7843 13.4609 56.7843 13.4609C56.4993 13.606 56.2344 13.7396 56.1982 13.7627C56.1619 13.7858 55.9027 13.836 55.7394 13.8565C55.7394 13.8565 55.7394 13.8565 55.6035 13.9013C55.4795 13.9425 55.4795 13.9425 55.4795 13.9425C55.3588 14.0155 55.154 14.1225 55.0258 14.1754C55.0258 14.1754 55.0258 14.1754 54.9096 14.2247C54.7774 14.2815 54.5741 14.3171 54.5325 14.4036C54.4622 14.5412 54.4622 14.5412 54.4622 14.5412C54.3432 14.5308 54.1241 14.562 53.9721 14.6145C53.8202 14.663 53.1522 14.8876 52.8203 14.9959C52.8203 14.9959 52.8203 14.9959 52.5144 14.9975C52.1886 14.9988 52.1886 14.9988 52.1886 14.9988C51.8617 15.0596 51.2728 15.107 50.8796 15.1068C50.8796 15.1068 50.8796 15.1068 50.581 14.9458C50.4867 14.8962 50.4867 14.8962 50.4867 14.8962C50.4267 14.9148 50.3199 14.8967 50.2452 14.8554C50.2452 14.8554 50.2452 14.8554 50.2103 14.815C50.1252 14.706 50.0114 14.8308 49.9843 14.7984C49.8795 14.6771 49.8795 14.6771 49.8795 14.6771C49.7912 14.5283 49.6921 14.3277 49.6663 14.2278C49.6406 14.128 49.3588 13.9236 49.3236 13.899C49.3236 13.899 49.3236 13.899 49.3279 13.8832C49.3834 13.6937 49.2231 13.5712 49.1268 13.4223C49.0344 13.2814 49.0261 13.1064 48.9497 12.9579C48.8349 12.745 48.8349 12.745 48.8349 12.745C48.828 12.5025 48.8277 12.1331 48.8359 11.9267C48.8359 11.9267 48.8359 11.9267 48.9581 11.7823C49.1046 11.6105 49.1242 11.4322 49.1797 11.2427C49.2267 11.0808 49.2267 11.0808 49.2267 11.0808C49.4007 10.9255 49.6169 10.8426 49.7152 10.8922C49.7152 10.8922 49.7152 10.8922 49.7649 10.794C49.8104 10.7075 49.8104 10.7075 49.8104 10.7075C49.8126 10.6003 49.8281 10.4259 49.8383 10.3188C49.8383 10.3188 49.8383 10.3188 49.9741 10.2819C50.022 10.271 50.022 10.271 50.022 10.271C50.1133 10.2729 50.1421 10.2258 50.0837 10.169C50.0837 10.169 50.0837 10.169 50.0365 10.1442C49.9815 10.1152 49.9815 10.1152 49.9815 10.1152C49.9026 10.0898 49.9309 10.0665 50.0423 10.0569C50.1537 10.0473 50.3361 9.86832 50.2806 9.8632C50.2252 9.85411 50.1277 9.76869 50.2166 9.69505C50.3055 9.62141 50.3325 9.27242 50.3545 9.1696C50.3764 9.07075 50.6736 8.91401 50.6472 8.84594C50.6472 8.84594 50.6472 8.84594 50.6755 8.81872C50.7443 8.75659 50.7443 8.75659 50.7443 8.75659C50.8252 8.68676 50.8159 8.55946 50.7144 8.47395C50.7144 8.47395 50.7144 8.47395 50.9169 8.47812C51.1115 8.48213 51.1115 8.48213 51.1115 8.48213C51.1295 8.37923 51.199 8.28136 51.2669 8.2629C51.2669 8.2629 51.2669 8.2629 51.2672 8.24702C51.2686 8.17952 51.2686 8.17952 51.2686 8.17952C51.2464 8.10359 51.2561 8.0164 51.2885 7.98529C51.3249 7.95427 51.3908 7.84043 51.3604 7.77228C51.3604 7.77228 51.3604 7.77228 51.4253 7.71006C51.5105 7.62443 51.5105 7.62443 51.5105 7.62443C51.5959 7.52689 51.6397 7.32919 51.6029 7.18543C51.6029 7.18543 51.6029 7.18543 51.8334 7.18224C51.9923 7.18154 51.9923 7.18154 51.9923 7.18154C52.0578 7.08359 52.1198 6.96967 52.1286 6.92616C52.1375 6.88265 51.7889 6.83574 51.322 6.93734C50.8552 7.03894 49.5029 7.51156 49.2624 7.61782C49.0218 7.72408 48.2037 7.91377 48.0523 7.93448C47.9009 7.95519 47.5446 8.28151 47.4082 8.35019C47.2758 8.41499 46.7874 8.59559 46.6395 8.64021C46.4917 8.68482 46.1177 8.9075 46.0695 8.93034C46.0214 8.95318 45.7263 9.01065 45.5268 9.0542C45.5268 9.0542 45.5268 9.0542 45.4164 9.20684C45.3754 9.26558 45.3754 9.26558 45.3754 9.26558C45.2557 9.29489 44.5636 9.53087 43.8393 9.79002C43.8393 9.79002 43.8393 9.79002 43.291 10.1839C43.17 10.2727 43.17 10.2727 43.17 10.2727C43.0055 10.3528 42.7894 10.4317 42.6856 10.4534C42.5819 10.4751 42.2875 10.6915 42.2031 10.7374C42.1188 10.7833 41.8413 10.9484 41.7688 10.9946C41.6964 11.0408 41.4633 11.171 41.4232 11.19C41.3831 11.2091 41.1832 11.2725 41.0714 11.302C41.0714 11.302 41.0714 11.302 40.8612 11.4764C40.8046 11.5229 40.7245 11.557 40.6486 11.5792C40.4328 11.6423 40.4328 11.6423 40.4328 11.6423C40.2552 11.7777 39.8738 11.9764 39.5895 12.0857C39.5895 12.0857 39.5895 12.0857 39.3795 12.2522C39.335 12.291 39.335 12.291 39.335 12.291C39.2669 12.3174 39.1303 12.394 39.0297 12.4595C38.929 12.5249 38.4718 12.7379 38.2986 12.8535C38.2986 12.8535 38.2986 12.8535 38.1185 12.9213C37.9182 13.0006 37.9182 13.0006 37.9182 13.0006C37.7214 13.1078 37.4281 13.2685 37.2714 13.3567C37.1146 13.4448 36.598 13.6486 36.5414 13.6991C36.4847 13.7496 36.3432 13.8698 36.4446 13.9633C36.4446 13.9633 36.4446 13.9633 36.171 13.9417C36.0877 13.936 35.9986 14.0176 35.9065 14.0515C35.7985 14.089 35.6792 14.0984 35.5789 14.144C35.4907 14.1859 35.4246 14.3077 35.345 14.314C35.0587 14.3279 34.9078 14.5195 34.6875 14.6102C34.2548 14.792 33.8375 14.9939 33.4163 15.1958C33.2116 15.2948 33.2116 15.2948 33.2116 15.2948C32.9948 15.4095 32.4301 15.6322 31.9503 15.7852C31.9503 15.7852 31.9503 15.7852 31.5877 16.0319C31.4709 16.109 31.4709 16.109 31.4709 16.109C31.3323 16.0902 31.0693 16.1325 30.8852 16.2002C30.7011 16.2679 30.1572 16.4434 30.0512 16.3856C30.0512 16.3856 30.0512 16.3856 29.9768 16.5231C29.9149 16.637 29.7571 16.5821 29.6492 16.6156C29.5413 16.6491 29.5413 16.6491 29.5413 16.6491C29.4328 16.7065 28.8606 16.9131 28.2727 17.1076C28.2727 17.1076 28.2727 17.1076 27.6986 17.207C27.5671 17.2281 27.5671 17.2281 27.5671 17.2281C27.4198 17.2449 27.2445 17.2691 27.1728 17.2795C27.101 17.294 26.6867 17.3529 26.4122 17.3711C26.1337 17.3932 25.2922 17.3679 25.1534 17.3531C25.0147 17.3383 24.5698 17.1465 24.4202 17.0838C24.4202 17.0838 24.4202 17.0838 24.3743 16.9955C24.1257 16.5335 24.1257 16.5335 24.1257 16.5335C23.778 16.0577 23.4202 15.4942 23.3332 15.2819C23.3332 15.2819 23.3332 15.2819 23.2577 15.0896C23.1824 14.8895 23.1824 14.8895 23.1824 14.8895C23.2422 14.6881 23.2666 14.4662 23.2403 14.3942C23.214 14.3221 23.2318 14.0365 23.2422 13.9175C23.2526 13.7986 23.3427 13.4708 23.2923 13.4102C23.242 13.3495 23.4692 13.1159 23.523 13.0097C23.523 13.0097 23.523 13.0097 23.5609 12.9073C23.6031 12.789 23.6254 12.6663 23.6794 12.5522C23.7252 12.4538 23.7252 12.4538 23.7252 12.4538C23.8027 12.3522 23.9019 12.1635 23.9522 12.0375C23.9522 12.0375 23.9522 12.0375 24.0141 11.9275C24.0471 11.8647 24.1158 11.8105 24.1802 11.7681C24.3009 11.6911 24.315 11.5882 24.3531 11.4738C24.4251 11.2568 24.5526 11.0449 24.6995 10.8533C24.7894 10.732 24.9539 10.652 25.0753 10.5472C25.1642 10.4696 25.0412 10.2725 25.3033 10.2739C25.3311 10.2745 25.362 10.1242 25.3875 10.0452C25.3919 10.0255 25.3919 10.0255 25.3919 10.0255C25.3765 10.0013 25.4702 9.88409 25.5999 9.75966C25.7296 9.63522 26.1351 9.23445 26.1851 9.12029C26.2351 9.00613 26.682 8.71743 26.7967 8.54899C26.7967 8.54899 26.7967 8.54899 26.8755 8.38379C26.9004 8.33266 26.9061 8.24937 26.9461 8.23827C27.2179 8.15252 27.2304 7.93431 27.3331 7.76562C27.298 7.73709 27.298 7.73709 27.298 7.73709Z" fill="#EE5822"/>
</svg>
