<svg width="38" height="38" viewBox="0 0 38 38" fill="none" xmlns="http://www.w3.org/2000/svg">
<g clip-path="url(#clip0_716_3641)">
<path d="M33.7131 19.194L29.5789 12.8098C29.2585 12.315 28.7153 12.0195 28.1257 12.0195H9.88521C9.29659 12.0195 8.75382 12.3143 8.43327 12.8078L4.28623 19.1928C3.86244 19.8452 3.9279 20.7066 4.44542 21.2874L17.7055 36.1742C18.0337 36.5427 18.5048 36.754 18.9982 36.754C18.9982 36.754 18.9983 36.754 18.9982 36.754C19.4916 36.754 19.9629 36.5427 20.2911 36.1743L33.5527 21.2866C34.0695 20.7065 34.1355 19.846 33.7131 19.194ZM27.2883 13.5038L23.8114 18.8802L20.3325 13.5038H27.2883ZM22.4473 19.5046H15.5491L18.9982 14.1742L22.4473 19.5046ZM17.664 13.504L14.1947 18.8656L10.7265 13.504H17.664ZM9.3541 14.1152L12.8402 19.5046H5.85373L9.3541 14.1152ZM6.16723 20.9889H13.637L17.5866 33.8091L6.16723 20.9889ZM18.9982 33.3496L15.1901 20.9889H22.8063L18.9982 33.3496ZM20.4098 33.8096L24.3596 20.989H31.83L20.4098 33.8096ZM25.1755 19.5046L28.6583 14.1189L32.1458 19.5046H25.1755Z" fill="#0023B5"/>
<path d="M2.25128 19.5039H0.742188C0.332352 19.5039 0 19.8362 0 20.2461C0 20.656 0.332352 20.9883 0.742188 20.9883H2.25128C2.66111 20.9883 2.99346 20.656 2.99346 20.2461C2.99346 19.8362 2.66111 19.5039 2.25128 19.5039Z" fill="#0023B5"/>
<path d="M37.2591 19.5039H35.75C35.3402 19.5039 35.0078 19.8362 35.0078 20.2461C35.0078 20.656 35.3402 20.9883 35.75 20.9883H37.2591C37.6689 20.9883 38.0013 20.656 38.0013 20.2461C38.0013 19.8362 37.6689 19.5039 37.2591 19.5039Z" fill="#0023B5"/>
<path d="M32.4433 6.81502C32.1534 6.5252 31.6836 6.5252 31.3936 6.81502L28.9283 9.28035C28.6385 9.57017 28.6385 10.0401 28.9283 10.33C29.0733 10.4749 29.2633 10.5473 29.4532 10.5473C29.6432 10.5473 29.833 10.4748 29.978 10.33L32.4433 7.86463C32.7331 7.5748 32.7331 7.10492 32.4433 6.81502Z" fill="#0023B5"/>
<path d="M9.10729 9.26675L6.64204 6.80135C6.35229 6.51153 5.88249 6.51153 5.59237 6.80135C5.30254 7.09118 5.30254 7.56113 5.59237 7.85095L8.05769 10.3163C8.20264 10.4612 8.39257 10.5337 8.58249 10.5337C8.77242 10.5337 8.96234 10.4612 9.10729 10.3163C9.39712 10.0265 9.39712 9.5565 9.10729 9.26675Z" fill="#0023B5"/>
<path d="M19.0234 1.24609C18.6136 1.24609 18.2812 1.57837 18.2812 1.98828V6.82497C18.2812 7.23488 18.6135 7.56716 19.0234 7.56716C19.4333 7.56716 19.7656 7.23488 19.7656 6.82497V1.98828C19.7656 1.57845 19.4333 1.24609 19.0234 1.24609Z" fill="#0023B5"/>
<path d="M19.5481 8.81121C19.4101 8.67316 19.2186 8.59375 19.0234 8.59375C18.8282 8.59375 18.6368 8.67316 18.4987 8.81121C18.3607 8.94926 18.2812 9.14074 18.2812 9.33594C18.2812 9.53188 18.3606 9.72262 18.4987 9.86066C18.6368 9.99945 18.8282 10.0781 19.0234 10.0781C19.2186 10.0781 19.4101 9.99945 19.5481 9.86066C19.6869 9.72262 19.7656 9.53113 19.7656 9.33594C19.7656 9.14074 19.6869 8.94933 19.5481 8.81121Z" fill="#0023B5"/>
</g>
<defs>
<clipPath id="clip0_716_3641">
<rect width="38" height="38" fill="white"/>
</clipPath>
</defs>
</svg>
