<svg width="20" height="28" viewBox="0 0 20 28" fill="none" xmlns="http://www.w3.org/2000/svg">
<path d="M10.1415 22.2227H8.81648C7.88335 22.2227 7.125 22.981 7.125 23.9141V25.7437C7.125 26.6769 7.88335 27.4352 8.81648 27.4352H10.1415C11.0746 27.4352 11.8329 26.6769 11.8329 25.7437V23.9141C11.8329 22.9782 11.0746 22.2227 10.1415 22.2227Z" fill="#0023B5"/>
<path d="M0.797257 8.05707L3.24144 8.36154C4.0167 8.45739 4.7525 8.01196 5.03159 7.28181C5.38398 6.35996 5.87451 5.63262 6.50317 5.10262C7.39405 4.35274 8.50194 3.97497 9.82693 3.97497C11.1998 3.97497 12.2937 4.33582 13.1056 5.0547C13.9175 5.7764 14.3206 6.63905 14.3206 7.65112C14.3206 8.37845 14.0923 9.04377 13.6356 9.64706C13.3396 10.0305 12.429 10.8367 10.9095 12.0687C9.38714 13.3007 8.3751 14.4114 7.86766 15.3981C7.34894 16.4073 7.16852 17.5265 7.12341 18.6485C7.08397 19.6099 7.85075 20.4105 8.81489 20.4105H10.1963C11.0758 20.4105 11.8032 19.7367 11.8821 18.8628C11.9385 18.2342 12.0428 17.7577 12.2007 17.4335C12.4657 16.8781 13.1507 16.1452 14.2502 15.2318C16.3786 13.4698 17.7656 12.0771 18.4168 11.051C19.0652 10.0276 19.3923 8.94228 19.3923 7.79489C19.3923 5.72283 18.5099 3.90449 16.7423 2.3427C14.9775 0.780899 12.5982 0 9.60988 0C6.7682 0 4.47625 0.769622 2.72839 2.31169C1.23989 3.6254 0.334948 5.18156 0.0163868 6.97734C-0.0823109 7.5017 0.275719 7.99223 0.797257 8.05707Z" fill="#0023B5"/>
</svg>
