<svg width="919" height="72" viewBox="0 0 919 72" fill="none" xmlns="http://www.w3.org/2000/svg">
<path d="M612 0H909C914.523 0 919 4.47715 919 10V62C919 67.5229 914.523 72 909 72H612V0Z" fill="#F8F8F8"/>
<path d="M612.5 0.5H909C914.247 0.5 918.5 4.7533 918.5 10V62C918.5 67.2467 914.247 71.5 909 71.5H612.5V0.5Z" stroke="#1D1D1D" stroke-opacity="0.2"/>
<path d="M641.74 36.02C641.74 34.66 642.053 33.44 642.68 32.36C643.32 31.28 644.18 30.44 645.26 29.84C646.353 29.2267 647.547 28.92 648.84 28.92C650.32 28.92 651.633 29.2867 652.78 30.02C653.94 30.74 654.78 31.7667 655.3 33.1H652.56C652.2 32.3667 651.7 31.82 651.06 31.46C650.42 31.1 649.68 30.92 648.84 30.92C647.92 30.92 647.1 31.1267 646.38 31.54C645.66 31.9533 645.093 32.5467 644.68 33.32C644.28 34.0933 644.08 34.9933 644.08 36.02C644.08 37.0467 644.28 37.9467 644.68 38.72C645.093 39.4933 645.66 40.0933 646.38 40.52C647.1 40.9333 647.92 41.14 648.84 41.14C649.68 41.14 650.42 40.96 651.06 40.6C651.7 40.24 652.2 39.6933 652.56 38.96H655.3C654.78 40.2933 653.94 41.32 652.78 42.04C651.633 42.76 650.32 43.12 648.84 43.12C647.533 43.12 646.34 42.82 645.26 42.22C644.18 41.6067 643.32 40.76 642.68 39.68C642.053 38.6 641.74 37.38 641.74 36.02ZM656.809 37.44C656.809 36.3333 657.035 35.3533 657.489 34.5C657.955 33.6467 658.582 32.9867 659.369 32.52C660.169 32.04 661.049 31.8 662.009 31.8C662.875 31.8 663.629 31.9733 664.269 32.32C664.922 32.6533 665.442 33.0733 665.829 33.58V31.98H668.129V43H665.829V41.36C665.442 41.88 664.915 42.3133 664.249 42.66C663.582 43.0067 662.822 43.18 661.969 43.18C661.022 43.18 660.155 42.94 659.369 42.46C658.582 41.9667 657.955 41.2867 657.489 40.42C657.035 39.54 656.809 38.5467 656.809 37.44ZM665.829 37.48C665.829 36.72 665.669 36.06 665.349 35.5C665.042 34.94 664.635 34.5133 664.129 34.22C663.622 33.9267 663.075 33.78 662.489 33.78C661.902 33.78 661.355 33.9267 660.849 34.22C660.342 34.5 659.929 34.92 659.609 35.48C659.302 36.0267 659.149 36.68 659.149 37.44C659.149 38.2 659.302 38.8667 659.609 39.44C659.929 40.0133 660.342 40.4533 660.849 40.76C661.369 41.0533 661.915 41.2 662.489 41.2C663.075 41.2 663.622 41.0533 664.129 40.76C664.635 40.4667 665.042 40.04 665.349 39.48C665.669 38.9067 665.829 38.24 665.829 37.48ZM674.723 43.18C673.857 43.18 673.077 43.0267 672.383 42.72C671.703 42.4 671.163 41.9733 670.763 41.44C670.363 40.8933 670.15 40.2867 670.123 39.62H672.483C672.523 40.0867 672.743 40.48 673.143 40.8C673.557 41.1067 674.07 41.26 674.683 41.26C675.323 41.26 675.817 41.14 676.163 40.9C676.523 40.6467 676.703 40.3267 676.703 39.94C676.703 39.5267 676.503 39.22 676.103 39.02C675.717 38.82 675.097 38.6 674.243 38.36C673.417 38.1333 672.743 37.9133 672.223 37.7C671.703 37.4867 671.25 37.16 670.863 36.72C670.49 36.28 670.303 35.7 670.303 34.98C670.303 34.3933 670.477 33.86 670.823 33.38C671.17 32.8867 671.663 32.5 672.303 32.22C672.957 31.94 673.703 31.8 674.543 31.8C675.797 31.8 676.803 32.12 677.563 32.76C678.337 33.3867 678.75 34.2467 678.803 35.34H676.523C676.483 34.8467 676.283 34.4533 675.923 34.16C675.563 33.8667 675.077 33.72 674.463 33.72C673.863 33.72 673.403 33.8333 673.083 34.06C672.763 34.2867 672.603 34.5867 672.603 34.96C672.603 35.2533 672.71 35.5 672.923 35.7C673.137 35.9 673.397 36.06 673.703 36.18C674.01 36.2867 674.463 36.4267 675.063 36.6C675.863 36.8133 676.517 37.0333 677.023 37.26C677.543 37.4733 677.99 37.7933 678.363 38.22C678.737 38.6467 678.93 39.2133 678.943 39.92C678.943 40.5467 678.77 41.1067 678.423 41.6C678.077 42.0933 677.583 42.48 676.943 42.76C676.317 43.04 675.577 43.18 674.723 43.18ZM691.107 37.22C691.107 37.6333 691.08 38.0067 691.027 38.34H682.607C682.674 39.22 683 39.9267 683.587 40.46C684.174 40.9933 684.894 41.26 685.747 41.26C686.974 41.26 687.84 40.7467 688.347 39.72H690.807C690.474 40.7333 689.867 41.5667 688.987 42.22C688.12 42.86 687.04 43.18 685.747 43.18C684.694 43.18 683.747 42.9467 682.907 42.48C682.08 42 681.427 41.3333 680.947 40.48C680.48 39.6133 680.247 38.6133 680.247 37.48C680.247 36.3467 680.474 35.3533 680.927 34.5C681.394 33.6333 682.04 32.9667 682.867 32.5C683.707 32.0333 684.667 31.8 685.747 31.8C686.787 31.8 687.714 32.0267 688.527 32.48C689.34 32.9333 689.974 33.5733 690.427 34.4C690.88 35.2133 691.107 36.1533 691.107 37.22ZM688.727 36.5C688.714 35.66 688.414 34.9867 687.827 34.48C687.24 33.9733 686.514 33.72 685.647 33.72C684.86 33.72 684.187 33.9733 683.627 34.48C683.067 34.9733 682.734 35.6467 682.627 36.5H688.727ZM702.326 43.14C701.393 43.14 700.553 42.98 699.806 42.66C699.059 42.3267 698.473 41.86 698.046 41.26C697.619 40.66 697.406 39.96 697.406 39.16H699.846C699.899 39.76 700.133 40.2533 700.546 40.64C700.973 41.0267 701.566 41.22 702.326 41.22C703.113 41.22 703.726 41.0333 704.166 40.66C704.606 40.2733 704.826 39.78 704.826 39.18C704.826 38.7133 704.686 38.3333 704.406 38.04C704.139 37.7467 703.799 37.52 703.386 37.36C702.986 37.2 702.426 37.0267 701.706 36.84C700.799 36.6 700.059 36.36 699.486 36.12C698.926 35.8667 698.446 35.48 698.046 34.96C697.646 34.44 697.446 33.7467 697.446 32.88C697.446 32.08 697.646 31.38 698.046 30.78C698.446 30.18 699.006 29.72 699.726 29.4C700.446 29.08 701.279 28.92 702.226 28.92C703.573 28.92 704.673 29.26 705.526 29.94C706.393 30.6067 706.873 31.5267 706.966 32.7H704.446C704.406 32.1933 704.166 31.76 703.726 31.4C703.286 31.04 702.706 30.86 701.986 30.86C701.333 30.86 700.799 31.0267 700.386 31.36C699.973 31.6933 699.766 32.1733 699.766 32.8C699.766 33.2267 699.893 33.58 700.146 33.86C700.413 34.1267 700.746 34.34 701.146 34.5C701.546 34.66 702.093 34.8333 702.786 35.02C703.706 35.2733 704.453 35.5267 705.026 35.78C705.613 36.0333 706.106 36.4267 706.506 36.96C706.919 37.48 707.126 38.18 707.126 39.06C707.126 39.7667 706.933 40.4333 706.546 41.06C706.173 41.6867 705.619 42.1933 704.886 42.58C704.166 42.9533 703.313 43.14 702.326 43.14ZM712.076 33.84V39.94C712.076 40.3533 712.17 40.6533 712.356 40.84C712.556 41.0133 712.89 41.1 713.356 41.1H714.756V43H712.956C711.93 43 711.143 42.76 710.596 42.28C710.05 41.8 709.776 41.02 709.776 39.94V33.84H708.476V31.98H709.776V29.24H712.076V31.98H714.756V33.84H712.076ZM726.438 31.98V43H724.158V41.7C723.798 42.1533 723.324 42.5133 722.738 42.78C722.164 43.0333 721.551 43.16 720.898 43.16C720.031 43.16 719.251 42.98 718.558 42.62C717.878 42.26 717.338 41.7267 716.938 41.02C716.551 40.3133 716.358 39.46 716.358 38.46V31.98H718.618V38.12C718.618 39.1067 718.864 39.8667 719.358 40.4C719.851 40.92 720.524 41.18 721.378 41.18C722.231 41.18 722.904 40.92 723.398 40.4C723.904 39.8667 724.158 39.1067 724.158 38.12V31.98H726.438ZM728.286 37.44C728.286 36.3333 728.513 35.3533 728.966 34.5C729.433 33.6467 730.059 32.9867 730.846 32.52C731.646 32.04 732.533 31.8 733.506 31.8C734.226 31.8 734.933 31.96 735.626 32.28C736.333 32.5867 736.893 33 737.306 33.52V28.2H739.606V43H737.306V41.34C736.933 41.8733 736.413 42.3133 735.746 42.66C735.093 43.0067 734.339 43.18 733.486 43.18C732.526 43.18 731.646 42.94 730.846 42.46C730.059 41.9667 729.433 41.2867 728.966 40.42C728.513 39.54 728.286 38.5467 728.286 37.44ZM737.306 37.48C737.306 36.72 737.146 36.06 736.826 35.5C736.519 34.94 736.113 34.5133 735.606 34.22C735.099 33.9267 734.553 33.78 733.966 33.78C733.379 33.78 732.833 33.9267 732.326 34.22C731.819 34.5 731.406 34.92 731.086 35.48C730.779 36.0267 730.626 36.68 730.626 37.44C730.626 38.2 730.779 38.8667 731.086 39.44C731.406 40.0133 731.819 40.4533 732.326 40.76C732.846 41.0533 733.393 41.2 733.966 41.2C734.553 41.2 735.099 41.0533 735.606 40.76C736.113 40.4667 736.519 40.04 736.826 39.48C737.146 38.9067 737.306 38.24 737.306 37.48ZM752.121 31.98L745.361 48.18H743.001L745.241 42.82L740.901 31.98H743.441L746.541 40.38L749.761 31.98H752.121ZM757.477 36.02C757.477 34.66 757.79 33.44 758.417 32.36C759.057 31.28 759.917 30.44 760.997 29.84C762.09 29.2267 763.283 28.92 764.577 28.92C766.057 28.92 767.37 29.2867 768.517 30.02C769.677 30.74 770.517 31.7667 771.037 33.1H768.297C767.937 32.3667 767.437 31.82 766.797 31.46C766.157 31.1 765.417 30.92 764.577 30.92C763.657 30.92 762.837 31.1267 762.117 31.54C761.397 31.9533 760.83 32.5467 760.417 33.32C760.017 34.0933 759.817 34.9933 759.817 36.02C759.817 37.0467 760.017 37.9467 760.417 38.72C760.83 39.4933 761.397 40.0933 762.117 40.52C762.837 40.9333 763.657 41.14 764.577 41.14C765.417 41.14 766.157 40.96 766.797 40.6C767.437 40.24 767.937 39.6933 768.297 38.96H771.037C770.517 40.2933 769.677 41.32 768.517 42.04C767.37 42.76 766.057 43.12 764.577 43.12C763.27 43.12 762.077 42.82 760.997 42.22C759.917 41.6067 759.057 40.76 758.417 39.68C757.79 38.6 757.477 37.38 757.477 36.02ZM778.085 43.18C777.045 43.18 776.105 42.9467 775.265 42.48C774.425 42 773.765 41.3333 773.285 40.48C772.805 39.6133 772.565 38.6133 772.565 37.48C772.565 36.36 772.812 35.3667 773.305 34.5C773.799 33.6333 774.472 32.9667 775.325 32.5C776.179 32.0333 777.132 31.8 778.185 31.8C779.239 31.8 780.192 32.0333 781.045 32.5C781.899 32.9667 782.572 33.6333 783.065 34.5C783.559 35.3667 783.805 36.36 783.805 37.48C783.805 38.6 783.552 39.5933 783.045 40.46C782.539 41.3267 781.845 42 780.965 42.48C780.099 42.9467 779.139 43.18 778.085 43.18ZM778.085 41.2C778.672 41.2 779.219 41.06 779.725 40.78C780.245 40.5 780.665 40.08 780.985 39.52C781.305 38.96 781.465 38.28 781.465 37.48C781.465 36.68 781.312 36.0067 781.005 35.46C780.699 34.9 780.292 34.48 779.785 34.2C779.279 33.92 778.732 33.78 778.145 33.78C777.559 33.78 777.012 33.92 776.505 34.2C776.012 34.48 775.619 34.9 775.325 35.46C775.032 36.0067 774.885 36.68 774.885 37.48C774.885 38.6667 775.185 39.5867 775.785 40.24C776.399 40.88 777.165 41.2 778.085 41.2ZM798.999 31.8C799.866 31.8 800.639 31.98 801.319 32.34C802.013 32.7 802.553 33.2333 802.939 33.94C803.339 34.6467 803.539 35.5 803.539 36.5V43H801.279V36.84C801.279 35.8533 801.033 35.1 800.539 34.58C800.046 34.0467 799.373 33.78 798.519 33.78C797.666 33.78 796.986 34.0467 796.479 34.58C795.986 35.1 795.739 35.8533 795.739 36.84V43H793.479V36.84C793.479 35.8533 793.233 35.1 792.739 34.58C792.246 34.0467 791.573 33.78 790.719 33.78C789.866 33.78 789.186 34.0467 788.679 34.58C788.186 35.1 787.939 35.8533 787.939 36.84V43H785.659V31.98H787.939V33.24C788.313 32.7867 788.786 32.4333 789.359 32.18C789.933 31.9267 790.546 31.8 791.199 31.8C792.079 31.8 792.866 31.9867 793.559 32.36C794.253 32.7333 794.786 33.2733 795.159 33.98C795.493 33.3133 796.013 32.7867 796.719 32.4C797.426 32 798.186 31.8 798.999 31.8ZM808.321 33.6C808.707 33.0933 809.234 32.6667 809.901 32.32C810.567 31.9733 811.321 31.8 812.161 31.8C813.121 31.8 813.994 32.04 814.781 32.52C815.581 32.9867 816.207 33.6467 816.661 34.5C817.114 35.3533 817.341 36.3333 817.341 37.44C817.341 38.5467 817.114 39.54 816.661 40.42C816.207 41.2867 815.581 41.9667 814.781 42.46C813.994 42.94 813.121 43.18 812.161 43.18C811.321 43.18 810.574 43.0133 809.921 42.68C809.267 42.3333 808.734 41.9067 808.321 41.4V48.24H806.041V31.98H808.321V33.6ZM815.021 37.44C815.021 36.68 814.861 36.0267 814.541 35.48C814.234 34.92 813.821 34.5 813.301 34.22C812.794 33.9267 812.247 33.78 811.661 33.78C811.087 33.78 810.541 33.9267 810.021 34.22C809.514 34.5133 809.101 34.94 808.781 35.5C808.474 36.06 808.321 36.72 808.321 37.48C808.321 38.24 808.474 38.9067 808.781 39.48C809.101 40.04 809.514 40.4667 810.021 40.76C810.541 41.0533 811.087 41.2 811.661 41.2C812.247 41.2 812.794 41.0533 813.301 40.76C813.821 40.4533 814.234 40.0133 814.541 39.44C814.861 38.8667 815.021 38.2 815.021 37.44ZM829.295 37.22C829.295 37.6333 829.269 38.0067 829.215 38.34H820.795C820.862 39.22 821.189 39.9267 821.775 40.46C822.362 40.9933 823.082 41.26 823.935 41.26C825.162 41.26 826.029 40.7467 826.535 39.72H828.995C828.662 40.7333 828.055 41.5667 827.175 42.22C826.309 42.86 825.229 43.18 823.935 43.18C822.882 43.18 821.935 42.9467 821.095 42.48C820.269 42 819.615 41.3333 819.135 40.48C818.669 39.6133 818.435 38.6133 818.435 37.48C818.435 36.3467 818.662 35.3533 819.115 34.5C819.582 33.6333 820.229 32.9667 821.055 32.5C821.895 32.0333 822.855 31.8 823.935 31.8C824.975 31.8 825.902 32.0267 826.715 32.48C827.529 32.9333 828.162 33.5733 828.615 34.4C829.069 35.2133 829.295 36.1533 829.295 37.22ZM826.915 36.5C826.902 35.66 826.602 34.9867 826.015 34.48C825.429 33.9733 824.702 33.72 823.835 33.72C823.049 33.72 822.375 33.9733 821.815 34.48C821.255 34.9733 820.922 35.6467 820.815 36.5H826.915ZM833.799 33.84V39.94C833.799 40.3533 833.892 40.6533 834.079 40.84C834.279 41.0133 834.612 41.1 835.079 41.1H836.479V43H834.679C833.652 43 832.866 42.76 832.319 42.28C831.772 41.8 831.499 41.02 831.499 39.94V33.84H830.199V31.98H831.499V29.24H833.799V31.98H836.479V33.84H833.799ZM839.34 30.52C838.927 30.52 838.58 30.38 838.3 30.1C838.02 29.82 837.88 29.4733 837.88 29.06C837.88 28.6467 838.02 28.3 838.3 28.02C838.58 27.74 838.927 27.6 839.34 27.6C839.74 27.6 840.08 27.74 840.36 28.02C840.64 28.3 840.78 28.6467 840.78 29.06C840.78 29.4733 840.64 29.82 840.36 30.1C840.08 30.38 839.74 30.52 839.34 30.52ZM840.46 31.98V43H838.18V31.98H840.46ZM845.714 33.84V39.94C845.714 40.3533 845.807 40.6533 845.994 40.84C846.194 41.0133 846.527 41.1 846.994 41.1H848.394V43H846.594C845.567 43 844.781 42.76 844.234 42.28C843.687 41.8 843.414 41.02 843.414 39.94V33.84H842.114V31.98H843.414V29.24H845.714V31.98H848.394V33.84H845.714ZM851.255 30.52C850.842 30.52 850.495 30.38 850.215 30.1C849.935 29.82 849.795 29.4733 849.795 29.06C849.795 28.6467 849.935 28.3 850.215 28.02C850.495 27.74 850.842 27.6 851.255 27.6C851.655 27.6 851.995 27.74 852.275 28.02C852.555 28.3 852.695 28.6467 852.695 29.06C852.695 29.4733 852.555 29.82 852.275 30.1C851.995 30.38 851.655 30.52 851.255 30.52ZM852.375 31.98V43H850.095V31.98H852.375ZM859.749 43.18C858.709 43.18 857.769 42.9467 856.929 42.48C856.089 42 855.429 41.3333 854.949 40.48C854.469 39.6133 854.229 38.6133 854.229 37.48C854.229 36.36 854.475 35.3667 854.969 34.5C855.462 33.6333 856.135 32.9667 856.989 32.5C857.842 32.0333 858.795 31.8 859.849 31.8C860.902 31.8 861.855 32.0333 862.709 32.5C863.562 32.9667 864.235 33.6333 864.729 34.5C865.222 35.3667 865.469 36.36 865.469 37.48C865.469 38.6 865.215 39.5933 864.709 40.46C864.202 41.3267 863.509 42 862.629 42.48C861.762 42.9467 860.802 43.18 859.749 43.18ZM859.749 41.2C860.335 41.2 860.882 41.06 861.389 40.78C861.909 40.5 862.329 40.08 862.649 39.52C862.969 38.96 863.129 38.28 863.129 37.48C863.129 36.68 862.975 36.0067 862.669 35.46C862.362 34.9 861.955 34.48 861.449 34.2C860.942 33.92 860.395 33.78 859.809 33.78C859.222 33.78 858.675 33.92 858.169 34.2C857.675 34.48 857.282 34.9 856.989 35.46C856.695 36.0067 856.549 36.68 856.549 37.48C856.549 38.6667 856.849 39.5867 857.449 40.24C858.062 40.88 858.829 41.2 859.749 41.2ZM872.883 31.8C873.749 31.8 874.523 31.98 875.203 32.34C875.896 32.7 876.436 33.2333 876.823 33.94C877.209 34.6467 877.403 35.5 877.403 36.5V43H875.143V36.84C875.143 35.8533 874.896 35.1 874.403 34.58C873.909 34.0467 873.236 33.78 872.383 33.78C871.529 33.78 870.849 34.0467 870.343 34.58C869.849 35.1 869.603 35.8533 869.603 36.84V43H867.323V31.98H869.603V33.24C869.976 32.7867 870.449 32.4333 871.023 32.18C871.609 31.9267 872.229 31.8 872.883 31.8ZM883.911 43.18C883.044 43.18 882.264 43.0267 881.571 42.72C880.891 42.4 880.351 41.9733 879.951 41.44C879.551 40.8933 879.338 40.2867 879.311 39.62H881.671C881.711 40.0867 881.931 40.48 882.331 40.8C882.744 41.1067 883.258 41.26 883.871 41.26C884.511 41.26 885.004 41.14 885.351 40.9C885.711 40.6467 885.891 40.3267 885.891 39.94C885.891 39.5267 885.691 39.22 885.291 39.02C884.904 38.82 884.284 38.6 883.431 38.36C882.604 38.1333 881.931 37.9133 881.411 37.7C880.891 37.4867 880.438 37.16 880.051 36.72C879.678 36.28 879.491 35.7 879.491 34.98C879.491 34.3933 879.664 33.86 880.011 33.38C880.358 32.8867 880.851 32.5 881.491 32.22C882.144 31.94 882.891 31.8 883.731 31.8C884.984 31.8 885.991 32.12 886.751 32.76C887.524 33.3867 887.938 34.2467 887.991 35.34H885.711C885.671 34.8467 885.471 34.4533 885.111 34.16C884.751 33.8667 884.264 33.72 883.651 33.72C883.051 33.72 882.591 33.8333 882.271 34.06C881.951 34.2867 881.791 34.5867 881.791 34.96C881.791 35.2533 881.898 35.5 882.111 35.7C882.324 35.9 882.584 36.06 882.891 36.18C883.198 36.2867 883.651 36.4267 884.251 36.6C885.051 36.8133 885.704 37.0333 886.211 37.26C886.731 37.4733 887.178 37.7933 887.551 38.22C887.924 38.6467 888.118 39.2133 888.131 39.92C888.131 40.5467 887.958 41.1067 887.611 41.6C887.264 42.0933 886.771 42.48 886.131 42.76C885.504 43.04 884.764 43.18 883.911 43.18Z" fill="#979797"/>
<rect x="306" width="307" height="72" fill="#0023B5"/>
<rect x="306.5" y="0.5" width="306" height="71" stroke="black" stroke-opacity="0.1"/>
<path d="M407.344 29.04V43H404.544V29.04H407.344ZM408.991 37.42C408.991 36.3 409.211 35.3067 409.651 34.44C410.104 33.5733 410.718 32.9067 411.491 32.44C412.264 31.9733 413.124 31.74 414.071 31.74C414.791 31.74 415.478 31.9 416.131 32.22C416.784 32.5267 417.304 32.94 417.691 33.46V28.2H420.531V43H417.691V41.36C417.344 41.9067 416.858 42.3467 416.231 42.68C415.604 43.0133 414.878 43.18 414.051 43.18C413.118 43.18 412.264 42.94 411.491 42.46C410.718 41.98 410.104 41.3067 409.651 40.44C409.211 39.56 408.991 38.5533 408.991 37.42ZM417.711 37.46C417.711 36.78 417.578 36.2 417.311 35.72C417.044 35.2267 416.684 34.8533 416.231 34.6C415.778 34.3333 415.291 34.2 414.771 34.2C414.251 34.2 413.771 34.3267 413.331 34.58C412.891 34.8333 412.531 35.2067 412.251 35.7C411.984 36.18 411.851 36.7533 411.851 37.42C411.851 38.0867 411.984 38.6733 412.251 39.18C412.531 39.6733 412.891 40.0533 413.331 40.32C413.784 40.5867 414.264 40.72 414.771 40.72C415.291 40.72 415.778 40.5933 416.231 40.34C416.684 40.0733 417.044 39.7 417.311 39.22C417.578 38.7267 417.711 38.14 417.711 37.46ZM433.166 37.22C433.166 37.62 433.139 37.98 433.086 38.3H424.986C425.052 39.1 425.332 39.7267 425.826 40.18C426.319 40.6333 426.926 40.86 427.646 40.86C428.686 40.86 429.426 40.4133 429.866 39.52H432.886C432.566 40.5867 431.952 41.4667 431.046 42.16C430.139 42.84 429.026 43.18 427.706 43.18C426.639 43.18 425.679 42.9467 424.826 42.48C423.986 42 423.326 41.3267 422.846 40.46C422.379 39.5933 422.146 38.5933 422.146 37.46C422.146 36.3133 422.379 35.3067 422.846 34.44C423.312 33.5733 423.966 32.9067 424.806 32.44C425.646 31.9733 426.612 31.74 427.706 31.74C428.759 31.74 429.699 31.9667 430.526 32.42C431.366 32.8733 432.012 33.52 432.466 34.36C432.932 35.1867 433.166 36.14 433.166 37.22ZM430.266 36.42C430.252 35.7 429.992 35.1267 429.486 34.7C428.979 34.26 428.359 34.04 427.626 34.04C426.932 34.04 426.346 34.2533 425.866 34.68C425.399 35.0933 425.112 35.6733 425.006 36.42H430.266ZM434.089 37.42C434.089 36.3 434.309 35.3067 434.749 34.44C435.203 33.5733 435.809 32.9067 436.569 32.44C437.343 31.9733 438.203 31.74 439.149 31.74C439.976 31.74 440.696 31.9067 441.309 32.24C441.936 32.5733 442.436 32.9933 442.809 33.5V31.92H445.629V43H442.809V41.38C442.449 41.9 441.949 42.3333 441.309 42.68C440.683 43.0133 439.956 43.18 439.129 43.18C438.196 43.18 437.343 42.94 436.569 42.46C435.809 41.98 435.203 41.3067 434.749 40.44C434.309 39.56 434.089 38.5533 434.089 37.42ZM442.809 37.46C442.809 36.78 442.676 36.2 442.409 35.72C442.143 35.2267 441.783 34.8533 441.329 34.6C440.876 34.3333 440.389 34.2 439.869 34.2C439.349 34.2 438.869 34.3267 438.429 34.58C437.989 34.8333 437.629 35.2067 437.349 35.7C437.083 36.18 436.949 36.7533 436.949 37.42C436.949 38.0867 437.083 38.6733 437.349 39.18C437.629 39.6733 437.989 40.0533 438.429 40.32C438.883 40.5867 439.363 40.72 439.869 40.72C440.389 40.72 440.876 40.5933 441.329 40.34C441.783 40.0733 442.143 39.7 442.409 39.22C442.676 38.7267 442.809 38.14 442.809 37.46ZM451.224 34.22V39.58C451.224 39.9533 451.311 40.2267 451.484 40.4C451.671 40.56 451.977 40.64 452.404 40.64H453.704V43H451.944C449.584 43 448.404 41.8533 448.404 39.56V34.22H447.084V31.92H448.404V29.18H451.224V31.92H453.704V34.22H451.224ZM461.558 31.76C462.398 31.76 463.145 31.9467 463.798 32.32C464.451 32.68 464.958 33.22 465.318 33.94C465.691 34.6467 465.878 35.5 465.878 36.5V43H463.078V36.88C463.078 36 462.858 35.3267 462.418 34.86C461.978 34.38 461.378 34.14 460.618 34.14C459.845 34.14 459.231 34.38 458.778 34.86C458.338 35.3267 458.118 36 458.118 36.88V43H455.318V28.2H458.118V33.3C458.478 32.82 458.958 32.4467 459.558 32.18C460.158 31.9 460.825 31.76 461.558 31.76ZM473.061 43.18C471.994 43.18 471.034 42.9467 470.181 42.48C469.327 42 468.654 41.3267 468.161 40.46C467.681 39.5933 467.441 38.5933 467.441 37.46C467.441 36.3267 467.687 35.3267 468.181 34.46C468.687 33.5933 469.374 32.9267 470.241 32.46C471.107 31.98 472.074 31.74 473.141 31.74C474.207 31.74 475.174 31.98 476.041 32.46C476.907 32.9267 477.587 33.5933 478.081 34.46C478.587 35.3267 478.841 36.3267 478.841 37.46C478.841 38.5933 478.581 39.5933 478.061 40.46C477.554 41.3267 476.861 42 475.981 42.48C475.114 42.9467 474.141 43.18 473.061 43.18ZM473.061 40.74C473.567 40.74 474.041 40.62 474.481 40.38C474.934 40.1267 475.294 39.7533 475.561 39.26C475.827 38.7667 475.961 38.1667 475.961 37.46C475.961 36.4067 475.681 35.6 475.121 35.04C474.574 34.4667 473.901 34.18 473.101 34.18C472.301 34.18 471.627 34.4667 471.081 35.04C470.547 35.6 470.281 36.4067 470.281 37.46C470.281 38.5133 470.541 39.3267 471.061 39.9C471.594 40.46 472.261 40.74 473.061 40.74ZM486.634 31.76C487.954 31.76 489.021 32.18 489.834 33.02C490.648 33.8467 491.054 35.0067 491.054 36.5V43H488.254V36.88C488.254 36 488.034 35.3267 487.594 34.86C487.154 34.38 486.554 34.14 485.794 34.14C485.021 34.14 484.408 34.38 483.954 34.86C483.514 35.3267 483.294 36 483.294 36.88V43H480.494V31.92H483.294V33.3C483.668 32.82 484.141 32.4467 484.714 32.18C485.301 31.9 485.941 31.76 486.634 31.76ZM497.557 43.18C496.65 43.18 495.837 43.02 495.117 42.7C494.397 42.3667 493.824 41.92 493.397 41.36C492.984 40.8 492.757 40.18 492.717 39.5H495.537C495.59 39.9267 495.797 40.28 496.157 40.56C496.53 40.84 496.99 40.98 497.537 40.98C498.07 40.98 498.484 40.8733 498.777 40.66C499.084 40.4467 499.237 40.1733 499.237 39.84C499.237 39.48 499.05 39.2133 498.677 39.04C498.317 38.8533 497.737 38.6533 496.937 38.44C496.11 38.24 495.43 38.0333 494.897 37.82C494.377 37.6067 493.924 37.28 493.537 36.84C493.164 36.4 492.977 35.8067 492.977 35.06C492.977 34.4467 493.15 33.8867 493.497 33.38C493.857 32.8733 494.364 32.4733 495.017 32.18C495.684 31.8867 496.464 31.74 497.357 31.74C498.677 31.74 499.73 32.0733 500.517 32.74C501.304 33.3933 501.737 34.28 501.817 35.4H499.137C499.097 34.96 498.91 34.6133 498.577 34.36C498.257 34.0933 497.824 33.96 497.277 33.96C496.77 33.96 496.377 34.0533 496.097 34.24C495.83 34.4267 495.697 34.6867 495.697 35.02C495.697 35.3933 495.884 35.68 496.257 35.88C496.63 36.0667 497.21 36.26 497.997 36.46C498.797 36.66 499.457 36.8667 499.977 37.08C500.497 37.2933 500.944 37.6267 501.317 38.08C501.704 38.52 501.904 39.1067 501.917 39.84C501.917 40.48 501.737 41.0533 501.377 41.56C501.03 42.0667 500.524 42.4667 499.857 42.76C499.204 43.04 498.437 43.18 497.557 43.18Z" fill="white"/>
<path d="M0 10C0 4.47715 4.47715 0 10 0H307V72H10C4.47715 72 0 67.5229 0 62V10Z" fill="#F8F8F8"/>
<path d="M0.5 10C0.5 4.7533 4.7533 0.5 10 0.5H306.5V71.5H10C4.75329 71.5 0.5 67.2467 0.5 62V10Z" stroke="#1D1D1D" stroke-opacity="0.2"/>
<path d="M99.6 29.1V43H97.32V36.92H90.78V43H88.5V29.1H90.78V35.06H97.32V29.1H99.6ZM101.442 37.44C101.442 36.3333 101.668 35.3533 102.122 34.5C102.588 33.6467 103.215 32.9867 104.002 32.52C104.802 32.04 105.682 31.8 106.642 31.8C107.508 31.8 108.262 31.9733 108.902 32.32C109.555 32.6533 110.075 33.0733 110.462 33.58V31.98H112.762V43H110.462V41.36C110.075 41.88 109.548 42.3133 108.882 42.66C108.215 43.0067 107.455 43.18 106.602 43.18C105.655 43.18 104.788 42.94 104.002 42.46C103.215 41.9667 102.588 41.2867 102.122 40.42C101.668 39.54 101.442 38.5467 101.442 37.44ZM110.462 37.48C110.462 36.72 110.302 36.06 109.982 35.5C109.675 34.94 109.268 34.5133 108.762 34.22C108.255 33.9267 107.708 33.78 107.122 33.78C106.535 33.78 105.988 33.9267 105.482 34.22C104.975 34.5 104.562 34.92 104.242 35.48C103.935 36.0267 103.782 36.68 103.782 37.44C103.782 38.2 103.935 38.8667 104.242 39.44C104.562 40.0133 104.975 40.4533 105.482 40.76C106.002 41.0533 106.548 41.2 107.122 41.2C107.708 41.2 108.255 41.0533 108.762 40.76C109.268 40.4667 109.675 40.04 109.982 39.48C110.302 38.9067 110.462 38.24 110.462 37.48ZM114.596 37.48C114.596 36.3467 114.823 35.3533 115.276 34.5C115.743 33.6333 116.383 32.9667 117.196 32.5C118.01 32.0333 118.943 31.8 119.996 31.8C121.33 31.8 122.43 32.12 123.296 32.76C124.176 33.3867 124.77 34.2867 125.076 35.46H122.616C122.416 34.9133 122.096 34.4867 121.656 34.18C121.216 33.8733 120.663 33.72 119.996 33.72C119.063 33.72 118.316 34.0533 117.756 34.72C117.21 35.3733 116.936 36.2933 116.936 37.48C116.936 38.6667 117.21 39.5933 117.756 40.26C118.316 40.9267 119.063 41.26 119.996 41.26C121.316 41.26 122.19 40.68 122.616 39.52H125.076C124.756 40.64 124.156 41.5333 123.276 42.2C122.396 42.8533 121.303 43.18 119.996 43.18C118.943 43.18 118.01 42.9467 117.196 42.48C116.383 42 115.743 41.3333 115.276 40.48C114.823 39.6133 114.596 38.6133 114.596 37.48ZM131.308 37.5L136.388 43H133.308L129.228 38.26V43H126.948V28.2H129.228V36.8L133.228 31.98H136.388L131.308 37.5ZM136.863 37.44C136.863 36.3333 137.089 35.3533 137.543 34.5C138.009 33.6467 138.636 32.9867 139.423 32.52C140.223 32.04 141.103 31.8 142.063 31.8C142.929 31.8 143.683 31.9733 144.323 32.32C144.976 32.6533 145.496 33.0733 145.883 33.58V31.98H148.183V43H145.883V41.36C145.496 41.88 144.969 42.3133 144.303 42.66C143.636 43.0067 142.876 43.18 142.023 43.18C141.076 43.18 140.209 42.94 139.423 42.46C138.636 41.9667 138.009 41.2867 137.543 40.42C137.089 39.54 136.863 38.5467 136.863 37.44ZM145.883 37.48C145.883 36.72 145.723 36.06 145.403 35.5C145.096 34.94 144.689 34.5133 144.183 34.22C143.676 33.9267 143.129 33.78 142.543 33.78C141.956 33.78 141.409 33.9267 140.903 34.22C140.396 34.5 139.983 34.92 139.663 35.48C139.356 36.0267 139.203 36.68 139.203 37.44C139.203 38.2 139.356 38.8667 139.663 39.44C139.983 40.0133 140.396 40.4533 140.903 40.76C141.423 41.0533 141.969 41.2 142.543 41.2C143.129 41.2 143.676 41.0533 144.183 40.76C144.689 40.4667 145.096 40.04 145.403 39.48C145.723 38.9067 145.883 38.24 145.883 37.48ZM153.437 33.84V39.94C153.437 40.3533 153.531 40.6533 153.717 40.84C153.917 41.0133 154.251 41.1 154.717 41.1H156.117V43H154.317C153.291 43 152.504 42.76 151.957 42.28C151.411 41.8 151.137 41.02 151.137 39.94V33.84H149.837V31.98H151.137V29.24H153.437V31.98H156.117V33.84H153.437ZM163.519 31.8C164.359 31.8 165.105 31.98 165.759 32.34C166.425 32.7 166.945 33.2333 167.319 33.94C167.705 34.6467 167.899 35.5 167.899 36.5V43H165.639V36.84C165.639 35.8533 165.392 35.1 164.899 34.58C164.405 34.0467 163.732 33.78 162.879 33.78C162.025 33.78 161.345 34.0467 160.839 34.58C160.345 35.1 160.099 35.8533 160.099 36.84V43H157.819V28.2H160.099V33.26C160.485 32.7933 160.972 32.4333 161.559 32.18C162.159 31.9267 162.812 31.8 163.519 31.8ZM175.187 43.18C174.147 43.18 173.207 42.9467 172.367 42.48C171.527 42 170.867 41.3333 170.387 40.48C169.907 39.6133 169.667 38.6133 169.667 37.48C169.667 36.36 169.914 35.3667 170.407 34.5C170.9 33.6333 171.574 32.9667 172.427 32.5C173.28 32.0333 174.234 31.8 175.287 31.8C176.34 31.8 177.294 32.0333 178.147 32.5C179 32.9667 179.674 33.6333 180.167 34.5C180.66 35.3667 180.907 36.36 180.907 37.48C180.907 38.6 180.654 39.5933 180.147 40.46C179.64 41.3267 178.947 42 178.067 42.48C177.2 42.9467 176.24 43.18 175.187 43.18ZM175.187 41.2C175.774 41.2 176.32 41.06 176.827 40.78C177.347 40.5 177.767 40.08 178.087 39.52C178.407 38.96 178.567 38.28 178.567 37.48C178.567 36.68 178.414 36.0067 178.107 35.46C177.8 34.9 177.394 34.48 176.887 34.2C176.38 33.92 175.834 33.78 175.247 33.78C174.66 33.78 174.114 33.92 173.607 34.2C173.114 34.48 172.72 34.9 172.427 35.46C172.134 36.0067 171.987 36.68 171.987 37.48C171.987 38.6667 172.287 39.5867 172.887 40.24C173.5 40.88 174.267 41.2 175.187 41.2ZM188.321 31.8C189.188 31.8 189.961 31.98 190.641 32.34C191.334 32.7 191.874 33.2333 192.261 33.94C192.648 34.6467 192.841 35.5 192.841 36.5V43H190.581V36.84C190.581 35.8533 190.334 35.1 189.841 34.58C189.348 34.0467 188.674 33.78 187.821 33.78C186.968 33.78 186.288 34.0467 185.781 34.58C185.288 35.1 185.041 35.8533 185.041 36.84V43H182.761V31.98H185.041V33.24C185.414 32.7867 185.888 32.4333 186.461 32.18C187.048 31.9267 187.668 31.8 188.321 31.8ZM199.349 43.18C198.483 43.18 197.703 43.0267 197.009 42.72C196.329 42.4 195.789 41.9733 195.389 41.44C194.989 40.8933 194.776 40.2867 194.749 39.62H197.109C197.149 40.0867 197.369 40.48 197.769 40.8C198.183 41.1067 198.696 41.26 199.309 41.26C199.949 41.26 200.443 41.14 200.789 40.9C201.149 40.6467 201.329 40.3267 201.329 39.94C201.329 39.5267 201.129 39.22 200.729 39.02C200.343 38.82 199.723 38.6 198.869 38.36C198.043 38.1333 197.369 37.9133 196.849 37.7C196.329 37.4867 195.876 37.16 195.489 36.72C195.116 36.28 194.929 35.7 194.929 34.98C194.929 34.3933 195.103 33.86 195.449 33.38C195.796 32.8867 196.289 32.5 196.929 32.22C197.583 31.94 198.329 31.8 199.169 31.8C200.423 31.8 201.429 32.12 202.189 32.76C202.963 33.3867 203.376 34.2467 203.429 35.34H201.149C201.109 34.8467 200.909 34.4533 200.549 34.16C200.189 33.8667 199.703 33.72 199.089 33.72C198.489 33.72 198.029 33.8333 197.709 34.06C197.389 34.2867 197.229 34.5867 197.229 34.96C197.229 35.2533 197.336 35.5 197.549 35.7C197.763 35.9 198.023 36.06 198.329 36.18C198.636 36.2867 199.089 36.4267 199.689 36.6C200.489 36.8133 201.143 37.0333 201.649 37.26C202.169 37.4733 202.616 37.7933 202.989 38.22C203.363 38.6467 203.556 39.2133 203.569 39.92C203.569 40.5467 203.396 41.1067 203.049 41.6C202.703 42.0933 202.209 42.48 201.569 42.76C200.943 43.04 200.203 43.18 199.349 43.18Z" fill="#979797"/>
</svg>
