<svg width="919" height="72" viewBox="0 0 919 72" fill="none" xmlns="http://www.w3.org/2000/svg">
<path d="M612 0H909C914.523 0 919 4.47715 919 10V62C919 67.5229 914.523 72 909 72H612V0Z" fill="#0023B5"/>
<path d="M612.5 0.5H909C914.247 0.5 918.5 4.7533 918.5 10V62C918.5 67.2467 914.247 71.5 909 71.5H612.5V0.5Z" stroke="#1D1D1D" stroke-opacity="0.2"/>
<path d="M641.74 36.02C641.74 34.66 642.053 33.44 642.68 32.36C643.32 31.28 644.18 30.44 645.26 29.84C646.353 29.2267 647.547 28.92 648.84 28.92C650.32 28.92 651.633 29.2867 652.78 30.02C653.94 30.74 654.78 31.7667 655.3 33.1H652.56C652.2 32.3667 651.7 31.82 651.06 31.46C650.42 31.1 649.68 30.92 648.84 30.92C647.92 30.92 647.1 31.1267 646.38 31.54C645.66 31.9533 645.093 32.5467 644.68 33.32C644.28 34.0933 644.08 34.9933 644.08 36.02C644.08 37.0467 644.28 37.9467 644.68 38.72C645.093 39.4933 645.66 40.0933 646.38 40.52C647.1 40.9333 647.92 41.14 648.84 41.14C649.68 41.14 650.42 40.96 651.06 40.6C651.7 40.24 652.2 39.6933 652.56 38.96H655.3C654.78 40.2933 653.94 41.32 652.78 42.04C651.633 42.76 650.32 43.12 648.84 43.12C647.533 43.12 646.34 42.82 645.26 42.22C644.18 41.6067 643.32 40.76 642.68 39.68C642.053 38.6 641.74 37.38 641.74 36.02ZM656.809 37.44C656.809 36.3333 657.035 35.3533 657.489 34.5C657.955 33.6467 658.582 32.9867 659.369 32.52C660.169 32.04 661.049 31.8 662.009 31.8C662.875 31.8 663.629 31.9733 664.269 32.32C664.922 32.6533 665.442 33.0733 665.829 33.58V31.98H668.129V43H665.829V41.36C665.442 41.88 664.915 42.3133 664.249 42.66C663.582 43.0067 662.822 43.18 661.969 43.18C661.022 43.18 660.155 42.94 659.369 42.46C658.582 41.9667 657.955 41.2867 657.489 40.42C657.035 39.54 656.809 38.5467 656.809 37.44ZM665.829 37.48C665.829 36.72 665.669 36.06 665.349 35.5C665.042 34.94 664.635 34.5133 664.129 34.22C663.622 33.9267 663.075 33.78 662.489 33.78C661.902 33.78 661.355 33.9267 660.849 34.22C660.342 34.5 659.929 34.92 659.609 35.48C659.302 36.0267 659.149 36.68 659.149 37.44C659.149 38.2 659.302 38.8667 659.609 39.44C659.929 40.0133 660.342 40.4533 660.849 40.76C661.369 41.0533 661.915 41.2 662.489 41.2C663.075 41.2 663.622 41.0533 664.129 40.76C664.635 40.4667 665.042 40.04 665.349 39.48C665.669 38.9067 665.829 38.24 665.829 37.48ZM674.723 43.18C673.857 43.18 673.077 43.0267 672.383 42.72C671.703 42.4 671.163 41.9733 670.763 41.44C670.363 40.8933 670.15 40.2867 670.123 39.62H672.483C672.523 40.0867 672.743 40.48 673.143 40.8C673.557 41.1067 674.07 41.26 674.683 41.26C675.323 41.26 675.817 41.14 676.163 40.9C676.523 40.6467 676.703 40.3267 676.703 39.94C676.703 39.5267 676.503 39.22 676.103 39.02C675.717 38.82 675.097 38.6 674.243 38.36C673.417 38.1333 672.743 37.9133 672.223 37.7C671.703 37.4867 671.25 37.16 670.863 36.72C670.49 36.28 670.303 35.7 670.303 34.98C670.303 34.3933 670.477 33.86 670.823 33.38C671.17 32.8867 671.663 32.5 672.303 32.22C672.957 31.94 673.703 31.8 674.543 31.8C675.797 31.8 676.803 32.12 677.563 32.76C678.337 33.3867 678.75 34.2467 678.803 35.34H676.523C676.483 34.8467 676.283 34.4533 675.923 34.16C675.563 33.8667 675.077 33.72 674.463 33.72C673.863 33.72 673.403 33.8333 673.083 34.06C672.763 34.2867 672.603 34.5867 672.603 34.96C672.603 35.2533 672.71 35.5 672.923 35.7C673.137 35.9 673.397 36.06 673.703 36.18C674.01 36.2867 674.463 36.4267 675.063 36.6C675.863 36.8133 676.517 37.0333 677.023 37.26C677.543 37.4733 677.99 37.7933 678.363 38.22C678.737 38.6467 678.93 39.2133 678.943 39.92C678.943 40.5467 678.77 41.1067 678.423 41.6C678.077 42.0933 677.583 42.48 676.943 42.76C676.317 43.04 675.577 43.18 674.723 43.18ZM691.107 37.22C691.107 37.6333 691.08 38.0067 691.027 38.34H682.607C682.674 39.22 683 39.9267 683.587 40.46C684.174 40.9933 684.894 41.26 685.747 41.26C686.974 41.26 687.84 40.7467 688.347 39.72H690.807C690.474 40.7333 689.867 41.5667 688.987 42.22C688.12 42.86 687.04 43.18 685.747 43.18C684.694 43.18 683.747 42.9467 682.907 42.48C682.08 42 681.427 41.3333 680.947 40.48C680.48 39.6133 680.247 38.6133 680.247 37.48C680.247 36.3467 680.474 35.3533 680.927 34.5C681.394 33.6333 682.04 32.9667 682.867 32.5C683.707 32.0333 684.667 31.8 685.747 31.8C686.787 31.8 687.714 32.0267 688.527 32.48C689.34 32.9333 689.974 33.5733 690.427 34.4C690.88 35.2133 691.107 36.1533 691.107 37.22ZM688.727 36.5C688.714 35.66 688.414 34.9867 687.827 34.48C687.24 33.9733 686.514 33.72 685.647 33.72C684.86 33.72 684.187 33.9733 683.627 34.48C683.067 34.9733 682.734 35.6467 682.627 36.5H688.727ZM702.326 43.14C701.393 43.14 700.553 42.98 699.806 42.66C699.059 42.3267 698.473 41.86 698.046 41.26C697.619 40.66 697.406 39.96 697.406 39.16H699.846C699.899 39.76 700.133 40.2533 700.546 40.64C700.973 41.0267 701.566 41.22 702.326 41.22C703.113 41.22 703.726 41.0333 704.166 40.66C704.606 40.2733 704.826 39.78 704.826 39.18C704.826 38.7133 704.686 38.3333 704.406 38.04C704.139 37.7467 703.799 37.52 703.386 37.36C702.986 37.2 702.426 37.0267 701.706 36.84C700.799 36.6 700.059 36.36 699.486 36.12C698.926 35.8667 698.446 35.48 698.046 34.96C697.646 34.44 697.446 33.7467 697.446 32.88C697.446 32.08 697.646 31.38 698.046 30.78C698.446 30.18 699.006 29.72 699.726 29.4C700.446 29.08 701.279 28.92 702.226 28.92C703.573 28.92 704.673 29.26 705.526 29.94C706.393 30.6067 706.873 31.5267 706.966 32.7H704.446C704.406 32.1933 704.166 31.76 703.726 31.4C703.286 31.04 702.706 30.86 701.986 30.86C701.333 30.86 700.799 31.0267 700.386 31.36C699.973 31.6933 699.766 32.1733 699.766 32.8C699.766 33.2267 699.893 33.58 700.146 33.86C700.413 34.1267 700.746 34.34 701.146 34.5C701.546 34.66 702.093 34.8333 702.786 35.02C703.706 35.2733 704.453 35.5267 705.026 35.78C705.613 36.0333 706.106 36.4267 706.506 36.96C706.919 37.48 707.126 38.18 707.126 39.06C707.126 39.7667 706.933 40.4333 706.546 41.06C706.173 41.6867 705.619 42.1933 704.886 42.58C704.166 42.9533 703.313 43.14 702.326 43.14ZM712.076 33.84V39.94C712.076 40.3533 712.17 40.6533 712.356 40.84C712.556 41.0133 712.89 41.1 713.356 41.1H714.756V43H712.956C711.93 43 711.143 42.76 710.596 42.28C710.05 41.8 709.776 41.02 709.776 39.94V33.84H708.476V31.98H709.776V29.24H712.076V31.98H714.756V33.84H712.076ZM726.438 31.98V43H724.158V41.7C723.798 42.1533 723.324 42.5133 722.738 42.78C722.164 43.0333 721.551 43.16 720.898 43.16C720.031 43.16 719.251 42.98 718.558 42.62C717.878 42.26 717.338 41.7267 716.938 41.02C716.551 40.3133 716.358 39.46 716.358 38.46V31.98H718.618V38.12C718.618 39.1067 718.864 39.8667 719.358 40.4C719.851 40.92 720.524 41.18 721.378 41.18C722.231 41.18 722.904 40.92 723.398 40.4C723.904 39.8667 724.158 39.1067 724.158 38.12V31.98H726.438ZM728.286 37.44C728.286 36.3333 728.513 35.3533 728.966 34.5C729.433 33.6467 730.059 32.9867 730.846 32.52C731.646 32.04 732.533 31.8 733.506 31.8C734.226 31.8 734.933 31.96 735.626 32.28C736.333 32.5867 736.893 33 737.306 33.52V28.2H739.606V43H737.306V41.34C736.933 41.8733 736.413 42.3133 735.746 42.66C735.093 43.0067 734.339 43.18 733.486 43.18C732.526 43.18 731.646 42.94 730.846 42.46C730.059 41.9667 729.433 41.2867 728.966 40.42C728.513 39.54 728.286 38.5467 728.286 37.44ZM737.306 37.48C737.306 36.72 737.146 36.06 736.826 35.5C736.519 34.94 736.113 34.5133 735.606 34.22C735.099 33.9267 734.553 33.78 733.966 33.78C733.379 33.78 732.833 33.9267 732.326 34.22C731.819 34.5 731.406 34.92 731.086 35.48C730.779 36.0267 730.626 36.68 730.626 37.44C730.626 38.2 730.779 38.8667 731.086 39.44C731.406 40.0133 731.819 40.4533 732.326 40.76C732.846 41.0533 733.393 41.2 733.966 41.2C734.553 41.2 735.099 41.0533 735.606 40.76C736.113 40.4667 736.519 40.04 736.826 39.48C737.146 38.9067 737.306 38.24 737.306 37.48ZM752.121 31.98L745.361 48.18H743.001L745.241 42.82L740.901 31.98H743.441L746.541 40.38L749.761 31.98H752.121ZM757.477 36.02C757.477 34.66 757.79 33.44 758.417 32.36C759.057 31.28 759.917 30.44 760.997 29.84C762.09 29.2267 763.283 28.92 764.577 28.92C766.057 28.92 767.37 29.2867 768.517 30.02C769.677 30.74 770.517 31.7667 771.037 33.1H768.297C767.937 32.3667 767.437 31.82 766.797 31.46C766.157 31.1 765.417 30.92 764.577 30.92C763.657 30.92 762.837 31.1267 762.117 31.54C761.397 31.9533 760.83 32.5467 760.417 33.32C760.017 34.0933 759.817 34.9933 759.817 36.02C759.817 37.0467 760.017 37.9467 760.417 38.72C760.83 39.4933 761.397 40.0933 762.117 40.52C762.837 40.9333 763.657 41.14 764.577 41.14C765.417 41.14 766.157 40.96 766.797 40.6C767.437 40.24 767.937 39.6933 768.297 38.96H771.037C770.517 40.2933 769.677 41.32 768.517 42.04C767.37 42.76 766.057 43.12 764.577 43.12C763.27 43.12 762.077 42.82 760.997 42.22C759.917 41.6067 759.057 40.76 758.417 39.68C757.79 38.6 757.477 37.38 757.477 36.02ZM778.085 43.18C777.045 43.18 776.105 42.9467 775.265 42.48C774.425 42 773.765 41.3333 773.285 40.48C772.805 39.6133 772.565 38.6133 772.565 37.48C772.565 36.36 772.812 35.3667 773.305 34.5C773.799 33.6333 774.472 32.9667 775.325 32.5C776.179 32.0333 777.132 31.8 778.185 31.8C779.239 31.8 780.192 32.0333 781.045 32.5C781.899 32.9667 782.572 33.6333 783.065 34.5C783.559 35.3667 783.805 36.36 783.805 37.48C783.805 38.6 783.552 39.5933 783.045 40.46C782.539 41.3267 781.845 42 780.965 42.48C780.099 42.9467 779.139 43.18 778.085 43.18ZM778.085 41.2C778.672 41.2 779.219 41.06 779.725 40.78C780.245 40.5 780.665 40.08 780.985 39.52C781.305 38.96 781.465 38.28 781.465 37.48C781.465 36.68 781.312 36.0067 781.005 35.46C780.699 34.9 780.292 34.48 779.785 34.2C779.279 33.92 778.732 33.78 778.145 33.78C777.559 33.78 777.012 33.92 776.505 34.2C776.012 34.48 775.619 34.9 775.325 35.46C775.032 36.0067 774.885 36.68 774.885 37.48C774.885 38.6667 775.185 39.5867 775.785 40.24C776.399 40.88 777.165 41.2 778.085 41.2ZM798.999 31.8C799.866 31.8 800.639 31.98 801.319 32.34C802.013 32.7 802.553 33.2333 802.939 33.94C803.339 34.6467 803.539 35.5 803.539 36.5V43H801.279V36.84C801.279 35.8533 801.033 35.1 800.539 34.58C800.046 34.0467 799.373 33.78 798.519 33.78C797.666 33.78 796.986 34.0467 796.479 34.58C795.986 35.1 795.739 35.8533 795.739 36.84V43H793.479V36.84C793.479 35.8533 793.233 35.1 792.739 34.58C792.246 34.0467 791.573 33.78 790.719 33.78C789.866 33.78 789.186 34.0467 788.679 34.58C788.186 35.1 787.939 35.8533 787.939 36.84V43H785.659V31.98H787.939V33.24C788.313 32.7867 788.786 32.4333 789.359 32.18C789.933 31.9267 790.546 31.8 791.199 31.8C792.079 31.8 792.866 31.9867 793.559 32.36C794.253 32.7333 794.786 33.2733 795.159 33.98C795.493 33.3133 796.013 32.7867 796.719 32.4C797.426 32 798.186 31.8 798.999 31.8ZM808.321 33.6C808.707 33.0933 809.234 32.6667 809.901 32.32C810.567 31.9733 811.321 31.8 812.161 31.8C813.121 31.8 813.994 32.04 814.781 32.52C815.581 32.9867 816.207 33.6467 816.661 34.5C817.114 35.3533 817.341 36.3333 817.341 37.44C817.341 38.5467 817.114 39.54 816.661 40.42C816.207 41.2867 815.581 41.9667 814.781 42.46C813.994 42.94 813.121 43.18 812.161 43.18C811.321 43.18 810.574 43.0133 809.921 42.68C809.267 42.3333 808.734 41.9067 808.321 41.4V48.24H806.041V31.98H808.321V33.6ZM815.021 37.44C815.021 36.68 814.861 36.0267 814.541 35.48C814.234 34.92 813.821 34.5 813.301 34.22C812.794 33.9267 812.247 33.78 811.661 33.78C811.087 33.78 810.541 33.9267 810.021 34.22C809.514 34.5133 809.101 34.94 808.781 35.5C808.474 36.06 808.321 36.72 808.321 37.48C808.321 38.24 808.474 38.9067 808.781 39.48C809.101 40.04 809.514 40.4667 810.021 40.76C810.541 41.0533 811.087 41.2 811.661 41.2C812.247 41.2 812.794 41.0533 813.301 40.76C813.821 40.4533 814.234 40.0133 814.541 39.44C814.861 38.8667 815.021 38.2 815.021 37.44ZM829.295 37.22C829.295 37.6333 829.269 38.0067 829.215 38.34H820.795C820.862 39.22 821.189 39.9267 821.775 40.46C822.362 40.9933 823.082 41.26 823.935 41.26C825.162 41.26 826.029 40.7467 826.535 39.72H828.995C828.662 40.7333 828.055 41.5667 827.175 42.22C826.309 42.86 825.229 43.18 823.935 43.18C822.882 43.18 821.935 42.9467 821.095 42.48C820.269 42 819.615 41.3333 819.135 40.48C818.669 39.6133 818.435 38.6133 818.435 37.48C818.435 36.3467 818.662 35.3533 819.115 34.5C819.582 33.6333 820.229 32.9667 821.055 32.5C821.895 32.0333 822.855 31.8 823.935 31.8C824.975 31.8 825.902 32.0267 826.715 32.48C827.529 32.9333 828.162 33.5733 828.615 34.4C829.069 35.2133 829.295 36.1533 829.295 37.22ZM826.915 36.5C826.902 35.66 826.602 34.9867 826.015 34.48C825.429 33.9733 824.702 33.72 823.835 33.72C823.049 33.72 822.375 33.9733 821.815 34.48C821.255 34.9733 820.922 35.6467 820.815 36.5H826.915ZM833.799 33.84V39.94C833.799 40.3533 833.892 40.6533 834.079 40.84C834.279 41.0133 834.612 41.1 835.079 41.1H836.479V43H834.679C833.652 43 832.866 42.76 832.319 42.28C831.772 41.8 831.499 41.02 831.499 39.94V33.84H830.199V31.98H831.499V29.24H833.799V31.98H836.479V33.84H833.799ZM839.34 30.52C838.927 30.52 838.58 30.38 838.3 30.1C838.02 29.82 837.88 29.4733 837.88 29.06C837.88 28.6467 838.02 28.3 838.3 28.02C838.58 27.74 838.927 27.6 839.34 27.6C839.74 27.6 840.08 27.74 840.36 28.02C840.64 28.3 840.78 28.6467 840.78 29.06C840.78 29.4733 840.64 29.82 840.36 30.1C840.08 30.38 839.74 30.52 839.34 30.52ZM840.46 31.98V43H838.18V31.98H840.46ZM845.714 33.84V39.94C845.714 40.3533 845.807 40.6533 845.994 40.84C846.194 41.0133 846.527 41.1 846.994 41.1H848.394V43H846.594C845.567 43 844.781 42.76 844.234 42.28C843.687 41.8 843.414 41.02 843.414 39.94V33.84H842.114V31.98H843.414V29.24H845.714V31.98H848.394V33.84H845.714ZM851.255 30.52C850.842 30.52 850.495 30.38 850.215 30.1C849.935 29.82 849.795 29.4733 849.795 29.06C849.795 28.6467 849.935 28.3 850.215 28.02C850.495 27.74 850.842 27.6 851.255 27.6C851.655 27.6 851.995 27.74 852.275 28.02C852.555 28.3 852.695 28.6467 852.695 29.06C852.695 29.4733 852.555 29.82 852.275 30.1C851.995 30.38 851.655 30.52 851.255 30.52ZM852.375 31.98V43H850.095V31.98H852.375ZM859.749 43.18C858.709 43.18 857.769 42.9467 856.929 42.48C856.089 42 855.429 41.3333 854.949 40.48C854.469 39.6133 854.229 38.6133 854.229 37.48C854.229 36.36 854.475 35.3667 854.969 34.5C855.462 33.6333 856.135 32.9667 856.989 32.5C857.842 32.0333 858.795 31.8 859.849 31.8C860.902 31.8 861.855 32.0333 862.709 32.5C863.562 32.9667 864.235 33.6333 864.729 34.5C865.222 35.3667 865.469 36.36 865.469 37.48C865.469 38.6 865.215 39.5933 864.709 40.46C864.202 41.3267 863.509 42 862.629 42.48C861.762 42.9467 860.802 43.18 859.749 43.18ZM859.749 41.2C860.335 41.2 860.882 41.06 861.389 40.78C861.909 40.5 862.329 40.08 862.649 39.52C862.969 38.96 863.129 38.28 863.129 37.48C863.129 36.68 862.975 36.0067 862.669 35.46C862.362 34.9 861.955 34.48 861.449 34.2C860.942 33.92 860.395 33.78 859.809 33.78C859.222 33.78 858.675 33.92 858.169 34.2C857.675 34.48 857.282 34.9 856.989 35.46C856.695 36.0067 856.549 36.68 856.549 37.48C856.549 38.6667 856.849 39.5867 857.449 40.24C858.062 40.88 858.829 41.2 859.749 41.2ZM872.883 31.8C873.749 31.8 874.523 31.98 875.203 32.34C875.896 32.7 876.436 33.2333 876.823 33.94C877.209 34.6467 877.403 35.5 877.403 36.5V43H875.143V36.84C875.143 35.8533 874.896 35.1 874.403 34.58C873.909 34.0467 873.236 33.78 872.383 33.78C871.529 33.78 870.849 34.0467 870.343 34.58C869.849 35.1 869.603 35.8533 869.603 36.84V43H867.323V31.98H869.603V33.24C869.976 32.7867 870.449 32.4333 871.023 32.18C871.609 31.9267 872.229 31.8 872.883 31.8ZM883.911 43.18C883.044 43.18 882.264 43.0267 881.571 42.72C880.891 42.4 880.351 41.9733 879.951 41.44C879.551 40.8933 879.338 40.2867 879.311 39.62H881.671C881.711 40.0867 881.931 40.48 882.331 40.8C882.744 41.1067 883.258 41.26 883.871 41.26C884.511 41.26 885.004 41.14 885.351 40.9C885.711 40.6467 885.891 40.3267 885.891 39.94C885.891 39.5267 885.691 39.22 885.291 39.02C884.904 38.82 884.284 38.6 883.431 38.36C882.604 38.1333 881.931 37.9133 881.411 37.7C880.891 37.4867 880.438 37.16 880.051 36.72C879.678 36.28 879.491 35.7 879.491 34.98C879.491 34.3933 879.664 33.86 880.011 33.38C880.358 32.8867 880.851 32.5 881.491 32.22C882.144 31.94 882.891 31.8 883.731 31.8C884.984 31.8 885.991 32.12 886.751 32.76C887.524 33.3867 887.938 34.2467 887.991 35.34H885.711C885.671 34.8467 885.471 34.4533 885.111 34.16C884.751 33.8667 884.264 33.72 883.651 33.72C883.051 33.72 882.591 33.8333 882.271 34.06C881.951 34.2867 881.791 34.5867 881.791 34.96C881.791 35.2533 881.898 35.5 882.111 35.7C882.324 35.9 882.584 36.06 882.891 36.18C883.198 36.2867 883.651 36.4267 884.251 36.6C885.051 36.8133 885.704 37.0333 886.211 37.26C886.731 37.4733 887.178 37.7933 887.551 38.22C887.924 38.6467 888.118 39.2133 888.131 39.92C888.131 40.5467 887.958 41.1067 887.611 41.6C887.264 42.0933 886.771 42.48 886.131 42.76C885.504 43.04 884.764 43.18 883.911 43.18Z" fill="white"/>
<rect x="306" width="307" height="72" fill="#F8F8F8"/>
<rect x="306.5" y="0.5" width="306" height="71" stroke="#1D1D1D" stroke-opacity="0.2"/>
<path d="M415.78 29.1V43H413.5V29.1H415.78ZM417.613 37.44C417.613 36.3333 417.84 35.3533 418.293 34.5C418.76 33.6467 419.387 32.9867 420.173 32.52C420.973 32.04 421.86 31.8 422.833 31.8C423.553 31.8 424.26 31.96 424.953 32.28C425.66 32.5867 426.22 33 426.633 33.52V28.2H428.933V43H426.633V41.34C426.26 41.8733 425.74 42.3133 425.073 42.66C424.42 43.0067 423.667 43.18 422.813 43.18C421.853 43.18 420.973 42.94 420.173 42.46C419.387 41.9667 418.76 41.2867 418.293 40.42C417.84 39.54 417.613 38.5467 417.613 37.44ZM426.633 37.48C426.633 36.72 426.473 36.06 426.153 35.5C425.847 34.94 425.44 34.5133 424.933 34.22C424.427 33.9267 423.88 33.78 423.293 33.78C422.707 33.78 422.16 33.9267 421.653 34.22C421.147 34.5 420.733 34.92 420.413 35.48C420.107 36.0267 419.953 36.68 419.953 37.44C419.953 38.2 420.107 38.8667 420.413 39.44C420.733 40.0133 421.147 40.4533 421.653 40.76C422.173 41.0533 422.72 41.2 423.293 41.2C423.88 41.2 424.427 41.0533 424.933 40.76C425.44 40.4667 425.847 40.04 426.153 39.48C426.473 38.9067 426.633 38.24 426.633 37.48ZM441.628 37.22C441.628 37.6333 441.601 38.0067 441.548 38.34H433.128C433.195 39.22 433.521 39.9267 434.108 40.46C434.695 40.9933 435.415 41.26 436.268 41.26C437.495 41.26 438.361 40.7467 438.868 39.72H441.328C440.995 40.7333 440.388 41.5667 439.508 42.22C438.641 42.86 437.561 43.18 436.268 43.18C435.215 43.18 434.268 42.9467 433.428 42.48C432.601 42 431.948 41.3333 431.468 40.48C431.001 39.6133 430.768 38.6133 430.768 37.48C430.768 36.3467 430.995 35.3533 431.448 34.5C431.915 33.6333 432.561 32.9667 433.388 32.5C434.228 32.0333 435.188 31.8 436.268 31.8C437.308 31.8 438.235 32.0267 439.048 32.48C439.861 32.9333 440.495 33.5733 440.948 34.4C441.401 35.2133 441.628 36.1533 441.628 37.22ZM439.248 36.5C439.235 35.66 438.935 34.9867 438.348 34.48C437.761 33.9733 437.035 33.72 436.168 33.72C435.381 33.72 434.708 33.9733 434.148 34.48C433.588 34.9733 433.255 35.6467 433.148 36.5H439.248ZM442.712 37.44C442.712 36.3333 442.939 35.3533 443.392 34.5C443.859 33.6467 444.485 32.9867 445.272 32.52C446.072 32.04 446.952 31.8 447.912 31.8C448.779 31.8 449.532 31.9733 450.172 32.32C450.825 32.6533 451.345 33.0733 451.732 33.58V31.98H454.032V43H451.732V41.36C451.345 41.88 450.819 42.3133 450.152 42.66C449.485 43.0067 448.725 43.18 447.872 43.18C446.925 43.18 446.059 42.94 445.272 42.46C444.485 41.9667 443.859 41.2867 443.392 40.42C442.939 39.54 442.712 38.5467 442.712 37.44ZM451.732 37.48C451.732 36.72 451.572 36.06 451.252 35.5C450.945 34.94 450.539 34.5133 450.032 34.22C449.525 33.9267 448.979 33.78 448.392 33.78C447.805 33.78 447.259 33.9267 446.752 34.22C446.245 34.5 445.832 34.92 445.512 35.48C445.205 36.0267 445.052 36.68 445.052 37.44C445.052 38.2 445.205 38.8667 445.512 39.44C445.832 40.0133 446.245 40.4533 446.752 40.76C447.272 41.0533 447.819 41.2 448.392 41.2C448.979 41.2 449.525 41.0533 450.032 40.76C450.539 40.4667 450.945 40.04 451.252 39.48C451.572 38.9067 451.732 38.24 451.732 37.48ZM459.287 33.84V39.94C459.287 40.3533 459.38 40.6533 459.567 40.84C459.767 41.0133 460.1 41.1 460.567 41.1H461.967V43H460.167C459.14 43 458.353 42.76 457.807 42.28C457.26 41.8 456.987 41.02 456.987 39.94V33.84H455.687V31.98H456.987V29.24H459.287V31.98H461.967V33.84H459.287ZM469.368 31.8C470.208 31.8 470.955 31.98 471.608 32.34C472.275 32.7 472.795 33.2333 473.168 33.94C473.555 34.6467 473.748 35.5 473.748 36.5V43H471.488V36.84C471.488 35.8533 471.241 35.1 470.748 34.58C470.255 34.0467 469.581 33.78 468.728 33.78C467.875 33.78 467.195 34.0467 466.688 34.58C466.195 35.1 465.948 35.8533 465.948 36.84V43H463.668V28.2H465.948V33.26C466.335 32.7933 466.821 32.4333 467.408 32.18C468.008 31.9267 468.661 31.8 469.368 31.8ZM481.036 43.18C479.996 43.18 479.056 42.9467 478.216 42.48C477.376 42 476.716 41.3333 476.236 40.48C475.756 39.6133 475.516 38.6133 475.516 37.48C475.516 36.36 475.763 35.3667 476.256 34.5C476.75 33.6333 477.423 32.9667 478.276 32.5C479.13 32.0333 480.083 31.8 481.136 31.8C482.19 31.8 483.143 32.0333 483.996 32.5C484.85 32.9667 485.523 33.6333 486.016 34.5C486.51 35.3667 486.756 36.36 486.756 37.48C486.756 38.6 486.503 39.5933 485.996 40.46C485.49 41.3267 484.796 42 483.916 42.48C483.05 42.9467 482.09 43.18 481.036 43.18ZM481.036 41.2C481.623 41.2 482.17 41.06 482.676 40.78C483.196 40.5 483.616 40.08 483.936 39.52C484.256 38.96 484.416 38.28 484.416 37.48C484.416 36.68 484.263 36.0067 483.956 35.46C483.65 34.9 483.243 34.48 482.736 34.2C482.23 33.92 481.683 33.78 481.096 33.78C480.51 33.78 479.963 33.92 479.456 34.2C478.963 34.48 478.57 34.9 478.276 35.46C477.983 36.0067 477.836 36.68 477.836 37.48C477.836 38.6667 478.136 39.5867 478.736 40.24C479.35 40.88 480.116 41.2 481.036 41.2ZM494.17 31.8C495.037 31.8 495.81 31.98 496.49 32.34C497.183 32.7 497.723 33.2333 498.11 33.94C498.497 34.6467 498.69 35.5 498.69 36.5V43H496.43V36.84C496.43 35.8533 496.183 35.1 495.69 34.58C495.197 34.0467 494.523 33.78 493.67 33.78C492.817 33.78 492.137 34.0467 491.63 34.58C491.137 35.1 490.89 35.8533 490.89 36.84V43H488.61V31.98H490.89V33.24C491.263 32.7867 491.737 32.4333 492.31 32.18C492.897 31.9267 493.517 31.8 494.17 31.8ZM505.198 43.18C504.332 43.18 503.552 43.0267 502.858 42.72C502.178 42.4 501.638 41.9733 501.238 41.44C500.838 40.8933 500.625 40.2867 500.598 39.62H502.958C502.998 40.0867 503.218 40.48 503.618 40.8C504.032 41.1067 504.545 41.26 505.158 41.26C505.798 41.26 506.292 41.14 506.638 40.9C506.998 40.6467 507.178 40.3267 507.178 39.94C507.178 39.5267 506.978 39.22 506.578 39.02C506.192 38.82 505.572 38.6 504.718 38.36C503.892 38.1333 503.218 37.9133 502.698 37.7C502.178 37.4867 501.725 37.16 501.338 36.72C500.965 36.28 500.778 35.7 500.778 34.98C500.778 34.3933 500.952 33.86 501.298 33.38C501.645 32.8867 502.138 32.5 502.778 32.22C503.432 31.94 504.178 31.8 505.018 31.8C506.272 31.8 507.278 32.12 508.038 32.76C508.812 33.3867 509.225 34.2467 509.278 35.34H506.998C506.958 34.8467 506.758 34.4533 506.398 34.16C506.038 33.8667 505.552 33.72 504.938 33.72C504.338 33.72 503.878 33.8333 503.558 34.06C503.238 34.2867 503.078 34.5867 503.078 34.96C503.078 35.2533 503.185 35.5 503.398 35.7C503.612 35.9 503.872 36.06 504.178 36.18C504.485 36.2867 504.938 36.4267 505.538 36.6C506.338 36.8133 506.992 37.0333 507.498 37.26C508.018 37.4733 508.465 37.7933 508.838 38.22C509.212 38.6467 509.405 39.2133 509.418 39.92C509.418 40.5467 509.245 41.1067 508.898 41.6C508.552 42.0933 508.058 42.48 507.418 42.76C506.792 43.04 506.052 43.18 505.198 43.18Z" fill="#979797"/>
<path d="M0 10C0 4.47715 4.47715 0 10 0H307V72H10C4.47715 72 0 67.5229 0 62V10Z" fill="#F8F8F8"/>
<path d="M0.5 10C0.5 4.7533 4.7533 0.5 10 0.5H306.5V71.5H10C4.75329 71.5 0.5 67.2467 0.5 62V10Z" stroke="black" stroke-opacity="0.1"/>
<path d="M106.256 29.04V43H103.456V37.06H97.4761V43H94.6761V29.04H97.4761V34.78H103.456V29.04H106.256ZM107.892 37.42C107.892 36.3 108.112 35.3067 108.552 34.44C109.005 33.5733 109.612 32.9067 110.372 32.44C111.145 31.9733 112.005 31.74 112.952 31.74C113.779 31.74 114.499 31.9067 115.112 32.24C115.739 32.5733 116.239 32.9933 116.612 33.5V31.92H119.432V43H116.612V41.38C116.252 41.9 115.752 42.3333 115.112 42.68C114.485 43.0133 113.759 43.18 112.932 43.18C111.999 43.18 111.145 42.94 110.372 42.46C109.612 41.98 109.005 41.3067 108.552 40.44C108.112 39.56 107.892 38.5533 107.892 37.42ZM116.612 37.46C116.612 36.78 116.479 36.2 116.212 35.72C115.945 35.2267 115.585 34.8533 115.132 34.6C114.679 34.3333 114.192 34.2 113.672 34.2C113.152 34.2 112.672 34.3267 112.232 34.58C111.792 34.8333 111.432 35.2067 111.152 35.7C110.885 36.18 110.752 36.7533 110.752 37.42C110.752 38.0867 110.885 38.6733 111.152 39.18C111.432 39.6733 111.792 40.0533 112.232 40.32C112.685 40.5867 113.165 40.72 113.672 40.72C114.192 40.72 114.679 40.5933 115.132 40.34C115.585 40.0733 115.945 39.7 116.212 39.22C116.479 38.7267 116.612 38.14 116.612 37.46ZM121.047 37.46C121.047 36.3133 121.28 35.3133 121.747 34.46C122.213 33.5933 122.86 32.9267 123.687 32.46C124.513 31.98 125.46 31.74 126.527 31.74C127.9 31.74 129.033 32.0867 129.927 32.78C130.833 33.46 131.44 34.42 131.747 35.66H128.727C128.567 35.18 128.293 34.8067 127.907 34.54C127.533 34.26 127.067 34.12 126.507 34.12C125.707 34.12 125.073 34.4133 124.607 35C124.14 35.5733 123.907 36.3933 123.907 37.46C123.907 38.5133 124.14 39.3333 124.607 39.92C125.073 40.4933 125.707 40.78 126.507 40.78C127.64 40.78 128.38 40.2733 128.727 39.26H131.747C131.44 40.46 130.833 41.4133 129.927 42.12C129.02 42.8267 127.887 43.18 126.527 43.18C125.46 43.18 124.513 42.9467 123.687 42.48C122.86 42 122.213 41.3333 121.747 40.48C121.28 39.6133 121.047 38.6067 121.047 37.46ZM139.958 43L136.198 38.28V43H133.398V28.2H136.198V36.62L139.918 31.92H143.558L138.678 37.48L143.598 43H139.958ZM143.958 37.42C143.958 36.3 144.178 35.3067 144.618 34.44C145.071 33.5733 145.678 32.9067 146.438 32.44C147.211 31.9733 148.071 31.74 149.018 31.74C149.844 31.74 150.564 31.9067 151.178 32.24C151.804 32.5733 152.304 32.9933 152.678 33.5V31.92H155.498V43H152.678V41.38C152.318 41.9 151.818 42.3333 151.178 42.68C150.551 43.0133 149.824 43.18 148.998 43.18C148.064 43.18 147.211 42.94 146.438 42.46C145.678 41.98 145.071 41.3067 144.618 40.44C144.178 39.56 143.958 38.5533 143.958 37.42ZM152.678 37.46C152.678 36.78 152.544 36.2 152.278 35.72C152.011 35.2267 151.651 34.8533 151.198 34.6C150.744 34.3333 150.258 34.2 149.738 34.2C149.218 34.2 148.738 34.3267 148.298 34.58C147.858 34.8333 147.498 35.2067 147.218 35.7C146.951 36.18 146.818 36.7533 146.818 37.42C146.818 38.0867 146.951 38.6733 147.218 39.18C147.498 39.6733 147.858 40.0533 148.298 40.32C148.751 40.5867 149.231 40.72 149.738 40.72C150.258 40.72 150.744 40.5933 151.198 40.34C151.651 40.0733 152.011 39.7 152.278 39.22C152.544 38.7267 152.678 38.14 152.678 37.46ZM161.092 34.22V39.58C161.092 39.9533 161.179 40.2267 161.352 40.4C161.539 40.56 161.846 40.64 162.272 40.64H163.572V43H161.812C159.452 43 158.272 41.8533 158.272 39.56V34.22H156.952V31.92H158.272V29.18H161.092V31.92H163.572V34.22H161.092ZM171.426 31.76C172.266 31.76 173.013 31.9467 173.666 32.32C174.32 32.68 174.826 33.22 175.186 33.94C175.56 34.6467 175.746 35.5 175.746 36.5V43H172.946V36.88C172.946 36 172.726 35.3267 172.286 34.86C171.846 34.38 171.246 34.14 170.486 34.14C169.713 34.14 169.1 34.38 168.646 34.86C168.206 35.3267 167.986 36 167.986 36.88V43H165.186V28.2H167.986V33.3C168.346 32.82 168.826 32.4467 169.426 32.18C170.026 31.9 170.693 31.76 171.426 31.76ZM182.929 43.18C181.862 43.18 180.902 42.9467 180.049 42.48C179.196 42 178.522 41.3267 178.029 40.46C177.549 39.5933 177.309 38.5933 177.309 37.46C177.309 36.3267 177.556 35.3267 178.049 34.46C178.556 33.5933 179.242 32.9267 180.109 32.46C180.976 31.98 181.942 31.74 183.009 31.74C184.076 31.74 185.042 31.98 185.909 32.46C186.776 32.9267 187.456 33.5933 187.949 34.46C188.456 35.3267 188.709 36.3267 188.709 37.46C188.709 38.5933 188.449 39.5933 187.929 40.46C187.422 41.3267 186.729 42 185.849 42.48C184.982 42.9467 184.009 43.18 182.929 43.18ZM182.929 40.74C183.436 40.74 183.909 40.62 184.349 40.38C184.802 40.1267 185.162 39.7533 185.429 39.26C185.696 38.7667 185.829 38.1667 185.829 37.46C185.829 36.4067 185.549 35.6 184.989 35.04C184.442 34.4667 183.769 34.18 182.969 34.18C182.169 34.18 181.496 34.4667 180.949 35.04C180.416 35.6 180.149 36.4067 180.149 37.46C180.149 38.5133 180.409 39.3267 180.929 39.9C181.462 40.46 182.129 40.74 182.929 40.74ZM196.503 31.76C197.823 31.76 198.889 32.18 199.703 33.02C200.516 33.8467 200.923 35.0067 200.923 36.5V43H198.123V36.88C198.123 36 197.903 35.3267 197.463 34.86C197.023 34.38 196.423 34.14 195.663 34.14C194.889 34.14 194.276 34.38 193.823 34.86C193.383 35.3267 193.163 36 193.163 36.88V43H190.363V31.92H193.163V33.3C193.536 32.82 194.009 32.4467 194.583 32.18C195.169 31.9 195.809 31.76 196.503 31.76ZM207.425 43.18C206.519 43.18 205.705 43.02 204.985 42.7C204.265 42.3667 203.692 41.92 203.265 41.36C202.852 40.8 202.625 40.18 202.585 39.5H205.405C205.459 39.9267 205.665 40.28 206.025 40.56C206.399 40.84 206.859 40.98 207.405 40.98C207.939 40.98 208.352 40.8733 208.645 40.66C208.952 40.4467 209.105 40.1733 209.105 39.84C209.105 39.48 208.919 39.2133 208.545 39.04C208.185 38.8533 207.605 38.6533 206.805 38.44C205.979 38.24 205.299 38.0333 204.765 37.82C204.245 37.6067 203.792 37.28 203.405 36.84C203.032 36.4 202.845 35.8067 202.845 35.06C202.845 34.4467 203.019 33.8867 203.365 33.38C203.725 32.8733 204.232 32.4733 204.885 32.18C205.552 31.8867 206.332 31.74 207.225 31.74C208.545 31.74 209.599 32.0733 210.385 32.74C211.172 33.3933 211.605 34.28 211.685 35.4H209.005C208.965 34.96 208.779 34.6133 208.445 34.36C208.125 34.0933 207.692 33.96 207.145 33.96C206.639 33.96 206.245 34.0533 205.965 34.24C205.699 34.4267 205.565 34.6867 205.565 35.02C205.565 35.3933 205.752 35.68 206.125 35.88C206.499 36.0667 207.079 36.26 207.865 36.46C208.665 36.66 209.325 36.8667 209.845 37.08C210.365 37.2933 210.812 37.6267 211.185 38.08C211.572 38.52 211.772 39.1067 211.785 39.84C211.785 40.48 211.605 41.0533 211.245 41.56C210.899 42.0667 210.392 42.4667 209.725 42.76C209.072 43.04 208.305 43.18 207.425 43.18Z" fill="#979797"/>
</svg>
