<svg width="33" height="26" viewBox="0 0 33 26" fill="none" xmlns="http://www.w3.org/2000/svg">
<path d="M32.3544 12.4965L24.2252 4.36732C23.9724 4.11454 23.5251 4.11454 23.2723 4.36732L21.5099 6.12973C21.2467 6.39297 21.2467 6.81966 21.5099 7.0829L27.4005 12.9728L21.5103 18.8636C21.247 19.1269 21.247 19.5536 21.5103 19.8168L23.2727 21.5792C23.3991 21.7056 23.5706 21.7771 23.7493 21.7771C23.9276 21.7771 24.0994 21.7056 24.2258 21.5792L32.3544 13.4504C32.6176 13.1868 32.6176 12.7598 32.3544 12.4965Z" fill="#0023B5"/>
<path d="M11.7368 18.8611L5.8473 12.9709L11.7378 7.08105C11.8642 6.95466 11.9354 6.78344 11.9354 6.60447C11.9354 6.42584 11.8646 6.25428 11.7378 6.12789L9.97544 4.36548C9.84905 4.23909 9.67749 4.16797 9.49885 4.16797C9.32022 4.16797 9.14866 4.23909 9.02227 4.36548L0.892737 12.494C0.629504 12.7572 0.629504 13.1839 0.892737 13.4475L9.02194 21.5764C9.14833 21.7028 9.31988 21.7742 9.49852 21.7742C9.67715 21.7742 9.84871 21.7028 9.9751 21.5764L11.7375 19.814C12.0007 19.5511 12.0007 19.1244 11.7368 18.8611Z" fill="#0023B5"/>
<path d="M21.2492 1.6312C21.1636 1.47414 21.0193 1.35752 20.8481 1.30697L19.4194 0.885322C19.0628 0.77949 18.6873 0.984077 18.5821 1.34101L11.9494 23.8027C11.8989 23.9743 11.9184 24.1586 12.0037 24.3154C12.089 24.4728 12.2336 24.5891 12.4048 24.6399L13.8335 25.0616C13.8972 25.0805 13.9616 25.0896 14.0246 25.0896C14.3155 25.0896 14.5841 24.8995 14.6707 24.6059L21.3034 2.14385C21.354 1.97229 21.3348 1.78793 21.2492 1.6312Z" fill="#0023B5"/>
</svg>
