<svg width="35" height="35" viewBox="0 0 35 35" fill="none" xmlns="http://www.w3.org/2000/svg">
<g clip-path="url(#clip0_459_840)">
<path d="M4.97901 0H0.995762C0.445852 0 0 0.445852 0 0.995828V5.04548C0 5.59546 0.445785 6.04131 0.995828 6.04131C1.5458 6.04131 1.99166 5.59546 1.99166 5.04548V1.99166H4.97907C5.52905 1.99166 5.9749 1.5458 5.9749 0.995828C5.97484 0.445852 5.52898 0 4.97901 0Z" fill="#0023B5"/>
<path d="M32.9947 0H29.0115C28.4615 0 28.0156 0.445852 28.0156 0.995828C28.0156 1.5458 28.4614 1.99166 29.0115 1.99166H31.9989V5.04548C31.9989 5.59546 32.4447 6.04131 32.9947 6.04131C33.5447 6.04131 33.9905 5.59546 33.9905 5.04548V0.995828C33.9905 0.445852 33.5447 0 32.9947 0Z" fill="#0023B5"/>
<path d="M4.97907 31.9989H1.99166V28.945C1.99166 28.3951 1.5458 27.9492 0.995828 27.9492C0.445852 27.9492 0 28.3951 0 28.945V32.9947C0 33.5447 0.445785 33.9905 0.995828 33.9905H4.97907C5.52905 33.9905 5.9749 33.5447 5.9749 32.9947C5.9749 32.4447 5.52905 31.9989 4.97907 31.9989Z" fill="#0023B5"/>
<path d="M32.9947 27.9492C32.4447 27.9492 31.9989 28.3951 31.9989 28.945V31.9989H29.0115C28.4615 31.9989 28.0156 32.4447 28.0156 32.9947C28.0156 33.5447 28.4615 33.9905 29.0115 33.9905H32.9947C33.5447 33.9905 33.9905 33.5447 33.9905 32.9947V28.945C33.9905 28.3951 33.5447 27.9492 32.9947 27.9492Z" fill="#0023B5"/>
<path d="M31.3641 8.16946L17.495 0.134174C17.1863 -0.0447246 16.8053 -0.0447246 16.4966 0.134174L2.62179 8.1694C2.31592 8.34664 2.125 8.67661 2.125 9.03042C2.125 9.03241 2.1252 9.0344 2.1252 9.03633V24.9688C2.1252 25.326 2.3193 25.6603 2.63188 25.8363L16.4966 33.8658C16.646 33.9524 16.8237 34 16.9959 34C17.1756 34 17.3513 33.9491 17.4951 33.8658L31.3542 25.8362C31.3566 25.8349 31.3588 25.8335 31.3612 25.8322C31.6824 25.6004 31.8555 25.4057 31.8603 24.9808C31.8604 24.9768 31.8607 24.9729 31.8607 24.9689V9.03646C31.8607 9.03447 31.8609 9.03248 31.8609 9.03055C31.8609 8.67641 31.6699 8.34637 31.3641 8.16946ZM16 31.2764L5.12092 24.9733L13.508 20.1636C13.9851 19.89 14.15 19.2814 13.8764 18.8044C13.6029 18.3272 12.9943 18.1623 12.5172 18.4359L4.11666 23.2499V10.7517L16 17.5763V31.2764ZM16.9958 15.8515L5.11946 9.02757L16.9958 2.14668L28.8722 9.02757L16.9958 15.8515ZM29.8756 23.2499L21.4745 18.4359C20.9974 18.1623 20.3888 18.3272 20.1153 18.8043C19.8416 19.2814 20.0065 19.8899 20.4837 20.1635L28.8707 24.9732L17.9916 31.2763V17.5763L29.8755 10.7517V23.2499H29.8756Z" fill="#0023B5"/>
</g>
<defs>
<clipPath id="clip0_459_840">
<rect width="34" height="34" fill="white"/>
</clipPath>
</defs>
</svg>
