<svg width="38" height="38" viewBox="0 0 38 38" fill="none" xmlns="http://www.w3.org/2000/svg">
<g clip-path="url(#clip0_459_795)">
<path d="M15.6816 32.6783L15.9756 32.6753C15.9765 30.673 17.397 29.0023 19.2855 28.6157C19.555 28.5605 19.834 28.5315 20.1198 28.5314C22.1385 28.5305 23.8208 29.9727 24.1914 31.8833C24.2036 31.9464 24.2144 32.01 24.2238 32.0741L24.4702 32.0751L24.4771 32.0751C26.23 32.0818 27.9077 31.4653 29.2274 30.3664H29.2251H29.1908L29.1566 30.3648C29.1096 30.3627 29.0623 30.3591 29.0149 30.354L28.8576 30.3319C27.6181 31.2966 26.0773 31.8338 24.4714 31.8262C23.9814 29.4236 21.6365 27.8732 19.234 28.3632C17.1795 28.7822 15.6982 30.5815 15.6816 32.6783ZM15.6816 32.6783L15.9756 32.6806L31.6018 30.0323C29.9173 32.2724 27.2742 33.5857 24.4714 33.5751C24.3455 34.3872 23.9692 35.1397 23.3951 35.7277C22.5441 36.5986 21.3836 37.0982 20.1662 37.1179C17.7069 37.1181 15.7062 35.1375 15.6816 32.6783ZM30.2565 29.3192V29.0684V29.0607V28.8664V29.3192Z" fill="#0023B5" stroke="#0023B5" stroke-width="3"/>
</g>
<defs>
<clipPath id="clip0_459_795">
<rect width="36.2353" height="36.2353" fill="white" transform="translate(0.882812 0.882812)"/>
</clipPath>
</defs>
</svg>
