<svg width="32" height="38" viewBox="0 0 32 38" fill="none" xmlns="http://www.w3.org/2000/svg">
<path d="M11.0979 29.8649C11.097 29.8738 11.0962 29.8808 11.0954 29.886L11.0905 29.8908V29.9115C11.0905 30.089 11.1269 30.2379 11.2735 30.3845C11.3839 30.4949 11.565 30.5674 11.7127 30.5674H20.2954C20.4784 30.5674 20.6254 30.4938 20.7347 30.3845C20.8461 30.273 20.9176 30.0915 20.9176 29.9115C20.9176 29.9104 20.9175 29.9065 20.9172 29.9C20.9133 29.7971 20.8842 29.0398 21.0181 28.1223C21.1608 27.1446 21.487 25.9971 22.2156 25.2685L22.2661 25.218L22.3158 25.1683C24.2775 23.3753 25.4278 20.8381 25.4278 18.1987C25.4278 13.0214 21.1982 8.7918 16.0209 8.7918C10.8437 8.7918 6.61406 13.0214 6.61406 18.1987C6.61406 20.9051 7.79776 23.5099 9.79364 25.2696C10.5216 25.9984 10.856 27.1454 11.0027 28.1225C11.076 28.6101 11.1022 29.0528 11.1079 29.3755C11.1108 29.5368 11.1086 29.668 11.1046 29.7594C11.1026 29.8053 11.1002 29.8407 11.0979 29.8649ZM21.3734 24.3203L21.3733 24.3202L21.3708 24.3227L21.3703 24.3232C21.3537 24.3398 21.3271 24.3663 21.3046 24.3933C21.2933 24.4069 21.282 24.4219 21.2732 24.4367C21.2682 24.4451 21.2622 24.4564 21.2586 24.4694C20.6004 25.1834 20.2133 26.1215 19.9861 27.0173C19.7643 27.8925 19.6942 28.7311 19.6749 29.2894H12.3333C12.314 28.7297 12.2436 27.8663 12.0094 26.9624C11.7684 26.0324 11.3531 25.0554 10.6378 24.3231L10.6379 24.323L10.6348 24.3203C8.86178 22.7814 7.82477 20.5401 7.82477 18.165C7.82477 13.6488 11.4711 10.0025 15.9873 10.0025C20.5034 10.0025 24.1497 13.6488 24.1497 18.165C24.1497 20.5406 23.146 22.7817 21.3734 24.3203Z" fill="#0023B5" stroke="#0023B5" stroke-width="0.1"/>
<path d="M15.9862 11.1824C15.6557 11.1824 15.3641 11.4741 15.3641 11.8046L23.2563 18.5025L23.3063 18.5029C23.3063 18.5028 23.3063 18.5028 23.3063 18.5027C23.3401 14.4693 20.0525 11.1824 15.9862 11.1824Z" fill="#0023B5" stroke="#0023B5" stroke-width="0.1"/>
<path d="M19.6957 34.0355V34.0355L19.6978 34.0354C20.5289 34.0008 21.193 33.3761 21.193 32.5718C21.193 31.7701 20.5311 31.1082 19.7294 31.1082H12.2574C11.4556 31.1082 10.7937 31.7701 10.7937 32.5718C10.7937 33.3736 11.4556 34.0355 12.2574 34.0355H19.6957ZM19.7294 32.7574H12.2574C12.1462 32.7574 12.0381 32.6748 12.0381 32.5382C12.0381 32.4641 12.0602 32.4106 12.095 32.3758C12.1298 32.3409 12.1833 32.3189 12.2574 32.3189H19.6957C19.8069 32.3189 19.915 32.4015 19.915 32.5382C19.915 32.6123 19.8929 32.6669 19.8607 32.7023C19.8288 32.7374 19.7836 32.7574 19.7294 32.7574Z" fill="#0023B5" stroke="#0023B5" stroke-width="0.1"/>
<path d="M18.6095 34.5066H13.3589C12.5572 34.5066 11.8953 35.1685 11.8953 35.9703C11.8953 36.772 12.5572 37.4339 13.3589 37.4339H18.6095C19.4113 37.4339 20.0732 36.772 20.0732 35.9703C20.0732 35.1341 19.4105 34.5066 18.6095 34.5066ZM18.6095 36.1559H13.3589C13.2477 36.1559 13.1397 36.0733 13.1397 35.9366C13.1397 35.8625 13.1617 35.8091 13.1966 35.7742C13.2314 35.7394 13.2848 35.7173 13.3589 35.7173H18.6095C18.7207 35.7173 18.8288 35.7999 18.8288 35.9366C18.8288 36.0733 18.7207 36.1559 18.6095 36.1559Z" fill="#0023B5" stroke="#0023B5" stroke-width="0.1"/>
<path d="M15.9862 6.09866C16.3523 6.09866 16.6084 5.80507 16.6084 5.47648V1.57218C16.6084 1.24165 16.3168 0.95 15.9862 0.95C15.6557 0.95 15.3641 1.24165 15.3641 1.57218V5.47648C15.3641 5.80701 15.6557 6.09866 15.9862 6.09866Z" fill="#0023B5" stroke="#0023B5" stroke-width="0.1"/>
<path d="M24.6996 3.999L24.6996 3.99899L24.6987 4.00033L22.5453 7.23034C22.3279 7.52159 22.3993 7.9245 22.6937 8.10901C22.801 8.18041 22.9112 8.21797 23.0237 8.21797C23.2435 8.21797 23.4275 8.10756 23.5372 7.92547L25.689 4.69775C25.9094 4.43762 25.8335 4.03539 25.5427 3.85217C25.2472 3.63199 24.8807 3.74547 24.6996 3.999Z" fill="#0023B5" stroke="#0023B5" stroke-width="0.1"/>
<path d="M9.66576 7.0999L9.66576 7.0999L9.66548 7.09947L7.57897 3.8351C7.57893 3.83503 7.57888 3.83495 7.57883 3.83488C7.3944 3.54007 6.99251 3.46953 6.70229 3.65091C6.40729 3.83528 6.33667 4.2373 6.5181 4.5276L6.5181 4.5276L6.51837 4.52803L8.60515 7.79283L8.60514 7.79283L8.60568 7.79363C8.67708 7.90073 8.75907 7.97446 8.85211 8.02098C8.94492 8.06739 9.0456 8.08516 9.15215 8.08516C9.26462 8.08516 9.37488 8.0476 9.4822 7.97619C9.77666 7.79164 9.84706 7.38999 9.66576 7.0999Z" fill="#0023B5" stroke="#0023B5" stroke-width="0.1"/>
<path d="M1.70724 9.70687L1.70725 9.70684L1.70568 9.70606C1.41548 9.56096 1.01485 9.6666 0.865544 9.9619C0.683834 10.2553 0.793125 10.6576 1.12262 10.8054L4.52032 12.6556L4.51994 12.6563L4.52842 12.6591C4.54721 12.6654 4.56539 12.6719 4.58335 12.6784C4.65558 12.7044 4.72412 12.729 4.81349 12.729C5.03161 12.729 5.25247 12.6197 5.36308 12.3984C5.5084 12.1078 5.40222 11.7064 5.10591 11.5576L1.70724 9.70687Z" fill="#0023B5" stroke="#0023B5" stroke-width="0.1"/>
<path d="M30.2995 9.70606L30.2994 9.70604L30.2981 9.70677L26.8657 11.5576C26.5693 11.7063 26.4631 12.1078 26.6084 12.3984C26.719 12.6197 26.9399 12.729 27.158 12.729C27.2689 12.729 27.3776 12.6924 27.4496 12.6564L27.4496 12.6564L27.451 12.6557L30.8834 10.8049C31.1798 10.6561 31.286 10.2547 31.1407 9.96402C30.9922 9.66711 30.5904 9.56061 30.2995 9.70606Z" fill="#0023B5" stroke="#0023B5" stroke-width="0.1"/>
</svg>
