<svg width="34" height="34" viewBox="0 0 34 34" fill="none" xmlns="http://www.w3.org/2000/svg">
<g clip-path="url(#clip0_459_814)">
<path d="M16.4185 34.1567C16.2669 34.1567 16.1214 34.0965 16.0141 33.9892C15.9069 33.8819 15.8466 33.7365 15.8466 33.5848V32.5485C15.7322 32.2528 15.3462 31.2966 14.8515 30.0613L13.5996 26.9341C12.9166 25.2237 12.5165 23.4136 12.4152 21.5747C12.3904 21.3441 12.4174 21.1109 12.4943 20.8921C12.5711 20.6733 12.6959 20.4744 12.8594 20.31C13.023 20.1456 13.2212 20.0198 13.4396 19.9417C13.658 19.8637 13.891 19.8354 14.1217 19.859H14.1355C14.1469 19.859 14.1601 19.859 14.1721 19.859C15.154 19.8945 15.9313 21.1961 16.4185 22.6213V18.8095V14.9978C16.4185 14.4669 16.6294 13.9578 17.0048 13.5824C17.3802 13.207 17.8893 12.9961 18.4202 12.9961C18.9511 12.9961 19.4602 13.207 19.8356 13.5824C20.211 13.9578 20.4219 14.4669 20.4219 14.9978V23.8624C20.4219 24.014 20.3616 24.1595 20.2544 24.2668C20.1471 24.374 20.0017 24.4343 19.85 24.4343C19.6983 24.4343 19.5528 24.374 19.4456 24.2668C19.3383 24.1595 19.2781 24.014 19.2781 23.8624V14.9978C19.2781 14.7703 19.1877 14.5521 19.0268 14.3912C18.8659 14.2303 18.6477 14.1399 18.4202 14.1399C18.1927 14.1399 17.9745 14.2303 17.8136 14.3912C17.6527 14.5521 17.5623 14.7703 17.5623 14.9978V23.8624C17.5622 23.9238 17.5522 23.9848 17.5326 24.0431L16.9607 25.7588C16.9176 25.8873 16.8301 25.9964 16.7141 26.0664C16.598 26.1365 16.4608 26.163 16.327 26.1413C16.1931 26.1196 16.0714 26.0511 15.9834 25.9479C15.8954 25.8447 15.8469 25.7137 15.8466 25.5781C15.8466 23.7114 14.6456 21.008 14.1309 21.0028C13.7546 21.0028 13.559 21.0331 13.559 21.5747C13.6642 23.2667 14.0362 24.9315 14.6611 26.5074L15.913 29.6386C16.3201 30.5489 16.6667 31.485 16.9504 32.441H16.9904V33.5848C16.9904 33.7365 16.9302 33.8819 16.8229 33.9892C16.7157 34.0965 16.5702 34.1567 16.4185 34.1567Z" fill="#0023B5"/>
<path d="M22.7127 24.4334C22.561 24.4334 22.4156 24.3731 22.3083 24.2659C22.201 24.1586 22.1408 24.0132 22.1408 23.8615V23.0036C22.1408 22.7761 22.0504 22.5579 21.8895 22.397C21.7287 22.2362 21.5104 22.1458 21.2829 22.1458C21.0554 22.1458 20.8372 22.2362 20.6763 22.397C20.5154 22.5579 20.4251 22.7761 20.4251 23.0036V23.8615C20.4251 24.0132 20.3648 24.1586 20.2576 24.2659C20.1503 24.3731 20.0048 24.4334 19.8532 24.4334C19.7015 24.4334 19.556 24.3731 19.4488 24.2659C19.3415 24.1586 19.2812 24.0132 19.2812 23.8615V23.0036C19.2812 22.4728 19.4921 21.9636 19.8675 21.5882C20.2429 21.2128 20.7521 21.002 21.2829 21.002C21.8138 21.002 22.3229 21.2128 22.6983 21.5882C23.0737 21.9636 23.2846 22.4728 23.2846 23.0036V23.8615C23.2846 24.0132 23.2244 24.1586 23.1171 24.2659C23.0098 24.3731 22.8644 24.4334 22.7127 24.4334Z" fill="#0023B5"/>
<path d="M25.5721 24.4334C25.4204 24.4334 25.2749 24.3731 25.1677 24.2659C25.0604 24.1586 25.0002 24.0132 25.0002 23.8615V23.0036C25.0002 22.7761 24.9098 22.5579 24.7489 22.397C24.588 22.2362 24.3698 22.1458 24.1423 22.1458C23.9148 22.1458 23.6966 22.2362 23.5357 22.397C23.3748 22.5579 23.2844 22.7761 23.2844 23.0036V23.8615C23.2844 24.0132 23.2242 24.1586 23.1169 24.2659C23.0097 24.3731 22.8642 24.4334 22.7125 24.4334C22.5609 24.4334 22.4154 24.3731 22.3081 24.2659C22.2009 24.1586 22.1406 24.0132 22.1406 23.8615V23.0036C22.1406 22.4728 22.3515 21.9636 22.7269 21.5882C23.1023 21.2128 23.6114 21.002 24.1423 21.002C24.6732 21.002 25.1823 21.2128 25.5577 21.5882C25.9331 21.9636 26.144 22.4728 26.144 23.0036V23.8615C26.144 24.0132 26.0837 24.1586 25.9765 24.2659C25.8692 24.3731 25.7238 24.4334 25.5721 24.4334Z" fill="#0023B5"/>
<path d="M27.2916 34.1558C27.14 34.1558 26.9945 34.0956 26.8872 33.9883C26.78 33.8811 26.7197 33.7356 26.7197 33.5839V32.7833C26.7192 32.445 26.8187 32.1141 27.0057 31.8322L27.5736 30.9806C27.761 30.6987 27.8605 30.3675 27.8595 30.029V23.0036C27.8595 22.7761 27.7692 22.5579 27.6083 22.397C27.4474 22.2362 27.2292 22.1458 27.0017 22.1458C26.7742 22.1458 26.556 22.2362 26.3951 22.397C26.2342 22.5579 26.1438 22.7761 26.1438 23.0036C26.1438 23.1553 26.0836 23.3008 25.9763 23.408C25.8691 23.5153 25.7236 23.5755 25.5719 23.5755C25.4202 23.5755 25.2748 23.5153 25.1675 23.408C25.0603 23.3008 25 23.1553 25 23.0036C25 22.4728 25.2109 21.9636 25.5863 21.5882C25.9617 21.2128 26.4708 21.002 27.0017 21.002C27.5326 21.002 28.0417 21.2128 28.4171 21.5882C28.7925 21.9636 29.0034 22.4728 29.0034 23.0036V30.0318C29.0039 30.5963 28.8369 31.1482 28.5235 31.6177L27.9562 32.4693C27.8936 32.5631 27.8602 32.6734 27.8601 32.7861V33.5839C27.8601 33.735 27.8003 33.88 27.6938 33.9871C27.5873 34.0943 27.4427 34.1549 27.2916 34.1558Z" fill="#0023B5"/>
<path d="M14.136 31.2962H13.5641C13.4124 31.2962 13.2669 31.2359 13.1597 31.1287C13.0524 31.0214 12.9922 30.8759 12.9922 30.7243C12.9922 30.5726 13.0524 30.4271 13.1597 30.3199C13.2669 30.2126 13.4124 30.1523 13.5641 30.1523H14.136C14.2877 30.1523 14.4332 30.2126 14.5404 30.3199C14.6477 30.4271 14.7079 30.5726 14.7079 30.7243C14.7079 30.8759 14.6477 31.0214 14.5404 31.1287C14.4332 31.2359 14.2877 31.2962 14.136 31.2962Z" fill="#0023B5"/>
<path d="M25.0016 20.4314C24.8499 20.4314 24.7044 20.3712 24.5972 20.2639C24.4899 20.1566 24.4297 20.0112 24.4297 19.8595V4.98988C24.4297 4.8382 24.4899 4.69273 24.5972 4.58548C24.7044 4.47822 24.8499 4.41797 25.0016 4.41797C25.1533 4.41797 25.2987 4.47822 25.406 4.58548C25.5133 4.69273 25.5735 4.8382 25.5735 4.98988V19.8595C25.5735 20.0112 25.5133 20.1566 25.406 20.2639C25.2987 20.3712 25.1533 20.4314 25.0016 20.4314Z" fill="#0023B5"/>
<path d="M5.55628 29.0091C5.4046 29.0091 5.25914 28.9489 5.15188 28.8416C5.04463 28.7344 4.98438 28.5889 4.98438 28.4372V2.70134C4.98528 1.94322 5.28685 1.21641 5.82292 0.68034C6.35899 0.144269 7.0858 -0.157295 7.84392 -0.158203H22.7135C23.4717 -0.157295 24.1985 0.144269 24.7345 0.68034C25.2706 1.21641 25.5722 1.94322 25.5731 2.70134V3.27325C25.5731 3.42493 25.5128 3.57039 25.4056 3.67765C25.2983 3.7849 25.1528 3.84516 25.0012 3.84516C24.8495 3.84516 24.704 3.7849 24.5968 3.67765C24.4895 3.57039 24.4293 3.42493 24.4293 3.27325V2.70134C24.4293 2.2463 24.2485 1.8099 23.9267 1.48814C23.605 1.16638 23.1686 0.985614 22.7135 0.985614H7.84392C7.38888 0.985614 6.95248 1.16638 6.63072 1.48814C6.30895 1.8099 6.12819 2.2463 6.12819 2.70134V28.4372C6.12819 28.5889 6.06794 28.7344 5.96068 28.8416C5.85343 28.9489 5.70796 29.0091 5.55628 29.0091Z" fill="#0023B5"/>
<path d="M14.7068 34.1553H7.84392C7.0858 34.1544 6.35899 33.8529 5.82292 33.3168C5.28685 32.7807 4.98528 32.0539 4.98438 31.2958V30.152C4.98438 30.0003 5.04463 29.8548 5.15188 29.7476C5.25914 29.6403 5.4046 29.5801 5.55628 29.5801C5.70796 29.5801 5.85343 29.6403 5.96068 29.7476C6.06794 29.8548 6.12819 30.0003 6.12819 30.152V31.2958C6.12819 31.7508 6.30895 32.1872 6.63072 32.509C6.95248 32.8308 7.38888 33.0115 7.84392 33.0115H14.7068C14.8585 33.0115 15.004 33.0718 15.1112 33.179C15.2185 33.2863 15.2787 33.4318 15.2787 33.5834C15.2787 33.7351 15.2185 33.8806 15.1112 33.9878C15.004 34.0951 14.8585 34.1553 14.7068 34.1553Z" fill="#0023B5"/>
<path d="M18.7097 3.84499H14.1344C13.9827 3.84499 13.8373 3.78473 13.73 3.67748C13.6228 3.57023 13.5625 3.42476 13.5625 3.27308C13.5625 3.1214 13.6228 2.97593 13.73 2.86868C13.8373 2.76143 13.9827 2.70117 14.1344 2.70117H18.7097C18.8614 2.70117 19.0068 2.76143 19.1141 2.86868C19.2213 2.97593 19.2816 3.1214 19.2816 3.27308C19.2816 3.42476 19.2213 3.57023 19.1141 3.67748C19.0068 3.78473 18.8614 3.84499 18.7097 3.84499Z" fill="#0023B5"/>
<path d="M12.4173 3.84499H11.8453C11.6937 3.84499 11.5482 3.78473 11.4409 3.67748C11.3337 3.57023 11.2734 3.42476 11.2734 3.27308C11.2734 3.1214 11.3337 2.97593 11.4409 2.86868C11.5482 2.76143 11.6937 2.70117 11.8453 2.70117H12.4173C12.5689 2.70117 12.7144 2.76143 12.8217 2.86868C12.9289 2.97593 12.9892 3.1214 12.9892 3.27308C12.9892 3.42476 12.9289 3.57023 12.8217 3.67748C12.7144 3.78473 12.5689 3.84499 12.4173 3.84499Z" fill="#0023B5"/>
<path d="M15.2812 19.2866C13.8447 19.2854 12.4448 18.8331 11.2792 17.9935C10.1135 17.154 9.24101 15.9695 8.78475 14.6074C8.3285 13.2453 8.31154 11.7742 8.73628 10.402C9.16102 9.02967 10.006 7.82542 11.152 6.9592C12.2979 6.09298 13.687 5.60853 15.1231 5.57422C16.5592 5.53992 17.9698 5.95749 19.1558 6.768C20.3419 7.57852 21.2434 8.74104 21.7332 10.0915C22.223 11.4419 22.2763 12.9121 21.8856 14.2944C21.8672 14.3689 21.8341 14.439 21.7882 14.5004C21.7422 14.5618 21.6844 14.6134 21.6181 14.652C21.5518 14.6906 21.4784 14.7155 21.4023 14.7252C21.3262 14.7348 21.249 14.7291 21.1751 14.7083C21.1013 14.6875 21.0324 14.6521 20.9725 14.6041C20.9127 14.5561 20.8631 14.4966 20.8267 14.4291C20.7903 14.3615 20.7679 14.2874 20.7608 14.211C20.7536 14.1346 20.762 14.0576 20.7852 13.9845C21.1123 12.8315 21.0689 11.6049 20.6611 10.478C20.2534 9.35104 19.5019 8.38065 18.5129 7.70386C17.5238 7.02708 16.3472 6.6781 15.149 6.70622C13.9509 6.73433 12.7919 7.13812 11.8357 7.86055C10.8795 8.58298 10.1744 9.58755 9.81994 10.7324C9.46552 11.8772 9.4797 13.1045 9.86047 14.2408C10.2412 15.3772 10.9694 16.3652 11.942 17.0653C12.9147 17.7655 14.0827 18.1424 15.2812 18.1428C15.4328 18.1428 15.5783 18.2031 15.6856 18.3103C15.7928 18.4176 15.8531 18.563 15.8531 18.7147C15.8531 18.8664 15.7928 19.0119 15.6856 19.1191C15.5783 19.2264 15.4328 19.2866 15.2812 19.2866Z" fill="#0023B5"/>
<path d="M13.5619 15.2824C13.4102 15.2823 13.2647 15.2221 13.1575 15.1148L11.4418 13.3991C11.3376 13.2912 11.28 13.1467 11.2813 12.9968C11.2826 12.8468 11.3427 12.7034 11.4488 12.5974C11.5548 12.4913 11.6982 12.4312 11.8482 12.4299C11.9981 12.4286 12.1426 12.4862 12.2505 12.5904L13.5619 13.9018L17.7328 9.73085C17.8406 9.62668 17.9851 9.56903 18.1351 9.57033C18.285 9.57164 18.4285 9.63178 18.5345 9.73782C18.6405 9.84386 18.7007 9.9873 18.702 10.1373C18.7033 10.2872 18.6456 10.4317 18.5415 10.5395L13.9662 15.1148C13.859 15.2221 13.7135 15.2823 13.5619 15.2824Z" fill="#0023B5"/>
</g>
<defs>
<clipPath id="clip0_459_814">
<rect width="34" height="34" fill="white"/>
</clipPath>
</defs>
</svg>
