<svg width="35" height="35" viewBox="0 0 35 35" fill="none" xmlns="http://www.w3.org/2000/svg">
<path d="M30.3359 18.332C29.9823 18.332 29.6432 18.4725 29.3931 18.7226C29.1431 18.9726 29.0026 19.3117 29.0026 19.6654V25.2827C29.0015 26.2679 28.6097 27.2125 27.913 27.9091C27.2164 28.6058 26.2718 28.9976 25.2866 28.9987H8.7186C7.73339 28.9976 6.78882 28.6058 6.09216 27.9091C5.39551 27.2125 5.00366 26.2679 5.0026 25.2827V19.6654C5.0026 19.3117 4.86213 18.9726 4.61208 18.7226C4.36203 18.4725 4.02289 18.332 3.66927 18.332C3.31565 18.332 2.97651 18.4725 2.72646 18.7226C2.47641 18.9726 2.33594 19.3117 2.33594 19.6654V25.2827C2.3377 26.9749 3.01073 28.5974 4.20733 29.794C5.40393 30.9906 7.02636 31.6636 8.7186 31.6654H25.2866C26.9789 31.6636 28.6013 30.9906 29.7979 29.794C30.9945 28.5974 31.6675 26.9749 31.6693 25.2827V19.6654C31.6693 19.3117 31.5288 18.9726 31.2787 18.7226C31.0287 18.4725 30.6896 18.332 30.3359 18.332Z" fill="#0023B5"/>
<path d="M9.9393 12.6097L15.6633 6.8857V23.667C15.6633 24.0207 15.8038 24.3598 16.0538 24.6098C16.3039 24.8599 16.643 25.0004 16.9966 25.0004C17.3503 25.0004 17.6894 24.8599 17.9394 24.6098C18.1895 24.3598 18.33 24.0207 18.33 23.667V6.8857L24.054 12.6097C24.3054 12.8526 24.6422 12.987 24.9918 12.9839C25.3414 12.9809 25.6758 12.8407 25.9231 12.5935C26.1703 12.3462 26.3105 12.0118 26.3135 11.6622C26.3166 11.3126 26.1822 10.9758 25.9393 10.7244L17.9393 2.72437C17.6893 2.4744 17.3502 2.33398 16.9966 2.33398C16.6431 2.33398 16.304 2.4744 16.054 2.72437L8.05397 10.7244C7.81109 10.9758 7.6767 11.3126 7.67974 11.6622C7.68278 12.0118 7.823 12.3462 8.07021 12.5935C8.31742 12.8407 8.65184 12.9809 9.00144 12.9839C9.35103 12.987 9.68783 12.8526 9.9393 12.6097Z" fill="#0023B5"/>
</svg>
