<svg width="37" height="29" viewBox="0 0 37 29" fill="none" xmlns="http://www.w3.org/2000/svg">
<path d="M33.6532 0.870972H7.86828C7.18447 0.871932 6.52247 1.11168 5.99662 1.5488C5.47077 1.98592 5.1141 2.59297 4.9882 3.26509C4.4069 3.37438 3.87214 3.65662 3.45389 4.07486C3.03565 4.49311 2.75341 5.02787 2.64412 5.60918C1.972 5.73507 1.36495 6.09174 0.927829 6.61759C0.490707 7.14344 0.25096 7.80544 0.25 8.48925V26.0699C0.250872 26.8467 0.55986 27.5915 1.10917 28.1408C1.65848 28.6901 2.40326 28.9991 3.18011 29H28.9651C29.6489 28.999 30.3109 28.7593 30.8367 28.3222C31.3626 27.8851 31.7192 27.278 31.8451 26.6059C32.4264 26.4966 32.9612 26.2144 33.3794 25.7961C33.7977 25.3779 34.0799 24.8431 34.1892 24.2618C34.8613 24.1359 35.4684 23.7792 35.9055 23.2534C36.3426 22.7275 36.5824 22.0655 36.5833 21.3817V3.80108C36.5825 3.02423 36.2735 2.27946 35.7242 1.73014C35.1748 1.18083 34.4301 0.871844 33.6532 0.870972ZM1.42204 8.48925C1.42257 8.02314 1.60796 7.57628 1.93755 7.24669C2.26713 6.9171 2.714 6.73171 3.18011 6.73119H28.9651C29.4312 6.73171 29.878 6.9171 30.2076 7.24669C30.5372 7.57628 30.7226 8.02314 30.7231 8.48925V9.07527H1.42204V8.48925ZM30.7231 26.0699C30.7226 26.536 30.5372 26.9829 30.2076 27.3125C29.878 27.642 29.4312 27.8274 28.9651 27.828H3.18011C2.714 27.8274 2.26713 27.642 1.93755 27.3125C1.60796 26.9829 1.42257 26.536 1.42204 26.0699V10.2473H30.7231V26.0699ZM33.0672 23.7258C33.0667 24.0892 32.9539 24.4436 32.744 24.7403C32.5342 25.037 32.2377 25.2616 31.8952 25.3831V8.48925C31.8943 7.71241 31.5853 6.96763 31.036 6.41832C30.4867 5.869 29.7419 5.56002 28.9651 5.55914H3.86692C3.98845 5.21664 4.21297 4.92013 4.50968 4.71029C4.8064 4.50045 5.16077 4.38756 5.52419 4.3871H31.3091C31.7752 4.38762 32.2221 4.57302 32.5517 4.9026C32.8813 5.23219 33.0667 5.67906 33.0672 6.14516V23.7258ZM35.4113 21.3817C35.4108 21.7451 35.2979 22.0995 35.0881 22.3962C34.8783 22.6929 34.5817 22.9175 34.2392 23.039V6.14516C34.2384 5.36832 33.9294 4.62354 33.3801 4.07423C32.8308 3.52492 32.086 3.21593 31.3091 3.21506H6.21101C6.33253 2.87256 6.55705 2.57605 6.85377 2.36621C7.15048 2.15637 7.50486 2.04347 7.86828 2.04301H33.6532C34.1193 2.04354 34.5662 2.22893 34.8958 2.55852C35.2254 2.88811 35.4108 3.33497 35.4113 3.80108V21.3817Z" fill="#0023B5"/>
<path d="M3.18758 8.48833C3.51123 8.48833 3.77361 8.22596 3.77361 7.90231C3.77361 7.57865 3.51123 7.31628 3.18758 7.31628C2.86393 7.31628 2.60156 7.57865 2.60156 7.90231C2.60156 8.22596 2.86393 8.48833 3.18758 8.48833Z" fill="#0023B5"/>
<path d="M5.52352 8.48833C5.84717 8.48833 6.10954 8.22596 6.10954 7.90231C6.10954 7.57865 5.84717 7.31628 5.52352 7.31628C5.19987 7.31628 4.9375 7.57865 4.9375 7.90231C4.9375 8.22596 5.19987 8.48833 5.52352 8.48833Z" fill="#0023B5"/>
<path d="M7.8829 8.48833C8.20655 8.48833 8.46892 8.22596 8.46892 7.90231C8.46892 7.57865 8.20655 7.31628 7.8829 7.31628C7.55925 7.31628 7.29688 7.57865 7.29688 7.90231C7.29688 8.22596 7.55925 8.48833 7.8829 8.48833Z" fill="#0023B5"/>
<path d="M9.62508 22.5541H22.5176C22.673 22.5541 22.822 22.4924 22.9319 22.3825C23.0418 22.2726 23.1036 22.1235 23.1036 21.9681V12.5918C23.1036 12.4363 23.0418 12.2873 22.9319 12.1774C22.822 12.0675 22.673 12.0057 22.5176 12.0057H9.62508C9.46966 12.0057 9.3206 12.0675 9.2107 12.1774C9.1008 12.2873 9.03906 12.4363 9.03906 12.5918V21.9681C9.03906 22.1235 9.1008 22.2726 9.2107 22.3825C9.3206 22.4924 9.46966 22.5541 9.62508 22.5541ZM10.2111 13.1778H21.9315V21.3821H10.2111V13.1778Z" fill="#0023B5"/>
<path d="M14.6206 18.3773C14.7117 18.4282 14.8146 18.4538 14.9188 18.4516C15.0231 18.4494 15.1248 18.4195 15.2136 18.3649L18.0705 16.6068C18.1557 16.5543 18.2261 16.4809 18.2749 16.3936C18.3237 16.3062 18.3493 16.2078 18.3493 16.1077C18.3493 16.0076 18.3237 15.9092 18.2749 15.8219C18.2261 15.7345 18.1557 15.6611 18.0705 15.6086L15.2136 13.8506C15.1248 13.7959 15.023 13.7659 14.9188 13.7637C14.8145 13.7615 14.7116 13.7871 14.6205 13.838C14.5295 13.8888 14.4537 13.9631 14.4009 14.053C14.3481 14.143 14.3203 14.2454 14.3203 14.3497V17.8658C14.3203 17.9701 14.3482 18.0724 14.401 18.1623C14.4538 18.2523 14.5296 18.3265 14.6206 18.3773ZM15.4924 15.3983L16.6451 16.1077L15.4924 16.8171V15.3983Z" fill="#0023B5"/>
<path d="M20.1809 19.0371H19.0089C19.0089 18.8816 18.9472 18.7326 18.8373 18.6227C18.7274 18.5128 18.5783 18.451 18.4229 18.451C18.2675 18.451 18.1184 18.5128 18.0085 18.6227C17.8986 18.7326 17.8369 18.8816 17.8369 19.0371H11.9766C11.8212 19.0371 11.6722 19.0988 11.5623 19.2087C11.4524 19.3186 11.3906 19.4677 11.3906 19.6231C11.3906 19.7785 11.4524 19.9276 11.5623 20.0375C11.6722 20.1474 11.8212 20.2091 11.9766 20.2091H17.8369C17.8369 20.3645 17.8986 20.5136 18.0085 20.6235C18.1184 20.7334 18.2675 20.7951 18.4229 20.7951C18.5783 20.7951 18.7274 20.7334 18.8373 20.6235C18.9472 20.5136 19.0089 20.3645 19.0089 20.2091H20.1809C20.3364 20.2091 20.4854 20.1474 20.5953 20.0375C20.7052 19.9276 20.767 19.7785 20.767 19.6231C20.767 19.4677 20.7052 19.3186 20.5953 19.2087C20.4854 19.0988 20.3364 19.0371 20.1809 19.0371Z" fill="#0023B5"/>
</svg>
