<svg width="38" height="35" viewBox="0 0 38 35" fill="none" xmlns="http://www.w3.org/2000/svg">
<mask id="path-1-outside-1_459_2337" maskUnits="userSpaceOnUse" x="0" y="0" width="38" height="35" fill="black">
<rect fill="white" width="38" height="35"/>
<path d="M33.3893 1H4.61209C2.62006 1 1 2.63016 1 4.63303V25.398C1 27.4009 2.62006 29.0303 4.61139 29.0303H10.7583V32.623C10.7583 33.3826 11.3729 34 12.1274 34H25.675C26.4302 34 27.0441 33.3819 27.0441 32.623V29.0303H33.3886C35.3799 29.0303 37 27.4009 37 25.398V4.63303C37.0014 2.63016 35.3813 1 33.3893 1ZM21.177 22.1985H16.6269C14.8507 22.1985 13.2574 22.9976 12.1808 24.2551H5.74979V5.77733H32.2516V24.2551H25.6237C24.5465 22.9976 22.9531 22.1985 21.177 22.1985ZM19.5548 27.7043L18.9023 28.8669L18.249 27.7043L18.6555 23.3293H19.1498L19.5548 27.7043ZM25.9211 32.623C25.9211 32.7567 25.8086 32.8699 25.6757 32.8699H22.6001V28.4652C22.6001 28.1526 22.3484 27.9002 22.0383 27.9002C21.7282 27.9002 21.4765 28.1533 21.4765 28.4652V32.8699H16.328V28.4652C16.328 28.1526 16.0763 27.9002 15.7662 27.9002C15.4561 27.9002 15.2044 28.1533 15.2044 28.4652V32.8699H12.1288C11.9959 32.8699 11.8834 32.7567 11.8834 32.623V28.1003C11.8834 27.014 12.2469 26.0126 12.8566 25.2099C12.8812 25.1844 12.903 25.1561 12.9219 25.1257C13.7917 24.0316 15.1291 23.3286 16.6269 23.3286H17.5269L17.1141 27.775C17.1036 27.8895 17.1282 28.0055 17.1845 28.106L18.4143 30.2948C18.5141 30.4723 18.7012 30.582 18.9037 30.582C19.1062 30.582 19.2932 30.4716 19.3931 30.2941L20.6208 28.1053C20.677 28.0048 20.7016 27.8895 20.6911 27.775L20.2797 23.3286H21.1777C22.6754 23.3286 24.0128 24.0316 24.8826 25.125C24.9016 25.1554 24.9241 25.1837 24.9487 25.2091C25.5583 26.0119 25.9218 27.014 25.9218 28.0996V32.623H25.9211ZM35.8771 25.398C35.8771 26.7778 34.7612 27.9002 33.3893 27.9002H27.0398C27.0096 26.9963 26.7769 26.1434 26.3845 25.3867H32.8127C33.1235 25.3867 33.3745 25.1335 33.3745 24.8216V5.21225C33.3745 4.90037 33.1228 4.64718 32.8127 4.64718H5.18798C4.87789 4.64718 4.62616 4.90037 4.62616 5.21225V24.8209C4.62616 25.1335 4.87789 25.386 5.18798 25.386H11.4193C11.0277 26.1434 10.7942 26.9956 10.7647 27.8994H4.61209C3.24024 27.8994 2.12434 26.7771 2.12434 25.3973V4.63303C2.12434 3.25323 3.24024 2.13086 4.61209 2.13086H33.39C34.7619 2.13086 35.8778 3.25323 35.8778 4.63303V25.398H35.8771ZM18.903 13.2174C16.5277 13.2174 14.5955 15.1608 14.5955 17.5499C14.5955 19.9389 16.5277 21.8823 18.903 21.8823C21.2768 21.8823 23.2084 19.9389 23.2084 17.5499C23.2084 15.1608 21.2768 13.2174 18.903 13.2174ZM18.903 20.7508C17.1479 20.7508 15.7198 19.3144 15.7198 17.5492C15.7198 15.7839 17.1479 14.3475 18.903 14.3475C20.6573 14.3475 22.084 15.7839 22.084 17.5492C22.084 19.3151 20.6573 20.7508 18.903 20.7508ZM28.771 10.0398C28.771 10.3517 28.5193 10.6049 28.2092 10.6049H9.79222C9.48143 10.6049 9.2304 10.3517 9.2304 10.0398C9.2304 9.72791 9.48213 9.47472 9.79222 9.47472H28.2092C28.52 9.47472 28.771 9.7272 28.771 10.0398ZM28.771 15.0152C28.771 15.327 28.5193 15.5802 28.2092 15.5802H25.1758C24.865 15.5802 24.614 15.327 24.614 15.0152C24.614 14.7033 24.8657 14.4501 25.1758 14.4501H28.2092C28.52 14.4501 28.771 14.7033 28.771 15.0152ZM13.1906 15.0152C13.1906 15.327 12.9388 15.5802 12.6287 15.5802H9.79222C9.48143 15.5802 9.2304 15.327 9.2304 15.0152C9.2304 14.7033 9.48213 14.4501 9.79222 14.4501H12.6287C12.9388 14.4501 13.1906 14.7033 13.1906 15.0152ZM28.771 19.9912C28.771 20.3038 28.5193 20.5563 28.2092 20.5563H25.2116C24.9016 20.5563 24.6498 20.3031 24.6498 19.9912C24.6498 19.6793 24.9016 19.4261 25.2116 19.4261H28.2092C28.52 19.4261 28.771 19.6793 28.771 19.9912ZM13.1547 19.9912C13.1547 20.3038 12.903 20.5563 12.5929 20.5563H9.79222C9.48143 20.5563 9.2304 20.3031 9.2304 19.9912C9.2304 19.6793 9.48213 19.4261 9.79222 19.4261H12.5929C12.903 19.4261 13.1547 19.6793 13.1547 19.9912Z"/>
</mask>
<path d="M33.3893 1H4.61209C2.62006 1 1 2.63016 1 4.63303V25.398C1 27.4009 2.62006 29.0303 4.61139 29.0303H10.7583V32.623C10.7583 33.3826 11.3729 34 12.1274 34H25.675C26.4302 34 27.0441 33.3819 27.0441 32.623V29.0303H33.3886C35.3799 29.0303 37 27.4009 37 25.398V4.63303C37.0014 2.63016 35.3813 1 33.3893 1ZM21.177 22.1985H16.6269C14.8507 22.1985 13.2574 22.9976 12.1808 24.2551H5.74979V5.77733H32.2516V24.2551H25.6237C24.5465 22.9976 22.9531 22.1985 21.177 22.1985ZM19.5548 27.7043L18.9023 28.8669L18.249 27.7043L18.6555 23.3293H19.1498L19.5548 27.7043ZM25.9211 32.623C25.9211 32.7567 25.8086 32.8699 25.6757 32.8699H22.6001V28.4652C22.6001 28.1526 22.3484 27.9002 22.0383 27.9002C21.7282 27.9002 21.4765 28.1533 21.4765 28.4652V32.8699H16.328V28.4652C16.328 28.1526 16.0763 27.9002 15.7662 27.9002C15.4561 27.9002 15.2044 28.1533 15.2044 28.4652V32.8699H12.1288C11.9959 32.8699 11.8834 32.7567 11.8834 32.623V28.1003C11.8834 27.014 12.2469 26.0126 12.8566 25.2099C12.8812 25.1844 12.903 25.1561 12.9219 25.1257C13.7917 24.0316 15.1291 23.3286 16.6269 23.3286H17.5269L17.1141 27.775C17.1036 27.8895 17.1282 28.0055 17.1845 28.106L18.4143 30.2948C18.5141 30.4723 18.7012 30.582 18.9037 30.582C19.1062 30.582 19.2932 30.4716 19.3931 30.2941L20.6208 28.1053C20.677 28.0048 20.7016 27.8895 20.6911 27.775L20.2797 23.3286H21.1777C22.6754 23.3286 24.0128 24.0316 24.8826 25.125C24.9016 25.1554 24.9241 25.1837 24.9487 25.2091C25.5583 26.0119 25.9218 27.014 25.9218 28.0996V32.623H25.9211ZM35.8771 25.398C35.8771 26.7778 34.7612 27.9002 33.3893 27.9002H27.0398C27.0096 26.9963 26.7769 26.1434 26.3845 25.3867H32.8127C33.1235 25.3867 33.3745 25.1335 33.3745 24.8216V5.21225C33.3745 4.90037 33.1228 4.64718 32.8127 4.64718H5.18798C4.87789 4.64718 4.62616 4.90037 4.62616 5.21225V24.8209C4.62616 25.1335 4.87789 25.386 5.18798 25.386H11.4193C11.0277 26.1434 10.7942 26.9956 10.7647 27.8994H4.61209C3.24024 27.8994 2.12434 26.7771 2.12434 25.3973V4.63303C2.12434 3.25323 3.24024 2.13086 4.61209 2.13086H33.39C34.7619 2.13086 35.8778 3.25323 35.8778 4.63303V25.398H35.8771ZM18.903 13.2174C16.5277 13.2174 14.5955 15.1608 14.5955 17.5499C14.5955 19.9389 16.5277 21.8823 18.903 21.8823C21.2768 21.8823 23.2084 19.9389 23.2084 17.5499C23.2084 15.1608 21.2768 13.2174 18.903 13.2174ZM18.903 20.7508C17.1479 20.7508 15.7198 19.3144 15.7198 17.5492C15.7198 15.7839 17.1479 14.3475 18.903 14.3475C20.6573 14.3475 22.084 15.7839 22.084 17.5492C22.084 19.3151 20.6573 20.7508 18.903 20.7508ZM28.771 10.0398C28.771 10.3517 28.5193 10.6049 28.2092 10.6049H9.79222C9.48143 10.6049 9.2304 10.3517 9.2304 10.0398C9.2304 9.72791 9.48213 9.47472 9.79222 9.47472H28.2092C28.52 9.47472 28.771 9.7272 28.771 10.0398ZM28.771 15.0152C28.771 15.327 28.5193 15.5802 28.2092 15.5802H25.1758C24.865 15.5802 24.614 15.327 24.614 15.0152C24.614 14.7033 24.8657 14.4501 25.1758 14.4501H28.2092C28.52 14.4501 28.771 14.7033 28.771 15.0152ZM13.1906 15.0152C13.1906 15.327 12.9388 15.5802 12.6287 15.5802H9.79222C9.48143 15.5802 9.2304 15.327 9.2304 15.0152C9.2304 14.7033 9.48213 14.4501 9.79222 14.4501H12.6287C12.9388 14.4501 13.1906 14.7033 13.1906 15.0152ZM28.771 19.9912C28.771 20.3038 28.5193 20.5563 28.2092 20.5563H25.2116C24.9016 20.5563 24.6498 20.3031 24.6498 19.9912C24.6498 19.6793 24.9016 19.4261 25.2116 19.4261H28.2092C28.52 19.4261 28.771 19.6793 28.771 19.9912ZM13.1547 19.9912C13.1547 20.3038 12.903 20.5563 12.5929 20.5563H9.79222C9.48143 20.5563 9.2304 20.3031 9.2304 19.9912C9.2304 19.6793 9.48213 19.4261 9.79222 19.4261H12.5929C12.903 19.4261 13.1547 19.6793 13.1547 19.9912Z" fill="#0023B5"/>
<path d="M33.3893 1H4.61209C2.62006 1 1 2.63016 1 4.63303V25.398C1 27.4009 2.62006 29.0303 4.61139 29.0303H10.7583V32.623C10.7583 33.3826 11.3729 34 12.1274 34H25.675C26.4302 34 27.0441 33.3819 27.0441 32.623V29.0303H33.3886C35.3799 29.0303 37 27.4009 37 25.398V4.63303C37.0014 2.63016 35.3813 1 33.3893 1ZM21.177 22.1985H16.6269C14.8507 22.1985 13.2574 22.9976 12.1808 24.2551H5.74979V5.77733H32.2516V24.2551H25.6237C24.5465 22.9976 22.9531 22.1985 21.177 22.1985ZM19.5548 27.7043L18.9023 28.8669L18.249 27.7043L18.6555 23.3293H19.1498L19.5548 27.7043ZM25.9211 32.623C25.9211 32.7567 25.8086 32.8699 25.6757 32.8699H22.6001V28.4652C22.6001 28.1526 22.3484 27.9002 22.0383 27.9002C21.7282 27.9002 21.4765 28.1533 21.4765 28.4652V32.8699H16.328V28.4652C16.328 28.1526 16.0763 27.9002 15.7662 27.9002C15.4561 27.9002 15.2044 28.1533 15.2044 28.4652V32.8699H12.1288C11.9959 32.8699 11.8834 32.7567 11.8834 32.623V28.1003C11.8834 27.014 12.2469 26.0126 12.8566 25.2099C12.8812 25.1844 12.903 25.1561 12.9219 25.1257C13.7917 24.0316 15.1291 23.3286 16.6269 23.3286H17.5269L17.1141 27.775C17.1036 27.8895 17.1282 28.0055 17.1845 28.106L18.4143 30.2948C18.5141 30.4723 18.7012 30.582 18.9037 30.582C19.1062 30.582 19.2932 30.4716 19.3931 30.2941L20.6208 28.1053C20.677 28.0048 20.7016 27.8895 20.6911 27.775L20.2797 23.3286H21.1777C22.6754 23.3286 24.0128 24.0316 24.8826 25.125C24.9016 25.1554 24.9241 25.1837 24.9487 25.2091C25.5583 26.0119 25.9218 27.014 25.9218 28.0996V32.623H25.9211ZM35.8771 25.398C35.8771 26.7778 34.7612 27.9002 33.3893 27.9002H27.0398C27.0096 26.9963 26.7769 26.1434 26.3845 25.3867H32.8127C33.1235 25.3867 33.3745 25.1335 33.3745 24.8216V5.21225C33.3745 4.90037 33.1228 4.64718 32.8127 4.64718H5.18798C4.87789 4.64718 4.62616 4.90037 4.62616 5.21225V24.8209C4.62616 25.1335 4.87789 25.386 5.18798 25.386H11.4193C11.0277 26.1434 10.7942 26.9956 10.7647 27.8994H4.61209C3.24024 27.8994 2.12434 26.7771 2.12434 25.3973V4.63303C2.12434 3.25323 3.24024 2.13086 4.61209 2.13086H33.39C34.7619 2.13086 35.8778 3.25323 35.8778 4.63303V25.398H35.8771ZM18.903 13.2174C16.5277 13.2174 14.5955 15.1608 14.5955 17.5499C14.5955 19.9389 16.5277 21.8823 18.903 21.8823C21.2768 21.8823 23.2084 19.9389 23.2084 17.5499C23.2084 15.1608 21.2768 13.2174 18.903 13.2174ZM18.903 20.7508C17.1479 20.7508 15.7198 19.3144 15.7198 17.5492C15.7198 15.7839 17.1479 14.3475 18.903 14.3475C20.6573 14.3475 22.084 15.7839 22.084 17.5492C22.084 19.3151 20.6573 20.7508 18.903 20.7508ZM28.771 10.0398C28.771 10.3517 28.5193 10.6049 28.2092 10.6049H9.79222C9.48143 10.6049 9.2304 10.3517 9.2304 10.0398C9.2304 9.72791 9.48213 9.47472 9.79222 9.47472H28.2092C28.52 9.47472 28.771 9.7272 28.771 10.0398ZM28.771 15.0152C28.771 15.327 28.5193 15.5802 28.2092 15.5802H25.1758C24.865 15.5802 24.614 15.327 24.614 15.0152C24.614 14.7033 24.8657 14.4501 25.1758 14.4501H28.2092C28.52 14.4501 28.771 14.7033 28.771 15.0152ZM13.1906 15.0152C13.1906 15.327 12.9388 15.5802 12.6287 15.5802H9.79222C9.48143 15.5802 9.2304 15.327 9.2304 15.0152C9.2304 14.7033 9.48213 14.4501 9.79222 14.4501H12.6287C12.9388 14.4501 13.1906 14.7033 13.1906 15.0152ZM28.771 19.9912C28.771 20.3038 28.5193 20.5563 28.2092 20.5563H25.2116C24.9016 20.5563 24.6498 20.3031 24.6498 19.9912C24.6498 19.6793 24.9016 19.4261 25.2116 19.4261H28.2092C28.52 19.4261 28.771 19.6793 28.771 19.9912ZM13.1547 19.9912C13.1547 20.3038 12.903 20.5563 12.5929 20.5563H9.79222C9.48143 20.5563 9.2304 20.3031 9.2304 19.9912C9.2304 19.6793 9.48213 19.4261 9.79222 19.4261H12.5929C12.903 19.4261 13.1547 19.6793 13.1547 19.9912Z" stroke="#0023B5" stroke-width="0.4" mask="url(#path-1-outside-1_459_2337)"/>
</svg>
