<svg width="30" height="34" viewBox="0 0 30 34" fill="none" xmlns="http://www.w3.org/2000/svg">
<path d="M1.41956 27.4916C1.6901 27.4916 1.90943 27.2724 1.90943 27.0018V2.10397C1.90943 1.79209 2.16318 1.53833 2.47506 1.53833H24.6446C24.9565 1.53833 25.2102 1.79209 25.2102 2.10397V7.29522C25.2102 7.56582 25.4296 7.78509 25.7001 7.78509C25.9707 7.78509 26.19 7.56582 26.19 7.29522V2.10397C26.19 1.25186 25.4967 0.558594 24.6446 0.558594H2.47506C1.62295 0.558594 0.929688 1.25186 0.929688 2.10397V27.0018C0.929688 27.2723 1.14902 27.4916 1.41956 27.4916Z" fill="#0023B5"/>
<path d="M11.0778 6.21369C11.0778 5.42383 10.4352 4.78125 9.64532 4.78125H4.93244C4.14258 4.78125 3.5 5.42383 3.5 6.21369V10.9265C3.5 11.7164 4.14258 12.359 4.93244 12.359H9.64532C10.4352 12.359 11.0778 11.7164 11.0778 10.9265V6.21369ZM10.098 10.9265C10.098 11.1761 9.89496 11.3793 9.64532 11.3793H4.93244C4.68281 11.3793 4.47974 11.1762 4.47974 10.9265V6.21369C4.47974 5.96412 4.68281 5.76099 4.93244 5.76099H9.64532C9.89496 5.76099 10.098 5.96406 10.098 6.21369V10.9265Z" fill="#0023B5"/>
<path d="M8.26789 7.38953L6.94276 8.71466L6.45341 8.22531C6.2621 8.03394 5.95192 8.034 5.76067 8.22525C5.56936 8.41656 5.56936 8.72674 5.76067 8.91799L6.59639 9.75377C6.68822 9.84567 6.81285 9.89727 6.94276 9.89727C7.07267 9.89727 7.1973 9.84567 7.28913 9.75383L8.96063 8.08233C9.15194 7.89096 9.15194 7.58084 8.96063 7.38953C8.76939 7.19828 8.45913 7.19828 8.26789 7.38953Z" fill="#0023B5"/>
<path d="M13.6227 8.92896H21.3423C21.6129 8.92896 21.8322 8.70969 21.8322 8.43909C21.8322 8.16848 21.6129 7.94922 21.3423 7.94922H13.6227C13.3521 7.94922 13.1328 8.16848 13.1328 8.43909C13.1328 8.70969 13.3521 8.92896 13.6227 8.92896Z" fill="#0023B5"/>
<path d="M23.1276 5.83594H18.443C18.1725 5.83594 17.9531 6.0552 17.9531 6.32581C17.9531 6.59641 18.1725 6.81568 18.443 6.81568H23.1276C23.3981 6.81568 23.6175 6.59641 23.6175 6.32581C23.6175 6.0552 23.3981 5.83594 23.1276 5.83594Z" fill="#0023B5"/>
<path d="M13.6227 6.81568H16.1299C16.4004 6.81568 16.6198 6.59641 16.6198 6.32581C16.6198 6.0552 16.4004 5.83594 16.1299 5.83594H13.6227C13.3521 5.83594 13.1328 6.0552 13.1328 6.32581C13.1328 6.59641 13.3521 6.81568 13.6227 6.81568Z" fill="#0023B5"/>
<path d="M16.5992 10.0586C16.3287 10.0586 16.1094 10.2779 16.1094 10.5485C16.1094 10.8191 16.3287 11.0383 16.5992 11.0383H19.1724C19.443 11.0383 19.6623 10.8191 19.6623 10.5485C19.6623 10.2779 19.443 10.0586 19.1724 10.0586H16.5992Z" fill="#0023B5"/>
<path d="M13.6227 11.0383H14.2825C14.553 11.0383 14.7724 10.8191 14.7724 10.5485C14.7724 10.2779 14.553 10.0586 14.2825 10.0586H13.6227C13.3521 10.0586 13.1328 10.2779 13.1328 10.5485C13.1328 10.8191 13.3521 11.0383 13.6227 11.0383Z" fill="#0023B5"/>
<path d="M11.0778 14.9246C11.0778 14.1348 10.4352 13.4922 9.64532 13.4922H4.93244C4.14258 13.4922 3.5 14.1348 3.5 14.9246V19.6374C3.5 20.4273 4.14258 21.0699 4.93244 21.0699H9.64532C10.4352 21.0699 11.0778 20.4273 11.0778 19.6374V14.9246ZM10.098 19.6374C10.098 19.887 9.89496 20.0901 9.64532 20.0901H4.93244C4.68281 20.0901 4.47974 19.8871 4.47974 19.6374V14.9246C4.47974 14.6751 4.68281 14.4719 4.93244 14.4719H9.64532C9.89496 14.4719 10.098 14.675 10.098 14.9246V19.6374Z" fill="#0023B5"/>
<path d="M8.26789 16.0965L6.94276 17.4216L6.45341 16.9322C6.2621 16.741 5.95192 16.7409 5.76067 16.9323C5.56936 17.1236 5.56936 17.4338 5.76067 17.6251L6.59639 18.4608C6.69201 18.5564 6.81742 18.6042 6.94276 18.6042C7.0681 18.6042 7.19351 18.5564 7.28913 18.4608L8.96063 16.7893C9.15194 16.598 9.15194 16.2878 8.96063 16.0966C8.76939 15.9053 8.4592 15.9053 8.26789 16.0965Z" fill="#0023B5"/>
<path d="M21.8322 17.1461C21.8322 16.8755 21.6129 16.6562 21.3423 16.6562H13.6227C13.3521 16.6562 13.1328 16.8755 13.1328 17.1461C13.1328 17.4167 13.3521 17.636 13.6227 17.636H21.3423C21.6129 17.636 21.8322 17.4167 21.8322 17.1461Z" fill="#0023B5"/>
<path d="M23.6175 15.0367C23.6175 14.7661 23.3981 14.5469 23.1276 14.5469H18.443C18.1725 14.5469 17.9531 14.7661 17.9531 15.0367C17.9531 15.3073 18.1725 15.5266 18.443 15.5266H23.1276C23.3981 15.5266 23.6175 15.3073 23.6175 15.0367Z" fill="#0023B5"/>
<path d="M13.6227 15.5266H16.1299C16.4004 15.5266 16.6198 15.3073 16.6198 15.0367C16.6198 14.7661 16.4004 14.5469 16.1299 14.5469H13.6227C13.3521 14.5469 13.1328 14.7661 13.1328 15.0367C13.1328 15.3073 13.3521 15.5266 13.6227 15.5266Z" fill="#0023B5"/>
<path d="M19.6623 19.2594C19.6623 18.9888 19.443 18.7695 19.1724 18.7695H16.5992C16.3287 18.7695 16.1094 18.9888 16.1094 19.2594C16.1094 19.53 16.3287 19.7493 16.5992 19.7493H19.1724C19.443 19.7493 19.6623 19.5299 19.6623 19.2594Z" fill="#0023B5"/>
<path d="M13.6227 19.7493H14.2825C14.553 19.7493 14.7724 19.53 14.7724 19.2594C14.7724 18.9888 14.553 18.7695 14.2825 18.7695H13.6227C13.3521 18.7695 13.1328 18.9888 13.1328 19.2594C13.1328 19.53 13.3521 19.7493 13.6227 19.7493Z" fill="#0023B5"/>
<path d="M9.64532 22.1992H4.93244C4.14258 22.1992 3.5 22.8419 3.5 23.6317V28.3445C3.5 29.1344 4.14258 29.777 4.93244 29.777H9.64532C10.4352 29.777 11.0778 29.1344 11.0778 28.3445V23.6317C11.0778 22.8419 10.4352 22.1992 9.64532 22.1992ZM10.098 28.3445C10.098 28.5941 9.89496 28.7972 9.64532 28.7972H4.93244C4.68281 28.7972 4.47974 28.5942 4.47974 28.3445V23.6317C4.47974 23.3821 4.68281 23.179 4.93244 23.179H9.64532C9.89496 23.179 10.098 23.382 10.098 23.6317V28.3445Z" fill="#0023B5"/>
<path d="M8.26789 24.8075L6.94276 26.1326L6.45341 25.6433C6.2621 25.452 5.95192 25.452 5.76067 25.6433C5.56936 25.8347 5.56936 26.1448 5.76067 26.3361L6.59639 27.1718C6.69201 27.2674 6.81742 27.3152 6.94276 27.3152C7.0681 27.3152 7.19351 27.2674 7.28913 27.1718L8.96063 25.5003C9.15194 25.3089 9.15194 24.9988 8.96063 24.8075C8.76939 24.6163 8.45913 24.6163 8.26789 24.8075Z" fill="#0023B5"/>
<path d="M13.6227 24.2356H16.1299C16.4004 24.2356 16.6198 24.0163 16.6198 23.7457C16.6198 23.4751 16.4004 23.2559 16.1299 23.2559H13.6227C13.3521 23.2559 13.1328 23.4751 13.1328 23.7457C13.1328 24.0163 13.3521 24.2356 13.6227 24.2356Z" fill="#0023B5"/>
<path d="M14.2825 28.4563C14.553 28.4563 14.7724 28.237 14.7724 27.9664C14.7724 27.6958 14.553 27.4766 14.2825 27.4766H13.6227C13.3521 27.4766 13.1328 27.6958 13.1328 27.9664C13.1328 28.237 13.3521 28.4563 13.6227 28.4563H14.2825Z" fill="#0023B5"/>
<path d="M29.2745 17.816C29.2408 17.6905 29.1587 17.5835 29.0462 17.5185L26.7608 16.1992C26.5729 16.0907 26.3433 16.121 26.1899 16.2579V9.58167C26.1899 9.31106 25.9706 9.0918 25.7001 9.0918C25.4295 9.0918 25.2102 9.31106 25.2102 9.58167V17.9051L22.1207 23.2562H18.4422C18.1717 23.2562 17.9523 23.4755 17.9523 23.7461C17.9523 24.0167 18.1717 24.236 18.4422 24.236H21.5551L20.9019 25.3672H13.6258C13.3553 25.3672 13.1359 25.5865 13.1359 25.8571C13.1359 26.1277 13.3553 26.347 13.6258 26.347H20.3362L19.6828 27.4786H16.5949C16.3244 27.4786 16.1051 27.6979 16.1051 27.9685C16.1051 28.2391 16.3244 28.4584 16.5949 28.4584H19.1171L18.0486 30.309C17.7105 30.8946 17.5727 31.5588 17.6498 32.2294L17.7403 33.021H2.47506C2.16318 33.021 1.90943 32.7672 1.90943 32.4553V29.2881C1.90943 29.0175 1.6901 28.7983 1.41956 28.7983C1.14902 28.7983 0.929688 29.0175 0.929688 29.2881V32.4553C0.929688 33.3074 1.62295 34.0007 2.47506 34.0007H24.6446C25.4967 34.0007 26.19 33.3074 26.19 32.4553V23.4456L29.2255 18.1877C29.2905 18.0752 29.3081 17.9415 29.2745 17.816ZM26.3787 21.1592L24.9417 20.3296L25.5076 19.3496L26.9445 20.1792L26.3787 21.1592ZM25.2102 32.4553C25.2102 32.7672 24.9565 33.021 24.6446 33.021H20.3946C20.7114 32.7737 20.9813 32.4668 21.1825 32.1183L23.0989 28.7997C23.2342 28.5653 23.1539 28.2657 22.9196 28.1304C22.6854 27.9953 22.3857 28.0753 22.2504 28.3097L20.334 31.6284C20.1054 32.0244 19.7483 32.3428 19.3285 32.5253L18.7009 32.798L18.6231 32.1179C18.5702 31.6572 18.6649 31.2011 18.8971 30.799L24.4518 21.1781L25.8887 22.0078L23.3934 26.3301C23.2581 26.5643 23.3384 26.8639 23.5726 26.9992C23.8069 27.1343 24.1065 27.0542 24.2418 26.8199L25.2101 25.1427V32.4553H25.2102ZM27.4343 19.3307L25.9974 18.5012L26.6952 17.2926L28.1322 18.1221L27.4343 19.3307Z" fill="#0023B5"/>
</svg>
