<svg width="36" height="27" viewBox="0 0 36 27" fill="none" xmlns="http://www.w3.org/2000/svg">
<path d="M27.4218 0.900058C29.0678 0.896009 30.7074 1.10523 32.2996 1.52248L32.3022 1.52316L32.3022 1.52319C32.6426 1.62214 32.8719 1.94005 32.8588 2.2941V2.97289H35.0403H35.0403H35.0404H35.0404H35.0405H35.0405H35.0405H35.0406H35.0406H35.0406H35.0407H35.0407H35.0408H35.0408H35.0408H35.0409H35.0409H35.041H35.041H35.041H35.0411H35.0411H35.0411H35.0412H35.0412H35.0413H35.0413H35.0413H35.0414H35.0414H35.0415H35.0415H35.0415H35.0416H35.0416H35.0417H35.0417H35.0417H35.0418H35.0418H35.0419H35.0419H35.0419H35.042H35.042H35.042H35.0421H35.0421H35.0422H35.0422H35.0422H35.0423H35.0423H35.0424H35.0424H35.0424H35.0425H35.0425H35.0426H35.0426H35.0426H35.0427H35.0427H35.0428H35.0428H35.0428H35.0429H35.0429H35.0429H35.043H35.043H35.0431H35.0431H35.0431H35.0432H35.0432H35.0433H35.0433H35.0433H35.0434H35.0434H35.0435H35.0435H35.0435H35.0436H35.0436H35.0437H35.0437H35.0437H35.0438H35.0438H35.0439H35.0439H35.0439H35.044H35.044H35.0441H35.0441H35.0441H35.0442H35.0442H35.0443H35.0443H35.0443H35.0444H35.0444H35.0445H35.0445H35.0445H35.0446H35.0446H35.0447H35.0447H35.0447H35.0448H35.0448H35.0448H35.0449H35.0449H35.045H35.045H35.045H35.0451H35.0451H35.0452H35.0452H35.0452H35.0453H35.0453H35.0454H35.0454H35.0454H35.0455H35.0455H35.0456H35.0456H35.0456H35.0457H35.0457H35.0458H35.0458H35.0458H35.0459H35.0459H35.046H35.046H35.046H35.0461H35.0461H35.0462H35.0462H35.0462H35.0463H35.0463H35.0464H35.0464H35.0464H35.0465H35.0465H35.0466H35.0466H35.0466H35.0467H35.0467H35.0468H35.0468H35.0468H35.0469H35.0469H35.047H35.047C35.474 2.97289 35.82 3.31901 35.82 3.74589V25.2415V25.2421C35.8184 25.5166 35.6712 25.7696 35.4335 25.9068C35.1944 26.0449 34.8997 26.0449 34.6605 25.9068L34.6403 25.8952L34.6376 25.8911C34.6368 25.8907 34.636 25.8902 34.6352 25.8897C34.6227 25.882 34.6034 25.8709 34.5772 25.8565C34.525 25.8277 34.4475 25.787 34.3454 25.7367C34.1414 25.6362 33.8407 25.4981 33.451 25.3412C32.6718 25.0273 31.5376 24.6388 30.111 24.3263C27.258 23.7014 23.236 23.3811 18.5427 24.5712L18.5302 24.5744L18.5301 24.5735C18.4706 24.5807 18.4104 24.581 18.3508 24.5743H18.2961H18.1951H18.1827L18.1707 24.5712C8.95751 22.2481 2.31883 25.7659 2.0552 25.9056C2.05354 25.9065 2.05213 25.9073 2.05097 25.9079C1.93568 25.973 1.80564 26.0074 1.67329 26.0077H1.673C1.24611 26.0077 0.9 25.6616 0.9 25.2347V3.73916C0.9 3.31227 1.24611 2.96616 1.673 2.96616H3.841V2.29413C3.82786 1.94007 4.0572 1.62214 4.39765 1.52319L4.4002 1.52245L4.40021 1.52248C5.99243 1.10523 7.632 0.896009 9.27801 0.900058M27.4218 0.900058C27.4218 0.900058 27.4219 0.900058 27.4219 0.900058V1.00006L27.4217 0.900058C27.4217 0.900058 27.4218 0.900058 27.4218 0.900058ZM27.4218 0.900058C24.7418 0.900076 21.0825 1.49735 18.3505 4.2225C15.6372 1.47052 11.9504 0.900075 9.27801 0.900058M9.27801 0.900058C9.27805 0.900058 9.27809 0.900058 9.27813 0.900058L9.27788 1.00006V0.900058C9.27792 0.900058 9.27797 0.900058 9.27801 0.900058ZM4.74351 22.0696L4.74346 22.0696C4.70215 22.0758 4.66039 22.0787 4.61868 22.0783C4.19198 22.0734 3.84994 21.7238 3.85446 21.2971M4.74351 22.0696L3.95446 21.2977M4.74351 22.0696C6.13105 21.8577 7.53192 21.7456 8.93547 21.7342L8.93639 21.7342C10.5228 21.7067 12.1037 21.8968 13.6354 22.298M4.74351 22.0696L14.1823 22.3466M3.85446 21.2971C3.85447 21.2969 3.85447 21.2968 3.85447 21.2966L3.95446 21.2977M3.85446 21.2971V21.2977H3.95446M3.85446 21.2971V4.51889M3.95446 21.2977V4.51889H3.85446M3.85446 4.51889V4.41889H2.446V4.51889M3.85446 4.51889H2.446M2.446 4.51889H2.346V24.0567C2.37931 24.0431 2.41264 24.0296 2.446 24.0162M2.446 4.51889V24.0162M2.446 24.0162V24.124C6.16015 22.6238 10.1811 22.0487 14.163 22.4451C13.9878 22.3933 13.8119 22.3443 13.6354 22.298M2.446 24.0162C5.99757 22.5884 9.82721 22.0022 13.6354 22.298M13.6354 22.298C13.8178 22.3122 14.0001 22.3284 14.1823 22.3466M14.1823 22.3466C12.4805 21.8439 10.7109 21.6034 8.93465 21.6342C7.52632 21.6456 6.12068 21.7581 4.72841 21.9707L14.1823 22.3466ZM32.8857 4.51889V21.2905V21.291H32.7857C32.7861 21.3273 32.7836 21.3637 32.7782 21.3996L32.8857 4.51889ZM32.8857 4.51889H34.2941L34.2675 24.0163C30.7094 22.5849 26.8723 21.9982 23.0571 22.2967C24.5956 21.8946 26.1836 21.7048 27.7768 21.7342L27.7781 21.7342C29.1904 21.7421 30.6003 21.8519 31.9968 22.0628L32.8857 4.51889ZM8.93465 20.1949H8.93443C7.74402 20.1976 6.55496 20.2718 5.37354 20.4172V2.90424C6.65177 2.62529 7.95606 2.48291 9.26452 2.4797C11.7616 2.47972 15.1833 3.05253 17.5635 5.7155L17.5834 22.259C16.1254 21.3462 13.4068 20.1949 8.93465 20.1949ZM31.3195 2.90427V20.417C30.145 20.2703 28.9628 20.1938 27.7791 20.1882H27.7786C23.3294 20.1882 20.6051 21.341 19.1296 22.2537V5.71574C21.5101 3.07892 24.9322 2.47973 27.4285 2.4797C28.7369 2.48357 30.0412 2.62588 31.3195 2.90427Z" fill="#0023B5" stroke="#0023B5" stroke-width="0.2"/>
</svg>
