<svg width="34" height="38" viewBox="0 0 34 38" fill="none" xmlns="http://www.w3.org/2000/svg">
<path d="M13.6816 32.6783L13.9756 32.6753C13.9765 30.673 15.397 29.0023 17.2855 28.6157C17.555 28.5605 17.834 28.5315 18.1198 28.5314C20.1385 28.5305 21.8208 29.9727 22.1914 31.8833C22.2036 31.9464 22.2144 32.01 22.2238 32.0741L22.4702 32.0751L22.4771 32.0751C24.23 32.0818 25.9077 31.4653 27.2274 30.3664H27.2251H27.1908L27.1566 30.3648C27.1096 30.3627 27.0623 30.3591 27.0149 30.354L26.8576 30.3319C25.6181 31.2966 24.0773 31.8338 22.4714 31.8262C21.9814 29.4236 19.6365 27.8732 17.234 28.3632C15.1795 28.7822 13.6982 30.5815 13.6816 32.6783ZM13.6816 32.6783L13.9756 32.6806L29.6018 30.0323C27.9173 32.2724 25.2742 33.5857 22.4714 33.5751C22.3455 34.3872 21.9692 35.1397 21.3951 35.7277C20.5441 36.5986 19.3836 37.0982 18.1662 37.1179C15.7069 37.1181 13.7062 35.1375 13.6816 32.6783ZM28.2565 29.3192V29.0684V29.0607V28.8664V29.3192Z" fill="#0023B5" stroke="#0023B5" stroke-width="3"/>
</svg>
