<svg width="32" height="32" viewBox="0 0 32 32" fill="none" xmlns="http://www.w3.org/2000/svg">
<path d="M29.3359 17.332C28.9823 17.332 28.6432 17.4725 28.3931 17.7226C28.1431 17.9726 28.0026 18.3117 28.0026 18.6654V24.2827C28.0015 25.2679 27.6097 26.2125 26.913 26.9091C26.2164 27.6058 25.2718 27.9976 24.2866 27.9987H7.7186C6.73339 27.9976 5.78882 27.6058 5.09216 26.9091C4.39551 26.2125 4.00366 25.2679 4.0026 24.2827V18.6654C4.0026 18.3117 3.86213 17.9726 3.61208 17.7226C3.36203 17.4725 3.02289 17.332 2.66927 17.332C2.31565 17.332 1.97651 17.4725 1.72646 17.7226C1.47641 17.9726 1.33594 18.3117 1.33594 18.6654V24.2827C1.3377 25.9749 2.01073 27.5974 3.20733 28.794C4.40393 29.9906 6.02636 30.6636 7.7186 30.6654H24.2866C25.9789 30.6636 27.6013 29.9906 28.7979 28.794C29.9945 27.5974 30.6675 25.9749 30.6693 24.2827V18.6654C30.6693 18.3117 30.5288 17.9726 30.2787 17.7226C30.0287 17.4725 29.6896 17.332 29.3359 17.332Z" fill="#0023B5"/>
<path d="M8.9393 11.6097L14.6633 5.8857V22.667C14.6633 23.0207 14.8038 23.3598 15.0538 23.6098C15.3039 23.8599 15.643 24.0004 15.9966 24.0004C16.3503 24.0004 16.6894 23.8599 16.9394 23.6098C17.1895 23.3598 17.33 23.0207 17.33 22.667V5.8857L23.054 11.6097C23.3054 11.8526 23.6422 11.987 23.9918 11.9839C24.3414 11.9809 24.6758 11.8407 24.9231 11.5935C25.1703 11.3462 25.3105 11.0118 25.3135 10.6622C25.3166 10.3126 25.1822 9.97584 24.9393 9.72437L16.9393 1.72437C16.6893 1.4744 16.3502 1.33398 15.9966 1.33398C15.6431 1.33398 15.304 1.4744 15.054 1.72437L7.05397 9.72437C6.81109 9.97584 6.6767 10.3126 6.67974 10.6622C6.68278 11.0118 6.823 11.3462 7.07021 11.5935C7.31742 11.8407 7.65184 11.9809 8.00144 11.9839C8.35103 11.987 8.68783 11.8526 8.9393 11.6097Z" fill="#0023B5"/>
</svg>
