<svg width="29" height="34" viewBox="0 0 29 34" fill="none" xmlns="http://www.w3.org/2000/svg">
<path d="M0.48987 26.933C0.760409 26.933 0.97974 26.7138 0.97974 26.4432V1.54538C0.97974 1.23349 1.23349 0.97974 1.54538 0.97974H23.7149C24.0268 0.97974 24.2806 1.23349 24.2806 1.54538V6.73662C24.2806 7.00723 24.4999 7.22649 24.7704 7.22649C25.041 7.22649 25.2603 7.00723 25.2603 6.73662V1.54538C25.2603 0.693264 24.567 0 23.7149 0H1.54538C0.693264 0 0 0.693264 0 1.54538V26.4432C0 26.7137 0.219331 26.933 0.48987 26.933Z" fill="#0023B5"/>
<path d="M10.1481 5.6551C10.1481 4.86523 9.5055 4.22266 8.71563 4.22266H4.00276C3.21289 4.22266 2.57031 4.86523 2.57031 5.6551V10.3679C2.57031 11.1578 3.21289 11.8004 4.00276 11.8004H8.71563C9.5055 11.8004 10.1481 11.1578 10.1481 10.3679V5.6551ZM9.16834 10.3679C9.16834 10.6175 8.96527 10.8207 8.71563 10.8207H4.00276C3.75312 10.8207 3.55005 10.6176 3.55005 10.3679V5.6551C3.55005 5.40553 3.75312 5.2024 4.00276 5.2024H8.71563C8.96527 5.2024 9.16834 5.40546 9.16834 5.6551V10.3679Z" fill="#0023B5"/>
<path d="M7.3382 6.83093L6.01307 8.15606L5.52372 7.66672C5.33241 7.47534 5.02223 7.47541 4.83098 7.66665C4.63967 7.85796 4.63967 8.16815 4.83098 8.35939L5.6667 9.19518C5.75854 9.28708 5.88316 9.33868 6.01307 9.33868C6.14299 9.33868 6.26761 9.28708 6.35944 9.19524L8.03094 7.52374C8.22225 7.33236 8.22225 7.02224 8.03094 6.83093C7.8397 6.63969 7.52945 6.63969 7.3382 6.83093Z" fill="#0023B5"/>
<path d="M12.693 8.37037H20.4126C20.6832 8.37037 20.9025 8.1511 20.9025 7.88049C20.9025 7.60989 20.6832 7.39062 20.4126 7.39062H12.693C12.4225 7.39062 12.2031 7.60989 12.2031 7.88049C12.2031 8.1511 12.4225 8.37037 12.693 8.37037Z" fill="#0023B5"/>
<path d="M22.1979 5.27734H17.5133C17.2428 5.27734 17.0234 5.49661 17.0234 5.76721C17.0234 6.03782 17.2428 6.25708 17.5133 6.25708H22.1979C22.4684 6.25708 22.6878 6.03782 22.6878 5.76721C22.6878 5.49661 22.4684 5.27734 22.1979 5.27734Z" fill="#0023B5"/>
<path d="M12.693 6.25708H15.2002C15.4708 6.25708 15.6901 6.03782 15.6901 5.76721C15.6901 5.49661 15.4708 5.27734 15.2002 5.27734H12.693C12.4225 5.27734 12.2031 5.49661 12.2031 5.76721C12.2031 6.03782 12.4225 6.25708 12.693 6.25708Z" fill="#0023B5"/>
<path d="M15.6696 9.5C15.399 9.5 15.1797 9.71927 15.1797 9.98987C15.1797 10.2605 15.399 10.4797 15.6696 10.4797H18.2427C18.5133 10.4797 18.7326 10.2605 18.7326 9.98987C18.7326 9.71927 18.5133 9.5 18.2427 9.5H15.6696Z" fill="#0023B5"/>
<path d="M12.693 10.4797H13.3528C13.6234 10.4797 13.8427 10.2605 13.8427 9.98987C13.8427 9.71927 13.6234 9.5 13.3528 9.5H12.693C12.4225 9.5 12.2031 9.71927 12.2031 9.98987C12.2031 10.2605 12.4225 10.4797 12.693 10.4797Z" fill="#0023B5"/>
<path d="M10.1481 14.366C10.1481 13.5762 9.5055 12.9336 8.71563 12.9336H4.00276C3.21289 12.9336 2.57031 13.5762 2.57031 14.366V19.0788C2.57031 19.8687 3.21289 20.5113 4.00276 20.5113H8.71563C9.5055 20.5113 10.1481 19.8687 10.1481 19.0788V14.366ZM9.16834 19.0788C9.16834 19.3284 8.96527 19.5316 8.71563 19.5316H4.00276C3.75312 19.5316 3.55005 19.3285 3.55005 19.0788V14.366C3.55005 14.1165 3.75312 13.9133 4.00276 13.9133H8.71563C8.96527 13.9133 9.16834 14.1164 9.16834 14.366V19.0788Z" fill="#0023B5"/>
<path d="M7.3382 15.5379L6.01307 16.863L5.52372 16.3737C5.33241 16.1824 5.02223 16.1823 4.83098 16.3737C4.63967 16.565 4.63967 16.8752 4.83098 17.0665L5.6667 17.9022C5.76232 17.9978 5.88773 18.0456 6.01307 18.0456C6.13841 18.0456 6.26382 17.9978 6.35944 17.9022L8.03094 16.2307C8.22225 16.0394 8.22225 15.7292 8.03094 15.538C7.8397 15.3467 7.52951 15.3468 7.3382 15.5379Z" fill="#0023B5"/>
<path d="M20.9025 16.5875C20.9025 16.3169 20.6832 16.0977 20.4126 16.0977H12.693C12.4225 16.0977 12.2031 16.3169 12.2031 16.5875C12.2031 16.8581 12.4225 17.0774 12.693 17.0774H20.4126C20.6832 17.0774 20.9025 16.8581 20.9025 16.5875Z" fill="#0023B5"/>
<path d="M22.6878 14.4782C22.6878 14.2075 22.4684 13.9883 22.1979 13.9883H17.5133C17.2428 13.9883 17.0234 14.2075 17.0234 14.4782C17.0234 14.7488 17.2428 14.968 17.5133 14.968H22.1979C22.4684 14.968 22.6878 14.7488 22.6878 14.4782Z" fill="#0023B5"/>
<path d="M12.693 14.968H15.2002C15.4708 14.968 15.6901 14.7488 15.6901 14.4782C15.6901 14.2075 15.4708 13.9883 15.2002 13.9883H12.693C12.4225 13.9883 12.2031 14.2075 12.2031 14.4782C12.2031 14.7488 12.4225 14.968 12.693 14.968Z" fill="#0023B5"/>
<path d="M18.7326 18.7008C18.7326 18.4302 18.5133 18.2109 18.2427 18.2109H15.6696C15.399 18.2109 15.1797 18.4302 15.1797 18.7008C15.1797 18.9714 15.399 19.1907 15.6696 19.1907H18.2427C18.5133 19.1907 18.7326 18.9713 18.7326 18.7008Z" fill="#0023B5"/>
<path d="M12.693 19.1907H13.3528C13.6234 19.1907 13.8427 18.9714 13.8427 18.7008C13.8427 18.4302 13.6234 18.2109 13.3528 18.2109H12.693C12.4225 18.2109 12.2031 18.4302 12.2031 18.7008C12.2031 18.9714 12.4225 19.1907 12.693 19.1907Z" fill="#0023B5"/>
<path d="M8.71563 21.6406H4.00276C3.21289 21.6406 2.57031 22.2833 2.57031 23.0731V27.7859C2.57031 28.5758 3.21289 29.2184 4.00276 29.2184H8.71563C9.5055 29.2184 10.1481 28.5758 10.1481 27.7859V23.0731C10.1481 22.2833 9.5055 21.6406 8.71563 21.6406ZM9.16834 27.7859C9.16834 28.0355 8.96527 28.2386 8.71563 28.2386H4.00276C3.75312 28.2386 3.55005 28.0356 3.55005 27.7859V23.0731C3.55005 22.8235 3.75312 22.6204 4.00276 22.6204H8.71563C8.96527 22.6204 9.16834 22.8234 9.16834 23.0731V27.7859Z" fill="#0023B5"/>
<path d="M7.3382 24.2489L6.01307 25.574L5.52372 25.0847C5.33241 24.8934 5.02223 24.8934 4.83098 25.0848C4.63967 25.2761 4.63967 25.5862 4.83098 25.7775L5.6667 26.6132C5.76232 26.7088 5.88773 26.7566 6.01307 26.7566C6.13841 26.7566 6.26382 26.7088 6.35944 26.6132L8.03094 24.9417C8.22225 24.7503 8.22225 24.4402 8.03094 24.2489C7.8397 24.0577 7.52945 24.0577 7.3382 24.2489Z" fill="#0023B5"/>
<path d="M12.693 23.677H15.2002C15.4708 23.677 15.6901 23.4577 15.6901 23.1871C15.6901 22.9165 15.4708 22.6973 15.2002 22.6973H12.693C12.4225 22.6973 12.2031 22.9165 12.2031 23.1871C12.2031 23.4577 12.4225 23.677 12.693 23.677Z" fill="#0023B5"/>
<path d="M13.3528 27.8977C13.6234 27.8977 13.8427 27.6784 13.8427 27.4078C13.8427 27.1372 13.6234 26.918 13.3528 26.918H12.693C12.4225 26.918 12.2031 27.1372 12.2031 27.4078C12.2031 27.6784 12.4225 27.8977 12.693 27.8977H13.3528Z" fill="#0023B5"/>
<path d="M28.3448 17.2574C28.3111 17.1319 28.229 17.0249 28.1165 16.9599L25.8311 15.6406C25.6432 15.5321 25.4137 15.5624 25.2602 15.6993V9.02307C25.2602 8.75247 25.0409 8.5332 24.7704 8.5332C24.4998 8.5332 24.2805 8.75247 24.2805 9.02307V17.3465L21.191 22.6976H17.5125C17.242 22.6976 17.0226 22.9169 17.0226 23.1875C17.0226 23.4581 17.242 23.6774 17.5125 23.6774H20.6254L19.9723 24.8086H12.6961C12.4256 24.8086 12.2062 25.0279 12.2062 25.2985C12.2062 25.5691 12.4256 25.7884 12.6961 25.7884H19.4065L18.7531 26.92H15.6653C15.3947 26.92 15.1754 27.1393 15.1754 27.4099C15.1754 27.6805 15.3947 27.8998 15.6653 27.8998H18.1874L17.1189 29.7504C16.7808 30.336 16.643 31.0002 16.7201 31.6708L16.8106 32.4624H1.54538C1.23349 32.4624 0.97974 32.2086 0.97974 31.8967V28.7296C0.97974 28.459 0.760409 28.2397 0.48987 28.2397C0.219331 28.2397 0 28.459 0 28.7296V31.8967C0 32.7488 0.693264 33.4421 1.54538 33.4421H23.7149C24.567 33.4421 25.2603 32.7488 25.2603 31.8967V22.887L28.2959 17.6291C28.3608 17.5166 28.3784 17.3829 28.3448 17.2574ZM25.449 20.6007L24.012 19.771L24.5779 18.791L26.0148 19.6206L25.449 20.6007ZM24.2806 31.8967C24.2806 32.2086 24.0268 32.4624 23.7149 32.4624H19.4649C19.7817 32.2151 20.0516 31.9082 20.2528 31.5597L22.1692 28.2411C22.3045 28.0067 22.2242 27.7071 21.9899 27.5718C21.7557 27.4368 21.456 27.5167 21.3207 27.7511L19.4043 31.0698C19.1757 31.4658 18.8186 31.7843 18.3989 31.9667L17.7712 32.2394L17.6934 31.5593C17.6405 31.0986 17.7352 30.6425 17.9674 30.2404L23.5221 20.6195L24.9591 21.4492L22.4637 25.7715C22.3284 26.0057 22.4087 26.3054 22.643 26.4406C22.8772 26.5757 23.1769 26.4956 23.3121 26.2613L24.2804 24.5841V31.8967H24.2806ZM26.5046 18.7721L25.0677 17.9426L25.7655 16.734L27.2025 17.5635L26.5046 18.7721Z" fill="#0023B5"/>
</svg>
