<svg width="19" height="19" viewBox="0 0 19 19" fill="none" xmlns="http://www.w3.org/2000/svg">
<path d="M17.4213 11.7637C17.6862 11.4679 17.8477 11.0775 17.8477 10.6504C17.8477 9.72971 17.0984 8.98047 16.1777 8.98047H12.9366C13.2576 8.00635 13.3945 6.71383 13.3945 6.15979V5.60352C13.3945 4.37594 12.3955 3.37695 11.168 3.37695H10.6113C10.356 3.37695 10.1334 3.55063 10.0714 3.79852L9.7682 5.01162C9.3433 6.71049 7.99437 8.58488 6.59832 8.92555C6.35377 8.30656 5.75 7.86719 5.04492 7.86719H1.70508C1.39781 7.86719 1.14844 8.11656 1.14844 8.42383V18.4434C1.14844 18.7506 1.39781 19 1.70508 19H5.04492C5.70881 19 6.28326 18.6107 6.5523 18.0481L8.46492 18.6857C9.09022 18.8942 9.74186 19 10.4013 19H15.0645C15.9851 19 16.7344 18.2508 16.7344 17.3301C16.7344 17.113 16.6928 16.9052 16.6171 16.7148C17.3252 16.5215 17.8477 15.8724 17.8477 15.1035C17.8477 14.6764 17.6862 14.286 17.4213 13.9902C17.6862 13.6945 17.8477 13.3041 17.8477 12.877C17.8477 12.4498 17.6862 12.0594 17.4213 11.7637ZM5.60156 17.3301C5.60156 17.637 5.35182 17.8867 5.04492 17.8867H2.26172V8.98047H5.04492C5.35182 8.98047 5.60156 9.23021 5.60156 9.53711V17.3301ZM15.0645 12.3203H16.1777C16.4846 12.3203 16.7344 12.5701 16.7344 12.877C16.7344 13.1838 16.4846 13.4336 16.1777 13.4336H15.0645C14.7572 13.4336 14.5078 13.683 14.5078 13.9902C14.5078 14.2975 14.7572 14.5469 15.0645 14.5469H16.1777C16.4846 14.5469 16.7344 14.7966 16.7344 15.1035C16.7344 15.4104 16.4846 15.6602 16.1777 15.6602H15.0645C14.7572 15.6602 14.5078 15.9095 14.5078 16.2168C14.5078 16.5241 14.7572 16.7734 15.0645 16.7734C15.3713 16.7734 15.6211 17.0232 15.6211 17.3301C15.6211 17.637 15.3713 17.8867 15.0645 17.8867H10.4013C9.86172 17.8867 9.32846 17.8003 8.81672 17.6296L6.71484 16.9289V10.0411C7.58803 9.87518 8.44266 9.32225 9.21416 8.41715C9.96748 7.5332 10.5783 6.36129 10.8481 5.28178L11.0459 4.49023H11.168C11.7818 4.49023 12.2812 4.98973 12.2812 5.60352V6.15979C12.2812 6.90717 12.0475 8.3407 11.7484 8.98047H10.6113C10.3041 8.98047 10.0547 9.22984 10.0547 9.53711C10.0547 9.84438 10.3041 10.0938 10.6113 10.0938H16.1777C16.4846 10.0938 16.7344 10.3435 16.7344 10.6504C16.7344 10.9573 16.4846 11.207 16.1777 11.207H15.0645C14.7572 11.207 14.5078 11.4564 14.5078 11.7637C14.5078 12.0709 14.7572 12.3203 15.0645 12.3203Z" fill="#0023B5"/>
<path d="M3.93164 16.7734C4.23906 16.7734 4.48828 16.5242 4.48828 16.2168C4.48828 15.9094 4.23906 15.6602 3.93164 15.6602C3.62422 15.6602 3.375 15.9094 3.375 16.2168C3.375 16.5242 3.62422 16.7734 3.93164 16.7734Z" fill="#0023B5"/>
<path d="M11.7285 0C11.4211 0 11.1719 0.249227 11.1719 0.556641V1.70703C11.1719 2.01445 11.4211 2.26367 11.7285 2.26367C12.0359 2.26367 12.2852 2.01445 12.2852 1.70703V0.556641C12.2852 0.249227 12.0359 0 11.7285 0Z" fill="#0023B5"/>
<path d="M9.36635 2.45415L8.57915 1.66695C8.3618 1.44956 8.00933 1.44956 7.79195 1.66695C7.57456 1.88433 7.57456 2.23676 7.79195 2.45415L8.57915 3.24135C8.7965 3.4587 9.149 3.45874 9.36635 3.24135C9.58374 3.02396 9.58374 2.67153 9.36635 2.45415Z" fill="#0023B5"/>
<path d="M15.6613 1.66695C15.4439 1.44956 15.0915 1.44956 14.8741 1.66695L14.0869 2.45411C13.8695 2.6715 13.8695 3.02392 14.0869 3.24131C14.3042 3.4587 14.6567 3.45874 14.8741 3.24135L15.6613 2.45415C15.8787 2.23676 15.8787 1.88433 15.6613 1.66695Z" fill="#0023B5"/>
</svg>
