<svg width="38" height="38" viewBox="0 0 38 38" fill="none" xmlns="http://www.w3.org/2000/svg">
<g clip-path="url(#clip0_759_2132)">
<path d="M18.9985 5.71484C11.0085 5.71484 4.50781 12.2156 4.50781 20.2056C4.50781 28.1961 11.0085 34.6967 18.9985 34.6967C26.989 34.6967 33.4892 28.196 33.4892 20.2056C33.4892 12.2156 26.9886 5.71484 18.9985 5.71484ZM18.9985 32.0705C12.4567 32.0705 7.13448 26.7479 7.13448 20.2061C7.13448 13.6642 12.4566 8.34203 18.9985 8.34203C25.5404 8.34203 30.8626 13.6642 30.8626 20.2061C30.8626 26.7483 25.5404 32.0705 18.9985 32.0705Z" fill="#0023B5"/>
<path d="M23.0276 19.7696H19.5254V14.6913C19.5254 13.9659 18.9375 13.3779 18.212 13.3779C17.4866 13.3779 16.8987 13.9659 16.8987 14.6913V21.083C16.8987 21.8084 17.4866 22.3963 18.212 22.3963H23.0277C23.7531 22.3963 24.3411 21.8084 24.3411 21.083C24.341 20.3576 23.753 19.7696 23.0276 19.7696ZM11.5607 29.6071C11.0214 29.1216 10.1909 29.1658 9.70586 29.7047L5.76575 34.0826C5.28021 34.6215 5.32445 35.452 5.86335 35.937C6.10401 36.1547 6.41707 36.2751 6.74158 36.2746C7.10102 36.2746 7.45912 36.1279 7.71829 35.8395L11.6584 31.4616C12.1439 30.9226 12.0996 30.0921 11.5607 29.6071ZM32.2347 34.083L28.2946 29.7052C27.8104 29.1658 26.9795 29.122 26.4401 29.6076C25.9008 30.0926 25.8574 30.9231 26.3425 31.462L30.2826 35.8399C30.5414 36.1279 30.8995 36.2746 31.2589 36.2746C31.5715 36.2746 31.8858 36.1634 32.1371 35.9375C32.6765 35.4524 32.7198 34.6219 32.2347 34.083ZM11.3379 3.64067C8.72826 1.08533 4.52163 1.08926 1.96102 3.65032C0.686982 4.92383 -0.00911299 6.60889 9.01004e-05 8.39503C0.0097385 10.1597 0.709322 11.812 1.97059 13.0474C2.21589 13.288 2.5459 13.4226 2.88949 13.4221C3.2257 13.4221 3.56191 13.2934 3.81804 13.0378L11.3479 5.50786C11.4706 5.38503 11.5677 5.23912 11.6337 5.07855C11.6997 4.91798 11.7332 4.74593 11.7323 4.57233C11.7315 4.39867 11.6962 4.2269 11.6285 4.06698C11.5608 3.90705 11.462 3.76215 11.3379 3.64067ZM3.03355 10.1072C2.77044 9.57703 2.62987 8.99041 2.62683 8.381C2.62111 7.30231 3.04401 6.28136 3.81804 5.50734C4.59028 4.73554 5.61123 4.34983 6.63782 4.34983C7.24578 4.34969 7.84616 4.48471 8.39553 4.74511L3.03355 10.1072ZM36.0391 3.64987C33.478 1.08926 29.2713 1.08488 26.6617 3.64022C26.5377 3.76176 26.439 3.90666 26.3713 4.06655C26.3036 4.22645 26.2682 4.39818 26.2673 4.57181C26.2664 4.74544 26.3 4.91752 26.366 5.07809C26.4321 5.23867 26.5293 5.38456 26.6521 5.50734L34.182 13.0372C34.3037 13.1595 34.4485 13.2564 34.6078 13.3224C34.7672 13.3885 34.938 13.4223 35.1105 13.4221C35.4543 13.4227 35.7845 13.2877 36.0294 13.0464C37.2912 11.8115 37.9907 10.1593 37.9999 8.39451C38.0091 6.60889 37.3126 4.92383 36.0391 3.64987ZM34.9666 10.1072L29.6046 4.74519C31.1096 4.03069 32.9584 4.28422 34.1821 5.50778C34.9561 6.28181 35.379 7.30224 35.3733 8.38145C35.3702 8.99041 35.2297 9.57748 34.9666 10.1072Z" fill="#0023B5"/>
</g>
<defs>
<clipPath id="clip0_759_2132">
<rect width="38" height="38" fill="white"/>
</clipPath>
</defs>
</svg>
