<svg width="38" height="38" viewBox="0 0 38 38" fill="none" xmlns="http://www.w3.org/2000/svg">
<path d="M37.7465 18.2903C34.2927 14.0824 26.9805 9.17188 19 9.17188C10.9909 9.17188 3.67842 14.1158 0.253578 18.2903C0.0896134 18.4902 0 18.7407 0 18.9992C0 19.2577 0.0896134 19.5082 0.253578 19.7081C3.78922 24.0177 11.1185 28.8266 19 28.8266C27.1616 28.8266 34.4426 23.7333 37.7465 19.7082C37.9104 19.5083 38.0001 19.2578 38.0001 18.9992C38.0001 18.7407 37.9104 18.4902 37.7465 18.2903ZM26.5921 18.9992C26.5921 23.1855 23.1863 26.5913 18.9999 26.5913C14.8135 26.5913 11.4078 23.1852 11.4078 18.9992C11.4078 14.8129 14.8136 11.4071 18.9999 11.4071C23.1867 11.4072 26.5921 14.8134 26.5921 18.9992ZM2.62739 18.9995C3.88534 17.6921 6.91848 14.8705 11.1763 13.0595C8.50427 16.5705 8.50323 21.4249 11.1751 24.9373C7.9377 23.5652 4.93034 21.3974 2.62739 18.9995ZM26.8237 24.9389C29.4958 21.4278 29.4967 16.5735 26.825 13.0611C30.0622 14.4332 33.0696 16.6011 35.3727 18.9988C34.1147 20.3064 31.0816 23.1279 26.8237 24.9389Z" fill="#0023B5"/>
<path d="M15.1994 19C15.1994 21.0954 16.904 22.8 18.9994 22.8C21.0947 22.8 22.7994 21.0954 22.7994 19C22.7994 16.9046 21.0947 15.2 18.9994 15.2C16.904 15.2 15.1994 16.9046 15.1994 19ZM20.5641 19C20.5641 19.8628 19.8622 20.5647 18.9994 20.5647C18.1366 20.5647 17.4347 19.8628 17.4347 19C17.4347 18.1372 18.1366 17.4353 18.9994 17.4353C19.8622 17.4353 20.5641 18.1372 20.5641 19ZM18.9994 4.84314C19.6166 4.84314 20.1171 4.34273 20.1171 3.72549V1.11765C20.1171 0.500408 19.6166 0 18.9994 0C18.3822 0 17.8818 0.500408 17.8818 1.11765V3.72549C17.8818 4.34273 18.3822 4.84314 18.9994 4.84314ZM25.668 6.33795C26.2039 6.64359 26.8866 6.45724 27.1926 5.92077L28.6799 3.31293C28.9857 2.77676 28.7991 2.09425 28.2628 1.78838C27.7265 1.4826 27.0442 1.66924 26.7383 2.20556L25.2509 4.81341C24.9451 5.34951 25.1319 6.03209 25.668 6.33795ZM10.8062 5.92077C11.112 6.45694 11.7945 6.64367 12.3308 6.33788C12.8669 6.03209 13.0537 5.34951 12.7479 4.81333L11.2605 2.20549C10.9547 1.66932 10.2721 1.4826 9.73597 1.78838C9.1998 2.09417 9.01308 2.77676 9.31887 3.31293L10.8062 5.92077ZM18.9994 33.1569C18.3822 33.1569 17.8818 33.6573 17.8818 34.2745V36.8824C17.8818 37.4996 18.3822 38 18.9994 38C19.6166 38 20.1171 37.4996 20.1171 36.8824V34.2745C20.1171 33.6573 19.6166 33.1569 18.9994 33.1569ZM12.3308 31.6621C11.7946 31.3564 11.1121 31.5431 10.8062 32.0792L9.31887 34.6871C9.01308 35.2232 9.1998 35.9058 9.73597 36.2116C10.2722 36.5174 10.9547 36.3306 11.2605 35.7945L12.7479 33.1867C13.0537 32.6505 12.8669 31.9679 12.3308 31.6621ZM27.1926 32.0792C26.8868 31.543 26.2041 31.3564 25.668 31.662C25.1319 31.9678 24.9451 32.6504 25.2509 33.1866L26.7383 35.7944C27.044 36.3306 27.7265 36.5174 28.2628 36.2116C28.799 35.9058 28.9857 35.2232 28.6799 34.6871L27.1926 32.0792Z" fill="#0023B5"/>
</svg>
