<svg width="30" height="38" viewBox="0 0 30 38" fill="none" xmlns="http://www.w3.org/2000/svg">
<path d="M29.8561 34.2383L25.5645 22.9535C25.9885 22.6999 26.3571 22.3635 26.6481 21.9643C26.9608 21.5345 27.1749 21.0411 27.2751 20.5191C27.3752 19.9971 27.359 19.4595 27.2276 18.9445C27.1164 18.4942 27.1351 18.0217 27.2814 17.5817C27.4276 17.1416 27.6955 16.7519 28.0541 16.4578C28.4693 16.1176 28.8037 15.6893 29.0331 15.204C29.2625 14.7187 29.3812 14.1885 29.3806 13.6517C29.3799 13.1149 29.26 12.585 29.0295 12.1002C28.7989 11.6154 28.4635 11.1879 28.0476 10.8487C27.6903 10.5535 27.4238 10.1632 27.279 9.72297C27.1343 9.28273 27.117 8.81049 27.2294 8.36086C27.3599 7.84665 27.3755 7.30999 27.275 6.78907C27.1745 6.26815 26.9605 5.77578 26.6481 5.34699C26.328 4.90662 25.9147 4.54226 25.4377 4.27984C24.9607 4.01742 24.4317 3.86341 23.8883 3.82877C23.4209 3.79733 22.9714 3.63645 22.5901 3.36414C22.2088 3.09182 21.9108 2.7188 21.7295 2.2868C21.5265 1.79231 21.218 1.34807 20.8257 0.985045C20.4333 0.622023 19.9665 0.348968 19.4578 0.184926C18.9417 0.0161646 18.395 -0.0380071 17.8558 0.0261868C17.3166 0.0903807 16.7979 0.271396 16.3358 0.556613C15.933 0.802789 15.47 0.933044 14.9978 0.933044C14.5257 0.933044 14.0627 0.802789 13.6598 0.556613C13.1977 0.271396 12.679 0.0903807 12.1399 0.0261868C11.6007 -0.0380071 11.054 0.0161646 10.5379 0.184926C10.0293 0.349079 9.56257 0.622181 9.17033 0.985194C8.77809 1.34821 8.46974 1.7924 8.26677 2.2868C8.08491 2.71956 7.78609 3.09311 7.40383 3.36557C7.02157 3.63803 6.57097 3.79863 6.10255 3.82936C5.55999 3.8644 5.03181 4.01862 4.55563 4.28103C4.07945 4.54345 3.66697 4.9076 3.34755 5.34758C3.03492 5.77739 2.82095 6.27087 2.72088 6.79284C2.62082 7.31482 2.63713 7.85244 2.76865 8.36739C2.87984 8.81771 2.86122 9.29031 2.71495 9.73048C2.56868 10.1707 2.30074 10.5604 1.94215 10.8546C1.52709 11.1949 1.19283 11.6232 0.963536 12.1084C0.734245 12.5937 0.615654 13.1239 0.616335 13.6606C0.617017 14.1973 0.736956 14.7272 0.967479 15.2119C1.198 15.6965 1.53335 16.124 1.94927 16.4632C2.30645 16.7584 2.57277 17.1487 2.71745 17.589C2.86213 18.0292 2.87926 18.5014 2.76687 18.951C2.63635 19.4652 2.62077 20.0019 2.72124 20.5228C2.82171 21.0437 3.03575 21.5361 3.34815 21.9649C3.63924 22.3639 4.00778 22.7001 4.43174 22.9535L0.140117 34.2383C0.0999122 34.3443 0.0909257 34.4597 0.11422 34.5707C0.137514 34.6817 0.192115 34.7837 0.271563 34.8646C0.351011 34.9456 0.451981 35.0021 0.562529 35.0275C0.673077 35.0528 0.788578 35.046 0.895367 35.0078L5.56996 33.3275L7.94555 37.6897C7.99657 37.7835 8.07191 37.8617 8.16365 37.9163C8.25539 37.9708 8.36014 37.9996 8.46687 37.9997L8.50665 37.9985C8.62002 37.9909 8.72884 37.951 8.8202 37.8834C8.91155 37.8159 8.9816 37.7235 9.02202 37.6173L13.0399 27.0575C13.2557 26.9759 13.4634 26.8745 13.6604 26.7546C14.0632 26.5086 14.5261 26.3785 14.9981 26.3785C15.4701 26.3785 15.933 26.5086 16.3358 26.7546C16.5324 26.873 16.7395 26.9736 16.9545 27.0539L20.9742 37.6167C21.0146 37.7229 21.0847 37.8153 21.176 37.8828C21.2674 37.9504 21.3762 37.9903 21.4896 37.9979L21.5294 37.9991C21.6361 37.999 21.7408 37.9702 21.8326 37.9157C21.9243 37.8612 21.9997 37.7829 22.0507 37.6891L24.4257 33.3269L29.1009 35.0072C29.2077 35.0454 29.3232 35.0522 29.4337 35.0269C29.5443 35.0015 29.6452 34.945 29.7247 34.864C29.8041 34.7831 29.8587 34.6811 29.882 34.5701C29.9053 34.4591 29.8963 34.3443 29.8561 34.2383ZM8.37187 35.9881L6.37034 32.3127C6.30258 32.1883 6.19257 32.0922 6.06016 32.0418C5.92776 31.9914 5.78169 31.99 5.64834 32.0378L1.7088 33.4539L5.53493 23.3946C5.72357 23.4387 5.91532 23.4683 6.10849 23.4831C6.57597 23.5145 7.02547 23.6754 7.40674 23.9477C7.788 24.22 8.08599 24.5931 8.26737 25.0251C8.47036 25.5195 8.77879 25.9638 9.17114 26.3268C9.56349 26.6898 10.0303 26.9629 10.5391 27.1269C10.9061 27.2455 11.2892 27.3068 11.6749 27.3086L8.37187 35.9881ZM13.0364 25.7447C12.7212 25.9393 12.3673 26.0628 11.9994 26.1065C11.6316 26.1502 11.2586 26.113 10.9066 25.9976C10.562 25.8868 10.2458 25.7021 9.97986 25.4565C9.71396 25.2109 9.50481 24.9103 9.36699 24.5756C9.10022 23.9377 8.66106 23.3867 8.09873 22.9845C7.53641 22.5822 6.87315 22.3445 6.1833 22.298C5.81452 22.2743 5.45548 22.1696 5.13171 21.9915C4.80794 21.8134 4.5274 21.5661 4.31002 21.2672C4.09977 20.9782 3.9559 20.6464 3.88867 20.2954C3.82145 19.9443 3.83252 19.5828 3.92112 19.2366C4.08665 18.5682 4.0597 17.8666 3.84336 17.2129C3.62703 16.5592 3.23015 15.98 2.69859 15.5423C2.4184 15.3134 2.19273 15.0249 2.03798 14.6978C1.88323 14.3708 1.8033 14.0134 1.80398 13.6516C1.80466 13.2897 1.88595 12.9326 2.04192 12.6062C2.1979 12.2797 2.42466 11.9921 2.70571 11.7642C3.23591 11.3254 3.63119 10.7456 3.84594 10.0917C4.06068 9.43777 4.08613 8.73648 3.91934 8.06874C3.83166 7.72328 3.82122 7.36275 3.88874 7.0128C3.95627 6.66285 4.10011 6.33208 4.31002 6.04405C4.52829 5.74459 4.80992 5.49696 5.13485 5.31879C5.45977 5.14063 5.81999 5.03632 6.18984 5.0133C6.87844 4.96584 7.54027 4.72773 8.10126 4.32559C8.66226 3.92345 9.10031 3.37316 9.3664 2.73627C9.50421 2.40136 9.71349 2.10058 9.97962 1.85496C10.2458 1.60934 10.5623 1.4248 10.9072 1.31424C11.2593 1.19895 11.6323 1.16186 12.0003 1.20554C12.3682 1.24923 12.7222 1.37264 13.0376 1.56718C13.6283 1.9279 14.3071 2.11876 14.9993 2.11876C15.6915 2.11876 16.3703 1.9279 16.9611 1.56718C17.2763 1.37269 17.6302 1.24931 17.998 1.20562C18.3659 1.16194 18.7388 1.199 19.0908 1.31424C19.4356 1.42508 19.752 1.6098 20.018 1.85551C20.284 2.10121 20.4932 2.40199 20.631 2.73686C20.8977 3.37456 21.3367 3.92541 21.8988 4.32769C22.4609 4.72996 23.1239 4.96778 23.8135 5.01449C24.1824 5.03805 24.5415 5.14257 24.8653 5.32061C25.1892 5.49866 25.4699 5.74586 25.6874 6.04464C25.8976 6.33364 26.0415 6.66549 26.1087 7.0165C26.176 7.36751 26.1649 7.72903 26.0763 8.07527C25.9108 8.74366 25.9377 9.44526 26.1541 10.099C26.3704 10.7527 26.7673 11.3319 27.2988 11.7696C27.579 11.9985 27.8047 12.287 27.9594 12.614C28.1142 12.9411 28.1941 13.2985 28.1934 13.6603C28.1928 14.0221 28.1115 14.3792 27.9555 14.7057C27.7995 15.0321 27.5728 15.3198 27.2917 15.5476C26.7615 15.9865 26.3662 16.5663 26.1515 17.2202C25.9367 17.8741 25.9113 18.5754 26.0781 19.2431C26.1658 19.5886 26.1762 19.9491 26.1087 20.2991C26.0411 20.649 25.8973 20.9798 25.6874 21.2678C25.4691 21.5672 25.1874 21.8147 24.8625 21.9927C24.5376 22.1708 24.1774 22.275 23.8076 22.298C23.1189 22.3455 22.457 22.5837 21.896 22.9859C21.335 23.3882 20.897 23.9386 20.631 24.5756C20.4932 24.9105 20.2839 25.2113 20.0178 25.4569C19.7517 25.7025 19.4351 25.8871 19.0902 25.9976C18.7382 26.1133 18.3651 26.1505 17.9971 26.1069C17.6291 26.0632 17.2751 25.9396 16.9599 25.7447C16.3691 25.384 15.6903 25.1931 14.9981 25.1931C14.3059 25.1931 13.6271 25.384 13.0364 25.7447ZM24.3491 32.0378C24.2157 31.99 24.0697 31.9914 23.9373 32.0418C23.8049 32.0922 23.6948 32.1883 23.6271 32.3127L21.6261 35.9881L18.3231 27.3098C18.7086 27.3077 19.0915 27.2462 19.4584 27.1275C19.9672 26.9633 20.4341 26.6902 20.8265 26.3271C21.219 25.964 21.5275 25.5196 21.7306 25.0251C21.9123 24.5923 22.211 24.2187 22.5932 23.9462C22.9753 23.6737 23.4259 23.5131 23.8943 23.4825C24.0856 23.4678 24.2756 23.4384 24.4625 23.3946L28.2886 33.4533L24.3491 32.0378Z" fill="#0023B5"/>
<path d="M23.9063 13.6563C23.9063 11.8948 23.3839 10.1728 22.4053 8.70821C21.4266 7.24358 20.0357 6.10204 18.4083 5.42795C16.7809 4.75386 14.9901 4.57749 13.2625 4.92114C11.5348 5.26478 9.9479 6.11302 8.70233 7.35858C7.45677 8.60415 6.60853 10.1911 6.26489 11.9187C5.92124 13.6464 6.09761 15.4371 6.7717 17.0645C7.44579 18.6919 8.58733 20.0829 10.052 21.0615C11.5166 22.0402 13.2385 22.5625 15 22.5625C17.3613 22.5598 19.6251 21.6206 21.2947 19.951C22.9644 18.2813 23.9036 16.0175 23.9063 13.6563ZM15 21.375C13.4734 21.375 11.981 20.9223 10.7117 20.0742C9.44235 19.226 8.45302 18.0205 7.86881 16.6101C7.2846 15.1997 7.13174 13.6477 7.42957 12.1504C7.7274 10.6531 8.46254 9.27776 9.54202 8.19827C10.6215 7.11879 11.9969 6.38365 13.4941 6.08582C14.9914 5.78799 16.5434 5.94085 17.9538 6.52506C19.3643 7.10927 20.5698 8.0986 21.4179 9.36795C22.2661 10.6373 22.7188 12.1296 22.7188 13.6563C22.7164 15.7027 21.9024 17.6646 20.4554 19.1116C19.0083 20.5587 17.0464 21.3726 15 21.375Z" fill="#0023B5"/>
<path d="M19.7188 11.6879L16.8236 11.2675L15.5293 8.64435C15.4747 8.55163 15.3969 8.47476 15.3036 8.42135C15.2102 8.36794 15.1045 8.33984 14.997 8.33984C14.8894 8.33984 14.7837 8.36794 14.6903 8.42135C14.597 8.47476 14.5192 8.55163 14.4647 8.64435L13.1697 11.2675L10.2746 11.6879C10.1649 11.7037 10.0618 11.75 9.97696 11.8214C9.89216 11.8928 9.82905 11.9865 9.79475 12.0919C9.76046 12.1973 9.75636 12.3102 9.78292 12.4178C9.80948 12.5255 9.86564 12.6235 9.94503 12.7008L12.041 14.7433L11.5464 17.626C11.5277 17.7351 11.54 17.8473 11.5817 17.9498C11.6235 18.0523 11.693 18.1411 11.7825 18.2062C11.8721 18.2713 11.978 18.31 12.0884 18.3181C12.1988 18.3262 12.3093 18.3032 12.4073 18.2518L14.9967 16.8909L17.586 18.2518C17.684 18.3032 17.7945 18.3262 17.9049 18.3181C18.0153 18.31 18.1212 18.2713 18.2108 18.2062C18.3003 18.1411 18.3699 18.0523 18.4116 17.9498C18.4533 17.8473 18.4656 17.7351 18.4469 17.626L17.9523 14.7428L20.0483 12.7008C20.1277 12.6235 20.1838 12.5255 20.2104 12.4178C20.237 12.3102 20.2329 12.1973 20.1986 12.0919C20.1643 11.9865 20.1012 11.8928 20.0164 11.8214C19.9316 11.75 19.8285 11.7037 19.7188 11.6879ZM16.9002 14.1104C16.8314 14.1777 16.7799 14.2606 16.7503 14.3521C16.7206 14.4437 16.7136 14.541 16.7298 14.6359L17.0736 16.641L15.2728 15.6945C15.1876 15.6498 15.0928 15.6264 14.9967 15.6264C14.9005 15.6264 14.8057 15.6498 14.7206 15.6945L12.9197 16.641L13.2641 14.6359C13.2803 14.541 13.2732 14.4436 13.2434 14.3521C13.2136 14.2605 13.162 14.1776 13.0931 14.1104L11.636 12.6902L13.6488 12.3974C13.7442 12.3837 13.8349 12.347 13.9129 12.2904C13.9909 12.2338 14.0539 12.1591 14.0965 12.0727L14.9967 10.2487L15.8974 12.0727C15.9398 12.1591 16.0026 12.2338 16.0804 12.2905C16.1582 12.3472 16.2486 12.3841 16.3439 12.398L18.3573 12.6902L16.9002 14.1104Z" fill="#0023B5"/>
</svg>
