<svg width="37" height="25" viewBox="0 0 37 25" fill="none" xmlns="http://www.w3.org/2000/svg">
<path d="M36.1615 25H0.838536C0.375455 25 0 24.6319 0 24.1778C0 23.7238 0.375455 23.3557 0.838536 23.3557H36.1615C36.6245 23.3557 37 23.7238 37 24.1778C37 24.6319 36.6245 25 36.1615 25ZM32.9046 21.5138H21.427C20.9639 21.5138 20.5885 21.1457 20.5885 20.6916C20.5885 20.2376 20.9639 19.8694 21.427 19.8694H32.0661V1.64434H4.93384V19.8694H15.5731C16.0362 19.8694 16.4116 20.2376 16.4116 20.6916C16.4116 21.1457 16.0362 21.5138 15.5731 21.5138H4.09531C3.63223 21.5138 3.25677 21.1457 3.25677 20.6916V0.822172C3.25677 0.368128 3.63223 0 4.09531 0H32.9046C33.3677 0 33.7431 0.368128 33.7431 0.822172V20.6916C33.7431 21.1457 33.3677 21.5138 32.9046 21.5138ZM18.5831 21.5135H18.4171C17.954 21.5135 17.5786 21.1453 17.5786 20.6913C17.5786 20.2373 17.954 19.8691 18.4171 19.8691H18.5831C19.0462 19.8691 19.4217 20.2373 19.4217 20.6913C19.4217 21.1453 19.0462 21.5135 18.5831 21.5135ZM18.4999 15.1818C18.4235 15.1818 18.3469 15.1715 18.2718 15.1508C18.2717 15.1507 18.2707 15.1506 18.27 15.1503C18.2694 15.1502 18.2689 15.1499 18.2682 15.1498C18.2676 15.1496 18.2671 15.1494 18.2666 15.1492C18.266 15.1491 18.2655 15.1488 18.2649 15.1488C18.2594 15.1472 18.254 15.1456 18.2486 15.144L14.1019 13.8736C13.7518 13.7665 13.5134 13.4485 13.5134 13.0889V7.15403C13.5134 6.89248 13.6404 6.64654 13.8552 6.49167C14.0701 6.33669 14.3475 6.29147 14.6021 6.36937L18.5 7.56337L22.398 6.36937C22.6532 6.29137 22.93 6.33689 23.1449 6.49167C23.3597 6.64665 23.4867 6.89248 23.4867 7.15403V13.0889C23.4867 13.4485 23.2483 13.7665 22.8982 13.8736L18.7525 15.1436C18.7409 15.1472 18.7291 15.1505 18.7175 15.1537C18.7172 15.1538 18.7162 15.154 18.7156 15.1541C18.7151 15.1545 18.7143 15.1545 18.7138 15.1546C18.7132 15.1548 18.7127 15.1549 18.7119 15.1551C18.7114 15.1552 18.7109 15.1554 18.7103 15.1555C18.6464 15.1718 18.5813 15.1804 18.5166 15.1816C18.5161 15.1815 18.5154 15.1817 18.5148 15.1817C18.5142 15.1816 18.5136 15.1816 18.5131 15.1817C18.5126 15.1817 18.5121 15.1815 18.5115 15.1817C18.5077 15.1818 18.5038 15.1818 18.4999 15.1818ZM19.3385 9.0292V13.2414L21.8095 12.4845V8.27239L19.3385 9.0292ZM15.1905 12.4845L17.6614 13.2414V9.0292L15.1905 8.27239V12.4845Z" fill="#0023B5"/>
</svg>
