<svg width="34" height="28" viewBox="0 0 34 28" fill="none" xmlns="http://www.w3.org/2000/svg">
<mask id="path-1-outside-1_471_1232" maskUnits="userSpaceOnUse" x="0" y="0" width="34" height="28" fill="black">
<rect fill="white" width="34" height="28"/>
<path d="M32.5 5.42H27.5V3.86C27.5 3.10148 27.2103 2.37403 26.6945 1.83767C26.1788 1.30132 25.4793 1 24.75 1C24.0207 1 23.3212 1.30132 22.8055 1.83767C22.2897 2.37403 22 3.10148 22 3.86V5.42H11.5C11.3674 5.42 11.2402 5.47479 11.1464 5.5723C11.0527 5.66982 11 5.80209 11 5.94V7.76C11 8.24269 10.8156 8.70562 10.4874 9.04693C10.1592 9.38825 9.71413 9.58 9.25 9.58C8.78587 9.58 8.34075 9.38825 8.01256 9.04693C7.68437 8.70562 7.5 8.24269 7.5 7.76V5.94C7.5 5.80209 7.44732 5.66982 7.35355 5.5723C7.25979 5.47479 7.13261 5.42 7 5.42H1.5C1.36739 5.42 1.24021 5.47479 1.14645 5.5723C1.05268 5.66982 1 5.80209 1 5.94V22.06C1 22.1979 1.05268 22.3302 1.14645 22.4277C1.24021 22.5252 1.36739 22.58 1.5 22.58H6.5V24.14C6.5 24.8985 6.78973 25.626 7.30546 26.1623C7.82118 26.6987 8.52065 27 9.25 27C9.97935 27 10.6788 26.6987 11.1945 26.1623C11.7103 25.626 12 24.8985 12 24.14V22.58H22.5C22.6326 22.58 22.7598 22.5252 22.8536 22.4277C22.9473 22.3302 23 22.1979 23 22.06V20.24C23 19.7573 23.1844 19.2944 23.5126 18.9531C23.8408 18.6117 24.2859 18.42 24.75 18.42C25.2141 18.42 25.6592 18.6117 25.9874 18.9531C26.3156 19.2944 26.5 19.7573 26.5 20.24V22.06C26.5 22.1979 26.5527 22.3302 26.6464 22.4277C26.7402 22.5252 26.8674 22.58 27 22.58H32.5C32.6326 22.58 32.7598 22.5252 32.8536 22.4277C32.9473 22.3302 33 22.1979 33 22.06V5.94C33 5.80209 32.9473 5.66982 32.8536 5.5723C32.7598 5.47479 32.6326 5.42 32.5 5.42ZM11.5 21.54C11.3674 21.54 11.2402 21.5948 11.1464 21.6923C11.0527 21.7898 11 21.9221 11 22.06V24.14C11 24.6227 10.8156 25.0856 10.4874 25.4269C10.1592 25.7682 9.71413 25.96 9.25 25.96C8.78587 25.96 8.34075 25.7682 8.01256 25.4269C7.68437 25.0856 7.5 24.6227 7.5 24.14V22.06C7.5 21.9221 7.44732 21.7898 7.35355 21.6923C7.25979 21.5948 7.13261 21.54 7 21.54H2V6.46H6.5V7.76C6.5 8.51852 6.78973 9.24597 7.30546 9.78233C7.82118 10.3187 8.52065 10.62 9.25 10.62C9.97935 10.62 10.6788 10.3187 11.1945 9.78233C11.7103 9.24597 12 8.51852 12 7.76V6.46H16.5V11.14H15.25C14.5207 11.14 13.8212 11.4413 13.3055 11.9777C12.7897 12.514 12.5 13.2415 12.5 14C12.5 14.7585 12.7897 15.486 13.3055 16.0223C13.8212 16.5587 14.5207 16.86 15.25 16.86H16.5V21.54H11.5ZM32 21.54H27.5V20.24C27.5 19.4815 27.2103 18.754 26.6945 18.2177C26.1788 17.6813 25.4793 17.38 24.75 17.38C24.0207 17.38 23.3212 17.6813 22.8055 18.2177C22.2897 18.754 22 19.4815 22 20.24V21.54H17.5V16.34C17.5 16.2021 17.4473 16.0698 17.3536 15.9723C17.2598 15.8748 17.1326 15.82 17 15.82H15.25C14.7859 15.82 14.3408 15.6282 14.0126 15.2869C13.6844 14.9456 13.5 14.4827 13.5 14C13.5 13.5173 13.6844 13.0544 14.0126 12.7131C14.3408 12.3717 14.7859 12.18 15.25 12.18H17C17.1326 12.18 17.2598 12.1252 17.3536 12.0277C17.4473 11.9302 17.5 11.7979 17.5 11.66V6.46H22.5C22.6326 6.46 22.7598 6.40521 22.8536 6.3077C22.9473 6.21018 23 6.07791 23 5.94V3.86C23 3.37731 23.1844 2.91438 23.5126 2.57307C23.8408 2.23175 24.2859 2.04 24.75 2.04C25.2141 2.04 25.6592 2.23175 25.9874 2.57307C26.3156 2.91438 26.5 3.37731 26.5 3.86V5.94C26.5 6.07791 26.5527 6.21018 26.6464 6.3077C26.7402 6.40521 26.8674 6.46 27 6.46H32V21.54Z"/>
</mask>
<path d="M32.5 5.42H27.5V3.86C27.5 3.10148 27.2103 2.37403 26.6945 1.83767C26.1788 1.30132 25.4793 1 24.75 1C24.0207 1 23.3212 1.30132 22.8055 1.83767C22.2897 2.37403 22 3.10148 22 3.86V5.42H11.5C11.3674 5.42 11.2402 5.47479 11.1464 5.5723C11.0527 5.66982 11 5.80209 11 5.94V7.76C11 8.24269 10.8156 8.70562 10.4874 9.04693C10.1592 9.38825 9.71413 9.58 9.25 9.58C8.78587 9.58 8.34075 9.38825 8.01256 9.04693C7.68437 8.70562 7.5 8.24269 7.5 7.76V5.94C7.5 5.80209 7.44732 5.66982 7.35355 5.5723C7.25979 5.47479 7.13261 5.42 7 5.42H1.5C1.36739 5.42 1.24021 5.47479 1.14645 5.5723C1.05268 5.66982 1 5.80209 1 5.94V22.06C1 22.1979 1.05268 22.3302 1.14645 22.4277C1.24021 22.5252 1.36739 22.58 1.5 22.58H6.5V24.14C6.5 24.8985 6.78973 25.626 7.30546 26.1623C7.82118 26.6987 8.52065 27 9.25 27C9.97935 27 10.6788 26.6987 11.1945 26.1623C11.7103 25.626 12 24.8985 12 24.14V22.58H22.5C22.6326 22.58 22.7598 22.5252 22.8536 22.4277C22.9473 22.3302 23 22.1979 23 22.06V20.24C23 19.7573 23.1844 19.2944 23.5126 18.9531C23.8408 18.6117 24.2859 18.42 24.75 18.42C25.2141 18.42 25.6592 18.6117 25.9874 18.9531C26.3156 19.2944 26.5 19.7573 26.5 20.24V22.06C26.5 22.1979 26.5527 22.3302 26.6464 22.4277C26.7402 22.5252 26.8674 22.58 27 22.58H32.5C32.6326 22.58 32.7598 22.5252 32.8536 22.4277C32.9473 22.3302 33 22.1979 33 22.06V5.94C33 5.80209 32.9473 5.66982 32.8536 5.5723C32.7598 5.47479 32.6326 5.42 32.5 5.42ZM11.5 21.54C11.3674 21.54 11.2402 21.5948 11.1464 21.6923C11.0527 21.7898 11 21.9221 11 22.06V24.14C11 24.6227 10.8156 25.0856 10.4874 25.4269C10.1592 25.7682 9.71413 25.96 9.25 25.96C8.78587 25.96 8.34075 25.7682 8.01256 25.4269C7.68437 25.0856 7.5 24.6227 7.5 24.14V22.06C7.5 21.9221 7.44732 21.7898 7.35355 21.6923C7.25979 21.5948 7.13261 21.54 7 21.54H2V6.46H6.5V7.76C6.5 8.51852 6.78973 9.24597 7.30546 9.78233C7.82118 10.3187 8.52065 10.62 9.25 10.62C9.97935 10.62 10.6788 10.3187 11.1945 9.78233C11.7103 9.24597 12 8.51852 12 7.76V6.46H16.5V11.14H15.25C14.5207 11.14 13.8212 11.4413 13.3055 11.9777C12.7897 12.514 12.5 13.2415 12.5 14C12.5 14.7585 12.7897 15.486 13.3055 16.0223C13.8212 16.5587 14.5207 16.86 15.25 16.86H16.5V21.54H11.5ZM32 21.54H27.5V20.24C27.5 19.4815 27.2103 18.754 26.6945 18.2177C26.1788 17.6813 25.4793 17.38 24.75 17.38C24.0207 17.38 23.3212 17.6813 22.8055 18.2177C22.2897 18.754 22 19.4815 22 20.24V21.54H17.5V16.34C17.5 16.2021 17.4473 16.0698 17.3536 15.9723C17.2598 15.8748 17.1326 15.82 17 15.82H15.25C14.7859 15.82 14.3408 15.6282 14.0126 15.2869C13.6844 14.9456 13.5 14.4827 13.5 14C13.5 13.5173 13.6844 13.0544 14.0126 12.7131C14.3408 12.3717 14.7859 12.18 15.25 12.18H17C17.1326 12.18 17.2598 12.1252 17.3536 12.0277C17.4473 11.9302 17.5 11.7979 17.5 11.66V6.46H22.5C22.6326 6.46 22.7598 6.40521 22.8536 6.3077C22.9473 6.21018 23 6.07791 23 5.94V3.86C23 3.37731 23.1844 2.91438 23.5126 2.57307C23.8408 2.23175 24.2859 2.04 24.75 2.04C25.2141 2.04 25.6592 2.23175 25.9874 2.57307C26.3156 2.91438 26.5 3.37731 26.5 3.86V5.94C26.5 6.07791 26.5527 6.21018 26.6464 6.3077C26.7402 6.40521 26.8674 6.46 27 6.46H32V21.54Z" fill="#0023B5"/>
<path d="M32.5 5.42H27.5V3.86C27.5 3.10148 27.2103 2.37403 26.6945 1.83767C26.1788 1.30132 25.4793 1 24.75 1C24.0207 1 23.3212 1.30132 22.8055 1.83767C22.2897 2.37403 22 3.10148 22 3.86V5.42H11.5C11.3674 5.42 11.2402 5.47479 11.1464 5.5723C11.0527 5.66982 11 5.80209 11 5.94V7.76C11 8.24269 10.8156 8.70562 10.4874 9.04693C10.1592 9.38825 9.71413 9.58 9.25 9.58C8.78587 9.58 8.34075 9.38825 8.01256 9.04693C7.68437 8.70562 7.5 8.24269 7.5 7.76V5.94C7.5 5.80209 7.44732 5.66982 7.35355 5.5723C7.25979 5.47479 7.13261 5.42 7 5.42H1.5C1.36739 5.42 1.24021 5.47479 1.14645 5.5723C1.05268 5.66982 1 5.80209 1 5.94V22.06C1 22.1979 1.05268 22.3302 1.14645 22.4277C1.24021 22.5252 1.36739 22.58 1.5 22.58H6.5V24.14C6.5 24.8985 6.78973 25.626 7.30546 26.1623C7.82118 26.6987 8.52065 27 9.25 27C9.97935 27 10.6788 26.6987 11.1945 26.1623C11.7103 25.626 12 24.8985 12 24.14V22.58H22.5C22.6326 22.58 22.7598 22.5252 22.8536 22.4277C22.9473 22.3302 23 22.1979 23 22.06V20.24C23 19.7573 23.1844 19.2944 23.5126 18.9531C23.8408 18.6117 24.2859 18.42 24.75 18.42C25.2141 18.42 25.6592 18.6117 25.9874 18.9531C26.3156 19.2944 26.5 19.7573 26.5 20.24V22.06C26.5 22.1979 26.5527 22.3302 26.6464 22.4277C26.7402 22.5252 26.8674 22.58 27 22.58H32.5C32.6326 22.58 32.7598 22.5252 32.8536 22.4277C32.9473 22.3302 33 22.1979 33 22.06V5.94C33 5.80209 32.9473 5.66982 32.8536 5.5723C32.7598 5.47479 32.6326 5.42 32.5 5.42ZM11.5 21.54C11.3674 21.54 11.2402 21.5948 11.1464 21.6923C11.0527 21.7898 11 21.9221 11 22.06V24.14C11 24.6227 10.8156 25.0856 10.4874 25.4269C10.1592 25.7682 9.71413 25.96 9.25 25.96C8.78587 25.96 8.34075 25.7682 8.01256 25.4269C7.68437 25.0856 7.5 24.6227 7.5 24.14V22.06C7.5 21.9221 7.44732 21.7898 7.35355 21.6923C7.25979 21.5948 7.13261 21.54 7 21.54H2V6.46H6.5V7.76C6.5 8.51852 6.78973 9.24597 7.30546 9.78233C7.82118 10.3187 8.52065 10.62 9.25 10.62C9.97935 10.62 10.6788 10.3187 11.1945 9.78233C11.7103 9.24597 12 8.51852 12 7.76V6.46H16.5V11.14H15.25C14.5207 11.14 13.8212 11.4413 13.3055 11.9777C12.7897 12.514 12.5 13.2415 12.5 14C12.5 14.7585 12.7897 15.486 13.3055 16.0223C13.8212 16.5587 14.5207 16.86 15.25 16.86H16.5V21.54H11.5ZM32 21.54H27.5V20.24C27.5 19.4815 27.2103 18.754 26.6945 18.2177C26.1788 17.6813 25.4793 17.38 24.75 17.38C24.0207 17.38 23.3212 17.6813 22.8055 18.2177C22.2897 18.754 22 19.4815 22 20.24V21.54H17.5V16.34C17.5 16.2021 17.4473 16.0698 17.3536 15.9723C17.2598 15.8748 17.1326 15.82 17 15.82H15.25C14.7859 15.82 14.3408 15.6282 14.0126 15.2869C13.6844 14.9456 13.5 14.4827 13.5 14C13.5 13.5173 13.6844 13.0544 14.0126 12.7131C14.3408 12.3717 14.7859 12.18 15.25 12.18H17C17.1326 12.18 17.2598 12.1252 17.3536 12.0277C17.4473 11.9302 17.5 11.7979 17.5 11.66V6.46H22.5C22.6326 6.46 22.7598 6.40521 22.8536 6.3077C22.9473 6.21018 23 6.07791 23 5.94V3.86C23 3.37731 23.1844 2.91438 23.5126 2.57307C23.8408 2.23175 24.2859 2.04 24.75 2.04C25.2141 2.04 25.6592 2.23175 25.9874 2.57307C26.3156 2.91438 26.5 3.37731 26.5 3.86V5.94C26.5 6.07791 26.5527 6.21018 26.6464 6.3077C26.7402 6.40521 26.8674 6.46 27 6.46H32V21.54Z" stroke="#0023B5" stroke-width="0.4" mask="url(#path-1-outside-1_471_1232)"/>
</svg>
