<svg width="30" height="30" viewBox="0 0 30 30" fill="none" xmlns="http://www.w3.org/2000/svg">
<path d="M27.5064 18.5742C27.9248 18.1072 28.1797 17.4908 28.1797 16.8164C28.1797 15.3627 26.9967 14.1797 25.543 14.1797H20.4254C20.9322 12.6416 21.1484 10.6008 21.1484 9.72598V8.84766C21.1484 6.90937 19.5711 5.33203 17.6328 5.33203H16.7539C16.3508 5.33203 15.9992 5.60625 15.9014 5.99766L15.4227 7.91309C14.7518 10.5955 12.6219 13.5551 10.4176 14.093C10.0314 13.1156 9.07812 12.4219 7.96484 12.4219H2.69141C2.20625 12.4219 1.8125 12.8156 1.8125 13.3008V29.1211C1.8125 29.6063 2.20625 30 2.69141 30H7.96484C9.01309 30 9.92012 29.3854 10.3449 28.4971L13.3648 29.5037C14.3521 29.833 15.3811 30 16.4223 30H23.7852C25.2389 30 26.4219 28.817 26.4219 27.3633C26.4219 27.0205 26.3562 26.6924 26.2367 26.3918C27.3547 26.0865 28.1797 25.0617 28.1797 23.8477C28.1797 23.1732 27.9248 22.5568 27.5064 22.0898C27.9248 21.6229 28.1797 21.0064 28.1797 20.332C28.1797 19.6576 27.9248 19.0412 27.5064 18.5742ZM8.84375 27.3633C8.84375 27.8479 8.44941 28.2422 7.96484 28.2422H3.57031V14.1797H7.96484C8.44941 14.1797 8.84375 14.574 8.84375 15.0586V27.3633ZM23.7852 19.4531H25.543C26.0275 19.4531 26.4219 19.8475 26.4219 20.332C26.4219 20.8166 26.0275 21.2109 25.543 21.2109H23.7852C23.3 21.2109 22.9062 21.6047 22.9062 22.0898C22.9062 22.575 23.3 22.9688 23.7852 22.9688H25.543C26.0275 22.9688 26.4219 23.3631 26.4219 23.8477C26.4219 24.3322 26.0275 24.7266 25.543 24.7266H23.7852C23.3 24.7266 22.9062 25.1203 22.9062 25.6055C22.9062 26.0906 23.3 26.4844 23.7852 26.4844C24.2697 26.4844 24.6641 26.8787 24.6641 27.3633C24.6641 27.8479 24.2697 28.2422 23.7852 28.2422H16.4223C15.5703 28.2422 14.7283 28.1057 13.9203 27.8361L10.6016 26.7299V15.8543C11.9803 15.5924 13.3297 14.7193 14.5479 13.2902C15.7373 11.8945 16.7018 10.0441 17.1277 8.33965L17.44 7.08984H17.6328C18.602 7.08984 19.3906 7.87852 19.3906 8.84766V9.72598C19.3906 10.9061 19.0215 13.1695 18.5492 14.1797H16.7539C16.2688 14.1797 15.875 14.5734 15.875 15.0586C15.875 15.5437 16.2688 15.9375 16.7539 15.9375H25.543C26.0275 15.9375 26.4219 16.3318 26.4219 16.8164C26.4219 17.301 26.0275 17.6953 25.543 17.6953H23.7852C23.3 17.6953 22.9062 18.0891 22.9062 18.5742C22.9062 19.0594 23.3 19.4531 23.7852 19.4531Z" fill="#0023B5"/>
<path d="M6.20703 26.4844C6.69244 26.4844 7.08594 26.0909 7.08594 25.6055C7.08594 25.1201 6.69244 24.7266 6.20703 24.7266C5.72162 24.7266 5.32812 25.1201 5.32812 25.6055C5.32812 26.0909 5.72162 26.4844 6.20703 26.4844Z" fill="#0023B5"/>
<path d="M18.5195 0C18.0341 0 17.6406 0.393516 17.6406 0.878906V2.69531C17.6406 3.1807 18.0341 3.57422 18.5195 3.57422C19.0049 3.57422 19.3984 3.1807 19.3984 2.69531V0.878906C19.3984 0.393516 19.0049 0 18.5195 0Z" fill="#0023B5"/>
<path d="M14.7902 3.87538L13.5473 2.63243C13.2041 2.28919 12.6475 2.28919 12.3043 2.63243C11.9611 2.97567 11.9611 3.53214 12.3043 3.87538L13.5473 5.11833C13.8904 5.46151 14.447 5.46157 14.7902 5.11833C15.1334 4.77509 15.1334 4.21862 14.7902 3.87538Z" fill="#0023B5"/>
<path d="M24.7277 2.63243C24.3845 2.28919 23.828 2.28919 23.4848 2.63243L22.2418 3.87532C21.8986 4.21856 21.8986 4.77503 22.2418 5.11827C22.585 5.46151 23.1415 5.46157 23.4848 5.11833L24.7277 3.87538C25.0709 3.53214 25.0709 2.97567 24.7277 2.63243Z" fill="#0023B5"/>
</svg>
